<?xml version="1.0" standalone="no"?>
<!DOCTYPE svg PUBLIC "-//W3C//DTD SVG 1.1//EN" "http://www.w3.org/Graphics/SVG/1.1/DTD/svg11.dtd" >
<svg xmlns="http://www.w3.org/2000/svg" xmlns:xlink="http://www.w3.org/1999/xlink" version="1.1">
<metadata></metadata>
<defs>
<font id="kleymisskyregular" horiz-adv-x="473" >
<font-face units-per-em="1000" ascent="600" descent="-400" />
<missing-glyph horiz-adv-x="289" />
<glyph unicode="&#xfb01;" horiz-adv-x="458" d="M344 361l4 19q5 31 29 31h19v8q0 31 -18.5 57.5t-52 43t-73.5 16.5q-62 0 -106 -53.5t-44 -129.5q0 -41 10 -89q5 -27 5 -41q0 -9 -1 -13l-2 -10l104 2l-3 -17h-103l-74 -488l-55 -2q24 142 90 490h-53l2 14h52l2 10q1 5 1 7q0 12 -9 39q-19 55 -19 102q0 79 60 135.5 t145 56.5q69 0 117 -38t48 -88v-4v-4v-4l-6 -32q-4 -18 -28 -18h-41zM301 122l8 102l-53 6v5h67q35 1 68 44l2 -1l-49 -155q-9 -54 -9 -72t5.5 -23.5t22.5 -5.5t45.5 12.5t55.5 32.5l3 -3q-37 -27 -75.5 -47.5t-57.5 -20.5t-30.5 12t-11.5 36q0 29 9 78z" />
<glyph unicode="&#xfb02;" horiz-adv-x="458" d="M73 185h-43l2 14h42q3 9 3 18q0 15 -16 46q-27 54 -27 99q0 60 44 103.5t106 43.5q32 0 54.5 -17.5t22.5 -41.5q0 -43 -36 -77l-46 23q52 27 52 53q0 20 -14.5 35t-34.5 15q-39 0 -67 -41.5t-28 -99.5q0 -40 17 -90q11 -32 11 -50q0 -7 -1 -18l134 2l-3 -17h-133 l-74 -488l-55 -2q54 284 90 490zM309 122l44 376l-57 2v5h59q20 0 35.5 5.5t22 11t15.5 16.5l2 -1q-25 -112 -56.5 -281t-31.5 -205t18 -36q29 0 100 52l3 -3q-87 -68 -116 -68q-20 0 -33.5 12.5t-13.5 35.5q0 28 9 78z" />
<glyph unicode="&#xfb03;" horiz-adv-x="668" d="M554 361l4 19q5 31 29 31h19v8q0 31 -18.5 57.5t-52 43t-73.5 16.5q-62 0 -106 -53.5t-44 -129.5q0 -41 10 -89q5 -27 5 -41q0 -8 -1 -13l-2 -10l104 2l-3 -17h-103l-59 -388q-13 -85 -70.5 -141.5t-134.5 -56.5q-25 0 -49 16l8 11q20 -16 43 -16q55 0 96 53t56 133 l71 389h-171l-48 -319q-12 -84 -73 -152l-4 1l86 470h-53l2 14h52l2 10q1 5 1 8q0 12 -9 39q-19 54 -19 101q0 105 92.5 179t222.5 74q110 0 187.5 -54.5t77.5 -132.5v-12l-6 -32q-4 -18 -28 -18h-41zM511 122l8 102l-53 6v5h67q35 1 68 44l2 -1l-49 -155q-9 -54 -9 -72 t5.5 -23.5t22.5 -5.5t45.5 12.5t55.5 32.5l3 -3q-37 -27 -75.5 -47.5t-57.5 -20.5t-30.5 12t-11.5 36q0 29 9 78zM589 505q-33 43 -93.5 69t-133.5 26q-108 0 -184 -72.5t-76 -174.5q0 -41 10 -89q5 -27 5 -41q0 -9 -1 -13l-2 -10h171l1 7q1 7 1 9q0 12 -9 39 q-19 55 -19 102q0 79 60 135.5t145 56.5q75 0 125 -44z" />
<glyph unicode="&#xfb04;" horiz-adv-x="668" d="M519 122l44 376l-57 2v5h59q20 0 35.5 5.5t22 11t15.5 16.5l2 -1q-25 -112 -56.5 -281t-31.5 -205t18 -36q29 0 100 52l3 -3q-87 -68 -116 -68q-20 0 -33.5 12.5t-13.5 35.5q0 28 9 78zM73 185h-53l2 14h52l2 11l1 6q0 12 -9 39q-19 55 -19 102q0 101 74.5 172t180.5 71 q69 0 118 -44t49 -106q0 -43 -36 -77l-46 23q52 27 52 53q0 20 -14.5 35t-34.5 15q-39 0 -67 -41.5t-28 -99.5q0 -40 17 -89q11 -33 11 -51v-8l-1 -10l134 2l-3 -17h-133l-59 -388q-13 -86 -70.5 -142t-134.5 -56q-25 0 -49 16l8 11q20 -16 43 -16q55 0 96 53t56 133l71 389 h-171l-48 -319q-12 -84 -73 -152l-4 1zM444 494q-15 43 -54 69.5t-88 26.5q-83 0 -141.5 -69.5t-58.5 -167.5q0 -41 9 -88q6 -28 6 -42q0 -9 -1 -13l-2 -10h170l2 10q1 4 1 7q0 15 -16 46q-27 54 -27 99q0 60 44 103.5t106 43.5q28 0 50 -15z" />
<glyph horiz-adv-x="0" />
<glyph horiz-adv-x="333" />
<glyph unicode=" "  horiz-adv-x="289" />
<glyph unicode="&#x09;" horiz-adv-x="289" />
<glyph unicode="&#xa0;" horiz-adv-x="289" />
<glyph unicode="!" horiz-adv-x="211" d="M61 0l4 19q5 31 29 31h37l-6 -32q-4 -18 -28 -18h-36zM132 155l-49 -1q15 49 26 139q11 127 14 247l70 1q-25 -124 -44 -247q-15 -100 -17 -139z" />
<glyph unicode="&#x22;" horiz-adv-x="237" d="M198 580h38l-20 -130h-34zM114 580h38l-20 -130h-34z" />
<glyph unicode="#" horiz-adv-x="398" d="M320 457h22l-26 -134h86l-5 -22h-86l-18 -98h91l-5 -22h-91l-24 -122h-22l23 122h-97l-24 -122h-22l23 122h-79l5 22h79l19 98h-85l5 22h84l27 134h22l-26 -134h97zM191 301l-18 -98h97l19 98h-98z" />
<glyph unicode="$" horiz-adv-x="329" d="M119 -20h-14l17 120q-20 5 -41 14q-23 10 -34 10l7 52h8v-2q0 -21 17 -37.5t45 -23.5l23 166q-55 42 -55 89q0 24 21.5 42.5t55.5 25.5l18 124h14l-17 -122q9 1 18 1q10 0 27 -4l18 125h14l-18 -128q16 -4 22 -4q18 0 27.5 8.5t15.5 23.5l4 -2l-29 -74l-3 1 q-23 18 -40 27l-18 -124q34 -23 53 -47t19 -57q0 -29 -28 -52.5t-70 -31.5l-17 -120h-14l17 118q-13 -2 -25 -2q-11 0 -21 2zM202 242q-7 4 -18 12l-24 16l-22 -160q10 -1 20 -1q13 0 26 2zM215 233l-17 -118q17 5 29.5 14t20 21t7.5 24q0 29 -40 59zM210 296l17 123 q-15 6 -26 6q-10 0 -19 -2l-14 -99q9 -7 30 -20q7 -5 12 -8zM155 334l12 85q-38 -13 -38 -42q0 -22 26 -43z" />
<glyph unicode="%" horiz-adv-x="606" d="M494 245q39 0 66.5 -30.5t27.5 -72.5q0 -61 -38 -104t-91 -43q-39 0 -66.5 30.5t-27.5 72.5q0 61 38 104t91 43zM407 106q0 -39 19 -66.5t45 -27.5q31 0 53 36t22 86q0 39 -19 66.5t-46 27.5q-30 0 -52 -36t-22 -86zM203 545q36 0 58 -19q51 -40 108 -40q27 0 57 14.5 t90 52.5l21 -15l-410 -562l-24 19l372 504l31 35l-38 -25q-60 -34 -100 -34q-47 0 -87 25q16 -29 16 -58q0 -61 -38 -104t-91 -43q-38 0 -66 30t-28 73q0 61 37.5 104t91.5 43zM116 406q0 -41 18 -67.5t46 -26.5q21 0 38 16.5t27 44.5t10 61q0 27 -8 48t-22.5 33.5 t-34.5 12.5q-15 0 -28.5 -9.5t-23.5 -26t-16 -39.5t-6 -47z" />
<glyph unicode="&#x26;" horiz-adv-x="552" d="M190 258q-50 92 -50 120q0 33 30.5 57t74.5 24q33 0 56 -20t23 -49q0 -25 -18 -46.5t-75 -70.5l51 -111q10 -20 19 -37l87 87q26 25 70 33h-98q-16 0 -28 -11.5t-15 -29.5l-7 2q1 9 4 18t8 16t11.5 12.5t14.5 8.5t16 3h178l-1 -19h-28q-68 0 -112 -44l-92 -91 q47 -78 96 -78q55 0 114 57l4 -4q-24 -29 -39 -44t-40 -30.5t-48 -15.5q-54 0 -111 91l-26 -26q-66 -65 -136 -65q-40 0 -67 22t-27 54q0 44 50 89zM197 244l-91 -82q-24 -22 -24 -64q0 -22 10 -37.5t26 -23t36 -7.5q51 0 93 41l29 29q-12 21 -35 63zM224 288q56 48 70.5 65 t14.5 37q0 21 -17 35.5t-41 14.5q-23 0 -39 -18t-16 -44q0 -29 28 -90z" />
<glyph unicode="'" horiz-adv-x="153" d="M114 580h38l-20 -130h-34z" />
<glyph unicode="(" horiz-adv-x="251" d="M182 -135l-11 -10q-44 51 -78.5 133t-34.5 187q0 55 9 109t25.5 101.5t38 91t47.5 81.5t53 69.5t56 57.5l9 -10q-52 -47 -89.5 -115t-56 -142t-26 -137t-7.5 -123q0 -105 17.5 -181t47.5 -112z" />
<glyph unicode=")" horiz-adv-x="286" d="M31 -135q30 27 60.5 76t57.5 114.5t44 151.5t17 175q0 105 -17.5 181t-47.5 112l11 10q44 -52 78.5 -134t34.5 -186q0 -89 -24 -175t-62 -150.5t-73.5 -109t-69.5 -75.5z" />
<glyph unicode="*" horiz-adv-x="325" d="M224 392q25 -20 56 -58q14 -17 14 -19q0 -8 -4 -8q-6 0 -10.5 0.5t-8 1t-6.5 1.5t-5 1.5t-4 3t-3 4t-3 5t-2.5 5.5t-3 7.5t-3.5 8.5q-6 13 -11.5 21t-12 14t-7.5 7q-13 -34 -37 -70q-2 -3 -4.5 -7.5t-4 -6t-3 -4t-3.5 -3t-4 -0.5q-3 0 -5 7t-3 13v7q0 4 1 7.5t4 7t4.5 5 t8 7t9.5 7.5q11 9 17 18.5t9 16t3 7.5q-29 1 -78 14q-3 1 -8 2l-7.5 1.5t-5.5 1.5t-4 3t-1 5t12 9.5t19 6.5q6 0 32 -16q16 -9 50 -16q-8 30 -10 79q-2 16 -2 17q0 4 2 7t4 4t3 1q23 -14 23 -31q0 -4 -4.5 -23.5t-4.5 -31.5q0 -18 2 -26q21 16 71 36q4 2 9 4l7.5 3t4.5 1 q9 0 9 -7q0 -9 -3.5 -15t-8.5 -9.5t-12 -6t-12 -3t-11 -1.5h-5q-10 -1 -19.5 -3.5t-14.5 -5t-9.5 -5t-5.5 -2.5z" />
<glyph unicode="+" horiz-adv-x="422" d="M71 249l4 22h157l18 153h22l-26 -153h158l-4 -22h-156l-19 -153h-22l26 153h-158z" />
<glyph unicode="," horiz-adv-x="155" d="M73 0h-42l3 19q5 31 29 31h47l-6 -32q-7 -37 -39 -117h-11q19 78 19 99z" />
<glyph unicode="-" horiz-adv-x="378" d="M349 226h-255l3 18h255z" />
<glyph unicode="." horiz-adv-x="145" d="M30 0l4 19q5 31 29 31h37l-6 -32q-4 -18 -28 -18h-36z" />
<glyph unicode="/" horiz-adv-x="554" d="M58 -120l-32 25q54 72 293 400q181 249 240 327l32 -25q-58 -79 -238 -325q-240 -330 -295 -402z" />
<glyph unicode="0" horiz-adv-x="466" d="M230 260q0 8 6 14t14 6t14 -6t6 -14t-6 -14t-14 -6t-14 6t-6 14zM122 216q0 -84 32.5 -143.5t79.5 -59.5q64 0 109.5 91.5t45.5 220.5q0 84 -33 143t-79 59q-64 0 -109.5 -91t-45.5 -220zM289 545q68 0 116 -68t48 -164q0 -132 -68 -225t-163 -93q-45 0 -82.5 31 t-59.5 84.5t-22 116.5q0 132 68 225t163 93z" />
<glyph unicode="1" horiz-adv-x="205" d="M120 0l-55 -1q13 41 44 264l15 242l-69 -16l-2 7l63 21q63 20 75 42l2 -1l-41 -294q-24 -177 -32 -264z" />
<glyph unicode="2" horiz-adv-x="424" d="M157 283q-34 0 -58.5 31.5t-24.5 77.5q0 63 50 108t120 45q62 0 106.5 -36.5t44.5 -87.5q0 -29 -5.5 -56t-17.5 -51.5t-24 -45t-33.5 -42l-37 -37t-43.5 -36t-44.5 -32t-46.5 -32.5q-40 -27 -66 -47q14 8 44 14.5t47 6.5q34 0 95 -10q53 -9 86 -9q41 0 61 15l2 -5 q-81 -59 -112 -59q-38 0 -102 22q-52 17 -77 17q-41 0 -90 -38l-20 23q35 30 95 78q38 30 59.5 47.5t53 46t49.5 51t36.5 51.5t26.5 58.5t8 61.5q0 47 -31.5 80.5t-76.5 33.5q-52 0 -89 -39t-37 -93q0 -31 23.5 -53t56.5 -22z" />
<glyph unicode="3" horiz-adv-x="422" d="M390 175q0 -81 -92.5 -138t-223.5 -57h-59v23l61 -3q104 0 177 52.5t73 126.5q0 50 -40.5 84.5t-98.5 34.5l-64 -4l1 21h76q50 0 85.5 33.5t35.5 80.5q0 41 -25.5 69.5t-61.5 28.5t-62 -25.5t-32 -64.5l-1 -7h-60q4 25 18.5 47t37 36.5t51.5 23t60 8.5q56 0 96 -32 t40 -76.5t-40.5 -79.5t-102.5 -50q42 -7 76.5 -25.5t54.5 -46.5t20 -60z" />
<glyph unicode="4" horiz-adv-x="429" d="M11 106v29q27 25 71.5 96.5t82 163t37.5 150.5h80q0 -41 -96 -204.5t-135 -206.5h243l8 195v11h77l-3 -19l-33 -187h75l-2 -28h-76q-5 -58 -6 -106l-57 -1q11 59 15 107h-281z" />
<glyph unicode="5" horiz-adv-x="432" d="M37 137h51q-2 -11 -2 -15q0 -45 29.5 -76.5t71.5 -31.5q40 0 74.5 24.5t54 66t19.5 90.5q0 29 -8 53t-23 42t-38 28t-51 10l-125 -4l27 216q51 0 163 -9q61 -5 77 -5q31 0 48 18l15 17l10 -8q-68 -86 -104 -86q-14 0 -69 4q-92 8 -130 8l-19 -134h38.5h48.5h35 q65 0 115.5 -41.5t50.5 -100.5q0 -86 -65 -147t-156 -61q-58 0 -99 35t-41 84q0 8 2 23z" />
<glyph unicode="6" horiz-adv-x="450" d="M382 545l-1 -23l-36 3q-97 0 -166 -89t-69 -215q0 -85 36 -145.5t86 -60.5q55 0 93.5 49t38.5 119q0 52 -26.5 89.5t-64.5 37.5q-43 0 -75 -29.5t-38 -74.5h-19q8 53 49 88t97 35q57 0 97.5 -41.5t40.5 -99.5q0 -80 -60 -136.5t-145 -56.5q-46 0 -85.5 29.5t-62.5 80 t-23 110.5q0 90 40 166t108.5 120t149.5 44h35z" />
<glyph unicode="7" horiz-adv-x="391" d="M443 578q-16 -25 -34 -52q-37 -56 -59 -90t-55.5 -94.5t-52.5 -108.5t-35 -111t-18 -122l-69 -1q0 48 14.5 100.5t33.5 94.5t52.5 94.5t55 82t57.5 77.5q30 38 48 63q-62 0 -154 -11q-99 -11 -171 -11l9 56q29 0 144 -2q128 -3 165 -3q20 0 33 8.5t32 32.5z" />
<glyph unicode="8" horiz-adv-x="479" d="M244 15q64 0 109 42t45 101q0 53 -39.5 90.5t-95.5 37.5q-64 0 -109.5 -44t-45.5 -107q0 -50 40 -85t96 -35zM305 546q55 0 94 -32t39 -76q0 -49 -35 -86.5t-90 -53.5q63 -12 104 -48.5t41 -84.5q0 -70 -67 -120t-161 -50q-49 0 -91 17.5t-66.5 47.5t-24.5 66 q0 61 51.5 107t130.5 63q-42 12 -68 41.5t-26 66.5q0 59 49.5 100.5t119.5 41.5zM281 306q17 0 33.5 6t29.5 17.5t22.5 26.5t15 34t5.5 39q0 40 -28 68.5t-67 28.5q-44 0 -74.5 -33.5t-30.5 -81.5q0 -43 27.5 -74t66.5 -31z" />
<glyph unicode="9" horiz-adv-x="471" d="M77 -20v23l41 -3q73 0 134.5 43t97.5 116.5t36 159.5t-35.5 146t-86.5 60q-34 0 -63.5 -22.5t-46.5 -61t-17 -84.5q0 -52 25.5 -89.5t61.5 -37.5q42 0 74 29.5t39 74.5h19q-8 -53 -49.5 -88t-96.5 -35t-94.5 41.5t-39.5 99.5q0 80 59 136.5t142 56.5q34 0 65.5 -17.5 t54.5 -47t36.5 -70t13.5 -85.5q0 -94 -44 -173.5t-120.5 -125.5t-166.5 -46h-39z" />
<glyph unicode=":" horiz-adv-x="126" d="M59 206l4 19q5 31 29 31h37l-6 -32q-4 -18 -28 -18h-36zM30 0l4 19q5 31 29 31h37l-6 -32q-4 -18 -28 -18h-36z" />
<glyph unicode=";" horiz-adv-x="126" d="M59 206l4 19q5 31 29 31h37l-6 -32q-4 -18 -28 -18h-36zM73 0h-42l3 19q5 31 29 31h47l-6 -32q-7 -37 -39 -117h-11q19 78 19 99z" />
<glyph unicode="&#x3c;" horiz-adv-x="364" d="M354 479l-254 -214l172 -214l-25 -21l-185 230l280 235z" />
<glyph unicode="=" horiz-adv-x="432" d="M402 307l-305 -1l5 22h305zM381 199l-305 -1l5 22h305z" />
<glyph unicode="&#x3e;" horiz-adv-x="364" d="M58 46l254 214l-172 214l25 21l185 -230l-280 -235z" />
<glyph unicode="?" horiz-adv-x="340" d="M123 0l4 19q5 31 29 31h37l-6 -32q-4 -18 -28 -18h-36zM277 180q-9 0 -31 -9q-40 -16 -73 -16q-42 0 -71.5 18.5t-29.5 45.5q0 26 11 47t34 38.5t41 28t51 26.5q26 13 40.5 21t32.5 20.5t25.5 26t7.5 28.5q0 30 -26.5 51t-64.5 21q-46 0 -87.5 -33t-52.5 -96h-7l18 111 q12 0 41 13q52 23 90 23q57 0 97.5 -27t40.5 -66q0 -21 -9.5 -39t-31 -34t-38.5 -26t-47 -26q-29 -14 -44.5 -23t-35 -23t-28 -29t-8.5 -32q0 -9 4.5 -17t11.5 -14t17 -9.5t22 -3.5q95 0 109 102h5z" />
<glyph unicode="@" horiz-adv-x="678" d="M418 151l13 113q-9 0 -28 2q-24 3 -39 3q-38 0 -65 -40.5t-27 -104.5q0 -86 57 -86q30 0 56 34t33 79zM470 152q-2 -19 -2 -48q0 -23 11.5 -38.5t25.5 -15.5q63 0 107 55t44 133q0 90 -67 154t-161 64q-158 0 -254.5 -94.5t-96.5 -249.5q0 -95 69 -162.5t166 -67.5 q80 0 156 41l7 -10q-80 -43 -163 -43q-103 0 -175.5 71t-72.5 172q0 161 100 259t264 98q99 0 169.5 -68t70.5 -164q0 -85 -49.5 -143.5t-121.5 -58.5q-23 0 -38.5 24t-17.5 63q-14 -42 -49 -70t-74 -28q-28 0 -51 15t-35.5 40.5t-12.5 56.5q0 65 42 106t105 41q14 0 45 -6 q22 -4 30 -4q33 0 44.5 7.5t18.5 26.5l3 -1z" />
<glyph unicode="A" horiz-adv-x="501" d="M58 0l-50 -4q21 36 78 167l162 366l16 -4l-144 -324h192l-31 328l-76 4v7l152 1l7 -340h35q18 0 30 15t26 51l6 -1q-16 -52 -29 -79h-68l1 -23l1.5 -45t2 -35t4.5 -29t7.5 -18.5t12 -13t17.5 -3.5q33 0 111 69l4 -4q-31 -28 -50 -44.5t-44.5 -31t-44.5 -14.5 q-30 0 -46 39.5t-25 128.5l-2 24h-199l-11 -23q-43 -98 -45 -164z" />
<glyph unicode="B" horiz-adv-x="480" d="M40 13q56 1 207 1q63 0 108.5 44.5t45.5 110.5q0 48 -34.5 83t-82.5 35h-111l3 15q50 3 122 3q26 0 49.5 16.5t37 45t13.5 61.5q0 40 -29 69.5t-70 29.5q-37 0 -112 2l-1 -3l14 -3l-59 -349q-15 -101 -16 -139l-61 -1q14 40 28 139l31 357l-68 3v7l142 1q87 4 125 4 q54 0 92 -34t38 -79q0 -31 -16.5 -58.5t-42 -45.5t-55.5 -27q54 -11 90 -46t36 -80q0 -51 -31.5 -92t-81 -62t-106.5 -21h-209z" />
<glyph unicode="C" horiz-adv-x="408" d="M301 545q16 0 48 -8q24 -5 32 -5q20 0 30.5 10.5t17.5 30.5l4 -1l-31 -104l-3 1q-8 8 -22 17.5t-30 18.5t-32 15.5t-26 6.5q-27 0 -50 -11t-41 -31t-32 -48t-23 -62t-13.5 -71.5t-4.5 -78.5q0 -96 33 -151.5t91 -55.5q74 0 144 71l4 -4q-29 -29 -47.5 -44.5t-49 -30.5 t-61.5 -15q-76 0 -125 69.5t-49 173.5q0 134 69 220.5t167 86.5z" />
<glyph unicode="D" horiz-adv-x="540" d="M88 13q56 1 152 1q42 0 82.5 24t71.5 63.5t50.5 94.5t19.5 114q0 93 -42.5 155t-108.5 62q-35 0 -107 2l-1 -3l14 -3l-58 -349q-9 -74 -9 -111q0 -14 1 -28l-61 -1q14 39 25 139l25 357l-68 3l-1 7l142 1q23 0 58 2q33 2 53 2q86 0 142 -67.5t56 -167.5 q0 -63 -24.5 -121.5t-64.5 -99t-92 -65t-104 -24.5h-155z" />
<glyph unicode="E" horiz-adv-x="435" d="M20 -3l2 20q15 -3 46 -3q7 35 25 159l31 356l-69 4v7h195l191 9l-20 -120h-7l8 84l-175 13h-67v-2l20 -3l-34 -200h34l100 5l17 75h7q-5 -53 -10 -89q-5 -33 -16 -97h-7l5 84l-78 8h-54l-23 -133q-14 -95 -18 -160h82l179 13l15 84h7l-15 -125l-13 1l-2 4l-172 9 q-129 0 -184 -3z" />
<glyph unicode="F" horiz-adv-x="440" d="M121 0l-57 -1q9 37 27 164l32 366l-68 4v7h225l189 9q-4 -27 -19 -120h-7l8 84l-174 13h-97l-1 -2l20 -3l-43 -260h45l140 9l17 71h7l-10 -89l-16 -97h-7l5 80l-118 12h-66l-14 -83q-14 -99 -18 -164z" />
<glyph unicode="G" d="M393 84l-8 -70v-6q0 -9 2 -22l43 15l4 -13l-44 -16q4 -18 12 -45q24 -83 24 -119q0 -84 -79 -143t-191 -59q-78 0 -134 33.5t-56 80.5q0 35 39.5 74t104 73t122.5 59t119 47q-1 15 -1 25q0 9 1 16l9 71q-2 1 -4 1q-19 -38 -53.5 -64.5t-70.5 -26.5q-75 0 -129.5 68.5 t-54.5 167.5q0 84 33 157t87.5 115t116.5 42q18 0 51 -9q22 -6 29 -6q36 0 51 45l4 -1l-32 -106l-2 1q-24 19 -57 38.5t-57 19.5q-44 0 -82.5 -44t-60 -113.5t-21.5 -145.5q0 -90 36.5 -148t97.5 -58q41 0 75 34.5t39 75.5l2 130h-88v14h81q15 0 34.5 5.5t36 15t22.5 19.5 l2 -1zM353 -42q-53 -20 -105.5 -44.5t-109.5 -57t-92 -68.5t-35 -68q0 -42 43 -71t104 -29q88 0 150 57t62 138q0 31 -10 97q-4 23 -7 46z" />
<glyph unicode="H" horiz-adv-x="549" d="M428 529l-69 4v7l145 1l-63 -300h73l-3 -14h-73l-13 -63q-10 -68 -10 -96q0 -25 7.5 -36.5t24.5 -11.5q33 0 111 69l4 -4q-104 -90 -139 -90q-52 0 -52 97q0 31 5 71l9 64h-234l-11 -63q-15 -103 -19 -164l-60 -1q13 41 30 164l6 64h-58l2 14h57l26 288l-69 4v7l153 1 l-2 -13l-5 -3l-48 -284h234z" />
<glyph unicode="I" horiz-adv-x="206" d="M121 0l-60 -1q13 41 30 164l32 366l-68 4v7l153 1l-3 -13l-5 -3l-60 -361q-16 -108 -19 -164z" />
<glyph unicode="J" horiz-adv-x="227" d="M112 163l32 366l-68 4v7l152 1l-2 -13l-5 -3l-61 -361q-27 -184 -43 -345q-5 -39 -31 -69.5t-66 -47t-86 -16.5q-35 0 -65.5 14t-48 38t-17.5 53q0 56 61 95.5t147 39.5l-4 -32q-39 0 -74 -8t-60.5 -21.5t-40.5 -32.5t-15 -40q0 -38 35 -65t84 -27q46 0 80 34t41 85z" />
<glyph unicode="K" horiz-adv-x="474" d="M121 0l-60 -1q13 41 31 164l32 366l-69 4v7l148 2q-1 -7 -3 -17l-40 -239h21q48 53 142 166q67 81 77 89q16 2 39 2l58 1l-1 -28q-12 1 -22 1q-35 0 -73 -26.5t-87 -76.5q-61 -63 -117 -128q81 -1 115.5 -19t44.5 -77q88 -501 390 -501q85 0 169 61l4 -5 q-92 -75 -198 -75q-89 0 -161 37t-124.5 107t-89 165.5t-58.5 217.5q-4 25 -13 40t-26.5 22.5t-37 10t-54.5 2.5l-18 -108q-16 -111 -19 -164z" />
<glyph unicode="L" horiz-adv-x="429" d="M68 14q8 35 25 159l31 356l-68 4v7l153 1l-3 -13l-5 -3l-59 -351q-17 -113 -18 -160h82l182 33l13 74h7l-15 -135l-13 1l-3 4l-172 9q-129 0 -184 -3l1 20q15 -3 46 -3z" />
<glyph unicode="M" horiz-adv-x="732" d="M103 0l-68 -1q9 30 27.5 109t28.5 155l32 266l-60 4v7h153q1 -32 6 -57l115 -456l202 456q11 26 18 48q-7 1 -21.5 1.5t-22.5 0.5v7l134 1l-38 -372q-9 -86 -9 -103q0 -24 6.5 -35t24.5 -11q32 0 111 69l3 -4q-23 -22 -36 -34t-32.5 -27.5t-37 -22t-33.5 -6.5 q-26 0 -44.5 17t-18.5 49q0 28 14 102l59 366h-9q-9 -33 -17 -49l-262 -498h-31q-58 304 -95 498q-3 14 -3 48h-10l-49 -264q-22 -111 -37 -264z" />
<glyph unicode="N" horiz-adv-x="483" d="M111 0l-51 -4q10 33 43 267l21 266l-69 4v7h153q0 -37 8 -57l179 -456q11 81 24 236l9 266l-61 4v7l112 1l-41 -277q-19 -128 -33 -264l-58 -8l-181 488q-5 14 -5 48h-12l-22 -264q-15 -139 -16 -264z" />
<glyph unicode="O" d="M108 216q0 -84 35.5 -143.5t86.5 -59.5q49 0 86 39t57.5 109.5t20.5 163.5q0 84 -35.5 143t-85.5 59q-75 0 -120 -85.5t-45 -225.5zM44 227q0 143 67 230.5t174 87.5q72 0 122.5 -68t50.5 -164q0 -142 -67 -230t-173 -88q-72 0 -123 68t-51 164z" />
<glyph unicode="P" horiz-adv-x="480" d="M180 155l2 15h95q62 0 105 61.5t43 148.5q0 61 -33.5 104t-80.5 43q-49 0 -131 2l-1 -3l21 -3l-34 -200l-26 -159q-15 -111 -19 -164l-60 -1q11 38 30 164l29 367l-68 3l-1 7l142 1q18 0 61 2q48 2 70 2q66 0 113.5 -50t47.5 -121q0 -59 -28 -109.5t-76.5 -80 t-104.5 -29.5h-96z" />
<glyph unicode="Q" horiz-adv-x="486" d="M496 -154l3 -5q-85 -67 -150 -67q-28 0 -54 7.5t-44.5 17t-39.5 28t-32.5 31t-31.5 34.5q-70 -28 -128 -28q-23 0 -40 8.5t-25.5 23.5t-8.5 35q0 27 23 46.5t57 19.5q19 0 38 -5.5t39.5 -17t35 -22t37.5 -28.5q102 57 163.5 162.5t61.5 232.5q0 91 -35 149.5t-94 58.5 q-68 0 -116 -89.5t-48 -216.5q0 -76 27 -120.5t73 -44.5q50 0 105 60l6 -9q-62 -68 -122 -68q-39 0 -72.5 23.5t-55 68.5t-21.5 102q0 129 69.5 220.5t166.5 91.5q35 0 67 -18.5t56.5 -49.5t39 -75t14.5 -92q0 -121 -75 -232t-193 -167q27 -21 47 -34.5t48.5 -28.5 t58.5 -22.5t63 -7.5q50 0 87 28zM136 -95q-32 36 -57.5 54.5t-55.5 18.5q-27 0 -45.5 -14t-18.5 -34q0 -23 16 -37t42 -14q56 0 119 26z" />
<glyph unicode="R" horiz-adv-x="484" d="M121 0l-60 -1q13 41 30 164l33 367l-69 3v7l142 1q17 1 32 2q57 2 87 2q60 0 107 -45.5t47 -108.5q0 -81 -57.5 -138.5t-138.5 -57.5l-72 2q37 -13 70.5 -32.5t66.5 -49t53 -50t55 -58.5q97 -105 190.5 -161.5t203.5 -56.5q43 0 87.5 12t75.5 34l4 -5q-25 -20 -60 -37.5 t-73 -27.5t-70 -10q-63 0 -122 20t-113.5 59.5t-100 83.5t-97.5 105q-32 38 -51 59t-47 48t-53.5 42.5t-51.5 23.5l2 12l95 2q60 0 102 53.5t42 129.5q0 58 -29.5 96t-76.5 38q-83 0 -116 2l-2 -3l14 -3l-60 -359q-14 -97 -19 -164z" />
<glyph unicode="S" horiz-adv-x="402" d="M380 572l-24 -101l-3 1q-18 18 -50.5 36.5t-56.5 18.5q-56 0 -93 -27t-37 -76q0 -32 26.5 -55t82.5 -53q26 -14 42 -23.5t38.5 -26.5t34.5 -32.5t21.5 -38t9.5 -48.5q0 -63 -57 -107.5t-138 -44.5q-38 0 -98 24q-33 13 -45 13l12 89h7v-5q0 -41 36 -74t90 -33 q59 0 100.5 36.5t41.5 87.5q0 14 -6.5 27.5t-15 23t-24.5 21.5t-28 19t-33 19q-27 15 -41 23.5t-36 25.5t-33.5 32t-20.5 37.5t-9 47.5q0 42 23.5 73.5t62.5 47t89 15.5q19 0 52 -8q20 -5 28 -5q14 0 24 6t14.5 14t9.5 21z" />
<glyph unicode="T" horiz-adv-x="447" d="M232 0l-58 -1q8 37 26 164l32 363h-32l-118 -10l-16 -87h-7l13 122l129 -11h146l132 11l-20 -122h-7l8 86l-114 11h-57q0 -1 -1 -2l20 -3l-66 -357q-11 -79 -11 -132q0 -9 1 -32z" />
<glyph unicode="U" horiz-adv-x="513" d="M53 506q47 39 69 39q24 0 36 -17.5t12 -61.5q0 -35 -8 -89l-34 -270q-1 -9 -1 -18q0 -19 5 -34.5t14.5 -25t21.5 -9.5q52 0 111.5 86.5t80.5 195.5l28 228l-38 3v7h61q30 0 49 4l2 -2l-71 -378q-11 -75 -11 -96q0 -48 33 -48q35 0 113 69l4 -4q-32 -27 -52.5 -43.5 t-47 -31.5t-44.5 -15q-50 0 -50 93q0 32 6 75l7 51q-33 -92 -86 -155.5t-99 -63.5q-41 0 -69 24.5t-28 63.5q0 8 1 17l42 276q15 101 15 112q0 32 -22 32q-17 0 -47 -19z" />
<glyph unicode="V" horiz-adv-x="466" d="M504 578l-140 -285q-26 -54 -52.5 -117t-44 -112t-17.5 -64l-67 -12q-25 49 -53 303q-10 93 -26 158t-29 65q-23 0 -50 -16l-3 5q56 42 79 42q31 0 49.5 -73.5t31.5 -197.5q23 -216 42 -267q29 62 104 291l77 232l-88 3l-1 7h112q23 0 43 10.5t31 28.5z" />
<glyph unicode="W" horiz-adv-x="721" d="M759 578l-144 -315q-39 -82 -71.5 -164t-33.5 -99l-65 -5q-26 51 -60 371l-45 -103q-98 -233 -100 -263l-65 -5q-19 38 -50 275q-8 62 -12.5 94t-11.5 73.5t-13.5 59.5t-12.5 18q-17 0 -49 -19l-3 5q59 44 78 44q10 0 19 -7.5t16.5 -24t13 -33t11 -45.5t9.5 -50.5t8 -58 t6.5 -57.5t6.5 -60q17 -165 30 -203q19 42 85 262l79 262l-130 3l1 7h144q11 0 22.5 2.5t21.5 7.5t19 12.5t14 16.5l2 -1l-64 -146q8 -97 33.5 -237t42.5 -189q22 49 90 262l84 262l-50 3l1 7h64q23 0 44.5 10.5t32.5 28.5z" />
<glyph unicode="X" horiz-adv-x="466" d="M251 267q25 -72 58 -174q8 -24 13.5 -36.5t16.5 -23t26 -10.5q34 0 111 66l3 -4q-32 -29 -50.5 -45t-42.5 -31t-38 -15q-28 0 -36 22q-17 34 -85 221q-50 -63 -96.5 -136.5t-63.5 -107.5l-69 11q15 14 95 114.5t112 149.5l7 10q-91 242 -109 242q-17 0 -49 -19l-3 5 q51 39 69 39q31 0 115 -233l150 218l-69 3l1 7h107q20 0 35.5 9t35.5 32l4 -3z" />
<glyph unicode="Y" horiz-adv-x="468" d="M266 0l-65 -1q13 40 34 189q-22 36 -71 163q-15 40 -23.5 61t-20.5 48.5t-20.5 39.5t-14.5 12q-16 0 -46 -19l-4 5q20 17 48.5 32t40.5 15q10 0 20.5 -14t23 -46t21 -56.5t23.5 -70.5q37 -116 56 -154h2q51 75 89 164l70 162l-70 3l1 7h66q23 0 46 11t34 28l3 -1 l-127 -215q-51 -88 -71 -124.5t-23 -54.5q-19 -132 -22 -184z" />
<glyph unicode="Z" horiz-adv-x="397" d="M393 89l3 -4q-26 -28 -43.5 -44t-39.5 -31t-36 -15q-13 0 -51 6q-66 11 -109 11q-50 0 -80 -17l-23 9q11 12 79.5 112.5t97.5 151.5l132 228q-75 0 -184 -7q-57 -4 -78 -4l19 60q142 -5 269 -5q20 0 33 8.5t32 32.5l4 -3l-205 -315q-62 -97 -129 -212q23 7 65 7 q34 0 94 -5q33 -3 46 -3q64 0 104 39z" />
<glyph unicode="[" horiz-adv-x="300" d="M40 -147q14 73 38.5 218.5t27.5 164.5l10 68q6 44 12 97t9.5 93.5t9 99t9.5 93.5h189l-1 -14l-114 -2l-66 -368l-10 -66l-34 -368l110 -2l-2 -14h-188z" />
<glyph unicode="\" horiz-adv-x="303" d="M66 675q29 -122 135 -566q43 -177 75 -311l-42 -7q-27 116 -150 625q-34 141 -60 252z" />
<glyph unicode="]" horiz-adv-x="300" d="M217 -147h-188l2 14l112 2l68 368l10 66l36 368l-112 2l2 14h189q-6 -31 -22 -117t-26.5 -147.5t-18.5 -118.5l-10 -68q-2 -19 -18 -164.5t-24 -218.5z" />
<glyph unicode="^" horiz-adv-x="254" d="M177 507h20l96 -78l-13 -14l-93 82l-93 -82l-14 14z" />
<glyph unicode="_" horiz-adv-x="474" d="M386 -309l-353 -1l3 23h353z" />
<glyph unicode="`" horiz-adv-x="176" d="M214 405l-10 -7q-29 37 -56.5 56.5t-60.5 24.5l-2 3l40 29q6 4 12 4q9 0 14 -7z" />
<glyph unicode="a" horiz-adv-x="377" d="M224 122l13 113q-9 0 -28 2q-24 3 -39 3q-38 0 -65 -40.5t-27 -104.5q0 -86 57 -86q30 0 56 34t33 79zM276 123q-2 -19 -2 -48q0 -56 25 -56q33 0 90 48l4 -3q-74 -64 -103 -64q-39 0 -43 94q-14 -42 -49 -70t-74 -28q-42 0 -70.5 32.5t-28.5 79.5q0 65 42 106t105 41 q14 0 44 -6q23 -4 31 -4q33 0 44.5 7.5t18.5 26.5l3 -1z" />
<glyph unicode="b" horiz-adv-x="342" d="M23 0l-9 -1q10 25 27 123l43 376l-62 2v5h71q44 0 65 33l2 -1l-55 -309q53 31 96 31q49 0 78.5 -29t29.5 -76q0 -65 -42.5 -111.5t-103.5 -46.5q-34 0 -58 19.5t-31 50.5q-26 0 -51 -66zM102 213l-18 -90q-4 -20 -4 -32q0 -35 24 -59t61 -24t63 41.5t26 100.5 q0 43 -16.5 69t-43.5 26q-39 0 -92 -32z" />
<glyph unicode="c" horiz-adv-x="295" d="M277 67l3 -3q-25 -22 -41 -34t-42.5 -23t-54.5 -11q-51 0 -84.5 29t-33.5 76q0 71 40 114.5t102 43.5q10 0 28 -6q16 -5 25 -5q31 0 44 32l4 -1l-30 -82l-2 1q-50 42 -80 42t-53 -39.5t-23 -95.5q0 -41 21 -66t52 -25q61 0 125 53z" />
<glyph unicode="d" horiz-adv-x="373" d="M237 122l10 92q-45 31 -89 31q-21 0 -38.5 -19.5t-27.5 -53t-10 -73.5t15 -64.5t45 -24.5q33 0 58.5 26t33.5 65zM279 123q-9 -52 -9 -78q0 -30 18 -30q31 0 91 45l3 -3q-39 -31 -63.5 -46t-42.5 -15q-43 0 -45 66q-10 -20 -25.5 -35t-34.5 -23t-40 -8q-43 0 -74.5 33.5 t-31.5 79.5q0 62 40 106t96 44q42 0 87 -32l28 271l-62 2v5h72q36 0 63 33l2 -1z" />
<glyph unicode="e" horiz-adv-x="311" d="M80 100q66 1 106.5 26.5t40.5 64.5q0 22 -17 38t-40 16q-42 0 -66 -38t-24 -102v-5zM81 94q2 -34 26.5 -57t58.5 -23q61 0 125 53l3 -3q-78 -68 -137 -68q-54 0 -93.5 31t-39.5 74q0 65 46 111.5t111 46.5q41 0 71.5 -19t30.5 -45q0 -42 -59.5 -70.5t-142.5 -30.5z" />
<glyph unicode="f" horiz-adv-x="232" d="M73 185h-53l2 14h52l1 4q2 7 2 13q0 14 -9 39q-19 51 -19 102q0 62 48.5 107t116.5 45q23 0 42 -8.5t30 -22.5t11 -31q0 -43 -36 -77l-47 23q15 7 24.5 12.5t18.5 16.5t9 24q0 22 -16 37.5t-38 15.5q-45 0 -77.5 -43t-32.5 -103q0 -41 9 -88q6 -28 6 -42q0 -9 -1 -13 l-2 -10l104 2l-3 -17h-103l-74 -488l-55 -2q68 358 90 490z" />
<glyph unicode="g" horiz-adv-x="329" d="M228 122l-1 123h-73q-28 0 -52.5 -44t-24.5 -96q0 -41 17 -68t44 -27q30 0 56.5 33.5t33.5 78.5zM218 -60q-29 -7 -46 -11t-44.5 -12t-44 -14.5t-38.5 -15.5t-35 -19t-26 -22t-18.5 -26.5t-5.5 -30.5q0 -35 36.5 -63t88.5 -28q37 0 69.5 17.5t52.5 50t20 73.5q0 25 -7 82 q-1 7 -2 19zM260 124l-25 -114q-2 -4 -2 -11q0 -13 9 -41l49 12l2 -11l-48 -12q4 -15 8 -25q22 -65 22 -94q0 -60 -58 -100.5t-133 -40.5q-74 0 -126 32.5t-52 71.5q0 15 7 29.5t22.5 26.5t31.5 22.5t42.5 21t46.5 17.5t53.5 16t52.5 14t54 14q-3 28 -3 43q0 9 1 15l8 58 q-33 -72 -95 -72q-45 0 -74.5 31.5t-29.5 79.5q0 62 43.5 107t98.5 45q14 0 48 -2q27 -1 35 -1q44 0 58 23l2 -1z" />
<glyph unicode="h" horiz-adv-x="365" d="M70 0l-54 -1q10 25 27 123l44 376l-62 2v5h59q20 0 44.5 10.5t31.5 22.5l2 -1l-58 -308l-15 -95q23 61 58.5 96.5t77.5 35.5q32 0 54 -19t22 -48q0 -16 -21 -88q-18 -63 -18 -77.5t14 -14.5q30 0 101 52l2 -3q-87 -68 -116 -68q-20 0 -28.5 10.5t-8.5 34.5t9 77l9 53 q3 15 3 27q0 20 -7 32t-18 12q-53 0 -93 -60t-55 -151q-4 -32 -4 -35z" />
<glyph unicode="i" horiz-adv-x="219" d="M102 357l3 24q3 19 10.5 26.5t21.5 7.5h44l-6 -36q-1 -4 -3.5 -8.5t-6 -7.5t-9 -4.5t-10.5 -1.5h-44zM62 122l8 102l-53 6v5h67q35 1 68 44l2 -1l-49 -155q-9 -54 -9 -72t5.5 -23.5t22.5 -5.5q39 0 101 45l3 -3q-93 -68 -133 -68q-42 0 -42 48q0 28 9 78z" />
<glyph unicode="j" horiz-adv-x="190" d="M107 357l3 24q3 19 10.5 26.5t21.5 7.5h44l-6 -36q-1 -9 -9.5 -15.5t-19.5 -6.5h-44zM-246 -384q-97 0 -156 55.5t-59 126.5q0 47 30 83t89 48l2 -6q-54 -11 -82 -43.5t-28 -75.5q0 -64 56.5 -114.5t149.5 -50.5q108 0 189 72.5t99 183.5l19 115l23 231l-64 3v5h82 q27 0 53 30l2 -1l-70 -379q-23 -124 -117 -203.5t-218 -79.5z" />
<glyph unicode="k" horiz-adv-x="327" d="M71 -3l-53 -1q11 27 28 126l44 376l-64 2v5h72q35 0 64 33l2 -1l-76 -413q-1 -5 -1 -8l149 139q10 1 37 2l52 1l-2 -35h-22q-44 0 -72.5 -10t-59.5 -35l-20 -18h50q34 -93 81.5 -170.5t107 -136t132.5 -91.5t152 -33q77 0 148 50l3 -3q-82 -66 -175 -66q-82 0 -158 33 t-138 92t-111.5 138t-84.5 173h-21q-36 -34 -42 -39l-9 -7q-11 -67 -13 -103z" />
<glyph unicode="l" horiz-adv-x="191" d="M42 122l44 376l-57 2v5h59q20 0 35.5 5.5t22 11t15.5 16.5l2 -1q-25 -112 -56.5 -281t-31.5 -205t18 -36q29 0 100 52l3 -3q-87 -68 -116 -68q-20 0 -33.5 12.5t-13.5 35.5q0 28 9 78z" />
<glyph unicode="m" horiz-adv-x="564" d="M87 1l-53 -2q9 21 26 123v101l-54 2v5h53q18 0 27.5 8.5t18.5 24.5l2 -1l-3 -133q23 62 57.5 99.5t73.5 37.5q33 0 52 -19t19 -50q0 -11 -2 -17l-6 -31q23 54 55 85.5t68 31.5q34 0 55 -19t21 -50q0 -14 -17 -75q-5 -15 -7.5 -24.5t-5.5 -22t-4.5 -21t-1.5 -14.5 q0 -4 2 -7t5 -5t7 -2q37 0 97 44l3 -2q-87 -68 -116 -68q-20 0 -28 10.5t-8 33.5t9 78l8 53q3 15 3 27q0 20 -7 32t-18 12q-42 0 -77.5 -47t-54.5 -121q-8 -60 -8 -78l-59 -1q14 33 27 123l8 53q3 15 3 27q0 20 -7 32t-18 12q-47 0 -85.5 -58.5t-54.5 -144.5q-3 -24 -5 -42z " />
<glyph unicode="n" horiz-adv-x="375" d="M87 0l-54 -4q9 23 27 126v109l-49 2v5h50q27 0 44 34l2 -1l-4 -145q23 62 58 100t75 38q34 0 54.5 -19t20.5 -50q0 -21 -17 -72q-23 -70 -23 -92q0 -16 14 -16q30 0 101 52l2 -3q-28 -22 -45 -34t-37.5 -23t-33.5 -11q-20 0 -28.5 11.5t-8.5 36.5t10 78l10 50q2 11 2 23 q0 21 -6.5 35t-18.5 14q-46 0 -84 -55.5t-55 -137.5q-6 -44 -6 -51z" />
<glyph unicode="o" horiz-adv-x="346" d="M85 180q-10 -24 -10 -75q0 -42 25 -68.5t60 -26.5q39 0 68.5 41.5t29.5 98.5q0 43 -22 71.5t-54 28.5q-46 0 -46 -63q0 -8 -17 -8v14q0 33 20.5 52t53.5 19q52 0 86 -31.5t34 -78.5q0 -65 -49 -111.5t-115 -46.5q-53 0 -89 29.5t-36 75.5q0 44 36 98q6 0 15.5 -6.5 t9.5 -12.5z" />
<glyph unicode="p" horiz-adv-x="357" d="M36 -2l23 226l-56 5v5h68q48 0 56 3q59 22 93 22q48 0 78 -29t30 -76q0 -64 -42.5 -109t-103.5 -45q-58 0 -82 47l14 14q5 -22 24 -36t46 -14q37 0 63 40.5t26 98.5q0 43 -17 69t-44 26q-31 0 -88 -22q-12 -57 -31 -154l-14 -71q-25 -139 -40 -288l-54 -3q8 19 51 291z " />
<glyph unicode="q" horiz-adv-x="359" d="M251 122v116h-10q-11 0 -27 3q-24 4 -46 4q-41 0 -62.5 -37t-21.5 -102q0 -43 15.5 -69.5t46.5 -26.5t64.5 34t40.5 78zM294 123l-22 -133q-7 -43 -19 -152t-14 -140l75 -2v-5h-59q-20 0 -35.5 -5.5t-22 -11t-15.5 -16.5l-2 1q3 23 20.5 148t27.5 182l13 76 q-19 -31 -47 -50t-59 -19q-42 0 -74 31t-32 74q0 69 44.5 113.5t105.5 44.5q14 0 39 -6q19 -4 27 -4q21 0 47.5 9t34.5 21l3 -1z" />
<glyph unicode="r" horiz-adv-x="288" d="M96 0l-54 -1q10 25 27 123l-1 101l-53 2v5h50q31 0 53 49l2 -1l-12 -160v-1v-1q0 -3 1 -6q20 65 53 103.5t66 38.5q23 0 42.5 5t20.5 13h2l-7 -56q-1 -8 -22 -8h-47q-34 0 -69 -47.5t-48 -121.5q-4 -34 -4 -37z" />
<glyph unicode="s" horiz-adv-x="297" d="M64 83q-28 0 -46.5 -17.5t-18.5 -42.5q0 -36 37 -61t90 -25q46 0 78.5 24t32.5 58q0 60 -86 92q-19 7 -29.5 11.5t-26 13t-24 16.5t-15 20t-6.5 26q0 30 28 45.5t72 15.5q12 0 38 -6q19 -5 25 -5q18 0 27.5 8.5t15.5 23.5l4 -2l-29 -74l-3 1q-51 40 -79 40q-16 0 -30 -4 t-23 -13t-9 -20.5t14.5 -19.5t46.5 -20q128 -46 128 -139q0 -44 -44.5 -75t-107.5 -31q-56 0 -95.5 28.5t-39.5 69.5q0 20 10 36.5t27.5 26t38.5 9.5q32 0 55 -21t23 -50q0 -12 -8.5 -20.5t-20.5 -8.5q7 14 7 31q0 16 -7.5 29.5t-21 21.5t-28.5 8z" />
<glyph unicode="t" horiz-adv-x="251" d="M81 234h-67l2 14h67l24 106q6 32 73 32h14h2q-14 -22 -57 -138h96l-3 -14h-97q-22 -64 -30 -111q-7 -40 -7 -60q0 -46 32 -46q36 0 104 51l3 -3q-83 -67 -124 -67q-26 0 -42 16t-16 43q0 19 7 65z" />
<glyph unicode="u" horiz-adv-x="389" d="M280 123q-10 -55 -10 -74q0 -34 23 -34q27 0 98 52l3 -3q-30 -22 -46.5 -33.5t-38.5 -23t-35 -11.5q-43 0 -43 66q0 24 5 57q-22 -57 -54 -90t-70 -33q-28 0 -51.5 17t-23.5 45q0 12 16 71q21 72 21 91q0 20 -19 20q-14 0 -39 -14l-4 4q42 29 62 29q19 0 27.5 -11 t8.5 -40q0 -26 -8 -75l-9 -53q-3 -17 -3 -33q0 -32 26 -32q47 0 83 55.5t51 140.5l6 37l-35 2v5h55q27 0 44 2l2 -1z" />
<glyph unicode="v" horiz-adv-x="347" d="M349 284l-111 -162q-63 -93 -65 -122q-24 0 -69 -9q-18 30 -36 148q-4 27 -6.5 40.5t-6.5 31t-8 25t-9 7.5q-17 0 -43 -14l-3 4q45 29 66 29q11 0 20 -11.5t16 -37t11 -44.5t11 -55q14 -84 25 -109q11 9 32 45.5t35 75.5l39 108l-41 2l-1 6h47q62 0 93 43z" />
<glyph unicode="w" horiz-adv-x="550" d="M553 284l-107 -162q-31 -46 -43.5 -65.5t-20 -34t-7.5 -22.5q-40 0 -60 -4q-23 37 -48 164l-28 -38q-69 -95 -71 -122q-24 0 -60 -4q-18 30 -38 142q-4 26 -7 40t-7 31t-8.5 24.5t-9.5 7.5q-16 0 -44 -15l-2 4q47 30 61 30q10 0 18 -6t14 -19t11 -25t9.5 -34.5t7 -35.5 t6.5 -39q13 -74 22 -98q52 72 69 123l39 116l-83 2l-1 5h106q19 0 40 11t31 25l4 -1l-55 -84q6 -42 24.5 -105t32.5 -92q52 72 69 123l39 116l-43 2l-1 5h66q20 0 40.5 11t30.5 25z" />
<glyph unicode="x" horiz-adv-x="354" d="M74 -5l-72 8q88 68 139 123l6 6q-65 113 -84 113q-20 0 -44 -12l-2 4q44 29 62 29q15 0 39 -31.5t49 -80.5l81 88l-45 2l-1 5h79q33 0 72 37l4 -2l-175 -161q14 -28 24 -55q10 -24 21.5 -36t31.5 -12q32 0 96 47l3 -3q-85 -68 -112 -68q-25 0 -33 16q-21 40 -50 93 q-75 -72 -89 -110z" />
<glyph unicode="y" horiz-adv-x="369" d="M286 109q-6 -36 -14 -135q-9 -114 -17 -158q-12 -75 -60 -133.5t-120 -90.5t-156 -32q-109 0 -186 58t-77 140q0 68 60.5 115.5t145.5 47.5l-6 -37q-78 0 -132.5 -36.5t-54.5 -87.5q0 -76 74 -130t179 -54q107 0 187 67.5t97 172.5q6 34 15 124q13 125 23 172 q-26 -53 -62 -84.5t-73 -31.5q-26 0 -50.5 17.5t-24.5 43.5q0 35 23 94q19 51 19 68q0 9 -5.5 15t-12.5 6q-12 0 -42 -14l-3 4q42 29 57 29q17 0 29.5 -9.5t12.5 -23.5q0 -18 -11 -69q-14 -66 -14 -94q0 -46 25 -46q45 0 86 47t61 119q6 32 11 59l-34 2v5h54q26 0 52 30 l2 -1z" />
<glyph unicode="z" horiz-adv-x="297" d="M-1 3q82 68 127 123l70 87q-125 0 -170 1l18 45q25 0 81 -6q62 -7 94 -7q29 0 66 40l4 -2l-145 -162q-49 -56 -75 -84q28 4 48 4q9 0 30 -2q29 -3 44 -3q56 0 93 30l3 -3q-78 -68 -107 -68q-14 0 -42 5q-31 6 -51 6q-45 0 -67 -11z" />
<glyph unicode="{" horiz-adv-x="277" d="M208 -133l-4 -14q-12 2 -25 4.5t-34.5 10t-37.5 17t-28 26.5t-12 38q0 8 1 16q4 30 29 126t31 135v2q0 14 -37 36l-8 6l10 6q45 24 47 37q6 39 8 135.5t6 126.5t25.5 53t52.5 34.5t51 17t39 7.5v-14q-14 -2 -28 -7t-30.5 -15t-28 -29.5t-15.5 -46.5q-4 -25 -9.5 -74.5 t-11.5 -102.5t-11 -85q-2 -16 -57 -34q-15 -5 -22 -9q5 -3 18 -8q49 -17 49 -32v-3q-6 -40 -22 -136.5t-20 -125.5q-1 -8 -1 -17q0 -15 3.5 -27t10 -20.5t14 -14.5t16.5 -10t16.5 -6t14.5 -3z" />
<glyph unicode="|" horiz-adv-x="172" d="M147 696l38 -4l-123 -869l-38 4z" />
<glyph unicode="}" horiz-adv-x="272" d="M26 -133q14 2 28 7t30.5 15t28 29.5t15.5 46.5q4 29 15 125.5t17 136.5q2 17 59 35q14 5 20 8q-6 4 -20 9q-47 17 -47 31v3q6 40 22 136.5t20 125.5q1 9 1 17q0 17 -5.5 31t-13 22.5t-18.5 15t-20 9t-18 3.5l4 14q12 -2 25 -4.5t34.5 -10t37.5 -17t28 -26.5t12 -38 q0 -8 -1 -16q-4 -30 -29 -126.5t-31 -135.5v-1q0 -12 37 -36l8 -6l-10 -6q-45 -24 -47 -37q-6 -39 -8 -135.5t-6 -126.5t-25.5 -53t-52.5 -34.5t-51 -16.5t-39 -8v14z" />
<glyph unicode="~" horiz-adv-x="382" d="M360 266q-40 -78 -83 -78q-21 0 -80 18q-58 17 -79 17q-37 0 -59 -41l-13 7q40 78 83 78q17 0 79 -17q63 -18 80 -18q37 0 59 41z" />
<glyph unicode="&#xa1;" horiz-adv-x="260" d="M227 340l-4 -19q-5 -31 -29 -31h-37l6 32q4 18 28 18h36zM156 185l49 1q-15 -49 -26 -139q-11 -127 -14 -247l-70 -1q25 124 44 247q15 100 17 139z" />
<glyph unicode="&#xa2;" horiz-adv-x="330" d="M230 560l14 -1l-23 -161q9 -2 18 -5q16 -5 25 -5q31 0 44 32l4 -1l-30 -82l-2 1q-38 32 -62 39l-34 -242q7 -1 13 -1q61 0 125 53l3 -3q-25 -22 -41 -34t-42.5 -23t-54.5 -11h-6l-19 -136h-14l20 137q-48 7 -81 39t-33 75q0 68 45.5 117t107.5 51zM171 139l33 241h-4 q-36 0 -63.5 -43t-27.5 -102q0 -22 8 -41.5t22 -33.5t32 -21z" />
<glyph unicode="&#xa3;" horiz-adv-x="432" d="M205 248q-4 -50 -41.5 -109.5t-79.5 -104.5q39 27 82 27q36 0 107 -9q63 -8 101 -8q40 0 61 18l2 -5q-68 -62 -115 -62q-36 0 -100 20q-55 17 -82 17q-51 0 -92 -36l-12 13q30 30 68 103.5t42 135.5h-67l4 18h63q-1 19 -6 56q-9 60 -9 100q0 51 48 87t116 36 q46 0 78.5 -27.5t32.5 -66.5q0 -51 -27 -89l-34 26q38 34 38 63q0 33 -26 56.5t-62 23.5q-43 0 -73.5 -32t-30.5 -77q0 -35 8 -86q7 -44 7 -70h142l-4 -18h-139z" />
<glyph unicode="&#xa4;" horiz-adv-x="334" d="M126 241q0 -28 19 -47t48 -19q34 0 59 25.5t25 58.5q0 28 -18.5 47t-47.5 19q-34 0 -59.5 -25.5t-25.5 -58.5zM99 353l14 13l30 -35q32 24 70 24t65 -25l38 36l11 -13l-39 -34q19 -24 19 -58q0 -45 -32 -78l31 -32l-14 -13l-29 34q-32 -27 -72 -27t-67 26l-35 -33l-11 13 l36 31q-18 25 -18 57q0 46 35 81z" />
<glyph unicode="&#xa5;" horiz-adv-x="508" d="M509 578l-127 -215q-81 -140 -91 -169h121l-3 -18h-123q-2 -21 -5 -42h119l-3 -18h-118q-7 -59 -13 -116l-65 -1q9 28 23 117h-122l3 18h122q3 20 6 42h-119l3 18h115q-22 39 -68 157q-30 80 -49 120.5t-30 40.5q-16 0 -46 -19l-4 5q20 17 48.5 32t40.5 15q10 0 20.5 -14 t23 -45.5t21.5 -57t23 -70.5q37 -115 56 -154h2q53 80 89 164l70 162l-70 3l1 7h66q23 0 46 11t34 28z" />
<glyph unicode="&#xa6;" horiz-adv-x="172" d="M70 151l38 -4l-46 -324l-38 4zM147 696l38 -4l-44 -309l-38 4z" />
<glyph unicode="&#xa7;" horiz-adv-x="442" d="M185 357q-37 51 -37 107q0 50 44 85.5t107 35.5q18 0 45.5 -5t32.5 -5q19 0 24.5 6.5t7.5 24.5h4v-125h-5v15q-2 27 -36 51t-73 24q-38 0 -64.5 -31.5t-26.5 -75.5q0 -23 7.5 -43.5t25 -41.5t30.5 -33.5t39 -35.5q29 -26 44 -40.5t35 -39.5t29 -51t9 -56q0 -43 -37 -77 t-95 -48q37 -50 37 -107q0 -50 -44 -85.5t-107 -35.5q-18 0 -45.5 5t-32.5 5q-19 0 -24.5 -6t-7.5 -25h-4v125h5v-15q2 -26 36 -50.5t73 -24.5q38 0 64.5 31.5t26.5 75.5q0 23 -7.5 44t-25 41.5t-30.5 33.5t-39 36q-29 25 -44 39.5t-35 39.5t-29 51.5t-9 55.5t17.5 54.5 t47 43.5t67.5 27zM284 12q37 13 60 43t23 68q0 18 -6 36t-14 31t-24 30t-26.5 27t-30.5 28q-49 43 -70 68q-37 -13 -60 -43t-23 -68q0 -22 7.5 -42.5t24.5 -41t30.5 -33t38.5 -35.5q49 -43 70 -68z" />
<glyph unicode="&#xa8;" horiz-adv-x="199" d="M201 426l3 22q5 35 28 35h40l-6 -37q-1 -8 -8.5 -14t-18.5 -6h-38zM54 426l3 22q5 35 28 35h40l-6 -37q-1 -8 -8.5 -14t-18.5 -6h-38z" />
<glyph unicode="&#xa9;" horiz-adv-x="687" d="M474 115l3 -5q-33 -29 -62 -44.5t-62 -15.5q-46 0 -76 26.5t-30 68.5q0 63 36 102.5t92 39.5q9 0 25 -5q14 -5 22 -5q28 0 40 29l4 -2l-27 -73l-2 1q-46 38 -72 38q-27 0 -48 -35.5t-21 -86.5q0 -36 19 -59t47 -23q53 0 112 49zM397 459q-63 0 -122.5 -26.5t-103 -70 t-69.5 -102t-26 -120.5q0 -110 74.5 -184.5t186.5 -74.5q84 0 158.5 44.5t118.5 118.5t44 156q0 110 -74.5 184.5t-186.5 74.5zM399 473q116 0 194.5 -78.5t78.5 -192.5q0 -87 -46.5 -164.5t-124.5 -124t-166 -46.5q-116 0 -194.5 78.5t-78.5 192.5q0 87 46.5 164.5 t124.5 124t166 46.5z" />
<glyph unicode="&#xaa;" horiz-adv-x="355" d="M211 377l10 85q-7 0 -21 2q-18 2 -29 2q-29 0 -49 -30.5t-20 -78.5q0 -64 43 -64q14 0 28.5 11.5t24.5 31t13 41.5zM250 378q-1 -14 -1 -36q0 -42 19 -42q24 0 67 36l3 -2q-55 -48 -77 -48q-29 0 -32 70q-11 -31 -37.5 -52t-55.5 -21q-31 0 -52.5 24.5t-21.5 59.5 q0 49 31.5 79.5t78.5 30.5q11 0 34 -4q17 -3 23 -3q24 0 33 5.5t14 19.5l2 -1z" />
<glyph unicode="&#xab;" horiz-adv-x="260" d="M230 266l10 -12q-14 -11 -29.5 -29t-26 -32.5t-13.5 -20.5q2 -12 16 -39t29 -43l-13 -12l-22 25q-42 52 -42 68q0 14 63 71zM149 266l9 -12q-19 -16 -41 -43.5t-27 -38.5q2 -12 16 -39t29 -43l-13 -12l-22 25q-42 52 -42 68q0 14 63 71z" />
<glyph unicode="&#xac;" horiz-adv-x="492" d="M439 244l-3 -18l-17 -154h-18l25 154h-314l2 18h325z" />
<glyph unicode="&#xad;" horiz-adv-x="378" d="M349 226h-255l3 18h255z" />
<glyph unicode="&#xae;" horiz-adv-x="687" d="M397 459q-63 0 -122.5 -26.5t-103 -70t-69.5 -102t-26 -120.5q0 -110 74.5 -184.5t186.5 -74.5q84 0 158.5 44.5t118.5 118.5t44 156q0 110 -74.5 184.5t-186.5 74.5zM399 473q116 0 194.5 -78.5t78.5 -192.5q0 -87 -46.5 -164.5t-124.5 -124t-166 -46.5 q-116 0 -194.5 78.5t-78.5 192.5q0 87 46.5 164.5t124.5 124t166 46.5zM277 16l-37 -1q7 25 18 100l20 223l-32 2v8l76 1q34 0 41 1q24 1 38 1q38 0 66 -29t28 -69q0 -30 -14.5 -56.5t-39.5 -43t-55 -19.5q4 -30 15 -53.5t27.5 -38t35.5 -14.5q33 0 70 37l3 -5 q-49 -48 -89 -48q-36 0 -62.5 35t-33.5 87l-38 2l1 9l55 1q37 0 62.5 31.5t25.5 77.5q0 33 -19 57t-46 24q-39 0 -77 1l-1 -2l9 -1l-37 -219q-8 -56 -10 -99z" />
<glyph unicode="&#xaf;" horiz-adv-x="250" d="M85 462h209l-2 -18h-209z" />
<glyph unicode="&#xb0;" horiz-adv-x="261" d="M176 537q-20 0 -34 -19.5t-14 -46.5q0 -24 15 -41t36 -17q20 0 34 19.5t14 46.5q0 24 -15 41t-36 17zM189 555q30 0 51 -20t21 -49q0 -37 -28 -64t-67 -27q-30 0 -51 20t-21 49q0 37 28 64t67 27z" />
<glyph unicode="&#xb1;" horiz-adv-x="492" d="M392 6h-291l3 18h291zM121 266l2 18h158l17 154h18l-25 -154h157l-2 -18h-158l-17 -154h-18l25 154h-157z" />
<glyph unicode="&#xb2;" horiz-adv-x="351" d="M156 403q-13 0 -25 6.5t-20.5 17.5t-13.5 26.5t-5 31.5q0 48 38 81.5t91 33.5q47 0 81.5 -27.5t34.5 -66.5q0 -34 -12 -66t-28 -55t-45 -49t-50.5 -41t-56.5 -39l-50 -33q11 6 33.5 11t35.5 5q31 0 71 -7q43 -7 64 -7q30 0 46 12l3 -6q-59 -43 -85 -43q-29 0 -76 16 q-37 12 -59 12q-30 0 -67 -29l-16 19q26 23 71 58q34 27 53.5 43t46 42t40 47t24 49t10.5 57q0 35 -23 59.5t-56 24.5q-39 0 -66.5 -28.5t-27.5 -69.5q0 -24 17.5 -40.5t42.5 -16.5z" />
<glyph unicode="&#xb3;" horiz-adv-x="318" d="M323 323q0 -61 -69.5 -103.5t-167.5 -42.5h-44v19l44 -2q51 0 94 17.5t67.5 48t24.5 66.5q0 37 -30 62.5t-73 25.5l-48 -3l1 18h57q37 0 63.5 24.5t26.5 60.5q0 29 -18 50t-45 21t-46.5 -18.5t-23.5 -47.5l-1 -5h-46q6 38 42 62.5t84 24.5q21 0 40 -6.5t33 -17.5t22 -26 t8 -32q0 -34 -30.5 -59.5t-77.5 -37.5q48 -8 80.5 -35.5t32.5 -63.5z" />
<glyph unicode="&#xb4;" horiz-adv-x="152" d="M79 408l72 101q5 7 14 7q6 0 12 -4l37 -34l-2 -2q-73 -10 -124 -76z" />
<glyph unicode="&#xb5;" horiz-adv-x="389" d="M12 230q42 29 62 29q12 0 20 -4.5t12 -15.5t4 -31q0 -27 -8 -75l-9 -53q-4 -20 -4 -33q0 -32 27 -32q47 0 83 55.5t51 140.5l6 37l-35 2v5h55q27 0 44 2l2 -1l-42 -133q-10 -55 -10 -74q0 -34 23 -34q27 0 98 52l3 -3q-93 -68 -120 -68q-43 0 -43 66q0 24 5 57 q-22 -57 -54 -90t-70 -33q-18 0 -36.5 8t-28.5 23q-14 -65 -14 -95q0 -32 4 -44q13 0 25.5 -11.5t12.5 -27.5q0 -21 -9 -42t-18 -21q-12 0 -22 33t-10 76q0 74 21 171q3 15 16 63q21 72 21 91q0 20 -19 20q-14 0 -39 -14z" />
<glyph unicode="&#xb6;" horiz-adv-x="527" d="M320 566q-70 0 -115 -64.5t-45 -157.5q0 -80 36 -131t99 -51l39 280q4 22 4 54q0 34 -18 70zM698 682l-2 -14q-38 0 -67.5 -9.5t-49.5 -23t-34.5 -41.5t-22 -49.5t-13.5 -64t-8 -68.5t-5 -79q-6 -110 -15 -169l-55 -394h-60l55 393q7 45 12 132q3 50 5.5 76t7.5 66t14 70 t22 57q-31 2 -83 2h-63q18 -19 35.5 -57t17.5 -69q0 -33 -5 -71l-85 -599h-60l53 378q-77 0 -132.5 57.5t-55.5 140.5q0 95 67 164.5t153 69.5h166q60 102 208 102z" />
<glyph unicode="&#xb7;" horiz-adv-x="126" d="M78 270q0 9 7 16t16 7t16 -7t7 -16t-7 -16t-16 -7t-16 7t-7 16z" />
<glyph unicode="&#xb8;" horiz-adv-x="306" d="M112 0l-16 -58q23 9 42 9q32 0 54.5 -19.5t22.5 -46.5q0 -48 -48.5 -83t-120.5 -44l-2 14q56 8 93.5 38t37.5 70q0 24 -11.5 40.5t-27.5 16.5q-26 0 -45 -13q-8 2 -13 6l21 74z" />
<glyph unicode="&#xb9;" horiz-adv-x="168" d="M123 185l-45 -1q9 31 33 198l11 180l-51 -12l-2 7l47 15q52 17 60 32l2 -1l-30 -220q-19 -138 -25 -198z" />
<glyph unicode="&#xba;" horiz-adv-x="267" d="M105 422q-8 -19 -8 -57q0 -31 19 -51t45 -20q30 0 52 31t22 74q0 32 -16.5 53.5t-40.5 21.5q-35 0 -35 -47q0 -2 -4.5 -4t-8.5 -2v10q0 25 15.5 39t40.5 14q39 0 64.5 -23.5t25.5 -58.5q0 -49 -36.5 -83.5t-86.5 -34.5q-40 0 -67 21.5t-27 56.5q0 33 27 74q5 0 12 -5 t7 -9z" />
<glyph unicode="&#xbb;" horiz-adv-x="260" d="M185 266l20 -24q45 -55 45 -69l-0.5 -0.5l-0.5 -0.5q-2 -14 -63 -69l-28 -25l-9 12q19 15 39 41t29 41q-5 15 -17.5 41t-27.5 41zM105 266l20 -24q44 -54 44 -69v-1q-2 -14 -63 -69l-28 -25l-9 12q19 15 39 41t29 41q-5 15 -17.5 41t-27.5 41z" />
<glyph unicode="&#xbf;" horiz-adv-x="382" d="M247 340l-4 -19q-5 -31 -29 -31h-37l6 32q4 18 28 18h36zM93 160q9 0 31 9q40 16 73 16q42 0 71.5 -18.5t29.5 -45.5q0 -26 -11 -47t-34 -38.5t-41 -28t-51 -26.5q-26 -13 -40.5 -21t-32.5 -20.5t-25.5 -26t-7.5 -28.5q0 -30 26.5 -51t64.5 -21q46 0 87.5 33t52.5 96h7 l-18 -111q-12 0 -41 -13q-52 -23 -90 -23q-57 0 -97.5 27t-40.5 66q0 21 9.5 39t31 34t38.5 26t47 26q29 14 44.5 23t35 23t28 29t8.5 32q0 18 -16 31t-39 13q-95 0 -109 -102h-5z" />
<glyph unicode="&#xc0;" horiz-adv-x="501" d="M322 590l-10 -7q-19 25 -36.5 41t-37.5 26.5t-43 13.5l-2 3l40 29q6 4 12 4q9 0 14 -7zM58 0l-50 -4q21 36 78 167l162 366l16 -4l-144 -324h192l-31 328l-76 4v7l152 1l7 -340h35q18 0 30 15t26 51l6 -1q-16 -52 -29 -79h-68l1 -23l1.5 -45t2 -35t4.5 -29t7.5 -18.5 t12 -13t17.5 -3.5q33 0 111 69l4 -4q-18 -16 -29.5 -26.5t-28.5 -24t-29 -21t-26 -13t-26 -5.5q-30 0 -46 39.5t-25 128.5l-2 24h-199l-11 -23q-43 -98 -45 -164z" />
<glyph unicode="&#xc1;" horiz-adv-x="501" d="M58 0l-50 -4q21 36 78 167l162 366l16 -4l-144 -324h192l-31 328l-76 4v7l152 1l7 -340h35q18 0 30 15t26 51l6 -1q-16 -52 -29 -79h-68l1 -23l1.5 -45t2 -35t4.5 -29t7.5 -18.5t12 -13t17.5 -3.5q33 0 111 69l4 -4q-18 -16 -29.5 -26.5t-28.5 -24t-29 -21t-26 -13 t-26 -5.5q-30 0 -46 39.5t-25 128.5l-2 24h-199l-11 -23q-43 -98 -45 -164zM258 593l72 101q5 7 14 7q6 0 12 -4l37 -34l-2 -2q-73 -10 -124 -76z" />
<glyph unicode="&#xc2;" horiz-adv-x="501" d="M289 692h20l96 -78l-13 -14l-93 82l-93 -82l-14 14zM58 0l-50 -4q21 36 78 167l162 366l16 -4l-144 -324h192l-31 328l-76 4v7l152 1l7 -340h35q18 0 30 15t26 51l6 -1q-16 -52 -29 -79h-68l1 -23l1.5 -45t2 -35t4.5 -29t7.5 -18.5t12 -13t17.5 -3.5q33 0 111 69l4 -4 q-18 -16 -29.5 -26.5t-28.5 -24t-29 -21t-26 -13t-26 -5.5q-30 0 -46 39.5t-25 128.5l-2 24h-199l-11 -23q-43 -98 -45 -164z" />
<glyph unicode="&#xc3;" horiz-adv-x="501" d="M395 674l12 -6q-34 -66 -73 -66q-21 0 -55 22q-28 19 -44 19q-25 0 -60 -49l-12 8q14 18 22.5 28.5t22.5 20.5t27 10q23 0 55 -22q28 -20 46 -20q30 0 59 55zM58 0l-50 -4q21 36 78 167l162 366l16 -4l-144 -324h192l-31 328l-76 4v7l152 1l7 -340h35q18 0 30 15t26 51 l6 -1q-16 -52 -29 -79h-68l1 -23l1.5 -45t2 -35t4.5 -29t7.5 -18.5t12 -13t17.5 -3.5q33 0 111 69l4 -4q-18 -16 -29.5 -26.5t-28.5 -24t-29 -21t-26 -13t-26 -5.5q-30 0 -46 39.5t-25 128.5l-2 24h-199l-11 -23q-43 -98 -45 -164z" />
<glyph unicode="&#xc4;" horiz-adv-x="501" d="M324 611l3 22q5 35 28 35h40l-6 -37q-1 -8 -8.5 -14t-18.5 -6h-38zM177 611l3 22q5 35 28 35h40l-6 -37q-1 -8 -8.5 -14t-18.5 -6h-38zM58 0l-50 -4q21 36 78 167l162 366l16 -4l-144 -324h192l-31 328l-76 4v7l152 1l7 -340h35q18 0 30 15t26 51l6 -1q-16 -52 -29 -79 h-68l1 -23l1.5 -45t2 -35t4.5 -29t7.5 -18.5t12 -13t17.5 -3.5q33 0 111 69l4 -4q-18 -16 -29.5 -26.5t-28.5 -24t-29 -21t-26 -13t-26 -5.5q-30 0 -46 39.5t-25 128.5l-2 24h-199l-11 -23q-43 -98 -45 -164z" />
<glyph unicode="&#xc5;" horiz-adv-x="501" d="M244 633q0 -18 12.5 -30t30.5 -12q23 0 39.5 17t16.5 39q0 18 -12 30t-30 12q-23 0 -40 -17t-17 -39zM303 703q24 0 39 -15.5t15 -38.5q0 -28 -21.5 -50t-50.5 -22q-24 0 -39.5 15.5t-15.5 38.5q0 13 6 26.5t15.5 23.5t23 16t28.5 6zM58 0l-50 -4q21 36 78 167l162 366 l16 -4l-144 -324h192l-31 328l-76 4v7l152 1l7 -340h35q18 0 30 15t26 51l6 -1q-16 -52 -29 -79h-68l1 -23l1.5 -45t2 -35t4.5 -29t7.5 -18.5t12 -13t17.5 -3.5q33 0 111 69l4 -4q-18 -16 -29.5 -26.5t-28.5 -24t-29 -21t-26 -13t-26 -5.5q-30 0 -46 39.5t-25 128.5l-2 24 h-199l-11 -23q-43 -98 -45 -164z" />
<glyph unicode="&#xc6;" horiz-adv-x="695" d="M280 -3l2 20q15 -3 46 -3q7 35 25 159q1 9 2.5 27t2.5 27h-226l-29 -63q-43 -98 -45 -164l-50 -4q21 36 78 167l162 366l16 -4l-126 -284h221l24 284l-185 8l1 7h291l191 9l-20 -120h-7l8 84l-175 13h-47v-2l20 -3l-34 -200h14l100 5l17 75h7q-5 -56 -10 -89 q-5 -36 -16 -97h-7l5 84l-78 8h-34l-23 -133q-14 -95 -18 -160h62l179 13l15 84h7l-15 -125l-13 1l-2 4l-172 9q-109 0 -164 -3z" />
<glyph unicode="&#xc7;" horiz-adv-x="408" d="M301 545q16 0 48 -7q24 -6 32 -6q14 0 24 6t14.5 14t9.5 21l4 -1l-31 -104l-3 1q-8 8 -22 17.5t-30 18.5t-32 15.5t-26 6.5q-27 0 -50 -11t-41 -31t-32 -48t-23 -62t-13.5 -71.5t-4.5 -78.5q0 -96 33 -151.5t91 -55.5q74 0 144 71l4 -4q-29 -29 -47.5 -44.5t-49 -30.5 t-61.5 -15h-8l-14 -53q21 9 42 9q32 0 54.5 -19t22.5 -47q0 -47 -48.5 -82t-120.5 -45l-2 14q56 8 93.5 38t37.5 70q0 24 -11.5 40.5t-27.5 16.5q-26 0 -45 -13q-8 2 -13 6l19 67q-68 10 -110.5 77.5t-42.5 163.5q0 134 69 220.5t167 86.5z" />
<glyph unicode="&#xc8;" horiz-adv-x="435" d="M292 590l-10 -7q-29 37 -56.5 56.5t-60.5 24.5l-2 3l40 29q6 4 12 4q9 0 14 -7zM20 -3l2 20q15 -3 46 -3q7 35 25 159l31 356l-69 4v7h195l191 9l-20 -120h-7l8 84l-175 13h-67v-2l20 -3l-34 -200h34l100 5l17 75h7q-5 -53 -10 -89q-5 -33 -16 -97h-7l5 84l-78 8h-54 l-23 -133q-14 -95 -18 -160h82l179 13l15 84h7l-15 -125l-13 1l-2 4l-172 9q-129 0 -184 -3z" />
<glyph unicode="&#xc9;" horiz-adv-x="435" d="M228 593l72 101q5 7 14 7q6 0 12 -4l37 -34l-2 -2q-73 -10 -124 -76zM20 -3l2 20q15 -3 46 -3q7 35 25 159l31 356l-69 4v7h195l191 9l-20 -120h-7l8 84l-175 13h-67v-2l20 -3l-34 -200h34l100 5l17 75h7q-5 -53 -10 -89q-5 -33 -16 -97h-7l5 84l-78 8h-54l-23 -133 q-14 -95 -18 -160h82l179 13l15 84h7l-15 -125l-13 1l-2 4l-172 9q-129 0 -184 -3z" />
<glyph unicode="&#xca;" horiz-adv-x="435" d="M259 692h20l96 -78l-13 -14l-93 82l-93 -82l-14 14zM20 -3l2 20q15 -3 46 -3q7 35 25 159l31 356l-69 4v7h195l191 9l-20 -120h-7l8 84l-175 13h-67v-2l20 -3l-34 -200h34l100 5l17 75h7q-5 -53 -10 -89q-5 -33 -16 -97h-7l5 84l-78 8h-54l-23 -133q-14 -95 -18 -160h82 l179 13l15 84h7l-15 -125l-13 1l-2 4l-172 9q-129 0 -184 -3z" />
<glyph unicode="&#xcb;" horiz-adv-x="435" d="M301 611l3 22q5 35 28 35h40l-6 -37q-1 -8 -8.5 -14t-18.5 -6h-38zM154 611l3 22q5 35 28 35h40l-6 -37q-1 -8 -8.5 -14t-18.5 -6h-38zM20 -3l2 20q15 -3 46 -3q7 35 25 159l31 356l-69 4v7h195l191 9l-20 -120h-7l8 84l-175 13h-67v-2l20 -3l-34 -200h34l100 5l17 75h7 q-5 -53 -10 -89q-5 -33 -16 -97h-7l5 84l-78 8h-54l-23 -133q-14 -95 -18 -160h82l179 13l15 84h7l-15 -125l-13 1l-2 4l-172 9q-129 0 -184 -3z" />
<glyph unicode="&#xcc;" horiz-adv-x="206" d="M192 590l-10 -7q-29 37 -56.5 56.5t-60.5 24.5l-2 3l40 29q6 4 12 4q9 0 14 -7zM121 0l-60 -1q13 41 30 164l32 366l-68 4v7l153 1l-3 -13l-5 -3l-60 -361q-16 -108 -19 -164z" />
<glyph unicode="&#xcd;" horiz-adv-x="206" d="M128 593l72 101q5 7 14 7q6 0 12 -4l37 -34l-2 -2q-73 -10 -124 -76zM121 0l-60 -1q13 41 30 164l32 366l-68 4v7l153 1l-3 -13l-5 -3l-60 -361q-16 -108 -19 -164z" />
<glyph unicode="&#xce;" horiz-adv-x="206" d="M139 692h20l96 -78l-13 -14l-93 82l-93 -82l-14 14zM121 0l-60 -1q13 41 30 164l32 366l-68 4v7l153 1l-3 -13l-5 -3l-60 -361q-16 -108 -19 -164z" />
<glyph unicode="&#xcf;" horiz-adv-x="206" d="M201 611l3 22q5 35 28 35h40l-6 -37q-1 -8 -8.5 -14t-18.5 -6h-38zM54 611l3 22q5 35 28 35h40l-6 -37q-1 -8 -8.5 -14t-18.5 -6h-38zM121 0l-60 -1q13 41 30 164l32 366l-68 4v7l153 1l-3 -13l-5 -3l-60 -361q-16 -108 -19 -164z" />
<glyph unicode="&#xd0;" horiz-adv-x="550" d="M98 13q56 1 152 1q42 0 82.5 24t71.5 63.5t50.5 94.5t19.5 114q0 93 -42.5 155t-108.5 62q-35 0 -107 2l-1 -3l14 -3l-41 -244h114l-3 -18h-113l-15 -87q-9 -74 -9 -111q0 -14 1 -28l-61 -1q14 39 25 139l7 88h-90l3 18h88l17 251l-68 3l-1 7l142 1q21 0 57 2t54 2 q86 0 142 -67.5t56 -167.5q0 -63 -24.5 -121.5t-64.5 -99t-92 -65t-104 -24.5h-155z" />
<glyph unicode="&#xd1;" horiz-adv-x="483" d="M427 674l12 -6q-34 -66 -73 -66q-21 0 -55 22q-28 19 -44 19q-25 0 -60 -49l-12 8q14 18 22.5 28.5t22.5 20.5t27 10q23 0 55 -22q28 -20 46 -20q30 0 59 55zM111 0l-51 -4q10 33 43 267l21 266l-69 4v7h153q0 -37 8 -57l179 -456q11 81 24 236l9 266l-61 4v7l112 1 l-41 -277q-19 -128 -33 -264l-58 -8l-181 488q-5 14 -5 48h-12l-22 -264q-15 -139 -16 -264z" />
<glyph unicode="&#xd2;" d="M322 590l-10 -7q-29 37 -56.5 56.5t-60.5 24.5l-2 3l40 29q5 4 12 4q9 0 14 -7zM108 216q0 -84 35.5 -143.5t86.5 -59.5q49 0 86 39t57.5 109.5t20.5 163.5q0 84 -35.5 143t-85.5 59q-75 0 -120 -85.5t-45 -225.5zM44 227q0 143 67 230.5t174 87.5q72 0 122.5 -68 t50.5 -164q0 -142 -67 -230t-173 -88q-72 0 -123 68t-51 164z" />
<glyph unicode="&#xd3;" d="M256 593l71 101q6 7 15 7q6 0 12 -4l37 -34l-3 -2q-72 -10 -124 -76zM108 216q0 -84 35.5 -143.5t86.5 -59.5q49 0 86 39t57.5 109.5t20.5 163.5q0 84 -35.5 143t-85.5 59q-75 0 -120 -85.5t-45 -225.5zM44 227q0 143 67 230.5t174 87.5q72 0 122.5 -68t50.5 -164 q0 -142 -67 -230t-173 -88q-72 0 -123 68t-51 164z" />
<glyph unicode="&#xd4;" d="M295 692h19l97 -78l-13 -14l-93 82h-1l-93 -82l-13 14zM108 216q0 -84 35.5 -143.5t86.5 -59.5q49 0 86 39t57.5 109.5t20.5 163.5q0 84 -35.5 143t-85.5 59q-75 0 -120 -85.5t-45 -225.5zM44 227q0 143 67 230.5t174 87.5q72 0 122.5 -68t50.5 -164q0 -142 -67 -230 t-173 -88q-72 0 -123 68t-51 164z" />
<glyph unicode="&#xd5;" d="M408 674l12 -6q-34 -66 -73 -66q-22 0 -55 22q-28 19 -44 19q-25 0 -61 -49l-11 8q13 18 22 28.5t23 20.5t27 10q23 0 55 -22q28 -20 46 -20q30 0 59 55zM108 216q0 -84 35.5 -143.5t86.5 -59.5q49 0 86 39t57.5 109.5t20.5 163.5q0 84 -35.5 143t-85.5 59 q-75 0 -120 -85.5t-45 -225.5zM44 227q0 143 67 230.5t174 87.5q72 0 122.5 -68t50.5 -164q0 -142 -67 -230t-173 -88q-72 0 -123 68t-51 164z" />
<glyph unicode="&#xd6;" d="M337 611l3 22q5 35 28 35h40l-6 -37q-1 -8 -9 -14t-18 -6h-38zM190 611l3 22q5 35 28 35h40l-6 -37q-1 -8 -9 -14t-18 -6h-38zM108 216q0 -84 35.5 -143.5t86.5 -59.5q49 0 86 39t57.5 109.5t20.5 163.5q0 84 -35.5 143t-85.5 59q-75 0 -120 -85.5t-45 -225.5zM44 227 q0 143 67 230.5t174 87.5q72 0 122.5 -68t50.5 -164q0 -142 -67 -230t-173 -88q-72 0 -123 68t-51 164z" />
<glyph unicode="&#xd7;" horiz-adv-x="365" d="M325 382l11 -13l-125 -109l102 -109l-14 -12l-96 114l-121 -114l-11 12l125 109l-102 109l14 13l96 -115z" />
<glyph unicode="&#xd8;" d="M57 -34l-12 8l55 83q-56 69 -56 170q0 143 67 230.5t174 87.5q60 0 107 -49l52 78l12 -8l-54 -82q56 -69 56 -171q0 -142 -67 -230t-173 -88q-61 0 -108 50zM136 85q18 -34 42 -53t52 -19q49 0 86 39t57.5 109.5t20.5 163.5q0 63 -21 115zM129 101l236 355q-36 71 -92 71 q-75 0 -120 -85.5t-45 -225.5q0 -65 21 -115z" />
<glyph unicode="&#xd9;" horiz-adv-x="513" d="M312 590l-10 -7q-29 37 -56.5 56.5t-60.5 24.5l-2 3l40 29q6 4 12 4q9 0 14 -7zM53 506q47 39 69 39q24 0 36 -17.5t12 -61.5q0 -35 -8 -89l-34 -270q-1 -9 -1 -18q0 -29 11.5 -49t29.5 -20q52 0 111.5 86.5t80.5 195.5l28 228l-38 3v7h61q30 0 49 4l2 -2l-71 -378 q-11 -75 -11 -96q0 -48 33 -48q35 0 113 69l4 -4q-23 -20 -39 -33t-36.5 -28t-37.5 -22t-31 -7q-50 0 -50 93q0 32 6 75l7 51q-33 -92 -86 -155.5t-99 -63.5q-41 0 -69 24.5t-28 63.5q0 8 1 17l42 276q15 101 15 112q0 32 -22 32q-17 0 -47 -19z" />
<glyph unicode="&#xda;" horiz-adv-x="513" d="M53 506q47 39 69 39q24 0 36 -17.5t12 -61.5q0 -35 -8 -89l-34 -270q-1 -9 -1 -18q0 -29 11.5 -49t29.5 -20q52 0 111.5 86.5t80.5 195.5l28 228l-38 3v7h61q30 0 49 4l2 -2l-71 -378q-11 -75 -11 -96q0 -48 33 -48q35 0 113 69l4 -4q-23 -20 -39 -33t-36.5 -28 t-37.5 -22t-31 -7q-50 0 -50 93q0 32 6 75l7 51q-33 -92 -86 -155.5t-99 -63.5q-41 0 -69 24.5t-28 63.5q0 8 1 17l42 276q15 101 15 112q0 32 -22 32q-17 0 -47 -19zM248 593l72 101q5 7 14 7q6 0 12 -4l37 -34l-2 -2q-73 -10 -124 -76z" />
<glyph unicode="&#xdb;" horiz-adv-x="513" d="M284 692h20l96 -78l-13 -14l-93 82l-93 -82l-14 14zM53 506q47 39 69 39q24 0 36 -17.5t12 -61.5q0 -35 -8 -89l-34 -270q-1 -9 -1 -18q0 -29 11.5 -49t29.5 -20q52 0 111.5 86.5t80.5 195.5l28 228l-38 3v7h61q30 0 49 4l2 -2l-71 -378q-11 -75 -11 -96q0 -48 33 -48 q35 0 113 69l4 -4q-23 -20 -39 -33t-36.5 -28t-37.5 -22t-31 -7q-50 0 -50 93q0 32 6 75l7 51q-33 -92 -86 -155.5t-99 -63.5q-41 0 -69 24.5t-28 63.5q0 8 1 17l42 276q15 101 15 112q0 32 -22 32q-17 0 -47 -19z" />
<glyph unicode="&#xdc;" horiz-adv-x="513" d="M326 611l3 22q5 35 28 35h40l-6 -37q-1 -8 -8.5 -14t-18.5 -6h-38zM179 611l3 22q5 35 28 35h40l-6 -37q-1 -8 -8.5 -14t-18.5 -6h-38zM53 506q47 39 69 39q24 0 36 -17.5t12 -61.5q0 -35 -8 -89l-34 -270q-1 -9 -1 -18q0 -29 11.5 -49t29.5 -20q52 0 111.5 86.5 t80.5 195.5l28 228l-38 3v7h61q30 0 49 4l2 -2l-71 -378q-11 -75 -11 -96q0 -48 33 -48q35 0 113 69l4 -4q-23 -20 -39 -33t-36.5 -28t-37.5 -22t-31 -7q-50 0 -50 93q0 32 6 75l7 51q-33 -92 -86 -155.5t-99 -63.5q-41 0 -69 24.5t-28 63.5q0 8 1 17l42 276q15 101 15 112 q0 32 -22 32q-17 0 -47 -19z" />
<glyph unicode="&#xdd;" horiz-adv-x="468" d="M266 0l-65 -1q13 40 34 189q-22 36 -71 163q-15 40 -23.5 61.5t-20.5 48.5t-20.5 39t-14.5 12q-16 0 -46 -19l-4 5q20 17 48.5 32t40.5 15q10 0 20.5 -14t23 -46t21 -56.5t23.5 -70.5q37 -116 56 -154h2q51 75 89 164l70 162l-70 3l1 7h66q15 0 30.5 5t29 14t20.5 20 l3 -1l-127 -215q-27 -47 -39 -68.5t-26.5 -47.5t-20.5 -39.5t-8 -23.5q-9 -61 -15 -112.5t-7 -71.5zM238 593l72 101q5 7 14 7q6 0 12 -4l37 -34l-2 -2q-73 -10 -124 -76z" />
<glyph unicode="&#xde;" horiz-adv-x="450" d="M121 0l-60 -1q11 38 30 164l29 367l-68 3l-1 7l149 1v-18l-9 -52q35 4 103 4q66 0 113.5 -47t47.5 -114q0 -51 -28 -94.5t-76.5 -69t-104.5 -25.5h-66l2 15h65q62 0 105 52.5t43 127.5q0 57 -33.5 97t-80.5 40q-24 0 -92 1l-23 -135l-26 -159q-15 -111 -19 -164z" />
<glyph unicode="&#xdf;" horiz-adv-x="422" d="M215 307q50 0 86 30.5t36 72.5q0 34 -27 57.5t-65 23.5q-31 0 -57.5 -21t-42 -57t-15.5 -78q0 -67 -7 -113q-28 -202 -49 -383q-6 -52 -54.5 -87.5t-116.5 -35.5l2 14q51 0 76 29t32 80l51 346h-38l1 15h39l3 22q2 12 2 34v36q-1 26 -1 44q0 71 52 122t125 51 q31 0 57.5 -13.5t42 -36t15.5 -49.5q0 -50 -36.5 -87t-92.5 -45q0 -18 6.5 -33t20 -27.5t24.5 -20t32 -19.5q19 -11 30 -18.5t25 -19.5t20 -26.5t6 -32.5q0 -35 -42.5 -60.5t-103.5 -25.5q-31 0 -72 24q-26 14 -39 14l9 73h7v-6q0 -34 32 -62.5t65 -28.5q34 0 58 20t24 49 q0 26 -13 43.5t-40 39.5q-13 10 -20.5 16.5t-17.5 18t-15.5 22t-9.5 26t-4 33.5v30z" />
<glyph unicode="&#xe0;" horiz-adv-x="377" d="M222 335l-10 -7q-29 37 -56.5 56.5t-60.5 24.5l-2 3l40 29q6 4 12 4q9 0 14 -7zM224 122l13 113q-9 0 -28 2q-24 3 -39 3q-38 0 -65 -40.5t-27 -104.5q0 -86 57 -86q30 0 56 34t33 79zM276 123q-2 -19 -2 -48q0 -56 25 -56q33 0 90 48l4 -3q-74 -64 -103 -64 q-39 0 -43 94q-14 -42 -49 -70t-74 -28q-42 0 -70.5 32.5t-28.5 79.5q0 65 42 106t105 41q14 0 44 -6q23 -4 31 -4q33 0 44.5 7.5t18.5 26.5l3 -1z" />
<glyph unicode="&#xe1;" horiz-adv-x="377" d="M224 122l13 113q-9 0 -28 2q-24 3 -39 3q-38 0 -65 -40.5t-27 -104.5q0 -86 57 -86q30 0 56 34t33 79zM276 123q-2 -19 -2 -48q0 -56 25 -56q33 0 90 48l4 -3q-74 -64 -103 -64q-39 0 -43 94q-14 -42 -49 -70t-74 -28q-42 0 -70.5 32.5t-28.5 79.5q0 65 42 106t105 41 q14 0 44 -6q23 -4 31 -4q33 0 44.5 7.5t18.5 26.5l3 -1zM166 338l72 101q5 7 14 7q6 0 12 -4l37 -34l-2 -2q-73 -10 -124 -76z" />
<glyph unicode="&#xe2;" horiz-adv-x="377" d="M197 437h20l96 -78l-13 -14l-93 82l-93 -82l-14 14zM224 122l13 113q-9 0 -28 2q-24 3 -39 3q-38 0 -65 -40.5t-27 -104.5q0 -86 57 -86q30 0 56 34t33 79zM276 123q-2 -19 -2 -48q0 -56 25 -56q33 0 90 48l4 -3q-74 -64 -103 -64q-39 0 -43 94q-14 -42 -49 -70t-74 -28 q-42 0 -70.5 32.5t-28.5 79.5q0 65 42 106t105 41q14 0 44 -6q23 -4 31 -4q33 0 44.5 7.5t18.5 26.5l3 -1z" />
<glyph unicode="&#xe3;" horiz-adv-x="377" d="M310 419l12 -6q-34 -66 -73 -66q-21 0 -55 22q-28 19 -44 19q-25 0 -60 -49l-12 8q14 18 22.5 28.5t22.5 20.5t27 10q23 0 55 -22q28 -20 46 -20q30 0 59 55zM224 122l13 113q-9 0 -28 2q-24 3 -39 3q-38 0 -65 -40.5t-27 -104.5q0 -86 57 -86q30 0 56 34t33 79zM276 123 q-2 -19 -2 -48q0 -56 25 -56q33 0 90 48l4 -3q-74 -64 -103 -64q-39 0 -43 94q-14 -42 -49 -70t-74 -28q-42 0 -70.5 32.5t-28.5 79.5q0 65 42 106t105 41q14 0 44 -6q23 -4 31 -4q33 0 44.5 7.5t18.5 26.5l3 -1z" />
<glyph unicode="&#xe4;" horiz-adv-x="377" d="M239 356l3 22q5 35 28 35h40l-6 -37q-1 -8 -8.5 -14t-18.5 -6h-38zM92 356l3 22q5 35 28 35h40l-6 -37q-1 -8 -8.5 -14t-18.5 -6h-38zM224 122l13 113q-9 0 -28 2q-24 3 -39 3q-38 0 -65 -40.5t-27 -104.5q0 -86 57 -86q30 0 56 34t33 79zM276 123q-2 -19 -2 -48 q0 -56 25 -56q33 0 90 48l4 -3q-74 -64 -103 -64q-39 0 -43 94q-14 -42 -49 -70t-74 -28q-42 0 -70.5 32.5t-28.5 79.5q0 65 42 106t105 41q14 0 44 -6q23 -4 31 -4q33 0 44.5 7.5t18.5 26.5l3 -1z" />
<glyph unicode="&#xe5;" horiz-adv-x="377" d="M152 378q0 -18 12.5 -30t30.5 -12q23 0 39.5 17t16.5 39q0 18 -12 30t-30 12q-23 0 -40 -17t-17 -39zM211 448q24 0 39 -15.5t15 -38.5q0 -28 -21.5 -50t-50.5 -22q-24 0 -39.5 15.5t-15.5 38.5q0 28 22 50t51 22zM224 122l13 113q-9 0 -28 2q-24 3 -39 3 q-38 0 -65 -40.5t-27 -104.5q0 -86 57 -86q30 0 56 34t33 79zM276 123q-2 -19 -2 -48q0 -56 25 -56q33 0 90 48l4 -3q-74 -64 -103 -64q-39 0 -43 94q-14 -42 -49 -70t-74 -28q-42 0 -70.5 32.5t-28.5 79.5q0 65 42 106t105 41q14 0 44 -6q23 -4 31 -4q33 0 44.5 7.5 t18.5 26.5l3 -1z" />
<glyph unicode="&#xe6;" horiz-adv-x="506" d="M224 122l13 113q-9 0 -28 2q-24 3 -39 3q-38 0 -65 -40.5t-27 -104.5q0 -86 57 -86q30 0 56 34t33 79zM276 94q2 -34 26.5 -57t58.5 -23q61 0 125 53l3 -3q-25 -22 -43.5 -35t-43.5 -23t-50 -10q-42 0 -73.5 20t-43.5 52q-19 -32 -49 -52t-62 -20q-28 0 -51 15 t-35.5 40.5t-12.5 56.5q0 65 42 106t105 41q14 0 41 -6q17 -4 24 -4q14 0 24 15t14 38h3q-4 -46 -6 -83q42 44 104 44q41 0 71.5 -19t30.5 -45q0 -42 -59.5 -70.5t-142.5 -30.5zM275 100q66 1 106.5 26.5t40.5 64.5q0 22 -17 38t-40 16q-42 0 -66 -38t-24 -102v-5z" />
<glyph unicode="&#xe7;" horiz-adv-x="295" d="M277 67l3 -3q-25 -22 -41 -34t-42.5 -23t-54.5 -11q-14 0 -26 2l-16 -56q22 9 42 9q32 0 54.5 -19t22.5 -47q0 -47 -48.5 -82.5t-120.5 -44.5l-2 14q56 8 93.5 38t37.5 70q0 24 -11.5 40.5t-27.5 16.5q-25 0 -45 -13q-8 2 -13 6l20 71q-35 10 -56.5 36.5t-21.5 63.5 q0 71 40 114.5t102 43.5q10 0 28 -6q16 -5 25 -5q31 0 44 32l4 -1l-30 -82l-2 1q-50 42 -80 42t-53 -39.5t-23 -95.5q0 -41 21 -66t52 -25q61 0 125 53z" />
<glyph unicode="&#xe8;" horiz-adv-x="311" d="M228 335l-10 -7q-29 37 -56.5 56.5t-60.5 24.5l-2 3l40 29q6 4 12 4q9 0 14 -7zM80 100q66 1 106.5 26.5t40.5 64.5q0 22 -17 38t-40 16q-42 0 -66 -38t-24 -102v-5zM81 94q2 -34 26.5 -57t58.5 -23q61 0 125 53l3 -3q-78 -68 -137 -68q-54 0 -93.5 31t-39.5 74 q0 65 46 111.5t111 46.5q41 0 71.5 -19t30.5 -45q0 -42 -59.5 -70.5t-142.5 -30.5z" />
<glyph unicode="&#xe9;" horiz-adv-x="311" d="M164 338l72 101q5 7 14 7q6 0 12 -4l37 -34l-2 -2q-73 -10 -124 -76zM80 100q66 1 106.5 26.5t40.5 64.5q0 22 -17 38t-40 16q-42 0 -66 -38t-24 -102v-5zM81 94q2 -34 26.5 -57t58.5 -23q61 0 125 53l3 -3q-78 -68 -137 -68q-54 0 -93.5 31t-39.5 74q0 65 46 111.5 t111 46.5q41 0 71.5 -19t30.5 -45q0 -42 -59.5 -70.5t-142.5 -30.5z" />
<glyph unicode="&#xea;" horiz-adv-x="311" d="M195 437h20l96 -78l-13 -14l-93 82l-93 -82l-14 14zM80 100q66 1 106.5 26.5t40.5 64.5q0 22 -17 38t-40 16q-42 0 -66 -38t-24 -102v-5zM81 94q2 -34 26.5 -57t58.5 -23q61 0 125 53l3 -3q-78 -68 -137 -68q-54 0 -93.5 31t-39.5 74q0 65 46 111.5t111 46.5 q41 0 71.5 -19t30.5 -45q0 -42 -59.5 -70.5t-142.5 -30.5z" />
<glyph unicode="&#xeb;" horiz-adv-x="311" d="M237 356l3 22q5 35 28 35h40l-6 -37q-1 -8 -8.5 -14t-18.5 -6h-38zM90 356l3 22q5 35 28 35h40l-6 -37q-1 -8 -8.5 -14t-18.5 -6h-38zM80 100q66 1 106.5 26.5t40.5 64.5q0 22 -17 38t-40 16q-42 0 -66 -38t-24 -102v-5zM81 94q2 -34 26.5 -57t58.5 -23q61 0 125 53l3 -3 q-78 -68 -137 -68q-54 0 -93.5 31t-39.5 74q0 65 46 111.5t111 46.5q41 0 71.5 -19t30.5 -45q0 -42 -59.5 -70.5t-142.5 -30.5z" />
<glyph unicode="&#xec;" horiz-adv-x="219" d="M167 335l-10 -7q-29 37 -56.5 56.5t-60.5 24.5l-2 3l40 29q6 4 12 4q9 0 14 -7zM62 122l8 102l-53 6v5h67q35 1 68 44l2 -1l-49 -155q-9 -54 -9 -72t5.5 -23.5t22.5 -5.5q39 0 101 45l3 -3q-93 -68 -133 -68q-42 0 -42 48q0 28 9 78z" />
<glyph unicode="&#xed;" horiz-adv-x="219" d="M103 338l72 101q5 7 14 7q6 0 12 -4l37 -34l-2 -2q-73 -10 -124 -76zM62 122l8 102l-53 6v5h67q35 1 68 44l2 -1l-49 -155q-9 -54 -9 -72t5.5 -23.5t22.5 -5.5q39 0 101 45l3 -3q-93 -68 -133 -68q-42 0 -42 48q0 28 9 78z" />
<glyph unicode="&#xee;" horiz-adv-x="219" d="M134 437h20l96 -78l-13 -14l-93 82l-93 -82l-14 14zM62 122l8 102l-53 6v5h67q35 1 68 44l2 -1l-49 -155q-9 -54 -9 -72t5.5 -23.5t22.5 -5.5q39 0 101 45l3 -3q-93 -68 -133 -68q-42 0 -42 48q0 28 9 78z" />
<glyph unicode="&#xef;" horiz-adv-x="219" d="M176 356l3 22q5 35 28 35h40l-6 -37q-1 -8 -8.5 -14t-18.5 -6h-38zM29 356l3 22q5 35 28 35h40l-6 -37q-1 -8 -8.5 -14t-18.5 -6h-38zM62 122l8 102l-53 6v5h67q35 1 68 44l2 -1l-49 -155q-9 -54 -9 -72t5.5 -23.5t22.5 -5.5q39 0 101 45l3 -3q-93 -68 -133 -68 q-42 0 -42 48q0 28 9 78z" />
<glyph unicode="&#xf0;" horiz-adv-x="361" d="M136 -4q-45 0 -77 34.5t-32 82.5q0 60 44.5 103t101.5 43q41 0 71 -29t35 -73q10 46 10 99q0 112 -48 183l-75 -46l-8 12l74 46q-33 41 -74 41l-27 -3l5 17h24q54 0 100 -37l69 44l10 -16l-66 -39q36 -35 56.5 -87t20.5 -112q0 -118 -59 -190.5t-155 -72.5zM265 110 q3 15 3 31q0 43 -28.5 73.5t-69.5 30.5q-21 0 -41 -19t-32.5 -52t-12.5 -71q0 -39 18.5 -66t44.5 -27q39 0 69.5 26t48.5 74z" />
<glyph unicode="&#xf1;" horiz-adv-x="375" d="M325 419l12 -6q-34 -66 -73 -66q-21 0 -55 22q-28 19 -44 19q-25 0 -60 -49l-12 8q14 18 22.5 28.5t22.5 20.5t27 10q23 0 55 -22q28 -20 46 -20q30 0 59 55zM87 0l-54 -4q9 23 27 126v109l-49 2v5h50q27 0 44 34l2 -1l-4 -145q23 62 58 100t75 38q34 0 54.5 -19 t20.5 -50q0 -21 -17 -72q-23 -70 -23 -92q0 -16 14 -16q30 0 101 52l2 -3q-88 -68 -116 -68q-13 0 -21.5 5t-12 15.5t-3.5 27.5q0 25 10 78l10 50q2 11 2 23q0 21 -6.5 35t-18.5 14q-46 0 -84 -55.5t-55 -137.5q-6 -44 -6 -51z" />
<glyph unicode="&#xf2;" horiz-adv-x="346" d="M238 335l-10 -7q-29 37 -56.5 56.5t-60.5 24.5l-2 3l40 29q6 4 12 4q9 0 14 -7zM85 180q-10 -24 -10 -75q0 -42 25 -68.5t60 -26.5q39 0 68.5 41.5t29.5 98.5q0 43 -22 71.5t-54 28.5q-46 0 -46 -63q0 -8 -17 -8v14q0 33 20.5 52t53.5 19q52 0 86 -31.5t34 -78.5 q0 -65 -49 -111.5t-115 -46.5q-53 0 -89 29.5t-36 75.5q0 44 36 98q6 0 15.5 -6.5t9.5 -12.5z" />
<glyph unicode="&#xf3;" horiz-adv-x="346" d="M174 338l72 101q5 7 14 7q6 0 12 -4l37 -34l-2 -2q-73 -10 -124 -76zM85 180q-10 -24 -10 -75q0 -42 25 -68.5t60 -26.5q39 0 68.5 41.5t29.5 98.5q0 43 -22 71.5t-54 28.5q-46 0 -46 -63q0 -8 -17 -8v14q0 33 20.5 52t53.5 19q52 0 86 -31.5t34 -78.5q0 -65 -49 -111.5 t-115 -46.5q-53 0 -89 29.5t-36 75.5q0 44 36 98q6 0 15.5 -6.5t9.5 -12.5z" />
<glyph unicode="&#xf4;" horiz-adv-x="346" d="M205 437h20l96 -78l-13 -14l-93 82l-93 -82l-14 14zM85 180q-10 -24 -10 -75q0 -42 25 -68.5t60 -26.5q39 0 68.5 41.5t29.5 98.5q0 43 -22 71.5t-54 28.5q-46 0 -46 -63q0 -8 -17 -8v14q0 33 20.5 52t53.5 19q52 0 86 -31.5t34 -78.5q0 -65 -49 -111.5t-115 -46.5 q-53 0 -89 29.5t-36 75.5q0 44 36 98q6 0 15.5 -6.5t9.5 -12.5z" />
<glyph unicode="&#xf5;" horiz-adv-x="346" d="M318 419l12 -6q-34 -66 -73 -66q-21 0 -55 22q-28 19 -44 19q-25 0 -60 -49l-12 8q14 18 22.5 28.5t22.5 20.5t27 10q23 0 55 -22q28 -20 46 -20q30 0 59 55zM85 180q-10 -24 -10 -75q0 -42 25 -68.5t60 -26.5q39 0 68.5 41.5t29.5 98.5q0 43 -22 71.5t-54 28.5 q-46 0 -46 -63q0 -8 -17 -8v14q0 33 20.5 52t53.5 19q52 0 86 -31.5t34 -78.5q0 -65 -49 -111.5t-115 -46.5q-53 0 -89 29.5t-36 75.5q0 44 36 98q6 0 15.5 -6.5t9.5 -12.5z" />
<glyph unicode="&#xf6;" horiz-adv-x="346" d="M247 356l3 22q5 35 28 35h40l-6 -37q-1 -8 -8.5 -14t-18.5 -6h-38zM100 356l3 22q5 35 28 35h40l-6 -37q-1 -8 -8.5 -14t-18.5 -6h-38zM85 180q-10 -24 -10 -75q0 -42 25 -68.5t60 -26.5q39 0 68.5 41.5t29.5 98.5q0 43 -22 71.5t-54 28.5q-46 0 -46 -63q0 -8 -17 -8v14 q0 33 20.5 52t53.5 19q52 0 86 -31.5t34 -78.5q0 -65 -49 -111.5t-115 -46.5q-53 0 -89 29.5t-36 75.5q0 44 36 98q6 0 15.5 -6.5t9.5 -12.5z" />
<glyph unicode="&#xf7;" horiz-adv-x="418" d="M234 422q0 9 7 16t16 7t16 -7t7 -16q0 -6 -3 -11t-8.5 -8.5t-11.5 -3.5q-9 0 -16 7t-7 16zM191 99q0 9 7 16t16 7t16 -7t7 -16t-7 -16t-16 -7t-16 7t-7 16zM71 249l4 22h325l-4 -22h-325z" />
<glyph unicode="&#xf8;" horiz-adv-x="346" d="M85 180q-10 -24 -10 -75q0 -34 17 -59l144 176q-22 28 -54 28q-46 0 -46 -63q0 -3 -6 -5.5t-11 -2.5v14q0 33 20.5 52t53.5 19q36 0 64 -16l44 54l12 -10l-43 -52q43 -32 43 -86q0 -65 -49 -111.5t-115 -46.5q-36 0 -66 15l-46 -57l-12 10l45 54q-46 30 -46 83 q0 44 36 98q6 0 15.5 -6.5t9.5 -12.5zM102 34q24 -24 58 -24q39 0 68.5 41.5t29.5 98.5q0 33 -14 58z" />
<glyph unicode="&#xf9;" horiz-adv-x="389" d="M235 335l-10 -7q-29 37 -56.5 56.5t-60.5 24.5l-2 3l40 29q6 4 12 4q9 0 14 -7zM280 123q-10 -55 -10 -74q0 -34 23 -34q27 0 98 52l3 -3q-93 -68 -120 -68q-43 0 -43 66q0 24 5 57q-14 -37 -32.5 -64t-42.5 -43t-49 -16q-28 0 -51.5 17t-23.5 45q0 12 16 71q21 72 21 91 q0 20 -19 20q-14 0 -39 -14l-4 4q42 29 62 29q19 0 27.5 -11t8.5 -40q0 -26 -8 -75l-9 -53q-3 -17 -3 -33q0 -32 26 -32q47 0 83 55.5t51 140.5l6 37l-35 2v5h55q27 0 44 2l2 -1z" />
<glyph unicode="&#xfa;" horiz-adv-x="389" d="M280 123q-10 -55 -10 -74q0 -34 23 -34q27 0 98 52l3 -3q-93 -68 -120 -68q-43 0 -43 66q0 24 5 57q-14 -37 -32.5 -64t-42.5 -43t-49 -16q-28 0 -51.5 17t-23.5 45q0 12 16 71q21 72 21 91q0 20 -19 20q-14 0 -39 -14l-4 4q42 29 62 29q19 0 27.5 -11t8.5 -40 q0 -26 -8 -75l-9 -53q-3 -17 -3 -33q0 -32 26 -32q47 0 83 55.5t51 140.5l6 37l-35 2v5h55q27 0 44 2l2 -1zM171 338l72 101q5 7 14 7q6 0 12 -4l37 -34l-2 -2q-73 -10 -124 -76z" />
<glyph unicode="&#xfb;" horiz-adv-x="389" d="M202 437h20l96 -78l-13 -14l-93 82l-93 -82l-14 14zM280 123q-10 -55 -10 -74q0 -34 23 -34q27 0 98 52l3 -3q-93 -68 -120 -68q-43 0 -43 66q0 24 5 57q-14 -37 -32.5 -64t-42.5 -43t-49 -16q-28 0 -51.5 17t-23.5 45q0 12 16 71q21 72 21 91q0 20 -19 20q-14 0 -39 -14 l-4 4q42 29 62 29q19 0 27.5 -11t8.5 -40q0 -26 -8 -75l-9 -53q-3 -17 -3 -33q0 -32 26 -32q47 0 83 55.5t51 140.5l6 37l-35 2v5h55q27 0 44 2l2 -1z" />
<glyph unicode="&#xfc;" horiz-adv-x="389" d="M244 356l3 22q5 35 28 35h40l-6 -37q-1 -8 -8.5 -14t-18.5 -6h-38zM97 356l3 22q5 35 28 35h40l-6 -37q-1 -8 -8.5 -14t-18.5 -6h-38zM280 123q-10 -55 -10 -74q0 -34 23 -34q27 0 98 52l3 -3q-93 -68 -120 -68q-43 0 -43 66q0 24 5 57q-14 -37 -32.5 -64t-42.5 -43 t-49 -16q-28 0 -51.5 17t-23.5 45q0 12 16 71q21 72 21 91q0 20 -19 20q-14 0 -39 -14l-4 4q42 29 62 29q19 0 27.5 -11t8.5 -40q0 -26 -8 -75l-9 -53q-3 -17 -3 -33q0 -32 26 -32q47 0 83 55.5t51 140.5l6 37l-35 2v5h55q27 0 44 2l2 -1z" />
<glyph unicode="&#xfd;" horiz-adv-x="369" d="M286 109q-6 -36 -14 -135q-9 -114 -17 -158q-18 -113 -113.5 -184.5t-222.5 -71.5q-109 0 -186 58t-77 140q0 68 60.5 115.5t145.5 47.5l-6 -37q-51 0 -94 -17t-68 -45.5t-25 -61.5q0 -76 74 -130t179 -54q107 0 187 67.5t97 172.5q6 34 15 124q13 125 23 172 q-26 -53 -62 -84.5t-73 -31.5q-26 0 -50.5 17.5t-24.5 43.5q0 35 23 94q19 51 19 68q0 9 -5.5 15t-12.5 6q-12 0 -42 -14l-3 4q42 29 57 29q17 0 29.5 -9.5t12.5 -23.5q0 -18 -11 -69q-14 -66 -14 -94q0 -46 25 -46q45 0 86 47t61 119q6 32 11 59l-34 2v5h54q26 0 52 30 l2 -1zM158 338l72 101q5 7 14 7q6 0 12 -4l37 -34l-2 -2q-73 -10 -124 -76z" />
<glyph unicode="&#xfe;" horiz-adv-x="352" d="M31 -2l56 500l-62 2v5h59q19 0 41 14.5t30 28.5l2 -1l-42 -312q3 0 7 2q59 22 93 22q48 0 78 -29t30 -76q0 -64 -42.5 -109t-103.5 -45q-58 0 -82 47l14 14q5 -22 24 -36t46 -14q37 0 63 40.5t26 98.5q0 43 -17 69t-44 26q-32 0 -94 -24l-39 -223q-25 -139 -40 -288 l-54 -3q8 19 51 291z" />
<glyph unicode="&#xff;" horiz-adv-x="369" d="M231 356l3 22q5 35 28 35h40l-6 -37q-1 -8 -8.5 -14t-18.5 -6h-38zM84 356l3 22q5 35 28 35h40l-6 -37q-1 -8 -8.5 -14t-18.5 -6h-38zM286 109q-6 -36 -14 -135q-9 -114 -17 -158q-18 -113 -113.5 -184.5t-222.5 -71.5q-109 0 -186 58t-77 140q0 68 60.5 115.5 t145.5 47.5l-6 -37q-51 0 -94 -17t-68 -45.5t-25 -61.5q0 -76 74 -130t179 -54q107 0 187 67.5t97 172.5q6 34 15 124q13 125 23 172q-26 -53 -62 -84.5t-73 -31.5q-26 0 -50.5 17.5t-24.5 43.5q0 35 23 94q19 51 19 68q0 9 -5.5 15t-12.5 6q-12 0 -42 -14l-3 4q42 29 57 29 q17 0 29.5 -9.5t12.5 -23.5q0 -18 -11 -69q-14 -66 -14 -94q0 -46 25 -46q45 0 86 47t61 119q6 32 11 59l-34 2v5h54q26 0 52 30l2 -1z" />
<glyph unicode="&#x152;" horiz-adv-x="695" d="M218 -5q-48 0 -88 31t-63 84.5t-23 116.5q0 143 67 230.5t174 87.5q22 0 77.5 -2.5t95.5 -2.5h32l191 9l-20 -120h-7l8 84l-175 13h-47v-2l20 -3l-34 -200h14l100 5l17 75h7q-5 -56 -10 -89q-5 -36 -16 -97h-7l5 84l-78 8h-34l-23 -133q-14 -95 -18 -160h62l179 13l15 84 h7l-15 -125l-13 1l-2 4l-172 9h-62q-29 0 -86 -2.5t-78 -2.5zM328 15q8 37 25 158l30 351l-110 3q-75 0 -120 -85.5t-45 -225.5q0 -84 35.5 -143.5t86.5 -59.5q54 0 98 2z" />
<glyph unicode="&#x153;" horiz-adv-x="540" d="M85 180q-10 -24 -10 -75q0 -28 11.5 -50t31 -33.5t42.5 -11.5q39 0 68.5 41.5t29.5 98.5q0 43 -22 71.5t-54 28.5q-46 0 -46 -63q0 -3 -6 -5.5t-11 -2.5v14q0 33 20.5 52t53.5 19t60 -18t40 -47q43 60 117 60q41 0 71.5 -19t30.5 -45q0 -42 -59.5 -70.5t-142.5 -30.5 q2 -34 26.5 -57t58.5 -23q61 0 125 53l3 -3q-78 -68 -137 -68q-38 0 -68.5 17.5t-44.5 46.5q-9 -12 -19 -21.5t-22 -17.5t-25.5 -13.5t-28 -8.5t-29.5 -3q-53 0 -89 29.5t-36 75.5q0 44 36 98q6 0 15.5 -6.5t9.5 -12.5zM309 100q66 1 106.5 26.5t40.5 64.5q0 22 -17 38 t-40 16q-28 0 -48.5 -17.5t-31 -49t-10.5 -73.5v-5z" />
<glyph unicode="&#x178;" horiz-adv-x="468" d="M331 611l3 22q5 35 28 35h40l-6 -37q-1 -8 -8.5 -14t-18.5 -6h-38zM184 611l3 22q5 35 28 35h40l-6 -37q-1 -8 -8.5 -14t-18.5 -6h-38zM266 0l-65 -1q13 40 34 189q-22 36 -71 163q-15 40 -23.5 61.5t-20.5 48.5t-20.5 39t-14.5 12q-16 0 -46 -19l-4 5q20 17 48.5 32 t40.5 15q10 0 20.5 -14t23 -46t21 -56.5t23.5 -70.5q37 -116 56 -154h2q51 75 89 164l70 162l-70 3l1 7h66q15 0 30.5 5t29 14t20.5 20l3 -1l-127 -215q-27 -47 -39 -68.5t-26.5 -47.5t-20.5 -39.5t-8 -23.5q-9 -61 -15 -112.5t-7 -71.5z" />
<glyph unicode="&#x2c6;" horiz-adv-x="253" d="M177 507h20l96 -78l-13 -14l-93 82l-93 -82l-14 14z" />
<glyph unicode="&#x2dc;" horiz-adv-x="296" d="M321 489l12 -6q-34 -66 -73 -66q-21 0 -55 22q-28 19 -44 19q-25 0 -60 -49l-12 8q14 18 22.5 28.5t22.5 20.5t27 10q23 0 55 -22q28 -20 46 -20q30 0 59 55z" />
<glyph unicode="&#x2000;" horiz-adv-x="351" />
<glyph unicode="&#x2001;" horiz-adv-x="703" />
<glyph unicode="&#x2002;" horiz-adv-x="351" />
<glyph unicode="&#x2003;" horiz-adv-x="703" />
<glyph unicode="&#x2004;" horiz-adv-x="234" />
<glyph unicode="&#x2005;" horiz-adv-x="175" />
<glyph unicode="&#x2006;" horiz-adv-x="117" />
<glyph unicode="&#x2007;" horiz-adv-x="117" />
<glyph unicode="&#x2008;" horiz-adv-x="87" />
<glyph unicode="&#x2009;" horiz-adv-x="140" />
<glyph unicode="&#x200a;" horiz-adv-x="39" />
<glyph unicode="&#x2010;" horiz-adv-x="378" d="M349 226h-255l3 18h255z" />
<glyph unicode="&#x2011;" horiz-adv-x="378" d="M349 226h-255l3 18h255z" />
<glyph unicode="&#x2012;" horiz-adv-x="378" d="M349 226h-255l3 18h255z" />
<glyph unicode="&#x2013;" horiz-adv-x="420" d="M394 246h-299l3 18h299z" />
<glyph unicode="&#x2014;" horiz-adv-x="828" d="M802 246h-707l3 18h707z" />
<glyph unicode="&#x2018;" horiz-adv-x="155" d="M132 466h29l-3 -19q-5 -31 -29 -31h-37l6 32q8 44 40 117h11q-17 -70 -17 -99z" />
<glyph unicode="&#x2019;" horiz-adv-x="139" d="M109 475h-29l3 19q5 31 29 31h37l-6 -32q-8 -44 -40 -117h-11q17 70 17 99z" />
<glyph unicode="&#x201a;" horiz-adv-x="139" d="M44 0h-29l3 19q5 31 29 31h37l-6 -32q-8 -44 -40 -117h-11q7 30 12 57.5t5 41.5z" />
<glyph unicode="&#x201c;" horiz-adv-x="255" d="M132 466h29l-3 -19q-5 -31 -29 -31h-37l6 32q8 44 40 117h11q-17 -70 -17 -99zM232 466h29l-3 -19q-5 -31 -29 -31h-37l6 32q8 44 40 117h11q-17 -70 -17 -99z" />
<glyph unicode="&#x201d;" horiz-adv-x="239" d="M109 473h-29l3 19q5 31 29 31h37l-6 -32q-8 -44 -40 -117h-11q17 70 17 99zM209 475h-29l3 19q5 31 29 31h37l-6 -32q-8 -44 -40 -117h-11q17 70 17 99z" />
<glyph unicode="&#x201e;" horiz-adv-x="239" d="M144 0h-29l3 19q5 31 29 31h37l-6 -32q-8 -44 -40 -117h-11q7 30 12 57.5t5 41.5zM44 0h-29l3 19q5 31 29 31h37l-6 -32q-8 -44 -40 -117h-11q7 30 12 57.5t5 41.5z" />
<glyph unicode="&#x2022;" horiz-adv-x="235" d="M91 246q0 26 17.5 43.5t43.5 17.5t43.5 -17.5t17.5 -43.5t-17.5 -43.5t-43.5 -17.5t-43.5 17.5t-17.5 43.5z" />
<glyph unicode="&#x2026;" horiz-adv-x="395" d="M280 0l4 19q5 31 29 31h37l-6 -32q-4 -18 -28 -18h-36zM155 0l4 19q5 31 29 31h37l-6 -32q-4 -18 -28 -18h-36zM30 0l4 19q5 31 29 31h37l-6 -32q-4 -18 -28 -18h-36z" />
<glyph unicode="&#x202f;" horiz-adv-x="140" />
<glyph unicode="&#x2039;" horiz-adv-x="179" d="M149 266l10 -12q-20 -16 -42 -44t-27 -38q2 -12 16 -39t29 -43l-13 -12l-22 25q-42 52 -42 68q0 14 63 71z" />
<glyph unicode="&#x203a;" horiz-adv-x="179" d="M105 266l20 -24q45 -55 45 -69l-0.5 -0.5l-0.5 -0.5q-2 -14 -63 -69l-28 -25l-9 12q19 15 39 41t29 41q-5 15 -17.5 41t-27.5 41z" />
<glyph unicode="&#x205f;" horiz-adv-x="175" />
<glyph unicode="&#x20ac;" horiz-adv-x="458" d="M25 233l4 14h86q0 29 5 56h-85l4 14h83q20 103 83.5 165.5t145.5 62.5q13 0 43 -6.5t37 -6.5q20 0 30.5 10.5t17.5 30.5l4 -1l-31 -104l-3 1q-11 10 -31 23t-43 24t-36 11q-63 0 -103.5 -58t-54.5 -152h180l-4 -14h-178q-3 -27 -4 -56h164l-4 -14h-161v-4v-4 q0 -95 33.5 -151t91.5 -56q74 0 144 71l4 -4q-21 -21 -35.5 -33.5t-35 -27.5t-42 -22t-45.5 -7q-75 0 -124 68t-50 170h-90z" />
<glyph unicode="&#x25fc;" horiz-adv-x="285" d="M0 285h285v-285h-285v285z" />
</font>
</defs>
</svg>
