<?xml version="1.0" standalone="no"?>
<!DOCTYPE svg PUBLIC "-//W3C//DTD SVG 1.1//EN" "http://www.w3.org/Graphics/SVG/1.1/DTD/svg11.dtd" >
<svg xmlns="http://www.w3.org/2000/svg" xmlns:xlink="http://www.w3.org/1999/xlink" version="1.1">
<metadata></metadata>
<defs>
<font id="konstytucyjamedium" horiz-adv-x="341" vert-adv-y="1024" >
<font-face units-per-em="1024" ascent="595" descent="-429" />
<missing-glyph horiz-adv-x="300" />
<glyph horiz-adv-x="0" vert-adv-y="0" />
<glyph unicode="&#xd;" />
<glyph unicode=" " horiz-adv-x="300" vert-adv-y="577" />
<glyph unicode="!" horiz-adv-x="194" vert-adv-y="577" d="M49 42q7 0 13.5 -6.5t6.5 -14.5q0 -27 -27 -27q-19 0 -22 10q0 38 29 38zM173 595q0 -6 -46 -203t-46 -217q0 -3 -4 -3q-5 0 -11.5 4t-6.5 7l15 81q14 80 27.5 170t13.5 132q0 13 -2 29q11 0 23.5 -2.5t16.5 -2.5q8 0 20 5z" />
<glyph unicode="&#x22;" horiz-adv-x="274" vert-adv-y="577" d="M227 585q39 39 45 39q15 0 22 -26v-6q0 -12 -9.5 -28t-19.5 -26t-17 -18q-5 -5 -18.5 -15.5t-19.5 -15.5q8 13 19.5 29t15.5 23q6 12 6 20q0 19 -24 24zM139 585q39 39 45 39q15 0 22 -26v-6q0 -12 -9.5 -28t-19.5 -26t-17 -18q-5 -5 -18.5 -15.5t-19.5 -15.5 q8 13 19.5 29t15.5 23q6 16 6 20q0 19 -24 24z" />
<glyph unicode="#" horiz-adv-x="527" vert-adv-y="577" d="M179 109q0 -50 3 -59q-17 -11 -39 -19q0 12 1 20.5t3.5 21t3.5 25.5q0 2 5 68q-16 3 -37 3q-14 0 -20.5 -1t-13 -3.5t-11.5 -3.5q-4 1 -24 23q31 13 62 13q6 0 48 -4q1 12 3 37.5t4 59.5t3 48q-24 0 -35 -1.5t-18.5 -3.5t-20.5 -6q-3 0 -24 27q28 12 69 12h31q9 91 13 92 q2 0 10.5 0.5t17.5 4.5q-6 -31 -12 -96h10q49 0 63.5 -1.5t52.5 -5.5q4 33 6.5 54.5t5 32.5t6.5 12q21 2 28 4q-10 -43 -18 -106q13 -4 56 -4q35 0 56 13q13 -20 18 -36q-25 -5 -50 -5q-59 0 -85 5q-1 -4 -2.5 -64t-2.5 -82h33q36 0 56 14q13 -19 19 -36q-33 -6 -39 -6 q-33 0 -70 1v-40q0 -47 5 -59q-19 -13 -36 -19q0 12 1.5 28.5t1.5 38.5q0 36 1 52q-128 3 -134 4q-4 -48 -4 -53zM198 338q-3 -29 -6.5 -86t-4.5 -63q4 -1 131 -4q1 17 2.5 55.5t2.5 63.5t1 29q-35 3 -105 5h-21z" />
<glyph unicode="$" horiz-adv-x="347" vert-adv-y="577" d="M246 477l25 3l-7 -38q53 -7 75.5 -32t22.5 -48q0 -12 -7 -20t-16 -8q-16 0 -17 8l6 7q6 7 6 19q0 20 -16 39.5t-56 24.5q-4 -22 -15 -76t-14 -90q5 -4 23 -17.5t26.5 -21.5t20.5 -23.5t17.5 -33.5t5.5 -41q0 -87 -123 -91l-17 -97l-23 -1l17 98q-64 3 -100.5 34.5 t-36.5 66.5q0 16 12.5 24t27.5 8q26 0 46.5 -16t27.5 -29t9 -19q-5 -9 -17 -9q-6 0 -12 3l-1 8q-2 8 -5 16t-8.5 17t-15 14.5t-21.5 5.5q-20 0 -20 -24q0 -48 35.5 -68.5t79.5 -21.5l33 196q-16 13 -34 29.5t-33 32t-24.5 32t-9.5 29.5q0 31 35.5 53.5t89.5 22.5h3zM240 433 q-36 -1 -66.5 -21.5t-30.5 -38.5q0 -16 18.5 -38.5t36.5 -37.5l19 -15zM230 228l-26 -179q36 5 57 27t25 39t4 34q0 16 -5 25.5t-18 21.5t-37 32z" />
<glyph unicode="%" horiz-adv-x="460" vert-adv-y="0" d="M279 62q0 -18 13.5 -31.5t31.5 -13.5q19 0 32 13.5t13 31.5q0 19 -13 32t-32 13q-18 0 -31.5 -13t-13.5 -32zM256 64q0 27 19 46t46 19t46 -19t19 -46t-19 -46t-46 -19t-46 19t-19 46zM83 398q0 -19 13 -32t32 -13q18 0 31.5 13t13.5 32q0 18 -13.5 31.5t-31.5 13.5 q-19 0 -32 -13.5t-13 -31.5zM59 400q0 27 19 46t46 19t46 -19t19 -46t-19 -46t-46 -19t-46 19t-19 46zM384 465l34 -27l-348 -441l-34 27q145 156 173 191t175 250z" />
<glyph unicode="&#x26;" horiz-adv-x="448" vert-adv-y="577" d="M283 451q-61 0 -61 -64q0 -42 20 -73q14 13 30.5 26.5t29.5 31t13 31.5q0 15 -8.5 31.5t-23.5 16.5zM334 113l-95 151q-21 -19 -55 -46.5t-48 -40.5t-26.5 -30.5t-12.5 -33.5q0 -37 30 -68t59 -31h1q31 0 63 20t46.5 36t37.5 43zM352 136l55 70l12 -12l-56 -73l75 -121 h-31l-63 98q-40 -51 -75 -74.5t-85 -23.5q-45 0 -87.5 35t-42.5 71t29 71.5t81.5 75t54.5 41.5q-27 46 -27 89q0 82 91 82q29 0 48.5 -21.5t19.5 -44.5q0 -22 -18.5 -44.5t-70.5 -69.5z" />
<glyph unicode="'" horiz-adv-x="186" vert-adv-y="577" d="M210 489zM139 585q39 39 45 39q15 0 22 -26v-6q0 -12 -9.5 -28t-19.5 -26t-17 -18q-5 -5 -18.5 -15.5t-19.5 -15.5q8 13 19.5 29t15.5 23q6 16 6 20q0 19 -24 24z" />
<glyph unicode="(" horiz-adv-x="233" vert-adv-y="577" d="M230 -97h-6q-70 0 -115 28q-82 54 -82 160q0 96 27 206t51 149q35 55 93 86t110 31q4 0 37 -5q-15 -1 -27 -2t-23.5 -3.5t-24 -7.5t-28.5 -15t-37 -25q-63 -46 -101.5 -179.5t-38.5 -245.5q0 -121 94 -161q20 -8 71 -16z" />
<glyph unicode=")" horiz-adv-x="391" vert-adv-y="577" d="M8 -97q45 7 78 18q63 22 101 62.5t65 111.5q65 165 65 319q0 34 -9.5 60.5t-23 40.5t-33 24t-33 13t-30.5 5t-19 3q22 3 39 3q58 0 107 -38t49 -106q0 -145 -66 -317q-48 -122 -154 -176q-17 -8 -36 -13.5t-35.5 -6.5t-34 -2t-30.5 -1z" />
<glyph unicode="*" horiz-adv-x="355" vert-adv-y="577" d="M169 139v21q0 34 1 54l-83 -42q-4 10 -8 22l75 40l-70 49q1 1 7 6.5t12 10.5l65 -47q0 32 -8 83l15 -3t13 -2q1 -21 2.5 -42.5t1.5 -32.5q53 30 74 48q10 -26 10 -27q-21 -14 -79 -46q33 -25 77 -47q-3 -3 -11 -10t-10 -9q-13 8 -22 13.5t-11.5 7t-8 5t-18.5 13.5v-69z " />
<glyph unicode="+" horiz-adv-x="362" vert-adv-y="577" d="M170 218q-16 0 -53 0.5t-57 0.5q-2 0 -4 11.5t-6 16.5q30 -1 125 -1q4 19 10 61.5t10 63.5q1 2 15 6t19 7l-25 -138h25q70 0 109 7q6 -8 16 -33q-52 -4 -76 -4q-5 0 -31.5 0.5t-47.5 0.5q-3 -24 -7 -57l-4 -30q-3 -31 -3 -39q-18 -9 -36 -9q5 51 10 75q1 16 11 61z" />
<glyph unicode="," horiz-adv-x="173" vert-adv-y="577" d="M78 51q8 0 15 -10t7 -22q0 -16 -21 -44q-20 -27 -63 -59l-1 2q6 9 15 21.5t14 18.5t8.5 14.5t3.5 15.5q0 19 -24 24q40 39 46 39z" />
<glyph unicode="-" horiz-adv-x="384" vert-adv-y="577" d="M79 247q46 -1 173 -1q70 0 110 7q-5 -25 -7 -33q-52 -4 -76 -4q-6 0 -76.5 1.5t-128.5 1.5q0 9 5 28z" />
<glyph unicode="." horiz-adv-x="173" vert-adv-y="577" d="M79 42q7 0 13.5 -6.5t6.5 -14.5q0 -27 -27 -27q-19 0 -22 10q0 38 29 38z" />
<glyph unicode="/" horiz-adv-x="432" vert-adv-y="0" d="M483 551l34 -27l-464 -563l-33 27q95 103 159 171.5t137 161t167 230.5z" />
<glyph unicode="0" horiz-adv-x="444" vert-adv-y="577" d="M230 0q-61 0 -116.5 39.5t-55.5 115.5q0 134 62.5 227t148.5 93q46 0 77.5 -27.5t31.5 -54.5q0 -42 -12 -49q-15 18 -22 53q0 63 -64 63q-82 0 -135.5 -100t-53.5 -234q0 -41 24.5 -68t52.5 -36.5t55 -9.5q41 0 82 43.5t66.5 113t25.5 139.5q0 26 -6 40q-8 19 -8 25 q0 1 0.5 4.5t0.5 5.5q0 5 -1 10t-1 6l1 1q44 -44 44 -113q0 -37 -10 -82t-30.5 -93t-61.5 -80t-95 -32z" />
<glyph unicode="1" horiz-adv-x="224" vert-adv-y="577" d="M136 249q-2 -2 -31 -32t-47 -42q47 62 89 130q14 17 57 150q4 21 20 21q15 0 15 -16v-1q0 -17 -20 -89t-46 -96q-39 -174 -39 -234q0 -22 5 -37q-8 -2 -23 -2q-4 0 -13 0.5t-19 0.5q1 32 9 76t17 78t17.5 63t8.5 30z" />
<glyph unicode="2" horiz-adv-x="514" vert-adv-y="577" d="M227 415q15 11 26.5 22t43 19.5t78.5 8.5q51 0 80 -20.5t29 -45.5q0 -20 -26.5 -63t-55 -79.5t-65 -80t-37.5 -45.5q26 -18 41 -34.5t17 -26t5 -15t10 -5.5q15 0 50.5 28.5t48.5 28.5q7 0 12.5 -5.5t7.5 -11.5l2 -6q0 -4 -2 -4q-28 -6 -71.5 -40t-54.5 -34 q-14 0 -25 11.5t-11 25.5q0 40 -40 74q-92 -116 -154 -116q-48 0 -66.5 25t-18.5 56q0 42 32.5 67.5t93.5 25.5q40 0 93 -28q26 34 51 65.5t48 62.5t40.5 56.5t27.5 46t10 32.5q0 40 -81 40q-88 0 -122 -47q-10 -14 -12 -35.5t-6 -31.5q-8 -10 -13 -10q-26 0 -26 8l2 13 q2 13 12 33.5t26 34.5zM262 134q-47 29 -81 29q-59 0 -81.5 -20.5t-22.5 -61.5q0 -67 57 -67q49 0 128 120z" />
<glyph unicode="3" horiz-adv-x="464" vert-adv-y="577" d="M344 269q112 -39 112 -118q0 -55 -53 -102.5t-147 -47.5q-88 0 -143 41t-55 107q0 28 11 41.5t23 13.5q21 0 21 -10q0 -2 -5.5 -7t-10.5 -18t-5 -33q0 -45 37.5 -83.5t100.5 -38.5q68 0 125 46.5t57 102.5q0 63 -75 96q-8 -8 -24 -8q-32 0 -32 24v2q1 9 17.5 14t36 8 t35.5 20.5t16 48.5q0 34 -22.5 59.5t-61.5 25.5q-41 0 -65.5 -21t-24.5 -43q0 -15 17.5 -21t17.5 -8q0 -8 -12 -8q-22 0 -36.5 11.5t-14.5 27.5q0 31 42 52.5t85 21.5q50 0 80.5 -31t30.5 -72q0 -22 -7 -38t-21.5 -27t-23.5 -16t-26 -12z" />
<glyph unicode="4" horiz-adv-x="461" vert-adv-y="577" d="M325 167q44 211 53 241q-17 -13 -121.5 -102.5t-164.5 -127.5q35 -11 233 -11zM321 143q-155 2 -240 6q-10 1 -16.5 8t-6.5 14q0 6 4 7q75 48 178 141t136 119q7 5 10 12.5t4 13.5t6.5 12t16.5 9q7 0 15.5 -5t8.5 -16q-34 -103 -71 -298q10 0 20.5 0.5t12.5 0.5 q17 0 30.5 6t13.5 15q0 8 -11 8q-5 0 -11.5 -1t-10.5 -1q-7 0 -7 5q0 6 5.5 14.5t13.5 8.5q16 0 25 -10.5t9 -22.5q0 -47 -61 -47h-32q-21 -103 -29 -136q-1 -6 -9 -6h-36h-4q12 29 36 143z" />
<glyph unicode="5" horiz-adv-x="501" vert-adv-y="577" d="M286 392q-22 0 -45.5 9t-32.5 14.5t-35 22.5q-7 -28 -27 -91l-19 -63q44 49 128 49q72 0 132.5 -52.5t60.5 -120.5q0 -55 -52 -107.5t-149 -52.5q-80 0 -134.5 38t-54.5 98v1q0 20 22 20q20 0 20 -9q0 -1 -3.5 -10.5t-3.5 -20.5q0 -50 42.5 -76.5t99.5 -26.5 q47 0 82.5 16.5t53 41.5t26 48t8.5 42q0 60 -47.5 108t-105.5 48q-67 0 -131 -59q-9 -3 -31 -3q5 22 28 89t23 86q0 2 -1 10.5t-1 14.5q0 30 20 30q8 0 14.5 -5t6.5 -8l-2 -5q-1 -5 -1 -8l15 -12q14 -12 38 -24t44 -12q45 0 93 19t80.5 38.5t42.5 19.5q9 0 9 -14 q0 -28 -55 -55.5t-158 -27.5z" />
<glyph unicode="6" horiz-adv-x="507" vert-adv-y="577" d="M118 233q66 88 169 88q66 0 112.5 -43t46.5 -110q0 -49 -22 -84t-57.5 -52t-69.5 -24.5t-68 -7.5q-42 0 -78 10t-64.5 41t-28.5 80q0 61 21 141t39 109q10 19 19.5 30.5t32 30.5t62 28.5t93.5 9.5q36 0 71 -10t63 -35.5t28 -60.5q0 -20 -12.5 -33t-24.5 -13q-22 0 -22 11 q0 1 6.5 6t12 15.5t5.5 28.5q0 36 -38 56.5t-86 20.5q-37 0 -74.5 -12.5t-59.5 -33.5q-49 -47 -76 -187zM404 178q0 55 -32 90t-86 35q-63 0 -123.5 -48.5t-60.5 -113.5q0 -63 34 -95t83 -32q24 0 51.5 7t59.5 23t53 51t21 83z" />
<glyph unicode="7" horiz-adv-x="356" vert-adv-y="577" d="M355 399q-32 -9 -48 -9q-35 0 -86 33t-89 33q-49 0 -49 -55q0 -17 5 -30.5t13 -13.5q5 0 5 8q0 2 -0.5 7t-0.5 9q0 7 4 7t12 -6.5t8 -11.5q0 -3 -1.5 -7t-8 -8.5t-15.5 -4.5q-15 0 -30.5 17.5t-15.5 39.5q0 26 18.5 45.5t49.5 19.5q39 0 72 -16t61 -32.5t56 -16.5 q29 0 55 18q6 4 13.5 21.5t20.5 21.5q5 0 14.5 -5t9.5 -10q-1 -5 -4.5 -10t-9.5 -10.5t-8 -7.5q-3 -3 -12.5 -17.5t-18.5 -24.5q-109 -107 -160.5 -201.5t-51.5 -155.5v-12.5v-4.5q0 -6 -2.5 -7.5t-16.5 -1.5h-36q14 56 30.5 102t39.5 85.5t38.5 64.5t47 57.5t43.5 44.5 t48 45z" />
<glyph unicode="8" horiz-adv-x="458" vert-adv-y="577" d="M305 269q-71 -14 -116 -30t-66 -35t-28 -36.5t-7 -41.5q0 -52 38 -81.5t92 -29.5q79 0 128.5 52.5t49.5 103.5q0 21 -10.5 38.5t-27 29.5t-28.5 18.5t-25 11.5zM440 164q0 -59 -55.5 -111.5t-153.5 -52.5q-79 0 -126 41.5t-47 103.5q0 57 56 87.5t161 51.5q-32 12 -63 39 t-31 60q0 30 39.5 62t79.5 32q46 0 84 -33t38 -75q0 -49 -92 -94q41 -13 75.5 -40.5t34.5 -70.5zM292 289q98 34 98 85q0 34 -29.5 60.5t-65.5 26.5q-33 0 -58.5 -25.5t-25.5 -50.5q0 -53 81 -96z" />
<glyph unicode="9" horiz-adv-x="476" vert-adv-y="577" d="M407 254q-66 -57 -154 -57q-70 0 -105 44.5t-35 96.5q0 63 53 102.5t137 39.5q83 0 121 -37.5t38 -90.5q0 -35 -4.5 -73t-20 -90t-41 -92t-73.5 -68.5t-111 -28.5q-16 0 -38 5t-50 17.5t-47 41.5t-19 69q0 27 12 38.5t22 11.5q22 0 22 -18l-5 -5q-5 -5 -9.5 -18t-4.5 -35 q0 -43 33.5 -65.5t73.5 -22.5q34 0 62 9t47 20.5t35 34t24.5 38.5t17 46t11 43.5t8.5 43.5zM308 460q-80 0 -119.5 -35t-39.5 -97q0 -49 23 -83.5t76 -34.5q23 0 50 7.5t55.5 23t47.5 45.5t19 70q0 104 -112 104z" />
<glyph unicode=":" horiz-adv-x="173" vert-adv-y="577" d="M80 229q7 0 13.5 -6.5t6.5 -14.5q0 -27 -27 -27q-19 0 -22 10q0 38 29 38zM79 42q7 0 13.5 -6.5t6.5 -14.5q0 -27 -27 -27q-19 0 -22 10q0 38 29 38z" />
<glyph unicode=";" horiz-adv-x="173" vert-adv-y="577" d="M80 229q7 0 13.5 -6.5t6.5 -14.5q0 -27 -27 -27q-19 0 -22 10q0 38 29 38zM78 51q8 0 15 -10t7 -22q0 -16 -21 -44q-20 -27 -63 -59l-1 2q6 9 15 21.5t14 18.5t8.5 14.5t3.5 15.5q0 19 -24 24q40 39 46 39z" />
<glyph unicode="&#x3c;" horiz-adv-x="265" vert-adv-y="0" d="M22 292l200 124l22 -38q-95 -46 -186 -97l161 -261l-37 -23q-89 175 -160 295z" />
<glyph unicode="=" horiz-adv-x="374" vert-adv-y="577" d="M22 204q90 -2 187 -2q64 0 109 8q8 -9 16 -34q-39 -3 -76 -3q-7 0 -83.5 1t-134.5 1q-2 0 -8 12.5t-10 16.5zM36 290q25 0 99 -0.5t88 -0.5q64 0 110 8q11 -15 15 -34q-52 -4 -76 -4q-6 0 -83 1.5t-135 1.5q-1 0 -7.5 12t-10.5 16z" />
<glyph unicode="&#x3e;" horiz-adv-x="288" vert-adv-y="0" d="M274 252q-94 -99 -221 -252l-31 30l215 219q-48 44 -161 137l30 31z" />
<glyph unicode="?" horiz-adv-x="369" vert-adv-y="577" d="M100 42q7 0 13.5 -6.5t6.5 -14.5q0 -27 -27 -27q-19 0 -22 10q0 38 29 38zM137 175q0 -3 -8 -3q-11 0 -27.5 4t-16.5 7q7 55 36 88q11 14 91 52q40 20 66 55t26 60q0 45 -12 75.5t-32.5 44t-38.5 18.5t-39 5q-44 0 -71 -21.5t-27 -55.5q0 -18 22.5 -28t22.5 -11 q0 -2 -6 -5t-11 -3q-6 0 -26 6q-34 11 -34 41q10 89 124 89q173 0 173 -155q0 -85 -111 -132q-34 -15 -59 -25t-39 -21.5t-14 -25.5q0 -10 5.5 -30.5t5.5 -28.5z" />
<glyph unicode="@" horiz-adv-x="477" vert-adv-y="577" d="M236 378q-86 0 -136 -56t-50 -155q0 -89 53.5 -144t135.5 -55q70 0 107 22.5t83 79.5l1 1l-10 -17q-10 -18 -29.5 -39.5t-60 -39t-91.5 -17.5q-89 0 -151 58.5t-62 151.5q0 95 59 157.5t150 62.5q92 0 154.5 -54t62.5 -150q0 -41 -35 -79t-100 -38q-16 0 -28 9.5 t-12 30.5v2q-19 -21 -26 -25q-26 -14 -46 -14q-29 0 -46.5 15.5t-22 31t-4.5 32.5q0 46 37 87t91 41q19 0 36 -9.5t17 -16.5l7 7q6 6 13 6q12 0 12 -15l-35 -94q-16 -44 -16 -56q0 -22 28 -22q32 0 68 28t36 82q0 51 -16 91.5t-60.5 70t-113.5 29.5zM197 75q24 2 43 16 q24 18 44 63l5.5 11t3.5 7.5t2.5 7.5t3.5 15l-1 -2q0 -2 -2.5 -4.5t-7 -6t-15 -8t-24.5 -9.5q47 23 47 62q0 20 -9.5 31.5t-23.5 11.5q-34 0 -67 -44.5t-33 -83.5q0 -34 11 -50.5t23 -16.5z" />
<glyph unicode="A" horiz-adv-x="836" vert-adv-y="577" d="M165 118q0 28 -13.5 43t-36.5 15q-20 0 -30 -20.5t-10 -46.5q0 -36 29 -60t59.5 -31t58.5 -7q19 0 33 1.5t29 5t26.5 10.5t26.5 18t29.5 26.5t34.5 37t42 49.5t51.5 63t63.5 79q-51 39 -119.5 79.5t-98.5 40.5q-27 -1 -47.5 -18t-20.5 -43q0 -39 13.5 -65.5t34.5 -37 t36.5 -14.5t29.5 -4q6 1 7.5 4t1.5 8.5t1 7.5q3 2 11 2q15 0 15 -12q0 -19 -32 -19q-67 0 -109.5 43t-42.5 95q0 35 23.5 51t59.5 16q30 0 70 -16.5t65.5 -32t66 -43.5t43.5 -30q17 22 59 88.5t65 106.5q7 15 14.5 39t16.5 36q13 12 28 12q16 0 28 -10.5t12 -23.5 q0 -14 -31 -67l-30 -52q-33 -56 -33 -148q0 -31 3 -49q2 0 8 -1.5t17 -1.5q20 0 29.5 9t10.5 20t6.5 20t16.5 9q8 0 13.5 -7.5t5.5 -18.5q0 -17 -16.5 -32t-44.5 -15q-18 0 -46 7q6 -24 13.5 -68t7.5 -87q6 -6 20.5 -38t31.5 -32q29 0 64 64l1 -1q-14 -36 -32.5 -54 t-34.5 -18q-15 0 -24.5 10t-16.5 28t-11 23q-4 -15 -6.5 -22.5t-10 -18t-21 -15.5t-34.5 -5q-37 0 -55 17t-18 42q0 23 14.5 42.5t48.5 19.5q32 0 50 -16v2q0 62 -19 136q-43 17 -79 41q-89 -122 -148.5 -184t-99.5 -81t-92 -19q-60 0 -103 13t-63.5 33.5t-29 40t-8.5 40.5 q0 24 16.5 42t49.5 18q65 0 88 -65q7 -19 7 -29q-6 -10 -22 -10q-12 0 -17 6v29zM667 386q-4 -3 -35 -43.5t-37 -48.5q30 -20 69 -37q-3 18 -3 47q0 50 6 82zM645 105h-2q-24 0 -34.5 -17.5t-10.5 -35.5q0 -16 11 -28t34 -12q7 0 13.5 3t10.5 7t7 11t5 12.5t3 13t1.5 12 t0.5 10.5l1 6q-18 17 -40 18z" />
<glyph unicode="B" horiz-adv-x="990" vert-adv-y="577" d="M119 623q0 -84 115 -152q64 -32 108 -32q23 0 48.5 15.5t38.5 19.5q52 0 79 -24q-8 -11 -44.5 -18.5t-83.5 -7.5q-102 0 -186 52q-58 36 -82.5 80t-24.5 70q0 78 100 78q56 0 137 -32t158.5 -64t125.5 -32q34 0 73 10t66 10q40 0 72 -20.5t50 -51t27.5 -62.5t9.5 -60 q-1 -30 -16.5 -62t-33.5 -48q40 -24 62 -73t22 -102q0 -18 -5 -35t-17.5 -37.5t-42 -32.5t-71.5 -12t-80 27q-20 14 -37.5 41.5t-17.5 34.5q0 9 11 9t25 -7q6 -4 14.5 -29t28 -44t58.5 -19q23 0 35 2t26.5 11.5t21.5 32.5t8 61q0 93 -67 150q-39 -30 -95 -30q-42 0 -81 36 q-10 -19 -62.5 -98t-91.5 -114q-54 -44 -83 -54t-82 -10q-93 0 -142.5 42t-49.5 92q0 22 14 39.5t47 17.5q32 0 53.5 -11t30.5 -27.5t12 -28.5t3 -22q0 -14 -21 -14q-18 0 -18 13v22q0 21 -14.5 40t-39.5 19q-37 0 -37 -51q0 -35 18.5 -60.5t46 -36.5t48.5 -15.5t36 -4.5 q44 0 82.5 19.5t89.5 77.5q41 48 119 185q27 50 48 101.5t39 107.5t21 65q-77 -11 -105 -11q-63 0 -144.5 31.5t-156.5 62.5t-120 31q-39 0 -57.5 -17.5t-18.5 -43.5zM816 314q43 44 43 98q0 32 -14 72.5t-40 62.5q-28 22 -78 22q1 -1 8 -5.5t13.5 -11.5t9.5 -18 q-23 -65 -41 -112.5t-26.5 -65t-12.5 -27t-4 -13.5q24 18 63 18q41 0 79 -20zM778 293q-5 5 -23 5q-12 0 -19.5 -1t-11.5 -3t-7 -4.5t-5 -5.5q10 -5 17 -5q33 0 49 14z" />
<glyph unicode="C" horiz-adv-x="537" vert-adv-y="577" d="M199 168q0 -66 43 -110t144 -44q48 0 68.5 23.5t20.5 53.5q0 26 -10.5 43.5t-26.5 17.5h-8l-4 -1q-1 0 -1 2q0 12 25 12t47.5 -22.5t22.5 -56.5q0 -32 -29.5 -59t-104.5 -27q-104 0 -168.5 51.5t-64.5 105.5q0 83 68 182q-84 -20 -163 -23v2q31 4 52.5 5.5t52 11.5 t70.5 30q7 7 61.5 70t82.5 84q103 76 163 76q29 0 29 -21v-5q0 -9 -20.5 -25.5t-102.5 -71.5q-20 -14 -63.5 -42t-68 -45.5t-40.5 -31.5q-19 -17 -47 -81t-28 -104zM530 558q-69 -17 -132 -63q-18 -13 -49 -49l-31 -37q0 1 47.5 32.5t61.5 40.5q93 63 103 76z" />
<glyph unicode="D" horiz-adv-x="864" vert-adv-y="577" d="M662 537q0 -14 -58.5 -195.5t-97.5 -258.5q90 -68 143 -68q49 0 100.5 81t51.5 189q0 84 -25 159q-24 78 -93 163q-41 53 -88 92.5t-83.5 59t-74 31.5t-56.5 14.5t-33 2.5q-48 0 -72 -6t-55 -23q-29 -16 -52 -66t-23 -89q0 -79 69 -149t122 -70q44 0 44 42 q0 13 -10.5 29.5t-14.5 35.5q0 36 35 36q21 0 30 -18.5t9 -40.5q0 -33 -21 -71q-15 -28 -57 -28q-73 0 -162 79.5t-89 159.5q0 21 7 49.5t32.5 66.5t64.5 57q43 20 109 20q39 0 71 -4.5t82.5 -19.5t107 -53t114.5 -97q73 -76 117 -174q37 -81 37 -214q0 -29 -11.5 -70.5 t-33 -85t-61.5 -74t-88 -30.5q-57 0 -149 70q-37 -68 -75 -68q-42 0 -66 44t-24 81q0 46 33 46q21 0 29 -2.5t27 -17t54 -46.5q37 93 88.5 248t56.5 212q39 -2 39 -29zM473 91q-36 31 -53 46t-21.5 17.5t-8.5 2.5q-19 0 -19 -34q0 -25 13.5 -67.5t40.5 -42.5q26 0 48 78z " />
<glyph unicode="E" horiz-adv-x="504" vert-adv-y="577" d="M176 352q-35 -18 -57 -56.5t-22 -79.5q0 -34 8 -66t26.5 -64.5t57 -52t92.5 -19.5q14 0 30 3.5t41 13.5t47 36t34 64q-9 36 -9 59q0 4 1 5q0 8 44 8q4 0 4 -15q0 -48 -16 -82v-13q0 -45 17 -45q14 0 29 25l1 -1q0 -3 -10.5 -18t-17.5 -15q-32 0 -35 43q-57 -82 -161 -82 q-97 0 -167 53.5t-70 150.5q0 51 33.5 94.5t96.5 66.5q-6 27 -6 64q0 21 6 45t20.5 53.5t47.5 48.5t79 19q39 0 67 -14.5t40 -35.5t17 -36t5 -24q0 -26 -15.5 -37.5t-33.5 -11.5q-34 0 -34 10q0 4 4 5.5t12 1.5t12 1q26 9 26 39q0 45 -26.5 64t-58.5 19q-40 0 -67.5 -18 t-39.5 -46.5t-16.5 -52.5t-4.5 -49q0 -23 2 -34q39 15 77 15q45 0 72 -21t27 -53q0 -45 -26.5 -63.5t-63.5 -18.5q-19 0 -36 7t-22 11t-17 16q-26 26 -44 83zM286 381q-42 0 -77 -16q5 -33 16 -57q17 -33 32 -48t37 -15q27 0 41.5 27.5t14.5 52.5q0 56 -64 56z" />
<glyph unicode="F" horiz-adv-x="814" vert-adv-y="577" d="M498 453q-9 -11 -44 -19t-82 -8q-70 0 -124 18.5t-83.5 44t-48 56t-24 51.5t-5.5 34q0 33 27 53.5t75 20.5q35 0 88 -20.5t100 -45t107 -45t107 -20.5t107 5q34 3 108 20t101 17q48 0 91 -12.5t43 -39.5q0 -3 -1.5 -8.5t-6.5 -12t-12 -6.5q-13 0 -23.5 7.5t-20 17t-40 17 t-78.5 7.5q-21 0 -72 -13.5t-84 -15.5q1 -1 6 -3.5t8.5 -5.5t8.5 -9.5t8 -15.5q-33 -104 -80 -238q63 -25 88 -25q18 0 30 5.5t16.5 11.5t11 18.5t10.5 17.5q18 -16 23 -27q-32 -42 -84 -42q-15 0 -30.5 3.5t-31.5 9.5t-39 14q-4 -9 -22 -53.5t-38 -81.5t-46 -69 q-54 -66 -189 -66q-72 0 -122.5 42t-50.5 92q0 26 15 41t26 17t23 2q33 0 55.5 -22t29 -42t6.5 -33q-15 -11 -24 -11q-13 0 -19 6q1 8 1 23q0 60 -47 60q-16 0 -26.5 -16t-10.5 -43q0 -38 45.5 -70t97.5 -32q54 0 92.5 18.5t81.5 80.5q25 36 46.5 89t29.5 81q-6 2 -11 2 q-17 0 -26.5 -12.5t-13.5 -25t-9 -12.5t-12.5 5.5t-10.5 6.5q7 23 19 40t25 18q25 0 45 -8q24 58 57 159l33 100q-72 -3 -78 -3q-60 0 -126 21t-113 46.5t-99 46.5t-87 21q-33 0 -55.5 -17.5t-22.5 -44.5q0 -76 67 -130.5t153 -54.5q22 0 47 16.5t36 20.5q9 -1 20 -1 t27.5 -6t30.5 -18z" />
<glyph unicode="G" horiz-adv-x="600" vert-adv-y="577" d="M434 595q82 0 119.5 -37t37.5 -74q0 -14 -15 -59q-24 -64 -60 -111.5t-60 -63.5l-23 -16q-5 15 -5 16q0 4 2 6l20 18q21 17 51 60.5t48 94.5q9 28 9 55q0 37 -22.5 63t-76.5 26q-50 0 -92.5 -19.5t-70.5 -51t-45 -61t-29 -60.5q-6 -18 -11 -38t-9 -40.5t-7.5 -53.5 t-5.5 -76q0 -44 17.5 -77.5t45 -49.5t53 -23.5t48.5 -7.5q83 0 143 98q28 54 41 94q6 16 11 32.5t7 21.5q5 11 17 11q10 0 18.5 -9t8.5 -25q-2 -22 -8 -38.5t-14 -33.5q-3 -8 -25 -46q-21 -47 -84.5 -224.5t-73.5 -200.5q-31 -75 -68 -104q-42 -28 -101 -28q-47 0 -104 33 q-78 43 -78 108q0 58 54 58q46 0 80 -34q2 -2 22 -36q6 -10 8 -26l-3 -3q-4 -3 -9.5 -5.5t-12.5 -2.5q-11 0 -17 7q0 6 1 16t1 14q0 16 -12 36q-5 9 -18.5 15t-25.5 6q-14 0 -24 -21t-10 -46q0 -46 49 -75q51 -30 99 -30q32 0 64 19q34 20 69.5 104t71 195t50.5 145 q-6 -5 -18 -12t-25 -13t-35 -10.5t-49 -4.5t-53 6t-53.5 21t-48 38t-33.5 60.5t-13 84.5q0 91 17 148.5t50 110.5q8 13 24.5 31t43.5 41t66.5 38.5t80.5 15.5z" />
<glyph unicode="H" horiz-adv-x="864" vert-adv-y="577" d="M765 14q12 0 22 7t16 16.5t11.5 20t8.5 17.5q2 1 4 1q5 0 12.5 -8t11.5 -8q3 0 12 13l1 -1q-42 -72 -99 -72q-60 0 -102.5 35t-42.5 102q0 21 11.5 55t20.5 55q-26 13 -63.5 35.5t-72.5 40.5q-15 -33 -43.5 -96t-46.5 -101.5t-25 -48.5q-17 -27 -37 -44t-41 -23.5 t-33.5 -8t-31.5 -1.5q-71 0 -121 41.5t-50 89.5q0 26 17 46t45 20q42 0 68.5 -30t26.5 -64q-9 -10 -22 -10t-18 7q0 11 3 20t3 15q0 15 -10 30q-13 19 -41 21q-18 0 -30 -22.5t-12 -54.5q0 -27 36.5 -60.5t96.5 -33.5q41 0 64.5 12.5t55.5 59.5q17 25 116 251 q-69 33 -115 33q-36 0 -55 -21.5t-19 -40.5q0 -23 14 -50t33 -27q2 0 4 0.5t4 0.5q9 2 9 17v3q0 6 1 7q5 4 13 4q15 0 15 -11q0 -6 -14.5 -17.5t-26.5 -11.5q-28 0 -55 25.5t-27 53.5q0 17 7 38q9 20 34 32t52 12q56 0 132 -35l52 132q-4 -2 -23 -13t-33 -15.5t-31 -4.5 q-55 0 -93 16t-54.5 34.5t-43.5 34.5t-62 16q-44 0 -63.5 -36t-19.5 -81q0 -55 22 -58q7 0 9 8t3 32q0 10 5 10q6 0 16 -7.5t10 -13.5q0 -15 -12.5 -25.5t-27.5 -10.5q-21 0 -40 26.5t-19 58.5q0 37 31 76t83 39q37 0 69 -16t51.5 -35t52 -35t69.5 -16q17 0 37 8t33 16.5 t40 27.5q9 9 25 41.5t32 35.5q15 -2 19 -7t4 -15q0 -17 -25 -44q-10 -11 -17 -28t-25 -63.5t-44 -102.5l135 -75q44 99 146 276q33 58 65 58q20 0 35.5 -27t15.5 -65q0 -10 -10 -10q-14 0 -14 21v13q0 34 -17 41q-10 0 -14.5 -2t-9 -9t-12.5 -20q-101 -177 -152 -289 q66 -24 85 -24q21 0 41 18q1 16 6.5 31t23.5 15t18 -28q0 -19 -17.5 -34.5t-55.5 -15.5q-46 0 -107 25q-34 -76 -34 -103q0 -57 33 -87t82 -30z" />
<glyph unicode="I" horiz-adv-x="513" vert-adv-y="577" d="M87 464q0 40 29.5 72t76.5 32q39 0 72 -17t62 -40.5t45 -29.5q31 -13 66 -13q48 0 111 50q10 8 21.5 39.5t32.5 37.5q8 0 17 -6t9 -16l-3 -17q-4 -17 -9 -27q-26 -55 -71 -181t-83 -214.5t-66 -104.5q-49 -29 -100 -29q-77 0 -129 43.5t-52 98.5q0 24 23 39t49 15 q32 -1 54 -22.5t29 -41t7 -32.5q-8 -12 -23 -12q-10 0 -17 7q-1 4 -1 15q0 72 -49 72q-18 0 -28.5 -15t-10.5 -38q0 -36 19 -61.5t47 -35.5t47.5 -14t32.5 -4q44 0 64 18q31 29 67 117t70.5 195t47.5 136l-24 -12t-19 -8t-19 -4.5t-23 -1.5q-55 0 -94.5 15.5t-57.5 34 t-46.5 34t-64.5 15.5q-23 0 -39 -12.5t-22.5 -32t-8.5 -32t-2 -22.5q0 -20 6.5 -45.5t20.5 -25.5q8 0 8 16q0 4 -0.5 12t-0.5 11q0 11 4 11q6 0 18 -9.5t12 -17.5q0 -12 -10 -24.5t-27 -12.5q-22 0 -45 29.5t-23 65.5z" />
<glyph unicode="J" horiz-adv-x="576" vert-adv-y="577" d="M149 464q0 40 30 72t77 32q31 0 57.5 -10.5t45.5 -25t38.5 -29t45.5 -25t57 -10.5q49 0 112 50q10 8 21.5 39.5t32.5 37.5q8 0 17 -6t9 -16l-12 -44q-27 -57 -105.5 -289t-150.5 -428t-100 -212q-20 -12 -28 -16t-27.5 -8.5t-45.5 -4.5q-67 0 -123.5 44.5t-56.5 97.5 q0 24 23 39t49 15q46 -2 68 -36.5t22 -59.5q-7 -12 -23 -12q-10 0 -17 7q-1 4 -1 15q0 72 -49 72q-18 0 -28.5 -15t-10.5 -38q0 -36 19 -61.5t47 -35.5t47.5 -14t32.5 -4q45 0 64 19q31 28 101 223.5t138.5 409.5t81.5 243q-23 -11 -32.5 -15t-24 -7.5t-32.5 -3.5 q-55 0 -93.5 15.5t-56.5 34t-46 34t-63 15.5q-23 0 -39 -12.5t-22.5 -32t-8.5 -32t-2 -22.5q0 -21 6.5 -46t20.5 -25q8 0 8 16q0 4 -0.5 12t-0.5 11q0 11 4 11q6 0 18 -9.5t12 -17.5q0 -12 -10 -24.5t-27 -12.5q-22 0 -45.5 29.5t-23.5 65.5z" />
<glyph unicode="K" horiz-adv-x="830" vert-adv-y="577" d="M583 293q-2 -2 -12.5 -17t-26 -34t-34.5 -37q-3 -3 -12.5 -11t-15.5 -14.5t-10 -15.5q-42 -84 -61 -142q-5 -20 -25 -20q-15 0 -29.5 12t-14.5 29q0 8 3 14q5 11 46 63.5t53 65.5q23 48 32 62q29 40 48.5 121t30.5 111q-9 -3 -51.5 -34t-70.5 -31q-34 0 -75 24.5t-84 49 t-82 24.5q-69 0 -69 -94q0 -26 7 -47.5t21 -21.5q9 0 9 14q0 5 -1.5 14t-1.5 12q0 4 3 7q9 0 17 -5t10.5 -9t3.5 -7q0 -16 -8 -25.5t-15.5 -12t-15.5 -2.5q-22 0 -43.5 30.5t-21.5 64.5q0 32 26.5 65t78.5 33q35 0 69.5 -15t58.5 -33.5t55 -33.5t59 -15q18 0 37 12t45.5 36 t43.5 36q7 7 20.5 39t31.5 37q23 -4 23 -21q0 -19 -23 -45q-17 -21 -30 -76q-1 -6 -12.5 -47t-13.5 -52q10 0 26 -9q21 22 103.5 120.5t112.5 135.5q82 106 178 106q64 0 90 -20.5t26 -40.5q0 -43 -54 -43q-33 0 -61 13q0 -2 28 -2q20 0 36.5 9t16.5 30q0 41 -70 41 q-72 0 -126 -63q-29 -33 -135 -162.5t-121 -145.5q9 -7 15.5 -24.5t11 -40t9 -49t7.5 -52.5q10 -67 22.5 -103.5t36.5 -36.5q25 0 42 16q2 2 5.5 6.5t6 7t6.5 5t9 2.5h14q17 0 23.5 4.5t14.5 17.5l1 -1q-26 -47 -49.5 -59.5t-67.5 -12.5q-24 0 -42 12t-29 34t-17.5 45.5 t-11.5 54.5q-2 16 -6 45t-6 45t-7 33t-11 24zM553 331q-8 -31 -9 -32q3 3 10.5 12t9.5 11l-2 2q-4 7 -9 7z" />
<glyph unicode="L" horiz-adv-x="680" vert-adv-y="577" d="M564 0q-25 0 -37.5 13.5t-18 33.5t-29.5 50.5t-65 56.5q-9 -15 -18 -29t-31.5 -38.5t-46.5 -42t-60.5 -31t-75.5 -13.5q-56 0 -97.5 30t-41.5 77q0 21 7 39t25 37t56.5 30.5t93.5 11.5q99 0 160 -33l67 130q-10 -7 -34 -19t-29 -12l72 51q41 78 42 80q67 112 125 150 q37 23 65 23q21 0 21 -32q0 -26 -41 -65.5t-90.5 -77t-57.5 -47.5q-6 -11 -42.5 -86.5t-56.5 -112.5q42 -27 68.5 -57t34 -49.5t15.5 -32t21 -12.5q21 0 36 15q15 13 25 13h14q11 0 18.5 3t10.5 6.5t10 12.5l1 -1q-27 -48 -49 -60t-67 -12zM376 175q-55 34 -130 34 q-22 0 -44.5 -4.5t-49.5 -15.5t-44 -37t-17 -62q0 -32 22.5 -53t61.5 -21q36 0 74 22.5t67 57t41 51t19 28.5zM545 410q71 59 105 89t41.5 40t7.5 26q0 8 -8 8q-55 -11 -107 -99z" />
<glyph unicode="M" horiz-adv-x="1271" vert-adv-y="577" d="M1153 0q-87 0 -127.5 44.5t-40.5 150.5q0 56 21.5 116t48 100t47.5 66l22 26q34 31 71 46t88 26q-24 4 -71 4q-94 0 -171 -50.5t-133 -125.5l-26 -82q-26 -82 -74 -183t-92 -138q-29 0 -39 3.5t-10 14.5q0 52 51 151.5t102 172.5l51 74q15 39 15 68q0 99 -96 99 q-27 0 -87 -27q10 -8 10 -22q0 -5 -14.5 -49t-42 -113t-82 -153t-119.5 -145q-61 -49 -91 -61.5t-86 -12.5q-98 0 -162 92q-17 24 -17 62q0 17 15 35t49 18q36 0 59.5 -23t30 -43t6.5 -33q-8 -9 -22 -9t-17 6q-1 6 -2 23t-3 29t-13.5 23.5t-32.5 13.5q-18 0 -28.5 -22.5 t-10.5 -47.5q0 -41 49 -75.5t98 -34.5q46 0 81.5 22.5t91.5 85.5q55 65 100 143.5t67.5 136.5t34.5 98l11 39q-15 -5 -71.5 -29t-73.5 -24q-22 0 -45.5 8.5t-41.5 20.5t-35.5 25t-27.5 22q-1 0 -25 22t-50.5 44t-60.5 41.5t-56 19.5q-16 0 -28 -11.5t-17.5 -28.5t-7.5 -30.5 t-2 -23.5q0 -38 15.5 -67.5t39.5 -29.5q11 0 15 9l28 -8q-2 -7 -10.5 -26t-14.5 -19q-47 0 -77 48t-30 101q0 38 22.5 69.5t62.5 31.5q26 0 52 -11.5t43 -25t59 -49.5t71 -59q74 -59 114 -59q16 0 79.5 36t106.5 47q44 12 85 12q23 0 39.5 -3t38 -13.5t37.5 -36.5t24 -66 q27 21 49 38t42 30.5t39.5 23t42.5 15.5t51 9t65 3q19 0 48.5 -6.5t61.5 -6.5q27 0 28 -16q-8 0 -35 -6q-29 -6 -44.5 -10t-47 -19t-58.5 -38l-11 -12q-10 -12 -25 -32t-33.5 -50t-33.5 -62.5t-25.5 -73t-10.5 -78.5q0 -101 29 -136.5t95 -35.5q20 0 32.5 9.5t20 19 t17.5 9.5h13q12 0 18.5 2.5t10.5 7.5t10 12l1 -1q-23 -43 -46.5 -58t-55.5 -15q-2 0 -7.5 0.5t-8.5 0.5zM838 305q-4 -5 -35 -58t-35 -59q-10 -19 -28 -64.5t-22 -65.5q45 69 61 99q11 21 32.5 74t26.5 74z" />
<glyph unicode="N" horiz-adv-x="888" vert-adv-y="577" d="M130 466q0 52 38.5 73.5t85.5 21.5q46 -1 78 -16.5t48.5 -37.5t29 -44t29.5 -37t41 -15q18 0 56 28t53 47q11 29 14.5 42t4 20.5t1.5 20.5q2 10 10 18t17 8q16 0 22.5 -8t6.5 -14l-8 -24q0 -23 7.5 -46.5t20.5 -49t43 -92t63 -148.5q38 225 111 357t148 134 q54 0 80.5 -9.5t43.5 -35.5q1 -2 13 -17q-1 -5 -10.5 -8t-15.5 -3t-9.5 2.5t-6 5.5t-8 11t-11.5 15q-19 25 -59 25q-69 0 -141.5 -148t-99.5 -395l4 -33q5 -34 5 -37q0 -31 -13.5 -54t-26.5 -23q-14 0 -28.5 13t-14.5 39q0 12 27 101l-147 316q-4 -5 -18.5 -44.5t-33.5 -90 t-53.5 -110.5t-74.5 -109t-100 -82t-127 -33q-76 0 -129 42.5t-53 89.5q0 25 14 40.5t25.5 18.5t21.5 3q79 0 95 -91q0 -13 -20 -13q-12 0 -20 6q2 14 2 25q0 55 -48 55q-18 0 -27 -10.5t-10.5 -21t-1.5 -30.5q0 -40 51.5 -69t97.5 -29q20 0 34 1.5t38.5 10.5t45.5 25 t50.5 48.5t57 78t61.5 115.5t68 159q-1 0 -22.5 -19t-39.5 -29t-35 -10q-30 0 -52 15.5t-36 38t-29.5 45t-42 38t-64.5 15.5q-46 0 -67 -22.5t-21 -57.5q0 -34 14.5 -64.5t31.5 -30.5q25 0 34 10.5t9 21t3 10.5q5 0 13.5 -8.5t8.5 -18.5q0 -28 -58 -28q-40 0 -67.5 32.5 t-27.5 73.5z" />
<glyph unicode="O" horiz-adv-x="534" vert-adv-y="577" d="M292 0q-35 0 -72.5 11t-73 33t-58.5 62t-23 91q0 172 79 284.5t193 112.5q59 0 104.5 -40t45.5 -77q0 -28 -25.5 -95.5t-56.5 -109.5q-14 -18 -44 -32l-30 -13h-2v7q0 8 23.5 17.5t37.5 25.5q26 29 44.5 89.5t18.5 122.5q0 27 -11 46t-28.5 26.5t-30.5 10.5t-25 3 q-80 0 -139 -58.5t-86.5 -150.5t-27.5 -204q0 -40 18.5 -70.5t47 -46.5t56.5 -23.5t53 -7.5q45 0 85 28t66.5 69.5t45.5 90t27.5 87.5t8.5 63q0 49 -14 77q-8 16 -8 31q0 2 0.5 7t0.5 8q0 1 -0.5 4.5t-0.5 5.5q0 1 -1 4t-1 4l1 2q19 -18 28 -28.5t21 -41.5t12 -70 q0 -48 -13 -103.5t-40.5 -114.5t-81 -98t-124.5 -39z" />
<glyph unicode="P" horiz-adv-x="869" vert-adv-y="577" d="M179 704q42 0 84 -16t99 -43t111 -43q61 -19 127 -19q28 0 72 5.5t67 5.5q74 0 121 -59t47 -150q0 -36 -10 -67.5t-41 -57t-80 -25.5q-54 0 -128 37q-35 -67 -71 -117q27 -16 53 -30t45 -35.5t19 -44.5q0 -27 -16 -36t-47 -9q-18 0 -38.5 16.5t-20.5 21.5q3 -1 12 -7.5 t21 -11.5t27 -5q45 0 45 30q0 12 -4.5 21.5t-30.5 29t-76 44.5q-68 -87 -115.5 -113t-96.5 -26h-23q-49 0 -87 11.5t-57 26.5t-31 33t-14.5 28t-2.5 14q0 15 10 36q14 29 53 49t100 20q58 0 107.5 -9t74.5 -20t53 -20q34 50 61.5 100.5t47 98.5t30.5 78.5t23.5 72t14.5 47.5 q-24 -2 -56 -2q-80 0 -160 16q-59 15 -161.5 61.5t-139.5 46.5q-31 0 -55 -16.5t-24 -45.5q0 -74 79 -127t146 -53q25 0 51.5 16.5t41.5 16.5q43 0 72 -24q-9 -11 -48.5 -18.5t-80.5 -7.5q-120 0 -206 67t-86 134q0 31 28 52.5t64 21.5zM720 566q1 -1 8 -5t13.5 -10.5 t10.5 -17.5q-46 -129 -58 -160t-37 -84q25 -11 50 -20.5t45 -9.5q12 0 24 1.5t30 9t31 19t22.5 35t9.5 54.5q0 25 -5.5 52.5t-20 60.5t-46.5 54t-77 21zM316 204q-58 0 -84.5 -8t-49.5 -30q-19 -18 -19 -43q0 -98 150 -109q19 3 35.5 3t36.5 7.5t40.5 20.5t46.5 40.5 t55 69.5q-23 9 -42.5 16.5t-39 13.5t-38.5 10t-42 6.5t-49 2.5z" />
<glyph unicode="Q" horiz-adv-x="528" vert-adv-y="577" d="M237 6q-71 16 -121.5 63.5t-50.5 127.5q0 172 79 284.5t193 112.5q59 0 104.5 -40t45.5 -77q0 -28 -25.5 -95.5t-56.5 -109.5q-14 -18 -44 -32l-30 -13h-2v7q0 8 23.5 17.5t37.5 25.5q25 28 40.5 88t15.5 124q0 27 -10 46t-26 26.5t-28.5 10.5t-23.5 3q-80 0 -139 -58.5 t-86.5 -150.5t-27.5 -204q0 -40 18.5 -70.5t47 -46.5t56.5 -23.5t53 -7.5q46 0 85.5 25.5t66 64.5t46 86t28 88.5t8.5 73.5q0 53 -14 77q-9 16 -9 31q0 2 0.5 7t0.5 8q0 1 -0.5 4.5t-0.5 5.5q0 1 -1 4t-1 4l1 2q19 -18 28 -28.5t21 -41.5t12 -70q0 -48 -13 -103.5 t-40.5 -114.5t-81 -98t-124.5 -39q-36 -45 -39 -51q2 -2 5 -2l20 9q21 8 53 8q81 0 132 -34q14 -10 31 -22.5t27 -18.5q0 -8 -9 -14l-10 -6q-4 0 -35 23t-55 36q-39 21 -86 21q-28 0 -47 -6.5t-31.5 -15t-17.5 -10.5q-2 6 -2 9q0 11 13.5 30.5t14.5 24.5q-7 5 -11 8.5 t-5.5 6t-2 5t-0.5 5.5z" />
<glyph unicode="R" horiz-adv-x="1002" vert-adv-y="577" d="M885 0q-42 0 -68 42.5t-31 122.5q-5 65 -18 83q-20 -6 -47 -6q-17 0 -34 8t-25 16l-8 8q-22 -42 -39.5 -74t-35.5 -59.5t-30 -46.5t-28.5 -34.5t-26.5 -25t-28 -16.5t-28 -10.5t-32.5 -5.5t-35.5 -2h-42q-67 0 -122.5 42.5t-55.5 91.5q0 18 15.5 38t43.5 20q35 0 56 -18 t38 -50q8 -20 8 -24v-1q-7 -10 -22 -10q-14 0 -17 6q-1 4 -1 10q0 3 0.5 9t0.5 9q0 31 -16.5 44t-33.5 14q-21 0 -31 -24t-10 -43q0 -45 53.5 -73.5t101.5 -28.5q29 0 56.5 10t50 24t47 43t42 52t40 67.5t36 73.5t36.5 85.5t34.5 87.5t35.5 95l-109 -5q-43 0 -137.5 35.5 t-177 71.5t-95.5 36q-34 0 -55.5 -17.5t-21.5 -44.5q0 -44 28.5 -81t68 -57.5t74 -32t52.5 -11.5q23 0 49 16.5t38 20.5q28 0 44 -4t36 -20q-9 -12 -48 -19.5t-83 -7.5q-38 0 -72 7q-101 23 -159.5 82.5t-58.5 111.5q0 31 27 52t66 21q38 0 117 -35t164.5 -69.5t140.5 -34.5 q31 0 70 6t65 6q72 0 123 -50.5t51 -133.5q0 -44 -33 -78.5t-77 -50.5q16 -22 24 -87t19 -114t36 -49t41 16q1 1 6.5 8t10 10t11.5 3h14q11 0 18.5 3.5t10.5 6.5t9 12l1 -1q-26 -46 -51.5 -59t-65.5 -13zM724 550h-5q1 -1 8.5 -5t14 -11t9.5 -18q-25 -68 -43 -114.5t-24 -60 t-8.5 -19t-2.5 -9.5q18 14 35 14q44 0 73 -35q88 46 88 117q0 16 -7.5 38t-22.5 46t-45.5 40.5t-69.5 16.5zM722 291q-25 0 -25 -10q15 -5 29 -5q16 0 22 6q-7 9 -26 9z" />
<glyph unicode="S" horiz-adv-x="422" vert-adv-y="577" d="M318 596q19 0 32.5 -18.5t13.5 -40.5q0 -17 -9 -37q-5 -11 -21.5 -31.5t-25.5 -37.5q7 -23 34 -81t46.5 -113t19.5 -96q-2 -50 -21 -77q-27 -41 -60.5 -52.5t-88.5 -11.5q-71 0 -116 24.5t-62 52.5q-17 21 -17 50q0 54 45 54q37 0 63 -22t34 -40.5t8 -25.5q-8 -9 -20 -9 q-15 0 -18 5q-1 2 -1 9q0 1 0.5 3.5t0.5 14.5q0 22 -15.5 39t-36.5 17q-31 0 -31 -68q0 -32 41 -58.5t96 -31.5h13q13 1 26.5 4t31.5 9.5t35 21t30 35.5q23 37 23 76q0 27 -10 56.5t-34 83.5t-39 94q-5 10 -8 15q-20 -16 -37.5 -29t-41 -32.5t-70.5 -60.5q35 41 63 65.5 t42.5 39.5t34.5 51q0 6 -1.5 24.5t-1.5 28.5q0 56 13.5 78t39.5 22zM308 541q-18 0 -18 -35q0 -5 1.5 -19.5t1.5 -22.5q17 23 22.5 32t5.5 18q0 11 -4 19t-9 8z" />
<glyph unicode="T" horiz-adv-x="672" vert-adv-y="577" d="M173 703q50 0 107.5 -20.5t100.5 -44.5t100 -44.5t106 -20.5q47 0 144.5 26.5t164.5 26.5q46 0 91.5 -12.5t45.5 -39.5q0 -12 -5.5 -20t-13.5 -8q-12 0 -23 7.5t-21.5 17t-43.5 17t-83 7.5q-20 -1 -74 -19.5t-70 -19.5l7 -4q8 -5 14 -11.5t10 -16.5q-21 -45 -56 -145 t-71 -183t-75 -132q-39 -41 -76.5 -52.5t-95.5 -11.5h-19q-105 0 -156 77q-13 19 -13 52q0 38 17.5 48.5t52.5 10.5q32 0 52 -21.5t24.5 -40t4.5 -31.5v-1q-9 -10 -21 -10q-11 0 -17 6q-2 8 -2 10v18q0 24 -15 41t-33 17q-37 0 -37 -71q0 -27 47 -59t94 -32q61 0 94.5 17.5 t83.5 73.5q28 39 68 140.5t74 200.5t39 110q-6 0 -34.5 -2t-43.5 -2q-65 0 -131 21t-111 46t-94.5 46t-85.5 21q-13 0 -19 -1q-18 -3 -38 -17t-20 -40q0 -87 108 -150q54 -29 107 -29q18 0 30.5 5t27 14t27.5 14h5h3q41 0 70 -24q-10 -10 -56 -20q-30 -5 -69 -5t-72 8 q-62 13 -108 44q-53 32 -78 75t-25 70q0 31 26 52t60 21z" />
<glyph unicode="U" horiz-adv-x="920" vert-adv-y="577" d="M823 14q17 0 29.5 15.5t19.5 31t11 15.5q5 0 11.5 -7.5t10.5 -7.5t14 12l1 -1q-42 -72 -99 -72q-31 0 -51.5 21.5t-26 44.5t-11.5 37q-77 -73 -103 -88t-81 -15q-45 0 -80 34.5t-35 122.5q0 42 30.5 120t78.5 190q-63 -21 -94 -21q-44 0 -79.5 15.5t-55.5 34t-50 34 t-65 15.5q-40 0 -57 -28.5t-17 -68.5q0 -19 6 -42.5t20 -25.5q9 0 9 15q0 4 -0.5 12t-0.5 11q0 11 5 11q6 0 19.5 -9t13.5 -18q0 -4 -12 -19q-16 -18 -30 -18q-26 0 -46.5 29t-20.5 67q0 33 24.5 66t79.5 33q40 0 75.5 -15.5t57 -34t52 -34t60.5 -15.5q49 0 111 43 q9 8 22 40q7 27 31 34q25 -5 25 -22q-1 -25 -17 -44q-20 -24 -31 -57q-6 -17 -37 -84.5t-51.5 -129.5t-20.5 -107q0 -120 84 -120q28 0 74 37t96 96q-6 23 -6 41q0 61 54 209.5t92 175.5q9 5 18 5q24 0 24 -55q0 -61 -37.5 -168t-114.5 -224q8 -27 14 -53t20.5 -45t36.5 -19 zM870 562q-30 -40 -79 -170t-49 -195q0 -7 2 -19q128 218 128 372q0 10 -2 12z" />
<glyph unicode="V" horiz-adv-x="379" vert-adv-y="577" d="M149 596q25 0 39.5 -18.5t14.5 -37.5t-7 -36t-20.5 -38.5t-19.5 -35.5q0 -21 61 -126q15 -25 43 -128q50 102 96 156q78 94 78 172q0 64 -29 64q-14 0 -24 -21.5t-12 -33.5q1 47 36 82q36 -3 54.5 -22t20.5 -77q-1 -78 -86 -172q-53 -59 -107 -169q-6 -12 -13.5 -35 t-9.5 -29q-2 -8 -5.5 -22.5t-7 -26.5t-8.5 -21q-12 -21 -25 -21t-27.5 6t-14.5 13q0 4 8 9q4 3 5 4q35 30 35 88q0 16 -4 46q-7 64 -27 107l-67 130q-1 -1 -15 -19t-35 -42q-5 -6 -16.5 -16.5t-16.5 -15.5q3 4 14 18t16 22q13 19 45 87q-1 13 -4 35.5t-3 36.5q0 42 7 57 q12 27 31 30zM151 547q-18 0 -18 -36q0 -19 6 -55q15 28 19.5 37.5t4.5 20.5q0 33 -12 33z" />
<glyph unicode="W" horiz-adv-x="1021" vert-adv-y="577" d="M1019 595q32 0 60 -27.5t28 -56.5q0 -22 -13 -70t-39 -115.5t-78.5 -147t-120.5 -142.5q-43 -36 -106 -36q-30 1 -52 25.5t-27 47.5t-10 32q-40 -36 -66 -59.5t-51 -34.5t-58 -11q-127 7 -127 127q0 62 32.5 148t65.5 141l33 55q-53 -17 -86 -17q-28 0 -47.5 4.5 t-26.5 7.5t-23.5 17t-21.5 18q-45 36 -85 36q-30 0 -48 -19.5t-22.5 -40t-4.5 -43.5q0 -28 8 -49q7 -18 19 -18q8 0 8 15q0 4 -1 12.5t-1 12.5v5q0 4 5 4q14 0 29 -21q1 -2 1 -6q0 -11 -11 -21.5t-27 -10.5q-23 0 -45.5 29t-22.5 60q0 45 32 74.5t72 29.5q37 0 64 -13 t41 -28.5t37.5 -28.5t52.5 -13q50 0 109 41q10 8 21 39q10 27 32 35q23 0 23 -22q-3 -27 -15 -44q-16 -15 -30 -57l-21 -37q-21 -37 -46.5 -88.5t-46.5 -116t-21 -109.5q0 -94 91 -94q57 0 168 138q-4 15 -4 40q0 77 39 173.5t93 137.5q9 6 16 6q21 0 21 -43 q0 -86 -134 -332q27 -119 70 -119q30 0 75 40q86 72 166.5 222t80.5 229q-1 30 -17 52.5t-36 22.5q-52 0 -52 -71q0 -21 9 -34.5t18.5 -20.5t9.5 -12q0 -7 -5 -13.5t-12 -6.5q-11 0 -32.5 29t-21.5 56t20.5 57t64.5 30zM790 489q-40 -34 -80.5 -123t-40.5 -155q0 -17 3 -30 l30 56q31 56 61.5 130.5t30.5 110.5q0 7 -4 11z" />
<glyph unicode="X" horiz-adv-x="501" vert-adv-y="577" d="M396 22q21 0 36 9t28 20l14 5q14 4 26 17l1 -1q-17 -30 -45 -51t-61 -21q-17 0 -31 4.5t-24 13.5t-18.5 19.5t-13.5 24t-8.5 25t-6 25.5t-3.5 22t-1.5 18t-0.5 11q-16 -41 -61 -102t-83 -61q-54 0 -77.5 33t-23.5 66q0 6 2 12q5 -26 16.5 -43.5t25.5 -24t23.5 -9 t17.5 -2.5q25 0 52 27.5t50.5 71.5t41.5 86.5t32 85.5q-6 2 -14 4q-4 1 -10 1q-11 0 -18.5 -7.5t-8.5 -7.5t-11 5q12 18 30 18q15 0 34 -8q10 39 10 99q0 169 -66 169q-29 0 -54.5 -15.5t-38 -31.5t-27.5 -40t-17 -26l-15 1q33 63 67 96.5t84 34.5q41 0 71 -34.5t30 -107.5 q65 142 145 142q49 0 84 -31q19 -20 25 -46q-3 -9 -8 -9q-8 0 -20 25q-29 40 -68 40q-29 0 -52 -29q-69 -79 -117 -245q8 -2 13 -2q12 0 19.5 3t14.5 11t10 10l4 -4q3 -5 4 -7q-30 -20 -39 -20q-8 0 -28 4q-6 -13 -11 -56.5t-5 -66.5q0 -150 75 -150z" />
<glyph unicode="Y" horiz-adv-x="839" vert-adv-y="577" d="M881 595q24 0 24 -65q0 -23 -6 -59.5t-43 -134t-102 -205.5q-13 -55 -66 -218t-110 -290q-7 -15 -34 -30q-34 -18 -101 -22q-55 2 -105 28q-77 48 -77 112q0 20 11 36.5t38 16.5q49 0 82 -34q9 -9 20.5 -27.5t11.5 -32.5q-6 -11 -23 -11q-13 0 -20 7q1 6 1 29q0 17 -9 36 q-7 8 -20 15t-20 7q-16 0 -27 -22t-11 -46q0 -51 49 -77q43 -28 96 -28q44 0 67 20q35 31 48 58q22 45 88 232l66 188q-34 -32 -49 -44t-40 -23t-56 -11q-29 0 -52 10.5t-36 28.5t-22.5 37t-13 41.5t-5 36.5t-1.5 27q0 31 13 75.5t35.5 98t51.5 128.5q-57 -32 -86 -32 q-48 0 -84.5 15.5t-55 34t-47 34t-62.5 15.5q-31 0 -49 -22t-21.5 -41t-3.5 -38q0 -27 7.5 -48t19.5 -21q8 0 8 14q0 7 -0.5 14t-0.5 17q0 4 5 4t17.5 -9t12.5 -18q0 -13 -8 -21q-12 -16 -31 -16q-25 0 -46.5 32t-21.5 64q0 43 33 72.5t71 29.5q40 0 73.5 -15t53.5 -33.5 t52 -33.5t68 -15q20 0 38.5 8.5t27.5 15.5t36 31q9 7 20 39q10 27 31 34q7 0 12 -3q6 -1 14.5 -14t8.5 -19v-1q-1 -10 -14.5 -16.5t-16.5 -11.5q-14 -17 -24 -58q-18 -49 -51 -125.5t-45 -117t-12 -84.5q0 -71 29.5 -100.5t59.5 -29.5q61 0 172 135q34 137 54.5 223.5 t36.5 136t30.5 68t35.5 18.5zM872 573q-25 -34 -42.5 -93t-35.5 -148t-32 -138q22 37 67.5 159.5t45.5 207.5q0 9 -3 12z" />
<glyph unicode="Z" horiz-adv-x="695" vert-adv-y="577" d="M614 5q-9 -5 -49 -5q-31 0 -47 13.5t-22 32.5t-26 50.5t-54 57.5q-37 -65 -108.5 -109.5t-125.5 -44.5q-53 0 -96 30.5t-43 77.5q0 21 7 39t25 37t56.5 30t94.5 11q96 0 160 -32q11 21 43.5 90t57 112t57.5 85q-50 8 -100.5 26.5t-80 32.5t-32.5 14t-38 -59t-45 -59 q-9 0 -24 34q65 99 75.5 113t18.5 14q12 0 29.5 -12.5t37.5 -29t65 -34.5t104 -27q29 37 71 67.5t83 30.5q25 0 25 -40q0 -29 -22 -47.5t-48 -25t-54 -6.5q-4 0 -12 0.5t-12 0.5q-70 -115 -104.5 -189.5t-54.5 -110.5q39 -29 60 -52t34.5 -45t17.5 -28q15 -18 42 -18 q14 0 24.5 9t26.5 25h4q5 0 23.5 -2t22.5 -2t13 13l1 -1q-14 -24 -31.5 -37.5t-49.5 -29.5zM377 177q-54 34 -131 34q-38 0 -70 -9t-58.5 -37.5t-26.5 -73.5q0 -7 3.5 -16.5t12 -23t28 -22.5t46.5 -9q49 0 113 60t83 97zM593 488h23q90 0 90 69q0 20 -8 20q-7 0 -20 -5 t-38.5 -26.5t-46.5 -57.5z" />
<glyph unicode="[" horiz-adv-x="246" vert-adv-y="577" d="M173 -100q-3 -11 -8.5 -22t-5.5 -13q-35 -3 -64 -3q-6 0 -28 1.5t-56 1.5q1 2 22.5 130t43.5 246q2 14 28 148.5t35 183.5q0 1 9 5q1 2 3 8q57 -1 91 -1q12 0 60 5q-3 -12 -8.5 -20.5t-5.5 -9.5v-1q-35 -3 -64 -3q-9 0 -25.5 1t-34.5 1l-50 -274q-59 -336 -65 -391 q40 -1 77 -1q8 0 46 8z" />
<glyph unicode="\" horiz-adv-x="460" vert-adv-y="0" d="M103 560l39 18l286 -600l-39 -19q-20 49 -51 128t-44 109.5t-41 90t-62.5 121.5t-87.5 152z" />
<glyph unicode="]" horiz-adv-x="225" vert-adv-y="577" d="M-56 -100q19 -8 55 -8q25 0 65 1q32 128 78 391l49 274q-18 0 -34.5 -1t-25.5 -1q-29 0 -63 3v1q0 1 -1 8.5t-2 21.5q47 -5 58 -5q34 0 92 1q0 -2 -0.5 -4.5t-0.5 -3.5q8 -3 8 -5q-11 -58 -58 -332q-23 -127 -39.5 -213t-21.5 -112t-7 -36.5t-3 -14.5q-34 0 -56.5 -1.5 t-28.5 -1.5q-18 0 -63 4q1 1 1 2q-2 6 -2 32z" />
<glyph unicode="^" horiz-adv-x="226" vert-adv-y="577" d="M174 508q18 -40 45 -71.5t33 -51.5q-51 34 -66.5 48t-33.5 40q-10 -16 -21.5 -25.5t-44 -29t-53.5 -33.5q6 19 44.5 50.5t56.5 72.5h40z" />
<glyph unicode="_" horiz-adv-x="505" vert-adv-y="577" d="M433 -108q-3 -11 -8.5 -21.5t-5.5 -11.5v-1q-59 -3 -176 -3q-6 0 -83 1.5t-135 1.5q9 20 11 28q92 -2 187 -2q164 0 210 8z" />
<glyph unicode="`" horiz-adv-x="259" vert-adv-y="577" d="M108 585q15 15 27.5 27t18.5 12q15 0 21 -26v-6q0 -26 -46 -72q-5 -5 -19.5 -17t-17.5 -14q7 12 18.5 28.5t15.5 23.5q6 12 6 20q0 19 -24 24z" />
<glyph unicode="a" vert-adv-y="577" d="M281 274q5 0 10 -5t5 -16q-11 -44 -22 -81.5t-16.5 -53.5t-8.5 -30.5t-3 -26.5q0 -46 19 -46q20 0 33 10.5t42 47.5l1 -1q-12 -21 -20.5 -37t-23.5 -25.5t-38 -9.5q-44 0 -44 51q-38 -51 -93 -51q-49 0 -73 35t-24 77q0 67 48.5 124t112.5 57q23 0 48 -13.5t25 -23.5l7 9 q6 9 15 9zM109 14q20 1 29 3.5t26 16.5t33 49t35 94q-6 -11 -61 -43v2q35 30 51.5 49.5t16.5 39.5q0 23 -15.5 38.5t-33.5 15.5q-42 0 -84 -62t-42 -115q0 -48 14.5 -68t30.5 -20z" />
<glyph unicode="b" horiz-adv-x="274" vert-adv-y="577" d="M170 477q9 0 17.5 -6.5t8.5 -16.5q0 -46 -43 -161t-81 -115q-16 -64 -16 -81q0 -83 60 -83q47 5 82.5 69.5t35.5 126.5q0 9 -1.5 21t-3.5 22.5t-8.5 18t-15.5 7.5q-23 0 -43 -30t-25 -55q-1 -3 -2 -8q-1 -8 -6 -8q-16 0 -16 19q0 15 31.5 55.5t58.5 40.5q6 0 14.5 -3 t23 -11.5t24 -31.5t9.5 -57q0 -75 -48 -132.5t-108 -57.5q-9 0 -21.5 3t-30.5 12t-30.5 30.5t-12.5 52.5q-1 -2 -10 -10.5t-13 -15.5l-1 1q5 9 14 22t9 15q0 70 45.5 188.5t66.5 155.5q3 10 14 16.5t22 6.5zM175 447q-16 -28 -60 -134q-8 -19 -18.5 -55t-15.5 -49 q25 5 56 91.5t38 146.5z" />
<glyph unicode="c" horiz-adv-x="264" vert-adv-y="577" d="M192 293q37 0 62 -16t25 -29q0 -10 -9 -18t-17 -8q-14 0 -14 14q0 6 1.5 14t1.5 10q0 19 -48 19q-42 0 -86 -60t-44 -143q0 -25 13 -40t25.5 -18.5t24.5 -3.5q35 0 51 17q6 8 13 14.5t18 6.5q19 0 28 2t12.5 5t13.5 14l1 -1q-16 -25 -34 -41t-38.5 -22t-32.5 -7.5 t-31 -1.5q-10 0 -24 3.5t-33.5 12.5t-32.5 30t-13 51q0 42 18 85.5t57.5 77t91.5 33.5z" />
<glyph unicode="d" horiz-adv-x="337" vert-adv-y="577" d="M183 293q26 -1 43 -9.5t21 -16.5l4 -8q23 95 44 145.5t33 60t28 9.5q15 0 15 -19q0 -37 -22.5 -98.5t-50 -121t-31.5 -73.5q-4 -13 -11.5 -38t-12 -41t-4.5 -25q0 -44 24 -44q17 0 29 7.5t21 20.5t23 31l1 -1q-5 -11 -13.5 -23.5t-17 -23.5t-21 -18t-26.5 -7 q-50 0 -50 53q-44 -53 -101 -53q-31 0 -57 29.5t-26 80.5q0 75 40.5 129t117.5 54zM336 442q-26 -50 -49.5 -118t-24.5 -81q4 -6 4 -15q12 16 40 90t30 124zM107 14q17 0 24 2.5t24 14.5q20 15 36 45.5t22.5 54t11.5 38.5q-7 -7 -23 -17t-39 -18q63 45 63 92 q0 22 -13.5 37.5t-27.5 15.5q-43 0 -80 -50q-46 -56 -46 -146q0 -32 15.5 -50.5t32.5 -18.5z" />
<glyph unicode="e" horiz-adv-x="258" vert-adv-y="577" d="M192 293q29 0 56 -13.5t27 -37.5q0 -6 -3.5 -17t-14 -28.5t-36 -29.5t-61.5 -12q-18 0 -35.5 4t-18.5 4q-11 0 -34 -21q-12 -32 -12 -60q0 -68 73 -68q27 0 43 16q1 1 6.5 8t10 10t11.5 3h14q7 0 12.5 1t9 3t6.5 4.5t5.5 6t5.5 7.5l1 -1q-18 -33 -40 -50t-37 -19.5 t-41 -2.5q-24 0 -48.5 6t-48 29t-23.5 60q-3 -2 -20 -23l-1 1q15 25 21 32q11 52 34 97q46 91 138 91zM194 279q-56 0 -117 -123q24 18 28 18q1 0 7.5 -1t16.5 -2t20 -1q38 1 63.5 31.5t25.5 49.5q0 28 -44 28z" />
<glyph unicode="f" horiz-adv-x="153" vert-adv-y="577" d="M187 411q0 9 -0.5 16.5t-1.5 11.5t-1 5q-18 -33 -47 -135t-45 -148q27 25 61 106t34 144zM45 131q45 162 55 196t42 122q3 10 18 17.5t25 7.5q23 0 23 -56q0 -68 -45.5 -169t-77.5 -109q-4 -16 -48.5 -194.5t-70.5 -278.5q-12 -45 -43.5 -69.5t-74.5 -24.5q-11 0 -23 3 q6 27 18 27t22 -2t14 -2q16 0 29 14t28 57q11 32 34 129.5t46.5 202t26.5 116.5q-11 -8 -17.5 -14.5t-14 -16.5t-11.5 -15l-1 2q14 24 20 31.5t26 25.5z" />
<glyph unicode="g" horiz-adv-x="301" vert-adv-y="577" d="M186 293q27 0 49 -10t30 -28q15 27 26 27q10 0 10 -26q0 -42 -26 -99q-2 -5 -19.5 -71t-52 -178.5t-75.5 -222.5q-53 -115 -145 -115q-15 0 -25 1.5t-24.5 6t-22 17.5t-7.5 33q0 22 6 37t21 32t40 47q14 18 52 62t87 109h2q-40 -57 -76 -106.5t-50.5 -68.5t-24.5 -34.5 t-13 -26.5q-10 -34 -10 -49q0 -45 46 -45q87 0 143 196q56 180 73 246q-30 -27 -69 -27q-38 0 -70.5 28.5t-32.5 83.5q0 38 17 80q18 40 48 68q34 33 93 33zM93 196q-24 -51 -24 -109q0 -73 55 -73q20 0 40 15.5t31 35.5q13 22 18 35t9.5 32t10.5 36q-39 -34 -62 -34v1 q21 7 27 12q44 33 44 73q0 24 -16 41.5t-36 17.5q-51 0 -97 -83z" />
<glyph unicode="h" horiz-adv-x="318" vert-adv-y="577" d="M183 472q8 0 14.5 -11.5t6.5 -25.5q0 -16 -44 -94q-15 -25 -33 -60t-26 -65q26 49 52.5 63t64.5 14q91 0 91 -59q0 -35 -42 -101t-42 -87q0 -32 20 -32q16 0 30 10.5t42 48.5l1 -1q-10 -17 -16 -27t-16 -22t-21.5 -17.5t-24.5 -5.5q-49 0 -49 59q0 20 43 92.5t44 95.5 q0 32 -61 32q-29 0 -52 -28t-81 -131q-7 -18 -15 -48t-13 -45l-4 -7q-3 -6 -9.5 -13t-13.5 -7q-16 0 -16 14l48 153q-5 -9 -61 -95l-1 1q51 85 74 155q36 112 62.5 178t47.5 66zM191 433q0 7 -4 7q-7 0 -19 -23q-9 -19 -17.5 -45t-8.5 -31v-1q4 4 26.5 44.5t22.5 48.5z" />
<glyph unicode="i" horiz-adv-x="186" vert-adv-y="577" d="M119 289q9 0 15.5 -7t6.5 -16q0 -21 -17.5 -61.5t-44.5 -64.5q-13 -39 -13 -77q0 -49 27 -49q11 0 16.5 3.5t18.5 19.5q3 5 7.5 9.5t11.5 4.5h10q10 0 15 2.5t7 7.5t6 12l1 -1q-12 -29 -39 -56q-21 -16 -43 -16q-38 0 -57 22.5t-19 54.5q0 14 6 42q-14 -16 -34 -47l-1 1 l25 46q5 8 13 13q11 47 34.5 102t47.5 55zM125 259q0 -1 -11.5 -23t-19 -39t-11.5 -35q36 39 42 97zM168 461q0 6 11 12t11 16q0 2 -2 5l-3 4q20 10 31 10t11 -10q0 -17 -14 -32t-30 -15q-15 0 -15 10z" />
<glyph unicode="j" horiz-adv-x="152" vert-adv-y="577" d="M173 461q0 5 11.5 11.5t11.5 15.5q0 3 -2 6l-3 3q22 11 31 11q11 0 11 -10q0 -19 -15 -33.5t-30 -14.5t-15 11zM-24 -315q-16 -47 -59 -81t-88 -34q-15 0 -25.5 1.5t-25 6t-22 17.5t-7.5 33q0 22 6.5 37t21.5 32t40 47q13 16 55 66t85 107l2 -2q-40 -58 -76 -107t-51 -68 t-25 -34.5t-13 -26.5q-10 -34 -10 -49q0 -45 46 -45q25 0 45.5 12t34 31.5t25.5 45t20 53t18 54.5q19 60 58.5 198t43.5 157q-19 -4 -34 -17t-41 -47l-1 1q17 30 29.5 44t28 24.5t26.5 20.5q21 93 30 106q16 27 29 27q10 0 10 -27q0 -32 -9 -59t-20 -49q-1 -2 -7 -22 q-67 -238 -140 -453z" />
<glyph unicode="k" horiz-adv-x="297" vert-adv-y="577" d="M91 266q15 69 42 138.5t52 69.5q7 0 15.5 -12t8.5 -26q0 -20 -41 -102q-4 -6 -18.5 -32.5t-24.5 -42.5l-25 -78q18 13 40 27.5t44 31t59 47.5q12 5 18 5q9 0 9 -10q0 -56 -30 -56q-2 0 -5.5 2t-5.5 2q-20 -15 -67.5 -44t-47.5 -33q0 -29 40.5 -84t72.5 -55q12 0 25 10 t23 23t21 26l1 -1q-42 -72 -80 -72q-42 0 -85.5 59t-43.5 75q-8 -10 -23 -55q-5 -25 -15 -52.5t-25 -27.5q-12 0 -12 12q0 21 28 101l28 81q-7 -6 -35 -58.5t-34 -62.5l-1 1q13 31 48 102.5t44 90.5zM167 417q-9 -18 -17 -49.5t-8 -37.5l1 -1q6 5 28 48t22 55q0 9 -5 9 q-9 0 -21 -24zM249 263q-1 0 -6 -11t-10 -17l5 -1q5 0 7 3.5t2.5 10t1.5 15.5z" />
<glyph unicode="l" horiz-adv-x="248" vert-adv-y="577" d="M199 469q19 0 19 -27q0 -62 -43 -154q-17 -35 -31 -66.5t-30 -55t-29 -26.5q-12 -51 -12 -77q0 -27 12 -38t38 -11q29 0 43 15q2 2 7 8.5t10 10t11 3.5q1 0 4.5 -0.5t9.5 -0.5q12 0 19 3t10.5 6.5t9.5 13.5l1 -1q-14 -27 -32.5 -44t-34.5 -21t-31.5 -6.5t-23.5 -0.5 q-91 0 -91 75q0 20 7 43q-14 -10 -25 -25t-17 -21l-1 1q8 14 13.5 22.5t12 15.5t20.5 20q43 158 111 315q4 10 18 16.5t25 6.5zM198 441q-28 -51 -43 -95l-64 -185q17 15 35 55t32 76q36 80 40 149z" />
<glyph unicode="m" horiz-adv-x="484" vert-adv-y="577" d="M108 293q18 0 18 -21q0 -13 -8.5 -31t-13.5 -23q-1 -3 -8.5 -32t-13.5 -64q17 42 28 66t17 33.5t20 30.5q11 16 35 28.5t45 12.5q27 0 42 -16.5t15 -41.5q0 -7 -2 -13l8 11q7 11 20.5 24.5t36 24.5t46.5 11q36 0 53.5 -10.5t17.5 -42.5q0 -43 -36 -110t-37 -90 q0 -15 3.5 -20.5t17.5 -5.5q16 0 21 3q13 8 22 17.5t14.5 18.5t13.5 20l1 -1q-7 -13 -12.5 -22.5t-10.5 -16.5t-11 -13t-15 -13q-12 -7 -29 -7q-21 0 -35.5 13t-14.5 34q0 18 37 92.5t37 111.5q0 28 -26 28q-25 0 -53 -21.5t-39 -44.5q-21 -35 -85 -203q-5 -10 -15 -10 q-18 0 -18 12q0 9 7 28q56 153 56 196t-26 43q-34 0 -70 -64q-24 -42 -55.5 -113t-40.5 -90q-5 -12 -16 -12q-18 0 -18 13q0 6 4 14q4 20 31 167q-6 -9 -30 -57t-36 -65l-1 1q32 59 72 152l8 33q3 6 5 14t8.5 14.5t15.5 6.5z" />
<glyph unicode="n" horiz-adv-x="344" vert-adv-y="577" d="M248 293q44 0 61 -16t17 -32q0 -40 -39 -111.5t-40 -93.5q0 -13 8 -21q5 -5 16 -5q30 0 72 59l1 -1q-25 -46 -51 -65q-14 -7 -29 -7q-32 0 -45 27q-5 11 -5 26q0 13 37.5 87t37.5 107q0 18 -9.5 25t-33.5 7q-47 0 -84 -63l-97 -204q-6 -12 -17 -12q-17 0 -17 12 q0 5 2 9.5t2 5.5l31 167q-10 -14 -31 -57t-35 -65l-1 1q41 77 61 131l19 53q7 36 29 36q17 0 17 -24q0 -23 -22 -51q-10 -30 -21 -98q52 117 63 131q34 42 103 42z" />
<glyph unicode="o" horiz-adv-x="295" vert-adv-y="577" d="M163 293q22 0 33 -14t11 -26q0 -7 -7 -7q-3 0 -10 1.5t-9 1.5q-7 30 -18 30q-22 0 -58.5 -52.5t-36.5 -147.5q0 -65 50 -65q58 0 90 79q-12 25 -12 60q0 29 8 61l8 33q-1 6 -1 20q0 24 13 24q5 0 15.5 -7.5t14.5 -19.5q9 -23 13 -50l4 -27q0 -53 -30 -120q8 -19 20 -19 q16 0 33 25l1 -1q-2 -9 -14.5 -19.5t-19.5 -10.5q-19 0 -27 14q-37 -56 -97 -56q-37 0 -62 12.5t-34.5 32t-12.5 31.5t-3 21q0 79 48 137.5t90 58.5zM222 249q0 -6 -1 -9q0 -2 -4 -15t-7 -30.5t-3 -35.5q0 -28 8 -52q16 39 16 81q0 23 -9 61z" />
<glyph unicode="p" horiz-adv-x="317" vert-adv-y="577" d="M316 224q0 -38 -15.5 -88t-46.5 -88q4 -2 10 -2q21 0 52 27l1 -1q-27 -40 -67 -40q-6 0 -8 1q-4 -8 -23.5 -20.5t-36.5 -12.5t-29 11.5t-12 20.5q0 21 10.5 35.5t31.5 14.5q22 0 48 -24q14 27 29 77.5t15 89.5q0 54 -26 54q-13 0 -28 -9t-30 -25t-28.5 -33.5t-26.5 -38 t-21 -34.5t-15 -28l-8 -14q-5 -75 -55.5 -255.5t-81.5 -232.5q-19 -35 -37 -35q-13 0 -21 11.5t-8 27.5q0 8 6 41.5t22.5 102t58.5 175t101 218.5q4 14 10.5 60t6.5 61q0 5 -5 5q-6 -2 -13.5 -33t-26.5 -81.5t-49 -89.5l-1 1q26 45 52 131.5t36 86.5q0 1 10 1q9 0 9 -24 q0 -48 -11 -100q27 51 60 81t53 37t36 7q28 0 50 -15t22 -54zM74 67q-58 -107 -101.5 -255t-43.5 -182q4 -2 5 -2q19 0 73.5 190.5t66.5 248.5zM186 68q-28 0 -28 -36q0 -14 23 -16q11 0 19 4t12.5 10.5t11.5 14.5q-8 8 -20.5 15.5t-17.5 7.5z" />
<glyph unicode="q" horiz-adv-x="297" vert-adv-y="577" d="M188 293q49 0 76 -34q9 27 24 27q9 0 9 -27q0 -43 -31 -115q-38 -128 -84 -261t-74 -202l-27 -69q0 -1 6 -1q5 0 31 26q14 14 46 40l1 -1q-18 -35 -62 -83q-10 -11 -30.5 -20t-30.5 -9t-10 13q0 4 154 439q-27 -16 -67 -16q-45 0 -69.5 33.5t-24.5 80.5q0 83 53.5 131 t109.5 48zM66 100q0 -86 47 -86q11 0 25 5.5t34.5 27t36.5 56.5l21 63q-11 -10 -20.5 -16.5t-16.5 -9.5t-14.5 -5t-15.5 -4l-1 1l20 8q19 9 38.5 34t19.5 58q0 19 -15.5 33t-33.5 14q-42 0 -83.5 -50t-41.5 -129z" />
<glyph unicode="r" horiz-adv-x="290" vert-adv-y="577" d="M204 293q7 0 16 -5t9 -11q0 -7 -0.5 -19.5t-0.5 -16.5q0 -10 9 -16t21 -6q39 0 39 21q7 7 13.5 16t7.5 9q8 0 13 -4t5 -7q0 -21 -21 -37t-46 -16q-44 0 -58 28q-10 -12 -45 -91l-34 -80q-5 -29 -16 -52q-4 -6 -11 -6q-25 0 -25 13q0 6 2 11.5t7.5 16t10.5 21.5 q36 101 41 161q0 47 -30 47q-24 0 -35 -35q-21 -66 -76 -163l-1 1q10 21 21 40t23.5 54.5t19.5 74.5q4 25 19 36.5t32 11.5q20 0 36.5 -15.5t16.5 -40.5v-23q5 9 14 33q12 33 13 41q4 8 10 8z" />
<glyph unicode="s" horiz-adv-x="250" vert-adv-y="577" d="M143 293h1q8 0 35 -32q5 -34 8 -44q4 -14 25.5 -55.5t22.5 -71.5q-1 -49 -34.5 -69.5t-73.5 -20.5q-30 0 -51 10.5t-30 22.5t-12 23l-4 10q0 5 1 10q1 0 6.5 1.5t7.5 1.5q12 0 34 -12q6 -6 6 -11t-8 -12t-8 -11q0 -8 14 -13.5t31 -5.5q23 0 50 19t27 61q0 37 -40 100 q-6 9 -8.5 18.5t-3.5 9.5l-55 -52q-6 -7 -17 -19t-29 -33l-1 1q27 39 60 82q14 17 29 45q3 5 8 25.5t9 21.5z" />
<glyph unicode="t" horiz-adv-x="269" vert-adv-y="577" d="M207 469q20 0 20 -23q0 -27 -17.5 -85.5t-19.5 -58.5q20 -2 26 -2q17 0 27.5 7t24.5 27h1q12 -12 14 -19q-33 -25 -56 -25q-4 0 -11.5 1t-16.5 2.5t-11 1.5q-23 -60 -40 -94t-25 -43t-21 -19q-13 -39 -13 -70q0 -34 15 -44.5t42 -10.5q28 0 43 16q7 10 12 14t8 5t14 1h6 q11 0 14.5 0.5t8 2.5t7 7t9.5 13l1 -1q-20 -34 -48 -57q-26 -15 -77 -15q-43 0 -69 17q-24 21 -24 58q0 10 7 43q-36 -19 -58 -46l-1 1q10 16 19.5 25.5t23 18.5t19.5 14q29 101 59 181q-14 4 -15 4q-15 0 -24 -13.5t-12 -13.5q-5 0 -12 3.5t-7 5.5q12 20 20 25.5t22 5.5 q8 0 18.5 -4.5t12.5 -4.5l47 127q4 9 15.5 15.5t21.5 6.5zM206 440l-48 -129q2 -1 10 -3l8 -3q25 75 30 135zM154 302l-47 -142q8 7 14.5 15.5t13.5 24t10.5 24.5t13 35.5t14.5 38.5q-1 0 -19 4z" />
<glyph unicode="u" horiz-adv-x="356" vert-adv-y="577" d="M126 282q-7 -7 -20 -43.5t-17 -57.5q13 14 29.5 46.5t16.5 45.5q0 9 -9 9zM85 155q-10 -43 -12 -69q0 -29 13 -50.5t39 -21.5q43 0 64.5 27t39.5 88q2 6 16.5 52.5t29.5 100.5q5 11 23 11q19 0 19 -15q0 -17 -25.5 -89.5t-25.5 -105.5q0 -69 26 -69q22 0 38 16q7 9 25 43 l1 -1q-19 -49 -39 -64q-13 -8 -26 -8q-30 0 -39.5 19t-12.5 48q-4 -9 -9 -17t-9.5 -15.5t-12.5 -14t-18.5 -11t-26.5 -7t-37 -2.5q-40 0 -61.5 28t-21.5 61q0 18 3 29q-16 -9 -23 -16q-10 -10 -23 -30l-1 1q4 8 19 31t29 36q1 2 12.5 50.5t26.5 76.5t36 28q26 0 26 -23 q0 -14 -16 -49.5t-47 -67.5z" />
<glyph unicode="v" horiz-adv-x="302" vert-adv-y="577" d="M264 293q41 -1 43 -43q0 -50 -49 -93q-4 -4 -27 -22.5t-40.5 -38t-28.5 -44.5q-2 -5 -6 -18.5t-8.5 -20t-13.5 -11.5q-4 -2 -7 -2q-31 0 -31 12q0 6 11 10q19 13 19 48q0 48 -18.5 88t-22.5 55q-15 -28 -28 -54t-29 -51t-28 -36l-1 1q24 34 48.5 90.5t29.5 84.5 q0 14 7 30q6 15 18 15q14 -1 14 -19v-4t-0.5 -4.5t-0.5 -12.5v-26q1 -22 20.5 -62.5t22.5 -57.5q13 17 38 37.5t31 27.5q43 43 43 81q0 14 -7 14t-16 -17t-10 -17h-4q0 16 11 38t20 22z" />
<glyph unicode="w" horiz-adv-x="393" vert-adv-y="577" d="M88 293q29 0 51 -22q13 -16 13 -49q0 -15 -6 -51q3 3 35 30t46 49q0 10 5 21t17 11q15 -4 15 -27q0 -6 -1.5 -15t-1.5 -11q0 -22 7 -62t8 -59q4 11 28 36t44 54.5t20 56.5q0 17 -8 17q-7 0 -14 -14.5t-9 -22.5q4 58 30 58q31 0 31 -40q0 -36 -25.5 -71.5t-57.5 -70.5 t-41 -60q-3 -5 -9 -20t-12 -23t-14 -8q-23 0 -23 10q0 7 7 12q15 13 19 30.5t4 50.5q0 23 -6 64.5t-7 49.5q-6 -8 -20 -19.5t-17 -14.5q-23 -21 -33 -35t-40 -64q-2 -5 -8.5 -23.5t-9.5 -28.5q-8 -32 -32 -32q-17 0 -17 20q0 14 9 25q7 11 12.5 17.5t7.5 9t5.5 8t8.5 15.5 q11 28 18.5 74t7.5 55q0 58 -36 58q-5 0 -15 -8q-7 -6 -28.5 -86.5t-45.5 -115.5l-1 1q25 50 39.5 113t27.5 94q9 13 22 13z" />
<glyph unicode="x" horiz-adv-x="293" vert-adv-y="577" d="M44 45q1 0 1 -3q0 -2 -0.5 -6t-0.5 -7q0 -15 17 -15q19 0 32 16q10 11 18.5 26t14.5 30t12 32t11 33q13 41 13 78q0 50 -33 50q-12 0 -25 -8t-27 -25.5t-20 -26t-19 -27.5h-1q51 101 102 101q24 0 35.5 -20.5t11.5 -48.5q0 -2 -0.5 -6.5t-0.5 -7.5q5 9 12 27.5t24.5 37 t37.5 18.5q63 0 68 -41q-1 -1 -16 -5.5t-16 -4.5l-7 18q-6 19 -22 19q-15 0 -29 -16q-26 -29 -45.5 -93.5t-19.5 -109.5q0 -19 10 -32t23 -14q23 2 38 11.5t49 47.5l1 -1q-16 -25 -26.5 -37.5t-28 -23.5t-37.5 -11t-37 20.5t-17 37.5v19q-12 -31 -35 -54t-46 -23 q-15 0 -25 4t-14.5 12.5t-5.5 12.5t-2 14q18 3 24 3q1 0 1 -1z" />
<glyph unicode="y" horiz-adv-x="317" vert-adv-y="577" d="M126 282q-6 -7 -18 -43t-16 -58q13 14 28 46.5t15 45.5q0 9 -9 9zM317 271q0 -37 -16.5 -76t-24.5 -48q-66 -252 -142 -463q-50 -114 -141 -114q-16 0 -27.5 1.5t-26 6.5t-22 17.5t-7.5 31.5q0 23 5 36t20 31t42 50q18 22 41 49.5t45.5 55.5t59.5 77l2 -1 q-41 -58 -88.5 -122.5t-60 -83t-22 -41.5t-9.5 -48q0 -20 13 -32.5t32 -12.5q27 0 53 16q28 18 57 84t52.5 151t53.5 183q-11 -9 -37 -14t-43 -5q-69 0 -80 118q-10 -7 -24 -20q-16 -15 -22 -26l-1 1q3 13 22 37l25 30q6 19 12 48q14 64 25 84.5t37 20.5q8 0 12 -1 q17 0 17 -21q0 -9 -3 -23t-17.5 -41.5t-37.5 -51.5q-12 -37 -12 -72q0 -69 49 -69q48 0 96 89q5 16 16.5 57t21.5 71.5t19 50.5q8 10 15 12q13 0 17 -4.5t4 -18.5z" />
<glyph unicode="z" horiz-adv-x="274" vert-adv-y="577" d="M269 292q19 0 19 -14q0 -18 -23.5 -38.5t-42.5 -25.5q-16 -23 -30 -41t-39 -48t-50 -62q7 -7 39.5 -27.5t48.5 -20.5q11 0 24 16t16 16q1 0 4.5 -1t6.5 -1q15 0 31 28l1 -1q-10 -18 -18 -31.5t-15 -22.5t-16.5 -13.5t-22.5 -4.5q-36 0 -108 51q-14 -19 -19.5 -26 t-17.5 -16t-23 -9q-27 0 -27 19q0 14 15.5 35.5t48.5 21.5q12 16 47 56t68 84q-30 6 -59.5 21t-34.5 24q-25 -15 -55.5 -98.5t-36.5 -90.5l-1 1q2 2 37.5 111t58.5 109q8 -1 13.5 -8.5t9.5 -17t6 -11.5q7 -8 23.5 -15t30.5 -11l15 -3q21 28 29 37.5t21 18.5t26 9z" />
<glyph unicode="{" horiz-adv-x="323" vert-adv-y="577" d="M222 -142q-33 2 -55.5 23t-30.5 44.5t-8 45.5q0 20 10.5 52t10.5 52q0 23 -5.5 40.5t-21 34.5t-27 26.5t-37.5 29.5q-11 8 -19 13.5t-12 11.5t-4 14q0 28 38 41q13 4 28.5 13.5t35 25.5t32.5 42.5t13 57.5q0 15 -5 43.5t-5 43.5q0 45 28.5 78.5t73.5 33.5 q43 0 68.5 -30.5t25.5 -60.5q0 -17 -10 -25t-23 -8q-10 0 -17 4q-8 4 -8 20q0 14 11 14q18 -15 28 -15q7 0 7 9q0 4 -5 13.5t-15 22t-30 22t-45 9.5q-22 0 -38 -9.5t-23.5 -23.5t-11 -27t-3.5 -24q0 -15 7.5 -44t7.5 -48q0 -38 -16.5 -70.5t-37 -50.5t-40 -34.5t-23.5 -25.5 q4 -11 20 -28t32 -32.5t28.5 -45t12.5 -65.5q0 -24 -11.5 -54.5t-11.5 -47.5q0 -11 3 -24.5t11.5 -29t26 -25.5t42.5 -10q26 0 26 -9q0 -5 -8 -9t-20 -4z" />
<glyph unicode="|" horiz-adv-x="102" vert-adv-y="577" d="M64 594q-2 -92 -2 -308q0 -366 8 -412q-15 -11 -34 -15q-4 52 -4 378q0 6 1.5 143.5t1.5 195.5q0 1 12 7.5t17 10.5z" />
<glyph unicode="}" horiz-adv-x="374" vert-adv-y="577" d="M224 510q0 -21 -12.5 -54.5t-12.5 -55.5t6 -40t21 -35t25.5 -26.5t34.5 -28.5q11 -8 18.5 -14t11.5 -12t4 -14q0 -27 -39 -40q-13 -4 -29 -12.5t-36.5 -24.5t-33.5 -43t-13 -60q0 -14 3 -40t3 -39q0 -47 -28.5 -80.5t-72.5 -33.5t-69.5 30.5t-25.5 62.5q0 18 10 26t24 8 q10 0 17 -4q9 -6 9 -26q0 -11 -6 -11q-5 0 -18.5 9t-17.5 9q-6 0 -6 -9q0 -5 5.5 -15.5t15.5 -23t30 -22t45 -9.5q28 0 46.5 17t24 35t5.5 34q0 13 -6.5 40.5t-6.5 45.5q0 32 11.5 59.5t28 45t33.5 30.5t31.5 24t17.5 18q-4 12 -19 29.5t-30 33.5t-27 46t-12 65 q0 26 13 57.5t13 49.5q0 17 -5.5 35.5t-24.5 35.5t-47 17q-25 0 -25 10q0 5 6.5 9t16.5 4q32 0 62.5 -31t30.5 -82z" />
<glyph unicode="~" horiz-adv-x="276" vert-adv-y="577" d="M19 188q28 43 38 43q17 0 57.5 -18t53.5 -18q20 0 32.5 9.5t22.5 22.5q1 -1 4.5 -5t6 -7t3.5 -7q-3 -2 -14.5 -13t-20.5 -15.5t-21 -4.5q-27 0 -61.5 18.5t-45.5 18.5q-14 0 -24.5 -16.5t-13.5 -16.5q-8 0 -17 9z" />
<glyph horiz-adv-x="379" vert-adv-y="577" />
<glyph unicode="&#xa0;" horiz-adv-x="300" vert-adv-y="577" />
<glyph unicode="&#xa1;" horiz-adv-x="194" vert-adv-y="577" d="M151 552q-7 0 -13.5 6.5t-6.5 14.5q0 27 27 27q19 0 22 -10q0 -38 -29 -38zM20 -1q0 6 46.5 203t46.5 216q0 4 3 4q5 0 12 -4.5t7 -7.5l-9 -46q-10 -46 -20 -98.5t-18.5 -116.5t-8.5 -104q0 -36 1 -46q-11 0 -23.5 2t-16.5 2q-11 0 -20 -4z" />
<glyph unicode="&#xa2;" horiz-adv-x="259" vert-adv-y="577" d="M163 291l20 105q0 1 12 7.5t17 10.5q-5 -32 -21 -121q36 -1 59.5 -17t23.5 -28q0 -10 -9 -18t-17 -8q-14 0 -14 14q0 6 1.5 14t1.5 10q0 19 -48 19l-47 -263q19 3 31 15q6 8 13 14.5t18 6.5q28 0 35 2.5t20 17.5q-41 -68 -119 -72q-12 -64 -13 -83q-15 -11 -34 -15 q3 26 16 99q-20 3 -37.5 10.5t-34.5 30t-17 55.5q0 38 15 78.5t49 74.5t79 41zM112 15l47 255q-39 -20 -69.5 -73t-30.5 -121q0 -53 53 -61z" />
<glyph unicode="&#xa3;" horiz-adv-x="582" vert-adv-y="577" d="M296 143q-39 25 -86 25q-19 0 -36 -3t-39 -11.5t-35 -29t-13 -50.5q0 -29 11 -45t41 -16t61 19.5t51 45t32 43.5t13 22zM232 269q21 37 42 37t63 -11q2 37 7 72t12.5 62t28.5 43t55 16q106 0 106 -58q0 -37 -44 -37q-28 0 -51 10q0 -2 23 -2q44 0 44 32q0 37 -72 37 q-20 0 -33 -15.5t-19 -41.5t-11 -59t-8 -69q15 -4 31 -4q17 0 28 4.5t18 12t17 18.5q16 -18 17 -23q-7 -6 -14.5 -11t-14.5 -9t-16.5 -6.5t-20.5 -2.5q-24 0 -47 5q-11 -81 -36 -127q35 -22 57 -46.5t28 -40t12.5 -26t16.5 -10.5q19 0 30 11.5t21 11.5q36 0 36 -10 q0 -9 -30.5 -20.5t-56.5 -11.5q-20 0 -30.5 11t-15 27t-24.5 41t-53 47q-79 -126 -191 -126q-79 0 -79 84q0 101 144 101q49 0 102 -28q24 46 31 124q-28 8 -40 8q-17 0 -29 -15t-15 -15q-9 0 -19 10z" />
<glyph unicode="&#xa4;" horiz-adv-x="362" vert-adv-y="577" d="M107 231q0 -25 17.5 -42.5t42.5 -17.5t42.5 17.5t17.5 42.5t-17.5 42.5t-42.5 17.5t-42.5 -17.5t-17.5 -42.5zM87 197q-7 15 -7 34q0 30 17 53l-30 31q-1 1 -1 2q0 3 4 14.5t4 16.5l43 -45q21 15 50 15q35 0 61 -24l44 31h1q2 0 13.5 -5.5t16.5 -6.5l-59 -41 q10 -17 10 -41q0 -28 -15 -49q27 -25 49 -39q-1 -12 -13 -35q-30 25 -56 51l-2 1q-22 -16 -50 -16q-36 0 -62 26q-28 -22 -40 -34q-19 6 -32 19q43 34 54 42z" />
<glyph unicode="&#xa6;" horiz-adv-x="102" vert-adv-y="577" d="M34 365q1 72 1 211q0 1 12 7.5t17 10.5q-1 -17 -1.5 -105.5t-0.5 -123.5h-28zM33 108h30q2 -207 7 -234q-15 -11 -34 -15q-3 36 -3 249z" />
<glyph unicode="&#xa7;" horiz-adv-x="486" vert-adv-y="577" d="M354 110q35 -12 56.5 -25.5t31 -29.5t12 -29t2.5 -34q0 -53 -52.5 -94t-147.5 -41q-89 0 -151 41.5t-62 106.5q0 28 11 41.5t23 13.5q21 0 21 -11q0 -1 -5.5 -6.5t-10.5 -18t-5 -33.5q0 -44 44 -82.5t109 -38.5q70 0 126 39.5t56 94.5q0 31 -15.5 54.5t-61.5 44.5 q-37 -12 -73 -12q-58 0 -92.5 32t-34.5 97q0 34 16 58.5t31.5 34t40.5 20.5q-33 11 -53.5 24t-28.5 30t-10 28.5t-2 33.5q0 52 54 89.5t151 37.5q88 0 144 -40.5t56 -107.5q0 -55 -27 -55q-21 0 -21 11q0 2 5.5 7t10.5 18t5 33q0 44 -41.5 82.5t-105.5 38.5q-72 0 -130 -37 t-58 -91q0 -21 3.5 -34t19 -29t46.5 -30q39 6 68 6q139 0 139 -126q0 -26 -8.5 -45.5t-26 -33t-28 -19t-31.5 -14.5zM408 223q0 49 -29 76.5t-73 27.5q-48 0 -86.5 -32t-38.5 -89q0 -47 23 -70.5t60 -23.5q50 0 97 34t47 77z" />
<glyph unicode="&#xa8;" horiz-adv-x="250" vert-adv-y="577" d="M294 461q0 6 11 12t11 16q0 4 -5 9q23 10 31 10q11 0 11 -10q0 -17 -14 -32t-30 -15q-15 0 -15 10zM134 461q0 6 11 12t11 16q0 2 -2 5l-3 4q20 10 31 10t11 -10q0 -17 -14 -32t-30 -15q-15 0 -15 10z" />
<glyph unicode="&#xa9;" horiz-adv-x="477" vert-adv-y="577" d="M234 389q88 0 147.5 -62.5t59.5 -151.5q0 -88 -66 -150.5t-155 -62.5q-88 0 -147.5 62t-59.5 151q0 88 66 151t155 63zM27 175q0 -83 55.5 -141t137.5 -58q83 0 144.5 58.5t61.5 140.5q0 84 -55 142t-137 58q-83 0 -145 -59t-62 -141zM258 305q34 0 56 -14t22 -26 q0 -9 -8 -16.5t-15 -7.5q-12 0 -12 13q0 5 1 12.5t1 9.5q0 17 -43 17q-37 0 -73 -53.5t-36 -128.5q0 -32 18.5 -43.5t38.5 -11.5q33 0 50 20q6 8 12 13.5t17 5.5q19 0 19 -8q0 -12 -32.5 -28t-65.5 -16q-9 0 -21.5 3t-30 11t-29 27t-11.5 46q0 62 37.5 118.5t104.5 56.5z " />
<glyph unicode="&#xab;" horiz-adv-x="417" vert-adv-y="0" d="M173 292l200 124l23 -38q-102 -50 -187 -97l161 -261l-36 -23q-83 163 -161 295zM22 299l200 124l22 -37q-99 -50 -186 -98l161 -261l-37 -23q-84 166 -160 295z" />
<glyph unicode="&#xad;" horiz-adv-x="384" vert-adv-y="577" d="M79 247q46 -1 173 -1q70 0 110 7q-5 -25 -7 -33q-52 -4 -76 -4q-6 0 -76.5 1.5t-128.5 1.5q0 9 5 28z" />
<glyph unicode="&#xae;" horiz-adv-x="477" vert-adv-y="577" d="M234 389q88 0 147.5 -62.5t59.5 -151.5q0 -88 -66 -150.5t-155 -62.5q-88 0 -147.5 62t-59.5 151q0 88 66 151t155 63zM27 175q0 -83 55.5 -141t137.5 -58q83 0 144.5 58.5t61.5 140.5q0 84 -55 142t-137 58q-83 0 -145 -59t-62 -141zM311 50q-22 0 -32.5 25.5 t-15.5 57.5t-12 39q-18 -3 -26 -3q-10 0 -18.5 4t-12.5 8l-4 4l-8 -33q-7 -34 -20 -68t-24 -34q-19 0 -28 1q0 3 3 7t9 10.5t10 12.5q10 15 20.5 50.5t26 99t22.5 89.5q1 5 2 9.5t3.5 8t5.5 3.5q6 0 23 -4.5t40 -14t40.5 -30t17.5 -47.5q0 -43 -65 -65q13 -14 22.5 -65.5 t21.5 -51.5q11 0 18.5 6.5t14.5 6.5q10 0 10 -5q0 -6 -14 -13.5t-30 -7.5zM226 320l-4 -18q-5 -17 -10.5 -38t-10 -39.5t-5.5 -20.5q10 7 16 7q23 0 43 -17q50 25 50 60q0 20 -26.5 43t-52.5 23zM222 193q-14 0 -14 -4v-1q8 -2 17 -2q7 0 12 3q-4 4 -15 4z" />
<glyph unicode="&#xaf;" horiz-adv-x="298" vert-adv-y="577" d="M93 493q10 3 40 3q20 0 62.5 -2t57.5 -2q35 0 73 9q3 -4 4.5 -18.5t1.5 -15.5q-29 -2 -72 -2q-38 0 -68 2t-38 2q-16 0 -32.5 -0.5t-19.5 -0.5q-1 0 -2.5 10t-6.5 15z" />
<glyph unicode="&#xb0;" horiz-adv-x="213" vert-adv-y="577" d="M77 444q0 -15 11 -26t25 -11q16 0 26.5 11t10.5 26t-10.5 26t-26.5 11q-14 0 -25 -11t-11 -26zM58 446q0 22 15 37.5t37 15.5t38 -15.5t16 -37.5t-15.5 -37.5t-38.5 -15.5q-22 0 -37 15.5t-15 37.5z" />
<glyph unicode="&#xb1;" horiz-adv-x="362" vert-adv-y="577" d="M29 81q90 -2 172 -2q65 0 110 8l-3.5 -17.5t-2.5 -16.5q-59 -3 -76 -3q-6 0 -77 1.5t-129 1.5q2 15 6 28zM150 247q-16 0 -53 0.5t-57 0.5q-2 0 -8 12t-10 16q16 -1 64 -1.5t69 -0.5l23 126q1 2 13.5 6t17.5 7l-25 -139h25q64 0 109 8q8 -9 16 -34q-58 -3 -76 -3 q-5 0 -31.5 0.5t-47.5 0.5q-4 -28 -7 -57l-4 -31q-3 -30 -3 -38q-15 -8 -36 -10q5 50 10 76q1 16 11 61z" />
<glyph unicode="&#xb2;" horiz-adv-x="379" vert-adv-y="577" d="M162 568q8 5 14 11t23.5 11t43.5 5q28 0 44 -11.5t16 -25.5q0 -11 -14.5 -34.5t-30 -43.5t-35 -43t-20.5 -25q14 -9 22 -18.5t9 -14.5t2.5 -8.5t5.5 -3.5q8 0 28 15.5t27 15.5q5 0 9 -6l3 -6l-1 -3q-16 -3 -40 -22t-30 -19q-7 0 -13 6.5t-6 14.5q0 21 -23 41 q-47 -65 -83 -65q-27 0 -37.5 14t-10.5 31q0 25 17 41t52 16q26 0 53 -19q24 31 45.5 57.5t35.5 49t14 32.5q0 20 -45 20q-41 0 -58 -20q-4 -6 -6 -11.5t-3.5 -13t-3.5 -12.5q-4 -6 -11 -6q-15 0 -15 5l5 17q5 17 17 28zM181 413q-26 17 -46 17q-31 0 -42.5 -12t-11.5 -35 q0 -35 29 -35q31 0 71 65z" />
<glyph unicode="&#xb3;" horiz-adv-x="379" vert-adv-y="577" d="M245 485q62 -21 62 -65q0 -30 -29 -56t-81 -26q-48 0 -78.5 22.5t-30.5 58.5q0 30 18 30q12 0 12 -5q0 -1 -2 -4t-4.5 -10t-2.5 -18q0 -24 21 -42t57 -18q38 0 66 22t28 53q0 34 -40 53q-5 -5 -13 -5q-18 0 -18 13v1q1 6 15 8.5t27.5 11.5t13.5 31q0 40 -44 40 q-22 0 -34 -8.5t-12 -20.5q0 -9 8 -12t8 -4q0 -4 -7 -4q-12 0 -20 6t-8 15q0 17 23 29t47 12q28 0 44.5 -17t16.5 -40q0 -15 -8 -26.5t-15.5 -15.5t-19.5 -9z" />
<glyph unicode="&#xb4;" horiz-adv-x="296" vert-adv-y="577" d="M204 496q0 -8 -13 -53q-13 13 -18 13q-15 0 -29 -19q-5 -7 -13.5 -25t-15.5 -30q15 71 21 84q20 44 48 44q20 0 20 -14z" />
<glyph unicode="&#xb5;" horiz-adv-x="339" vert-adv-y="577" d="M104 282q-6 -7 -17 -42.5t-15 -58.5q13 14 27 46.5t14 45.5q0 9 -9 9zM29 115q-12 -9 -17 -17q-3 -4 -6.5 -13.5t-5.5 -12.5l-1 1q5 15 10 27q9 21 21 40q5 10 13.5 52t22 72.5t34.5 30.5q26 0 26 -23q0 -16 -14 -50.5t-44 -66.5q-10 -42 -12 -69q0 -29 13 -50.5 t39 -21.5q43 0 64.5 27t39.5 88q5 18 16.5 62t24.5 91q5 11 23 11q19 0 19 -15q0 -20 -18 -74q-28 -84 -28 -121q0 -69 26 -69q22 0 38 16q6 8 14.5 23.5t10.5 19.5l1 -1q-19 -49 -39 -64q-13 -8 -26 -8q-30 0 -39.5 19t-12.5 48q-4 -9 -9 -17t-9.5 -15.5t-12.5 -14 t-18.5 -11t-26.5 -7t-37 -2.5q-41 0 -63 29q-7 -30 -17 -74.5t-17.5 -79.5t-8.5 -38q0 -2 -4 -5.5t-6 -3.5q-7 0 -12.5 5.5t-5.5 8.5l49 247q1 3 2.5 10t2.5 16z" />
<glyph unicode="&#xb7;" horiz-adv-x="151" vert-adv-y="577" d="M79 237q7 0 13.5 -6.5t6.5 -14.5q0 -27 -27 -27q-19 0 -22 10q0 38 29 38z" />
<glyph unicode="&#xb8;" horiz-adv-x="294" vert-adv-y="577" d="M151 6q21 -15 32 -37t11 -42q0 -22 -8 -42t-26 -20q-12 0 -22.5 13.5t-22.5 32.5q-1 2 -1 4t2 2q7 0 21 -22t23 -24q10 4 10 35q0 54 -39 106q7 -2 12 -3.5t8 -2.5z" />
<glyph unicode="&#xb9;" horiz-adv-x="228" vert-adv-y="577" d="M127 472q-3 -2 -10.5 -12.5t-15.5 -18t-15 -7.5q16 20 45 68q3 5 9 20q3 7 11.5 27.5t11.5 30.5q2 11 10 11t8 -8q0 -12 -9 -48.5t-23 -49.5q-23 -107 -23 -122q0 -9 3 -20q-4 -1 -12 -1q-2 0 -7 0.5t-10 0.5q0 17 4.5 40t9 40.5t8.5 32.5z" />
<glyph unicode="&#xbb;" horiz-adv-x="433" vert-adv-y="0" d="M412 252q-102 -107 -222 -252l-30 30l214 219q-63 57 -161 137l30 31zM274 252q-94 -99 -221 -252l-31 30l215 219q-48 44 -161 137l30 31z" />
<glyph unicode="&#xbc;" horiz-adv-x="546" vert-adv-y="0" d="M127 443q-3 -2 -10.5 -12.5t-15.5 -18t-15 -7.5q16 20 45 68q3 5 9 20q3 7 11.5 27.5t11.5 30.5q2 11 10 11t8 -8q0 -12 -9 -48.5t-23 -49.5q-23 -107 -23 -122q0 -10 3 -20q-4 -1 -12 -1q-2 0 -7 0.5t-10 0.5q0 17 4.5 40t9 40.5t8.5 33.5zM439 66q14 62 27 111 q-17 -14 -56 -50.5t-69 -55.5q13 -5 98 -5zM437 47q-110 3 -126 4q-5 0 -8.5 4t-3.5 7q0 2 2 4q39 25 93 73.5t72 62.5q4 4 7 13t12 12q15 0 15 -11q-22 -65 -37 -150h20q8 -8 8 -16q0 -3 -10 -3h-20q-1 -6 -6 -31.5t-9 -39.5q-1 -4 -5 -4h-21h-2q7 17 19 75zM483 522 l34 -27l-464 -563l-33 27q95 103 159 171.5t137 161t167 230.5z" />
<glyph unicode="&#xbd;" horiz-adv-x="583" vert-adv-y="0" d="M127 442q-3 -2 -10.5 -12.5t-15.5 -18t-15 -7.5q16 20 45 68q3 5 9 20q3 7 11.5 27.5t11.5 30.5q2 11 10 11t8 -8q0 -12 -9 -48.5t-23 -49.5q-23 -107 -23 -122q0 -9 3 -20q-4 -1 -12 -1q-2 0 -7 0.5t-10 0.5q0 17 4.5 40t9 40.5t8.5 32.5zM408 199q8 5 14 11t23.5 11 t43.5 5q28 0 44 -11.5t16 -25.5q0 -11 -14.5 -34.5t-30 -43.5t-35 -43t-20.5 -25q14 -9 22 -18.5t9 -14.5t2.5 -8.5t5.5 -3.5q8 0 28 15.5t27 15.5q5 0 9 -6l3 -6l-1 -3q-16 -3 -40 -22t-30 -19q-7 0 -13 6.5t-6 14.5q0 21 -23 41q-47 -65 -83 -65q-27 0 -37.5 14t-10.5 31 q0 25 17 41t52 16q26 0 53 -19q24 31 45.5 57.5t35.5 49t14 32.5q0 20 -45 20q-41 0 -58 -20q-4 -6 -6 -11.5t-3.5 -13t-3.5 -12.5q-4 -6 -11 -6q-15 0 -15 5l5 17q5 17 17 28zM427 44q-26 17 -46 17q-31 0 -42.5 -12t-11.5 -35q0 -35 29 -35q31 0 71 65zM483 522l34 -27 l-464 -563l-33 27q95 103 159 171.5t137 161t167 230.5z" />
<glyph unicode="&#xbe;" horiz-adv-x="546" vert-adv-y="0" d="M483 522l34 -27l-464 -563l-33 27q95 103 159 171.5t137 161t167 230.5zM223 455q62 -21 62 -65q0 -30 -29 -56t-81 -26q-48 0 -78.5 22.5t-30.5 58.5q0 30 18 30q12 0 12 -5q0 -1 -2 -4t-4.5 -10t-2.5 -18q0 -24 21 -42t57 -18q38 0 66 22t28 53q0 34 -40 53 q-5 -5 -13 -5q-18 0 -18 13v1q1 6 15 8.5t27.5 11.5t13.5 31q0 40 -44 40q-22 0 -34 -8.5t-12 -20.5q0 -9 8 -12t8 -4q0 -4 -7 -4q-12 0 -20 6t-8 15q0 17 23 29t47 12q28 0 44.5 -17t16.5 -40q0 -15 -8 -26.5t-15.5 -15.5t-19.5 -9zM439 66q14 62 27 111q-17 -14 -56 -50.5 t-69 -55.5q13 -5 98 -5zM437 47q-110 3 -126 4q-5 0 -8.5 4t-3.5 7q0 2 2 4q39 25 93 73.5t72 62.5q4 4 7 13t12 12q15 0 15 -11q-22 -65 -37 -150h20q8 -8 8 -16q0 -3 -10 -3h-20q-1 -6 -6 -31.5t-9 -39.5q-1 -4 -5 -4h-21h-2q7 17 19 75z" />
<glyph unicode="&#xbf;" horiz-adv-x="363" vert-adv-y="577" d="M271 554q-7 0 -13.5 6.5t-6.5 14.5q0 27 27 27q19 0 22 -10q0 -38 -29 -38zM220 421q0 3 8 3q10 0 23.5 -4.5t13.5 -7.5q-2 -10 -3.5 -21.5t-10 -30.5t-22.5 -35q-5 -6 -22 -15.5t-47 -23.5l-29 -14q-64 -31 -64 -114q0 -107 76 -137q21 -9 57 -9q37 0 60 11t29 20t13 27 q6 14 6 22q0 14 -15 24q-3 3 -16 7t-13 7t4 4q8 4 13 4q10 0 26 -5q34 -11 34 -41v-1q-2 -22 -8 -33q-28 -58 -131 -58q-21 0 -63 7q-12 2 -27 8t-38 21t-37.5 46t-14.5 74t12 67q8 18 30.5 39t39.5 28q51 18 89 36t38 36q0 10 -5.5 30.5t-5.5 28.5z" />
<glyph unicode="&#xc0;" horiz-adv-x="836" vert-adv-y="577" d="M787 723q15 15 27.5 27t18.5 12q15 0 21 -26v-6q0 -26 -46 -72q-5 -5 -19.5 -17t-17.5 -14q7 12 18.5 28.5t15.5 23.5q6 12 6 20q0 19 -24 24zM165 118q0 28 -13.5 43t-36.5 15q-20 0 -30 -20.5t-10 -46.5q0 -36 29 -60t59.5 -31t58.5 -7q19 0 33 1.5t29 5t26.5 10.5 t26.5 18t29.5 26.5t34.5 37t42 49.5t51.5 63t63.5 79q-51 39 -119.5 79.5t-98.5 40.5q-27 -1 -47.5 -18t-20.5 -43q0 -39 13.5 -65.5t34.5 -37t36.5 -14.5t29.5 -4q6 1 7.5 4t1.5 8.5t1 7.5q3 2 11 2q15 0 15 -12q0 -19 -32 -19q-67 0 -109.5 43t-42.5 95q0 35 23.5 51 t59.5 16q30 0 70 -16.5t65.5 -32t66 -43.5t43.5 -30q17 22 59 88.5t65 106.5q7 15 14.5 39t16.5 36q13 12 28 12q16 0 28 -10.5t12 -23.5q0 -14 -31 -67l-30 -52q-33 -56 -33 -148q0 -31 3 -49q2 0 8 -1.5t17 -1.5q20 0 29.5 9t10.5 20t6.5 20t16.5 9q8 0 13.5 -7.5 t5.5 -18.5q0 -17 -16.5 -32t-44.5 -15q-18 0 -46 7q6 -24 13.5 -68t7.5 -87q6 -6 20.5 -38t31.5 -32q29 0 64 64l1 -1q-14 -36 -32.5 -54t-34.5 -18q-15 0 -24.5 10t-16.5 28t-11 23q-4 -15 -6.5 -22.5t-10 -18t-21 -15.5t-34.5 -5q-37 0 -55 17t-18 42q0 23 14.5 42.5 t48.5 19.5q32 0 50 -16v2q0 62 -19 136q-43 17 -79 41q-89 -122 -148.5 -184t-99.5 -81t-92 -19q-60 0 -103 13t-63.5 33.5t-29 40t-8.5 40.5q0 24 16.5 42t49.5 18q65 0 88 -65q7 -19 7 -29q-6 -10 -22 -10q-12 0 -17 6v29zM667 386q-4 -3 -35 -43.5t-37 -48.5 q30 -20 69 -37q-3 18 -3 47q0 50 6 82zM645 105h-2q-24 0 -34.5 -17.5t-10.5 -35.5q0 -16 11 -28t34 -12q7 0 13.5 3t10.5 7t7 11t5 12.5t3 13t1.5 12t0.5 10.5l1 6q-18 17 -40 18z" />
<glyph unicode="&#xc1;" horiz-adv-x="836" vert-adv-y="577" d="M863 742q0 -8 -13 -53q-13 13 -18 13q-15 0 -29 -19q-5 -7 -13.5 -25t-15.5 -30q15 71 21 84q20 44 48 44q20 0 20 -14zM165 118q0 28 -13.5 43t-36.5 15q-20 0 -30 -20.5t-10 -46.5q0 -36 29 -60t59.5 -31t58.5 -7q19 0 33 1.5t29 5t26.5 10.5t26.5 18t29.5 26.5 t34.5 37t42 49.5t51.5 63t63.5 79q-51 39 -119.5 79.5t-98.5 40.5q-27 -1 -47.5 -18t-20.5 -43q0 -39 13.5 -65.5t34.5 -37t36.5 -14.5t29.5 -4q6 1 7.5 4t1.5 8.5t1 7.5q3 2 11 2q15 0 15 -12q0 -19 -32 -19q-67 0 -109.5 43t-42.5 95q0 35 23.5 51t59.5 16q30 0 70 -16.5 t65.5 -32t66 -43.5t43.5 -30q17 22 59 88.5t65 106.5q7 15 14.5 39t16.5 36q13 12 28 12q16 0 28 -10.5t12 -23.5q0 -14 -31 -67l-30 -52q-33 -56 -33 -148q0 -31 3 -49q2 0 8 -1.5t17 -1.5q20 0 29.5 9t10.5 20t6.5 20t16.5 9q8 0 13.5 -7.5t5.5 -18.5q0 -17 -16.5 -32 t-44.5 -15q-18 0 -46 7q6 -24 13.5 -68t7.5 -87q6 -6 20.5 -38t31.5 -32q29 0 64 64l1 -1q-14 -36 -32.5 -54t-34.5 -18q-15 0 -24.5 10t-16.5 28t-11 23q-4 -15 -6.5 -22.5t-10 -18t-21 -15.5t-34.5 -5q-37 0 -55 17t-18 42q0 23 14.5 42.5t48.5 19.5q32 0 50 -16v2 q0 62 -19 136q-43 17 -79 41q-89 -122 -148.5 -184t-99.5 -81t-92 -19q-60 0 -103 13t-63.5 33.5t-29 40t-8.5 40.5q0 24 16.5 42t49.5 18q65 0 88 -65q7 -19 7 -29q-6 -10 -22 -10q-12 0 -17 6v29zM667 386q-4 -3 -35 -43.5t-37 -48.5q30 -20 69 -37q-3 18 -3 47q0 50 6 82 zM645 105h-2q-24 0 -34.5 -17.5t-10.5 -35.5q0 -16 11 -28t34 -12q7 0 13.5 3t10.5 7t7 11t5 12.5t3 13t1.5 12t0.5 10.5l1 6q-18 17 -40 18z" />
<glyph unicode="&#xc2;" horiz-adv-x="836" vert-adv-y="577" d="M784 754q18 -40 45 -71.5t33 -51.5q-51 34 -66.5 48t-33.5 40q-10 -16 -21.5 -25.5t-44 -29t-53.5 -33.5q6 19 44.5 50.5t56.5 72.5h40zM165 118q0 28 -13.5 43t-36.5 15q-20 0 -30 -20.5t-10 -46.5q0 -36 29 -60t59.5 -31t58.5 -7q19 0 33 1.5t29 5t26.5 10.5t26.5 18 t29.5 26.5t34.5 37t42 49.5t51.5 63t63.5 79q-51 39 -119.5 79.5t-98.5 40.5q-27 -1 -47.5 -18t-20.5 -43q0 -39 13.5 -65.5t34.5 -37t36.5 -14.5t29.5 -4q6 1 7.5 4t1.5 8.5t1 7.5q3 2 11 2q15 0 15 -12q0 -19 -32 -19q-67 0 -109.5 43t-42.5 95q0 35 23.5 51t59.5 16 q30 0 70 -16.5t65.5 -32t66 -43.5t43.5 -30q17 22 59 88.5t65 106.5q7 15 14.5 39t16.5 36q13 12 28 12q16 0 28 -10.5t12 -23.5q0 -14 -31 -67l-30 -52q-33 -56 -33 -148q0 -31 3 -49q2 0 8 -1.5t17 -1.5q20 0 29.5 9t10.5 20t6.5 20t16.5 9q8 0 13.5 -7.5t5.5 -18.5 q0 -17 -16.5 -32t-44.5 -15q-18 0 -46 7q6 -24 13.5 -68t7.5 -87q6 -6 20.5 -38t31.5 -32q29 0 64 64l1 -1q-14 -36 -32.5 -54t-34.5 -18q-15 0 -24.5 10t-16.5 28t-11 23q-4 -15 -6.5 -22.5t-10 -18t-21 -15.5t-34.5 -5q-37 0 -55 17t-18 42q0 23 14.5 42.5t48.5 19.5 q32 0 50 -16v2q0 62 -19 136q-43 17 -79 41q-89 -122 -148.5 -184t-99.5 -81t-92 -19q-60 0 -103 13t-63.5 33.5t-29 40t-8.5 40.5q0 24 16.5 42t49.5 18q65 0 88 -65q7 -19 7 -29q-6 -10 -22 -10q-12 0 -17 6v29zM667 386q-4 -3 -35 -43.5t-37 -48.5q30 -20 69 -37 q-3 18 -3 47q0 50 6 82zM645 105h-2q-24 0 -34.5 -17.5t-10.5 -35.5q0 -16 11 -28t34 -12q7 0 13.5 3t10.5 7t7 11t5 12.5t3 13t1.5 12t0.5 10.5l1 6q-18 17 -40 18z" />
<glyph unicode="&#xc3;" horiz-adv-x="836" vert-adv-y="577" d="M675 678q22 35 38 35q17 0 57.5 -11.5t53.5 -11.5q11 0 19 2t13.5 5.5t11 9l11.5 11.5q1 -1 7 -7.5t7 -11.5q-9 -7 -16 -13t-17.5 -10t-22.5 -4q-27 0 -61.5 11.5t-45.5 11.5q-14 0 -24.5 -12.5t-13.5 -12.5q-8 0 -17 8zM165 118q0 28 -13.5 43t-36.5 15q-20 0 -30 -20.5 t-10 -46.5q0 -36 29 -60t59.5 -31t58.5 -7q19 0 33 1.5t29 5t26.5 10.5t26.5 18t29.5 26.5t34.5 37t42 49.5t51.5 63t63.5 79q-51 39 -119.5 79.5t-98.5 40.5q-27 -1 -47.5 -18t-20.5 -43q0 -39 13.5 -65.5t34.5 -37t36.5 -14.5t29.5 -4q6 1 7.5 4t1.5 8.5t1 7.5q3 2 11 2 q15 0 15 -12q0 -19 -32 -19q-67 0 -109.5 43t-42.5 95q0 35 23.5 51t59.5 16q30 0 70 -16.5t65.5 -32t66 -43.5t43.5 -30q17 22 59 88.5t65 106.5q7 15 14.5 39t16.5 36q13 12 28 12q16 0 28 -10.5t12 -23.5q0 -14 -31 -67l-30 -52q-33 -56 -33 -148q0 -31 3 -49q2 0 8 -1.5 t17 -1.5q20 0 29.5 9t10.5 20t6.5 20t16.5 9q8 0 13.5 -7.5t5.5 -18.5q0 -17 -16.5 -32t-44.5 -15q-18 0 -46 7q6 -24 13.5 -68t7.5 -87q6 -6 20.5 -38t31.5 -32q29 0 64 64l1 -1q-14 -36 -32.5 -54t-34.5 -18q-15 0 -24.5 10t-16.5 28t-11 23q-4 -15 -6.5 -22.5t-10 -18 t-21 -15.5t-34.5 -5q-37 0 -55 17t-18 42q0 23 14.5 42.5t48.5 19.5q32 0 50 -16v2q0 62 -19 136q-43 17 -79 41q-89 -122 -148.5 -184t-99.5 -81t-92 -19q-60 0 -103 13t-63.5 33.5t-29 40t-8.5 40.5q0 24 16.5 42t49.5 18q65 0 88 -65q7 -19 7 -29q-6 -10 -22 -10 q-12 0 -17 6v29zM667 386q-4 -3 -35 -43.5t-37 -48.5q30 -20 69 -37q-3 18 -3 47q0 50 6 82zM645 105h-2q-24 0 -34.5 -17.5t-10.5 -35.5q0 -16 11 -28t34 -12q7 0 13.5 3t10.5 7t7 11t5 12.5t3 13t1.5 12t0.5 10.5l1 6q-18 17 -40 18z" />
<glyph unicode="&#xc4;" horiz-adv-x="836" vert-adv-y="577" d="M857 683q0 6 11 12t11 16q0 4 -5 9q23 10 31 10q11 0 11 -10q0 -17 -14 -32t-30 -15q-15 0 -15 10zM697 683q0 6 11 12t11 16q0 2 -2 5l-3 4q20 10 31 10t11 -10q0 -17 -14 -32t-30 -15q-15 0 -15 10zM165 118q0 28 -13.5 43t-36.5 15q-20 0 -30 -20.5t-10 -46.5 q0 -36 29 -60t59.5 -31t58.5 -7q19 0 33 1.5t29 5t26.5 10.5t26.5 18t29.5 26.5t34.5 37t42 49.5t51.5 63t63.5 79q-51 39 -119.5 79.5t-98.5 40.5q-27 -1 -47.5 -18t-20.5 -43q0 -39 13.5 -65.5t34.5 -37t36.5 -14.5t29.5 -4q6 1 7.5 4t1.5 8.5t1 7.5q3 2 11 2q15 0 15 -12 q0 -19 -32 -19q-67 0 -109.5 43t-42.5 95q0 35 23.5 51t59.5 16q30 0 70 -16.5t65.5 -32t66 -43.5t43.5 -30q17 22 59 88.5t65 106.5q7 15 14.5 39t16.5 36q13 12 28 12q16 0 28 -10.5t12 -23.5q0 -14 -31 -67l-30 -52q-33 -56 -33 -148q0 -31 3 -49q2 0 8 -1.5t17 -1.5 q20 0 29.5 9t10.5 20t6.5 20t16.5 9q8 0 13.5 -7.5t5.5 -18.5q0 -17 -16.5 -32t-44.5 -15q-18 0 -46 7q6 -24 13.5 -68t7.5 -87q6 -6 20.5 -38t31.5 -32q29 0 64 64l1 -1q-14 -36 -32.5 -54t-34.5 -18q-15 0 -24.5 10t-16.5 28t-11 23q-4 -15 -6.5 -22.5t-10 -18t-21 -15.5 t-34.5 -5q-37 0 -55 17t-18 42q0 23 14.5 42.5t48.5 19.5q32 0 50 -16v2q0 62 -19 136q-43 17 -79 41q-89 -122 -148.5 -184t-99.5 -81t-92 -19q-60 0 -103 13t-63.5 33.5t-29 40t-8.5 40.5q0 24 16.5 42t49.5 18q65 0 88 -65q7 -19 7 -29q-6 -10 -22 -10q-12 0 -17 6v29z M667 386q-4 -3 -35 -43.5t-37 -48.5q30 -20 69 -37q-3 18 -3 47q0 50 6 82zM645 105h-2q-24 0 -34.5 -17.5t-10.5 -35.5q0 -16 11 -28t34 -12q7 0 13.5 3t10.5 7t7 11t5 12.5t3 13t1.5 12t0.5 10.5l1 6q-18 17 -40 18z" />
<glyph unicode="&#xc5;" horiz-adv-x="836" vert-adv-y="577" d="M735 658q0 -19 13 -32t32 -13q18 0 31.5 13t13.5 32q0 18 -13.5 31.5t-31.5 13.5q-19 0 -32 -13.5t-13 -31.5zM711 660q0 27 19 46t46 19t46 -19t19 -46t-19 -46t-46 -19t-46 19t-19 46zM165 118q0 28 -13.5 43t-36.5 15q-20 0 -30 -20.5t-10 -46.5q0 -36 29 -60 t59.5 -31t58.5 -7q19 0 33 1.5t29 5t26.5 10.5t26.5 18t29.5 26.5t34.5 37t42 49.5t51.5 63t63.5 79q-51 39 -119.5 79.5t-98.5 40.5q-27 -1 -47.5 -18t-20.5 -43q0 -39 13.5 -65.5t34.5 -37t36.5 -14.5t29.5 -4q6 1 7.5 4t1.5 8.5t1 7.5q3 2 11 2q15 0 15 -12 q0 -19 -32 -19q-67 0 -109.5 43t-42.5 95q0 35 23.5 51t59.5 16q30 0 70 -16.5t65.5 -32t66 -43.5t43.5 -30q17 22 59 88.5t65 106.5q7 15 14.5 39t16.5 36q13 12 28 12q16 0 28 -10.5t12 -23.5q0 -14 -31 -67l-30 -52q-33 -56 -33 -148q0 -31 3 -49q2 0 8 -1.5t17 -1.5 q20 0 29.5 9t10.5 20t6.5 20t16.5 9q8 0 13.5 -7.5t5.5 -18.5q0 -17 -16.5 -32t-44.5 -15q-18 0 -46 7q6 -24 13.5 -68t7.5 -87q6 -6 20.5 -38t31.5 -32q29 0 64 64l1 -1q-14 -36 -32.5 -54t-34.5 -18q-15 0 -24.5 10t-16.5 28t-11 23q-4 -15 -6.5 -22.5t-10 -18t-21 -15.5 t-34.5 -5q-37 0 -55 17t-18 42q0 23 14.5 42.5t48.5 19.5q32 0 50 -16v2q0 62 -19 136q-43 17 -79 41q-89 -122 -148.5 -184t-99.5 -81t-92 -19q-60 0 -103 13t-63.5 33.5t-29 40t-8.5 40.5q0 24 16.5 42t49.5 18q65 0 88 -65q7 -19 7 -29q-6 -10 -22 -10q-12 0 -17 6v29z M667 386q-4 -3 -35 -43.5t-37 -48.5q30 -20 69 -37q-3 18 -3 47q0 50 6 82zM645 105h-2q-24 0 -34.5 -17.5t-10.5 -35.5q0 -16 11 -28t34 -12q7 0 13.5 3t10.5 7t7 11t5 12.5t3 13t1.5 12t0.5 10.5l1 6q-18 17 -40 18z" />
<glyph unicode="&#xc7;" horiz-adv-x="537" vert-adv-y="577" d="M530 558q-69 -17 -132 -63q-18 -13 -49 -49l-31 -37q0 1 48.5 33t60.5 40q94 64 103 76zM199 168q0 -66 43 -110t144 -44q48 0 68.5 23.5t20.5 53.5q0 26 -10.5 43.5t-26.5 17.5h-8l-4 -1q-1 0 -1 2q0 12 25 12t47.5 -22.5t22.5 -56.5q0 -32 -29.5 -59t-104.5 -27h-4 q18 -15 27 -35t9 -38q0 -22 -8 -42t-26 -20q-12 0 -22.5 13.5t-22.5 32.5q-1 2 -1 4t2 2q7 0 21 -22t23 -24q10 4 10 35q0 48 -31 95q-94 6 -152 55.5t-58 100.5q0 83 68 182q-84 -20 -163 -23v2q31 4 52.5 5.5t52 11.5t70.5 30q7 7 61.5 70t82.5 84q104 76 163 76 q29 0 29 -21v-5q0 -9 -20.5 -25t-102.5 -72q-20 -14 -63.5 -42t-68 -45.5t-40.5 -31.5q-19 -17 -47 -81t-28 -104z" />
<glyph unicode="&#xc8;" horiz-adv-x="504" vert-adv-y="577" d="M349 723q15 15 27.5 27t18.5 12q15 0 21 -26v-6q0 -26 -46 -72q-5 -5 -19.5 -17t-17.5 -14q7 12 18.5 28.5t15.5 23.5q6 12 6 20q0 19 -24 24zM176 352q-35 -18 -57 -56.5t-22 -79.5q0 -34 8 -66t26.5 -64.5t57 -52t92.5 -19.5q14 0 30 3.5t41 13.5t47 36t34 64 q-9 36 -9 59q0 4 1 5q0 8 44 8q4 0 4 -15q0 -48 -16 -82v-13q0 -45 17 -45q14 0 29 25l1 -1q0 -3 -10.5 -18t-17.5 -15q-32 0 -35 43q-57 -82 -161 -82q-97 0 -167 53.5t-70 150.5q0 51 33.5 94.5t96.5 66.5q-6 27 -6 64q0 21 6 45t20.5 53.5t47.5 48.5t79 19q39 0 67 -14.5 t40 -35.5t17 -36t5 -24q0 -26 -15.5 -37.5t-33.5 -11.5q-34 0 -34 10q0 4 4 5.5t12 1.5t12 1q26 9 26 39q0 45 -26.5 64t-58.5 19q-40 0 -67.5 -18t-39.5 -46.5t-16.5 -52.5t-4.5 -49q0 -23 2 -34q39 15 77 15q45 0 72 -21t27 -53q0 -45 -26.5 -63.5t-63.5 -18.5 q-19 0 -36 7t-22 11t-17 16q-26 26 -44 83zM286 381q-42 0 -77 -16q5 -33 16 -57q17 -33 32 -48t37 -15q27 0 41.5 27.5t14.5 52.5q0 56 -64 56z" />
<glyph unicode="&#xc9;" horiz-adv-x="504" vert-adv-y="577" d="M434 742q0 -8 -13 -53q-13 13 -18 13q-15 0 -29 -19q-5 -7 -13.5 -25t-15.5 -30q15 71 21 84q20 44 48 44q20 0 20 -14zM176 352q-35 -18 -57 -56.5t-22 -79.5q0 -34 8 -66t26.5 -64.5t57 -52t92.5 -19.5q14 0 30 3.5t41 13.5t47 36t34 64q-9 36 -9 59q0 4 1 5q0 8 44 8 q4 0 4 -15q0 -48 -16 -82v-13q0 -45 17 -45q14 0 29 25l1 -1q0 -3 -10.5 -18t-17.5 -15q-32 0 -35 43q-57 -82 -161 -82q-97 0 -167 53.5t-70 150.5q0 51 33.5 94.5t96.5 66.5q-6 27 -6 64q0 21 6 45t20.5 53.5t47.5 48.5t79 19q39 0 67 -14.5t40 -35.5t17 -36t5 -24 q0 -26 -15.5 -37.5t-33.5 -11.5q-34 0 -34 10q0 4 4 5.5t12 1.5t12 1q26 9 26 39q0 45 -26.5 64t-58.5 19q-40 0 -67.5 -18t-39.5 -46.5t-16.5 -52.5t-4.5 -49q0 -23 2 -34q39 15 77 15q45 0 72 -21t27 -53q0 -45 -26.5 -63.5t-63.5 -18.5q-19 0 -36 7t-22 11t-17 16 q-26 26 -44 83zM286 381q-42 0 -77 -16q5 -33 16 -57q17 -33 32 -48t37 -15q27 0 41.5 27.5t14.5 52.5q0 56 -64 56z" />
<glyph unicode="&#xca;" horiz-adv-x="504" vert-adv-y="577" d="M389 754q18 -40 45 -71.5t33 -51.5q-51 34 -66.5 48t-33.5 40q-10 -16 -21.5 -25.5t-44 -29t-53.5 -33.5q6 19 44.5 50.5t56.5 72.5h40zM176 352q-35 -18 -57 -56.5t-22 -79.5q0 -34 8 -66t26.5 -64.5t57 -52t92.5 -19.5q14 0 30 3.5t41 13.5t47 36t34 64q-9 36 -9 59 q0 4 1 5q0 8 44 8q4 0 4 -15q0 -48 -16 -82v-13q0 -45 17 -45q14 0 29 25l1 -1q0 -3 -10.5 -18t-17.5 -15q-32 0 -35 43q-57 -82 -161 -82q-97 0 -167 53.5t-70 150.5q0 51 33.5 94.5t96.5 66.5q-6 27 -6 64q0 21 6 45t20.5 53.5t47.5 48.5t79 19q39 0 67 -14.5t40 -35.5 t17 -36t5 -24q0 -26 -15.5 -37.5t-33.5 -11.5q-34 0 -34 10q0 4 4 5.5t12 1.5t12 1q26 9 26 39q0 45 -26.5 64t-58.5 19q-40 0 -67.5 -18t-39.5 -46.5t-16.5 -52.5t-4.5 -49q0 -23 2 -34q39 15 77 15q45 0 72 -21t27 -53q0 -45 -26.5 -63.5t-63.5 -18.5q-19 0 -36 7t-22 11 t-17 16q-26 26 -44 83zM286 381q-42 0 -77 -16q5 -33 16 -57q17 -33 32 -48t37 -15q27 0 41.5 27.5t14.5 52.5q0 56 -64 56z" />
<glyph unicode="&#xcb;" horiz-adv-x="504" vert-adv-y="577" d="M441 683q0 6 11 12t11 16q0 4 -5 9q23 10 31 10q11 0 11 -10q0 -17 -14 -32t-30 -15q-15 0 -15 10zM281 683q0 6 11 12t11 16q0 2 -2 5l-3 4q20 10 31 10t11 -10q0 -17 -14 -32t-30 -15q-15 0 -15 10zM176 352q-35 -18 -57 -56.5t-22 -79.5q0 -34 8 -66t26.5 -64.5 t57 -52t92.5 -19.5q14 0 30 3.5t41 13.5t47 36t34 64q-9 36 -9 59q0 4 1 5q0 8 44 8q4 0 4 -15q0 -48 -16 -82v-13q0 -45 17 -45q14 0 29 25l1 -1q0 -3 -10.5 -18t-17.5 -15q-32 0 -35 43q-57 -82 -161 -82q-97 0 -167 53.5t-70 150.5q0 51 33.5 94.5t96.5 66.5q-6 27 -6 64 q0 21 6 45t20.5 53.5t47.5 48.5t79 19q39 0 67 -14.5t40 -35.5t17 -36t5 -24q0 -26 -15.5 -37.5t-33.5 -11.5q-34 0 -34 10q0 4 4 5.5t12 1.5t12 1q26 9 26 39q0 45 -26.5 64t-58.5 19q-40 0 -67.5 -18t-39.5 -46.5t-16.5 -52.5t-4.5 -49q0 -23 2 -34q39 15 77 15 q45 0 72 -21t27 -53q0 -45 -26.5 -63.5t-63.5 -18.5q-19 0 -36 7t-22 11t-17 16q-26 26 -44 83zM286 381q-42 0 -77 -16q5 -33 16 -57q17 -33 32 -48t37 -15q27 0 41.5 27.5t14.5 52.5q0 56 -64 56z" />
<glyph unicode="&#xcc;" horiz-adv-x="513" vert-adv-y="577" d="M408 723q15 15 27.5 27t18.5 12q15 0 21 -26v-6q0 -26 -46 -72q-5 -5 -19.5 -17t-17.5 -14q7 12 18.5 28.5t15.5 23.5q6 12 6 20q0 19 -24 24zM87 464q0 40 29.5 72t76.5 32q39 0 72 -17t62 -40.5t45 -29.5q31 -13 66 -13q48 0 111 50q10 8 21.5 39.5t32.5 37.5 q8 0 17 -6t9 -16l-3 -17q-4 -17 -9 -27q-26 -55 -71 -181t-83 -214.5t-66 -104.5q-49 -29 -100 -29q-77 0 -129 43.5t-52 98.5q0 24 23 39t49 15q32 -1 54 -22.5t29 -41t7 -32.5q-8 -12 -23 -12q-10 0 -17 7q-1 4 -1 15q0 72 -49 72q-18 0 -28.5 -15t-10.5 -38 q0 -36 19 -61.5t47 -35.5t47.5 -14t32.5 -4q44 0 64 18q31 29 67 117t70.5 195t47.5 136l-24 -12t-19 -8t-19 -4.5t-23 -1.5q-55 0 -94.5 15.5t-57.5 34t-46.5 34t-64.5 15.5q-23 0 -39 -12.5t-22.5 -32t-8.5 -32t-2 -22.5q0 -20 6.5 -45.5t20.5 -25.5q8 0 8 16q0 4 -0.5 12 t-0.5 11q0 11 4 11q6 0 18 -9.5t12 -17.5q0 -12 -10 -24.5t-27 -12.5q-22 0 -45 29.5t-23 65.5z" />
<glyph unicode="&#xcd;" horiz-adv-x="513" vert-adv-y="577" d="M478 742q0 -8 -13 -53q-13 13 -18 13q-15 0 -29 -19q-5 -7 -13.5 -25t-15.5 -30q15 71 21 84q20 44 48 44q20 0 20 -14zM87 464q0 40 29.5 72t76.5 32q39 0 72 -17t62 -40.5t45 -29.5q31 -13 66 -13q48 0 111 50q10 8 21.5 39.5t32.5 37.5q8 0 17 -6t9 -16l-3 -17 q-4 -17 -9 -27q-26 -55 -71 -181t-83 -214.5t-66 -104.5q-49 -29 -100 -29q-77 0 -129 43.5t-52 98.5q0 24 23 39t49 15q32 -1 54 -22.5t29 -41t7 -32.5q-8 -12 -23 -12q-10 0 -17 7q-1 4 -1 15q0 72 -49 72q-18 0 -28.5 -15t-10.5 -38q0 -36 19 -61.5t47 -35.5t47.5 -14 t32.5 -4q44 0 64 18q31 29 67 117t70.5 195t47.5 136l-24 -12t-19 -8t-19 -4.5t-23 -1.5q-55 0 -94.5 15.5t-57.5 34t-46.5 34t-64.5 15.5q-23 0 -39 -12.5t-22.5 -32t-8.5 -32t-2 -22.5q0 -20 6.5 -45.5t20.5 -25.5q8 0 8 16q0 4 -0.5 12t-0.5 11q0 11 4 11q6 0 18 -9.5 t12 -17.5q0 -12 -10 -24.5t-27 -12.5q-22 0 -45 29.5t-23 65.5z" />
<glyph unicode="&#xce;" horiz-adv-x="513" vert-adv-y="577" d="M440 754q18 -40 45 -71.5t33 -51.5q-51 34 -66.5 48t-33.5 40q-10 -16 -21.5 -25.5t-44 -29t-53.5 -33.5q6 19 44.5 50.5t56.5 72.5h40zM87 464q0 40 29.5 72t76.5 32q39 0 72 -17t62 -40.5t45 -29.5q31 -13 66 -13q48 0 111 50q10 8 21.5 39.5t32.5 37.5q8 0 17 -6 t9 -16l-3 -17q-4 -17 -9 -27q-26 -55 -71 -181t-83 -214.5t-66 -104.5q-49 -29 -100 -29q-77 0 -129 43.5t-52 98.5q0 24 23 39t49 15q32 -1 54 -22.5t29 -41t7 -32.5q-8 -12 -23 -12q-10 0 -17 7q-1 4 -1 15q0 72 -49 72q-18 0 -28.5 -15t-10.5 -38q0 -36 19 -61.5 t47 -35.5t47.5 -14t32.5 -4q44 0 64 18q31 29 67 117t70.5 195t47.5 136l-24 -12t-19 -8t-19 -4.5t-23 -1.5q-55 0 -94.5 15.5t-57.5 34t-46.5 34t-64.5 15.5q-23 0 -39 -12.5t-22.5 -32t-8.5 -32t-2 -22.5q0 -20 6.5 -45.5t20.5 -25.5q8 0 8 16q0 4 -0.5 12t-0.5 11 q0 11 4 11q6 0 18 -9.5t12 -17.5q0 -12 -10 -24.5t-27 -12.5q-22 0 -45 29.5t-23 65.5z" />
<glyph unicode="&#xcf;" horiz-adv-x="513" vert-adv-y="577" d="M480 683q0 6 11 12t11 16q0 4 -5 9q23 10 31 10q11 0 11 -10q0 -17 -14 -32t-30 -15q-15 0 -15 10zM320 683q0 6 11 12t11 16q0 2 -2 5l-3 4q20 10 31 10t11 -10q0 -17 -14 -32t-30 -15q-15 0 -15 10zM87 464q0 40 29.5 72t76.5 32q39 0 72 -17t62 -40.5t45 -29.5 q31 -13 66 -13q48 0 111 50q10 8 21.5 39.5t32.5 37.5q8 0 17 -6t9 -16l-3 -17q-4 -17 -9 -27q-26 -55 -71 -181t-83 -214.5t-66 -104.5q-49 -29 -100 -29q-77 0 -129 43.5t-52 98.5q0 24 23 39t49 15q32 -1 54 -22.5t29 -41t7 -32.5q-8 -12 -23 -12q-10 0 -17 7q-1 4 -1 15 q0 72 -49 72q-18 0 -28.5 -15t-10.5 -38q0 -36 19 -61.5t47 -35.5t47.5 -14t32.5 -4q44 0 64 18q31 29 67 117t70.5 195t47.5 136l-24 -12t-19 -8t-19 -4.5t-23 -1.5q-55 0 -94.5 15.5t-57.5 34t-46.5 34t-64.5 15.5q-23 0 -39 -12.5t-22.5 -32t-8.5 -32t-2 -22.5 q0 -20 6.5 -45.5t20.5 -25.5q8 0 8 16q0 4 -0.5 12t-0.5 11q0 11 4 11q6 0 18 -9.5t12 -17.5q0 -12 -10 -24.5t-27 -12.5q-22 0 -45 29.5t-23 65.5z" />
<glyph unicode="&#xd0;" horiz-adv-x="864" vert-adv-y="577" d="M473 91q-36 31 -53 46t-21.5 17.5t-8.5 2.5q-19 0 -19 -34q0 -25 13.5 -67.5t40.5 -42.5q26 0 48 78zM538 268q-30 1 -103 1q0 11 6 29q14 -1 51.5 -1.5t54.5 -0.5q71 209 76 270q39 -2 39 -29q0 -5 -23 -83.5t-50 -157.5q84 2 134 8q-5 -25 -7 -34q-39 -4 -77 -4 q-35 0 -60 2q-46 -132 -73 -185q90 -68 143 -68q29 0 73 44q28 28 53.5 89t25.5 137q0 84 -25 159q-24 78 -93 163q-93 120 -206 169q-21 10 -64 20.5t-65 10.5q-48 0 -72 -6t-55 -23q-29 -16 -52 -66t-23 -89q0 -79 69 -149t122 -70q44 0 44 42q0 13 -10.5 29.5t-14.5 35.5 q0 36 35 36q21 0 30 -18.5t9 -40.5q0 -33 -21 -71q-15 -28 -57 -28q-73 0 -162 79.5t-89 159.5q0 21 7 49.5t32.5 66.5t64.5 57q43 20 109 20q98 0 170 -33q123 -57 205 -141q73 -76 117 -174q37 -81 37 -214q0 -48 -21.5 -102.5t-45.5 -87.5q-51 -70 -127 -70 q-57 0 -149 70q-37 -68 -75 -68q-42 0 -66 44t-24 81q0 46 33 46q21 0 29 -2.5t27 -17t54 -46.5q27 69 60 162z" />
<glyph unicode="&#xd1;" horiz-adv-x="888" vert-adv-y="577" d="M696 678q22 35 38 35q17 0 57.5 -11.5t53.5 -11.5q11 0 19 2t13.5 5.5t11 9l11.5 11.5q1 -1 7 -7.5t7 -11.5q-9 -7 -16 -13t-17.5 -10t-22.5 -4q-27 0 -61.5 11.5t-45.5 11.5q-14 0 -24.5 -12.5t-13.5 -12.5q-8 0 -17 8zM130 466q0 52 38.5 73.5t85.5 21.5 q46 -1 78 -16.5t48.5 -37.5t29 -44t29.5 -37t41 -15q18 0 56 28t53 47q11 29 14.5 42t4 20.5t1.5 20.5q2 10 10 18t17 8q16 0 22.5 -8t6.5 -14l-8 -24q0 -23 7.5 -46.5t20.5 -49t43 -92t63 -148.5q38 225 111 357t148 134q54 0 80.5 -9.5t43.5 -35.5q1 -2 13 -17 q-1 -5 -10.5 -8t-15.5 -3t-9.5 2.5t-6 5.5t-8 11t-11.5 15q-19 25 -59 25q-69 0 -141.5 -148t-99.5 -395l4 -33q5 -34 5 -37q0 -31 -13.5 -54t-26.5 -23q-14 0 -28.5 13t-14.5 39q0 12 27 101l-147 316q-4 -5 -18.5 -44.5t-33.5 -90t-53.5 -110.5t-74.5 -109t-100 -82 t-127 -33q-76 0 -129 42.5t-53 89.5q0 25 14 40.5t25.5 18.5t21.5 3q79 0 95 -91q0 -13 -20 -13q-12 0 -20 6q2 14 2 25q0 55 -48 55q-18 0 -27 -10.5t-10.5 -21t-1.5 -30.5q0 -40 51.5 -69t97.5 -29q20 0 34 1.5t38.5 10.5t45.5 25t50.5 48.5t57 78t61.5 115.5t68 159 q-1 0 -22.5 -19t-39.5 -29t-35 -10q-30 0 -52 15.5t-36 38t-29.5 45t-42 38t-64.5 15.5q-46 0 -67 -22.5t-21 -57.5q0 -34 14.5 -64.5t31.5 -30.5q25 0 34 10.5t9 21t3 10.5q5 0 13.5 -8.5t8.5 -18.5q0 -28 -58 -28q-40 0 -67.5 32.5t-27.5 73.5z" />
<glyph unicode="&#xd2;" horiz-adv-x="534" vert-adv-y="577" d="M434 723q15 15 27.5 27t18.5 12q15 0 21 -26v-6q0 -26 -46 -72q-5 -5 -19.5 -17t-17.5 -14q7 12 18.5 28.5t15.5 23.5q6 12 6 20q0 19 -24 24zM292 0q-35 0 -72.5 11t-73 33t-58.5 62t-23 91q0 172 79 284.5t193 112.5q59 0 104.5 -40t45.5 -77q0 -28 -25.5 -95.5 t-56.5 -109.5q-14 -18 -44 -32l-30 -13h-2v7q0 8 23.5 17.5t37.5 25.5q26 29 44.5 89.5t18.5 122.5q0 27 -11 46t-28.5 26.5t-30.5 10.5t-25 3q-80 0 -139 -58.5t-86.5 -150.5t-27.5 -204q0 -40 18.5 -70.5t47 -46.5t56.5 -23.5t53 -7.5q45 0 85 28t66.5 69.5t45.5 90 t27.5 87.5t8.5 63q0 49 -14 77q-8 16 -8 31q0 2 0.5 7t0.5 8q0 1 -0.5 4.5t-0.5 5.5q0 1 -1 4t-1 4l1 2q19 -18 28 -28.5t21 -41.5t12 -70q0 -48 -13 -103.5t-40.5 -114.5t-81 -98t-124.5 -39z" />
<glyph unicode="&#xd3;" horiz-adv-x="534" vert-adv-y="577" d="M516 742q0 -8 -13 -53q-13 13 -18 13q-15 0 -29 -19q-5 -7 -13.5 -25t-15.5 -30q15 71 21 84q20 44 48 44q20 0 20 -14zM292 0q-35 0 -72.5 11t-73 33t-58.5 62t-23 91q0 172 79 284.5t193 112.5q59 0 104.5 -40t45.5 -77q0 -28 -25.5 -95.5t-56.5 -109.5 q-14 -18 -44 -32l-30 -13h-2v7q0 8 23.5 17.5t37.5 25.5q26 29 44.5 89.5t18.5 122.5q0 27 -11 46t-28.5 26.5t-30.5 10.5t-25 3q-80 0 -139 -58.5t-86.5 -150.5t-27.5 -204q0 -40 18.5 -70.5t47 -46.5t56.5 -23.5t53 -7.5q45 0 85 28t66.5 69.5t45.5 90t27.5 87.5t8.5 63 q0 49 -14 77q-8 16 -8 31q0 2 0.5 7t0.5 8q0 1 -0.5 4.5t-0.5 5.5q0 1 -1 4t-1 4l1 2q19 -18 28 -28.5t21 -41.5t12 -70q0 -48 -13 -103.5t-40.5 -114.5t-81 -98t-124.5 -39z" />
<glyph unicode="&#xd4;" horiz-adv-x="534" vert-adv-y="577" d="M411 754q18 -40 45 -71.5t33 -51.5q-51 34 -66.5 48t-33.5 40q-10 -16 -21.5 -25.5t-44 -29t-53.5 -33.5q6 19 44.5 50.5t56.5 72.5h40zM292 0q-35 0 -72.5 11t-73 33t-58.5 62t-23 91q0 172 79 284.5t193 112.5q59 0 104.5 -40t45.5 -77q0 -28 -25.5 -95.5t-56.5 -109.5 q-14 -18 -44 -32l-30 -13h-2v7q0 8 23.5 17.5t37.5 25.5q26 29 44.5 89.5t18.5 122.5q0 27 -11 46t-28.5 26.5t-30.5 10.5t-25 3q-80 0 -139 -58.5t-86.5 -150.5t-27.5 -204q0 -40 18.5 -70.5t47 -46.5t56.5 -23.5t53 -7.5q45 0 85 28t66.5 69.5t45.5 90t27.5 87.5t8.5 63 q0 49 -14 77q-8 16 -8 31q0 2 0.5 7t0.5 8q0 1 -0.5 4.5t-0.5 5.5q0 1 -1 4t-1 4l1 2q19 -18 28 -28.5t21 -41.5t12 -70q0 -48 -13 -103.5t-40.5 -114.5t-81 -98t-124.5 -39z" />
<glyph unicode="&#xd5;" horiz-adv-x="534" vert-adv-y="577" d="M294 678q22 35 38 35q17 0 57.5 -11.5t53.5 -11.5q11 0 19 2t13.5 5.5t11 9l11.5 11.5q1 -1 7 -7.5t7 -11.5q-9 -7 -16 -13t-17.5 -10t-22.5 -4q-27 0 -61.5 11.5t-45.5 11.5q-14 0 -24.5 -12.5t-13.5 -12.5q-8 0 -17 8zM292 0q-35 0 -72.5 11t-73 33t-58.5 62t-23 91 q0 172 79 284.5t193 112.5q59 0 104.5 -40t45.5 -77q0 -28 -25.5 -95.5t-56.5 -109.5q-14 -18 -44 -32l-30 -13h-2v7q0 8 23.5 17.5t37.5 25.5q26 29 44.5 89.5t18.5 122.5q0 27 -11 46t-28.5 26.5t-30.5 10.5t-25 3q-80 0 -139 -58.5t-86.5 -150.5t-27.5 -204 q0 -40 18.5 -70.5t47 -46.5t56.5 -23.5t53 -7.5q45 0 85 28t66.5 69.5t45.5 90t27.5 87.5t8.5 63q0 49 -14 77q-8 16 -8 31q0 2 0.5 7t0.5 8q0 1 -0.5 4.5t-0.5 5.5q0 1 -1 4t-1 4l1 2q19 -18 28 -28.5t21 -41.5t12 -70q0 -48 -13 -103.5t-40.5 -114.5t-81 -98t-124.5 -39z " />
<glyph unicode="&#xd6;" horiz-adv-x="534" vert-adv-y="577" d="M466 683q0 6 11 12t11 16q0 4 -5 9q23 10 31 10q11 0 11 -10q0 -17 -14 -32t-30 -15q-15 0 -15 10zM306 683q0 6 11 12t11 16q0 2 -2 5l-3 4q20 10 31 10t11 -10q0 -17 -14 -32t-30 -15q-15 0 -15 10zM292 0q-35 0 -72.5 11t-73 33t-58.5 62t-23 91q0 172 79 284.5 t193 112.5q59 0 104.5 -40t45.5 -77q0 -28 -25.5 -95.5t-56.5 -109.5q-14 -18 -44 -32l-30 -13h-2v7q0 8 23.5 17.5t37.5 25.5q26 29 44.5 89.5t18.5 122.5q0 27 -11 46t-28.5 26.5t-30.5 10.5t-25 3q-80 0 -139 -58.5t-86.5 -150.5t-27.5 -204q0 -40 18.5 -70.5t47 -46.5 t56.5 -23.5t53 -7.5q45 0 85 28t66.5 69.5t45.5 90t27.5 87.5t8.5 63q0 49 -14 77q-8 16 -8 31q0 2 0.5 7t0.5 8q0 1 -0.5 4.5t-0.5 5.5q0 1 -1 4t-1 4l1 2q19 -18 28 -28.5t21 -41.5t12 -70q0 -48 -13 -103.5t-40.5 -114.5t-81 -98t-124.5 -39z" />
<glyph unicode="&#xd7;" vert-adv-y="577" d="M147 235l-78 78q2 13 11 31l90 -93l107 74q3 -1 8 -4.5t10 -6t10 -3.5l-115 -81q56 -56 94 -82q-4 -16 -13 -35q-39 34 -104 101q-68 -53 -99 -80q-10 2 -32 18q45 39 111 83z" />
<glyph unicode="&#xd8;" horiz-adv-x="519" vert-adv-y="577" d="M538 592l33 -27l-68 -83q48 -48 48 -127q0 -48 -13 -103.5t-40.5 -114.5t-81 -98t-124.5 -39q-82 0 -148 46l-58 -66l-34 28l62 64q-49 51 -49 125q0 172 79 284.5t193 112.5q48 0 86.5 -27t54.5 -61zM474 428q-4 0 -9 7l-312 -378q54 -43 126 -43q56 0 103.5 42 t74.5 100.5t42 111.5t15 84q0 53 -14 77q-12 22 -16 22q-1 0 -2.5 -11.5t-7.5 -11.5zM127 86q84 89 117.5 125.5t91 107t116.5 151.5q0 1 -1.5 17t-5.5 28t-12.5 27.5t-27.5 24t-47 8.5q-80 0 -139 -58.5t-86.5 -150.5t-27.5 -204q0 -45 22 -76z" />
<glyph unicode="&#xd9;" horiz-adv-x="920" vert-adv-y="577" d="M751 723q15 15 27.5 27t18.5 12q15 0 21 -26v-6q0 -26 -46 -72q-5 -5 -19.5 -17t-17.5 -14q7 12 18.5 28.5t15.5 23.5q6 12 6 20q0 19 -24 24zM823 14q17 0 29.5 15.5t19.5 31t11 15.5q5 0 11.5 -7.5t10.5 -7.5t14 12l1 -1q-42 -72 -99 -72q-31 0 -51.5 21.5t-26 44.5 t-11.5 37q-77 -73 -103 -88t-81 -15q-45 0 -80 34.5t-35 122.5q0 42 30.5 120t78.5 190q-63 -21 -94 -21q-44 0 -79.5 15.5t-55.5 34t-50 34t-65 15.5q-40 0 -57 -28.5t-17 -68.5q0 -19 6 -42.5t20 -25.5q9 0 9 15q0 4 -0.5 12t-0.5 11q0 11 5 11q6 0 19.5 -9t13.5 -18 q0 -4 -12 -19q-16 -18 -30 -18q-26 0 -46.5 29t-20.5 67q0 33 24.5 66t79.5 33q40 0 75.5 -15.5t57 -34t52 -34t60.5 -15.5q49 0 111 43q9 8 22 40q7 27 31 34q25 -5 25 -22q-1 -25 -17 -44q-20 -24 -31 -57q-6 -17 -37 -84.5t-51.5 -129.5t-20.5 -107q0 -120 84 -120 q28 0 74 37t96 96q-6 23 -6 41q0 61 54 209.5t92 175.5q9 5 18 5q24 0 24 -55q0 -61 -37.5 -168t-114.5 -224q8 -27 14 -53t20.5 -45t36.5 -19zM870 562q-30 -40 -79 -170t-49 -195q0 -7 2 -19q128 218 128 372q0 10 -2 12z" />
<glyph unicode="&#xda;" horiz-adv-x="920" vert-adv-y="577" d="M824 742q0 -8 -13 -53q-13 13 -18 13q-15 0 -29 -19q-5 -7 -13.5 -25t-15.5 -30q15 71 21 84q20 44 48 44q20 0 20 -14zM823 14q17 0 29.5 15.5t19.5 31t11 15.5q5 0 11.5 -7.5t10.5 -7.5t14 12l1 -1q-42 -72 -99 -72q-31 0 -51.5 21.5t-26 44.5t-11.5 37 q-77 -73 -103 -88t-81 -15q-45 0 -80 34.5t-35 122.5q0 42 30.5 120t78.5 190q-63 -21 -94 -21q-44 0 -79.5 15.5t-55.5 34t-50 34t-65 15.5q-40 0 -57 -28.5t-17 -68.5q0 -19 6 -42.5t20 -25.5q9 0 9 15q0 4 -0.5 12t-0.5 11q0 11 5 11q6 0 19.5 -9t13.5 -18q0 -4 -12 -19 q-16 -18 -30 -18q-26 0 -46.5 29t-20.5 67q0 33 24.5 66t79.5 33q40 0 75.5 -15.5t57 -34t52 -34t60.5 -15.5q49 0 111 43q9 8 22 40q7 27 31 34q25 -5 25 -22q-1 -25 -17 -44q-20 -24 -31 -57q-6 -17 -37 -84.5t-51.5 -129.5t-20.5 -107q0 -120 84 -120q28 0 74 37t96 96 q-6 23 -6 41q0 61 54 209.5t92 175.5q9 5 18 5q24 0 24 -55q0 -61 -37.5 -168t-114.5 -224q8 -27 14 -53t20.5 -45t36.5 -19zM870 562q-30 -40 -79 -170t-49 -195q0 -7 2 -19q128 218 128 372q0 10 -2 12z" />
<glyph unicode="&#xdb;" horiz-adv-x="920" vert-adv-y="577" d="M788 754q18 -40 45 -71.5t33 -51.5q-51 34 -66.5 48t-33.5 40q-10 -16 -21.5 -25.5t-44 -29t-53.5 -33.5q6 19 44.5 50.5t56.5 72.5h40zM823 14q17 0 29.5 15.5t19.5 31t11 15.5q5 0 11.5 -7.5t10.5 -7.5t14 12l1 -1q-42 -72 -99 -72q-31 0 -51.5 21.5t-26 44.5t-11.5 37 q-77 -73 -103 -88t-81 -15q-45 0 -80 34.5t-35 122.5q0 42 30.5 120t78.5 190q-63 -21 -94 -21q-44 0 -79.5 15.5t-55.5 34t-50 34t-65 15.5q-40 0 -57 -28.5t-17 -68.5q0 -19 6 -42.5t20 -25.5q9 0 9 15q0 4 -0.5 12t-0.5 11q0 11 5 11q6 0 19.5 -9t13.5 -18q0 -4 -12 -19 q-16 -18 -30 -18q-26 0 -46.5 29t-20.5 67q0 33 24.5 66t79.5 33q40 0 75.5 -15.5t57 -34t52 -34t60.5 -15.5q49 0 111 43q9 8 22 40q7 27 31 34q25 -5 25 -22q-1 -25 -17 -44q-20 -24 -31 -57q-6 -17 -37 -84.5t-51.5 -129.5t-20.5 -107q0 -120 84 -120q28 0 74 37t96 96 q-6 23 -6 41q0 61 54 209.5t92 175.5q9 5 18 5q24 0 24 -55q0 -61 -37.5 -168t-114.5 -224q8 -27 14 -53t20.5 -45t36.5 -19zM870 562q-30 -40 -79 -170t-49 -195q0 -7 2 -19q128 218 128 372q0 10 -2 12z" />
<glyph unicode="&#xdc;" horiz-adv-x="920" vert-adv-y="577" d="M834 683q0 6 11 12t11 16q0 4 -5 9q23 10 31 10q11 0 11 -10q0 -17 -14 -32t-30 -15q-15 0 -15 10zM674 683q0 6 11 12t11 16q0 2 -2 5l-3 4q20 10 31 10t11 -10q0 -17 -14 -32t-30 -15q-15 0 -15 10zM823 14q17 0 29.5 15.5t19.5 31t11 15.5q5 0 11.5 -7.5t10.5 -7.5 t14 12l1 -1q-42 -72 -99 -72q-31 0 -51.5 21.5t-26 44.5t-11.5 37q-77 -73 -103 -88t-81 -15q-45 0 -80 34.5t-35 122.5q0 42 30.5 120t78.5 190q-63 -21 -94 -21q-44 0 -79.5 15.5t-55.5 34t-50 34t-65 15.5q-40 0 -57 -28.5t-17 -68.5q0 -19 6 -42.5t20 -25.5q9 0 9 15 q0 4 -0.5 12t-0.5 11q0 11 5 11q6 0 19.5 -9t13.5 -18q0 -4 -12 -19q-16 -18 -30 -18q-26 0 -46.5 29t-20.5 67q0 33 24.5 66t79.5 33q40 0 75.5 -15.5t57 -34t52 -34t60.5 -15.5q49 0 111 43q9 8 22 40q7 27 31 34q25 -5 25 -22q-1 -25 -17 -44q-20 -24 -31 -57 q-6 -17 -37 -84.5t-51.5 -129.5t-20.5 -107q0 -120 84 -120q28 0 74 37t96 96q-6 23 -6 41q0 61 54 209.5t92 175.5q9 5 18 5q24 0 24 -55q0 -61 -37.5 -168t-114.5 -224q8 -27 14 -53t20.5 -45t36.5 -19zM870 562q-30 -40 -79 -170t-49 -195q0 -7 2 -19q128 218 128 372 q0 10 -2 12z" />
<glyph unicode="&#xdd;" horiz-adv-x="839" vert-adv-y="577" d="M806 742q0 -8 -13 -53q-13 13 -18 13q-15 0 -29 -19q-5 -7 -13.5 -25t-15.5 -30q15 71 21 84q20 44 48 44q20 0 20 -14zM881 595q24 0 24 -65q0 -23 -6 -59.5t-43 -134t-102 -205.5q-13 -55 -66 -218t-110 -290q-7 -15 -34 -30q-34 -18 -101 -22q-55 2 -105 28 q-77 48 -77 112q0 20 11 36.5t38 16.5q49 0 82 -34q9 -9 20.5 -27.5t11.5 -32.5q-6 -11 -23 -11q-13 0 -20 7q1 6 1 29q0 17 -9 36q-7 8 -20 15t-20 7q-16 0 -27 -22t-11 -46q0 -51 49 -77q43 -28 96 -28q44 0 67 20q35 31 48 58q22 45 88 232l66 188q-34 -32 -49 -44 t-40 -23t-56 -11q-29 0 -52 10.5t-36 28.5t-22.5 37t-13 41.5t-5 36.5t-1.5 27q0 31 13 75.5t35.5 98t51.5 128.5q-57 -32 -86 -32q-48 0 -84.5 15.5t-55 34t-47 34t-62.5 15.5q-31 0 -49 -22t-21.5 -41t-3.5 -38q0 -27 7.5 -48t19.5 -21q8 0 8 14q0 7 -0.5 14t-0.5 17 q0 4 5 4t17.5 -9t12.5 -18q0 -13 -8 -21q-12 -16 -31 -16q-25 0 -46.5 32t-21.5 64q0 43 33 72.5t71 29.5q40 0 73.5 -15t53.5 -33.5t52 -33.5t68 -15q20 0 38.5 8.5t27.5 15.5t36 31q9 7 20 39q10 27 31 34q7 0 12 -3q6 -1 14.5 -14t8.5 -19v-1q-1 -10 -14.5 -16.5 t-16.5 -11.5q-14 -17 -24 -58q-18 -49 -51 -125.5t-45 -117t-12 -84.5q0 -71 29.5 -100.5t59.5 -29.5q61 0 172 135q34 137 54.5 223.5t36.5 136t30.5 68t35.5 18.5zM872 573q-25 -34 -42.5 -93t-35.5 -148t-32 -138q22 37 67.5 159.5t45.5 207.5q0 9 -3 12z" />
<glyph unicode="&#xde;" horiz-adv-x="473" vert-adv-y="577" d="M245 558q-31 -145 -65 -269q82 -30 116 -30t78.5 28t44.5 81q0 70 -58 123t-116 67zM251 590q79 -19 142.5 -76t63.5 -147q0 -45 -44 -88.5t-104 -43.5q-56 0 -135 37q-48 -172 -80 -277t-46 -105q-24 0 -45 11q35 90 61.5 162t50 151.5t52.5 209t69 334.5 q2 -2 21.5 -3.5t22.5 -7.5q-16 -97 -29 -157z" />
<glyph unicode="&#xdf;" horiz-adv-x="297" vert-adv-y="577" d="M144 446q3 9 17 16t25 7q16 0 43 -18t27 -50q0 -74 -93 -131q119 -87 119 -183q0 -19 -2.5 -31.5t-10.5 -27t-26.5 -21.5t-48.5 -7q-35 0 -62 22q-16 10 -29 31t-13 27q0 7 7 7q8 0 20 -5q5 -4 12 -23t22 -34t45 -15q29 0 40.5 16.5t11.5 66.5q0 63 -112 165 q-5 -2 -15 -4q-5 -15 -59.5 -249t-83.5 -338q-12 -45 -42.5 -69.5t-72.5 -24.5q-11 0 -23 3q6 27 18 27t22 -2.5t14 -2.5q16 0 28.5 14.5t26.5 57.5q14 44 37 136t59.5 248t49.5 212q23 95 49 180zM235 401q0 13 -17.5 30t-31.5 18q-11 -6 -20 -34t-39 -140q20 8 33 15 t33 21.5t31 37.5t11 52z" />
<glyph unicode="&#xe0;" vert-adv-y="577" d="M228 478q15 15 27.5 27t18.5 12q15 0 21 -26v-6q0 -26 -46 -72q-5 -5 -19.5 -17t-17.5 -14q7 12 18.5 28.5t15.5 23.5q6 12 6 20q0 19 -24 24zM281 274q5 0 10 -5t5 -16q-11 -44 -22 -81.5t-16.5 -53.5t-8.5 -30.5t-3 -26.5q0 -46 19 -46q20 0 33 10.5t42 47.5l1 -1 q-12 -21 -20.5 -37t-23.5 -25.5t-38 -9.5q-44 0 -44 51q-38 -51 -93 -51q-49 0 -73 35t-24 77q0 67 48.5 124t112.5 57q23 0 48 -13.5t25 -23.5l7 9q6 9 15 9zM109 14q20 1 29 3.5t26 16.5t33 49t35 94q-6 -11 -61 -43v2q35 30 51.5 49.5t16.5 39.5q0 23 -15.5 38.5 t-33.5 15.5q-42 0 -84 -62t-42 -115q0 -48 14.5 -68t30.5 -20z" />
<glyph unicode="&#xe1;" vert-adv-y="577" d="M303 496q0 -8 -13 -53q-13 13 -18 13q-15 0 -29 -19q-5 -7 -13.5 -25t-15.5 -30q15 71 21 84q20 44 48 44q20 0 20 -14zM281 274q5 0 10 -5t5 -16q-11 -44 -22 -81.5t-16.5 -53.5t-8.5 -30.5t-3 -26.5q0 -46 19 -46q20 0 33 10.5t42 47.5l1 -1q-12 -21 -20.5 -37 t-23.5 -25.5t-38 -9.5q-44 0 -44 51q-38 -51 -93 -51q-49 0 -73 35t-24 77q0 67 48.5 124t112.5 57q23 0 48 -13.5t25 -23.5l7 9q6 9 15 9zM109 14q20 1 29 3.5t26 16.5t33 49t35 94q-6 -11 -61 -43v2q35 30 51.5 49.5t16.5 39.5q0 23 -15.5 38.5t-33.5 15.5q-42 0 -84 -62 t-42 -115q0 -48 14.5 -68t30.5 -20z" />
<glyph unicode="&#xe2;" vert-adv-y="577" d="M256 508q18 -40 45 -71.5t33 -51.5q-51 34 -66.5 48t-33.5 40q-10 -16 -21.5 -25.5t-44 -29t-53.5 -33.5q6 19 44.5 50.5t56.5 72.5h40zM281 274q5 0 10 -5t5 -16q-11 -44 -22 -81.5t-16.5 -53.5t-8.5 -30.5t-3 -26.5q0 -46 19 -46q20 0 33 10.5t42 47.5l1 -1 q-12 -21 -20.5 -37t-23.5 -25.5t-38 -9.5q-44 0 -44 51q-38 -51 -93 -51q-49 0 -73 35t-24 77q0 67 48.5 124t112.5 57q23 0 48 -13.5t25 -23.5l7 9q6 9 15 9zM109 14q20 1 29 3.5t26 16.5t33 49t35 94q-6 -11 -61 -43v2q35 30 51.5 49.5t16.5 39.5q0 23 -15.5 38.5 t-33.5 15.5q-42 0 -84 -62t-42 -115q0 -48 14.5 -68t30.5 -20z" />
<glyph unicode="&#xe3;" vert-adv-y="577" d="M144 448q22 35 38 35q17 0 57.5 -11.5t53.5 -11.5q11 0 19 2t13.5 5.5t11 9l11.5 11.5q1 -1 7 -7.5t7 -11.5q-9 -7 -16 -13t-17.5 -10t-22.5 -4q-27 0 -61.5 11.5t-45.5 11.5q-14 0 -24.5 -12.5t-13.5 -12.5q-8 0 -17 8zM281 274q5 0 10 -5t5 -16q-11 -44 -22 -81.5 t-16.5 -53.5t-8.5 -30.5t-3 -26.5q0 -46 19 -46q20 0 33 10.5t42 47.5l1 -1q-12 -21 -20.5 -37t-23.5 -25.5t-38 -9.5q-44 0 -44 51q-38 -51 -93 -51q-49 0 -73 35t-24 77q0 67 48.5 124t112.5 57q23 0 48 -13.5t25 -23.5l7 9q6 9 15 9zM109 14q20 1 29 3.5t26 16.5t33 49 t35 94q-6 -11 -61 -43v2q35 30 51.5 49.5t16.5 39.5q0 23 -15.5 38.5t-33.5 15.5q-42 0 -84 -62t-42 -115q0 -48 14.5 -68t30.5 -20z" />
<glyph unicode="&#xe4;" vert-adv-y="577" d="M299 461q0 6 11 12t11 16q0 4 -5 9q23 10 31 10q11 0 11 -10q0 -17 -14 -32t-30 -15q-15 0 -15 10zM139 461q0 6 11 12t11 16q0 2 -2 5l-3 4q20 10 31 10t11 -10q0 -17 -14 -32t-30 -15q-15 0 -15 10zM281 274q5 0 10 -5t5 -16q-11 -44 -22 -81.5t-16.5 -53.5t-8.5 -30.5 t-3 -26.5q0 -46 19 -46q20 0 33 10.5t42 47.5l1 -1q-12 -21 -20.5 -37t-23.5 -25.5t-38 -9.5q-44 0 -44 51q-38 -51 -93 -51q-49 0 -73 35t-24 77q0 67 48.5 124t112.5 57q23 0 48 -13.5t25 -23.5l7 9q6 9 15 9zM109 14q20 1 29 3.5t26 16.5t33 49t35 94q-6 -11 -61 -43v2 q35 30 51.5 49.5t16.5 39.5q0 23 -15.5 38.5t-33.5 15.5q-42 0 -84 -62t-42 -115q0 -48 14.5 -68t30.5 -20z" />
<glyph unicode="&#xe5;" vert-adv-y="577" d="M168 359q0 -19 13 -32t32 -13q18 0 31.5 13t13.5 32q0 18 -13.5 31.5t-31.5 13.5q-19 0 -32 -13.5t-13 -31.5zM144 361q0 27 19 46t46 19t46 -19t19 -46t-19 -46t-46 -19t-46 19t-19 46zM281 274q5 0 10 -5t5 -16q-11 -44 -22 -81.5t-16.5 -53.5t-8.5 -30.5t-3 -26.5 q0 -46 19 -46q20 0 33 10.5t42 47.5l1 -1q-12 -21 -20.5 -37t-23.5 -25.5t-38 -9.5q-44 0 -44 51q-38 -51 -93 -51q-49 0 -73 35t-24 77q0 67 48.5 124t112.5 57q23 0 48 -13.5t25 -23.5l7 9q6 9 15 9zM109 14q20 1 29 3.5t26 16.5t33 49t35 94q-6 -11 -61 -43v2 q35 30 51.5 49.5t16.5 39.5q0 23 -15.5 38.5t-33.5 15.5q-42 0 -84 -62t-42 -115q0 -48 14.5 -68t30.5 -20z" />
<glyph unicode="&#xe6;" horiz-adv-x="453" vert-adv-y="577" d="M389 279q-35 0 -61 -29.5t-52 -81.5q5 0 24.5 1t43.5 1q38 1 63.5 31.5t25.5 49.5q0 28 -44 28zM387 293q29 0 56 -13.5t27 -37.5q0 -6 -3.5 -17t-14 -28.5t-36 -29.5t-61.5 -12q-64 0 -84 -2q-16 -48 -16 -71q0 -68 73 -68q27 0 43 16q1 1 6.5 8t10 10t11.5 3h14 q11 0 19 3.5t10.5 6t9.5 12.5l1 -1q-18 -33 -40 -50t-37 -19.5t-41 -2.5q-24 0 -44 5.5t-32 13t-20 15t-11 12.5l-4 6q-6 0 -14.5 -8t-17.5 -18t-27.5 -18t-42.5 -8q-97 0 -97 83q0 45 33.5 66.5t73.5 24t73.5 13.5t33.5 36q0 28 -15 42t-34 14q-62 0 -91 -52q-12 -4 -20 -4 q-15 0 -16 12q33 34 57.5 46t65.5 12q23 0 48 -13.5t25 -23.5l7 9q6 9 15 9t13 -12q40 31 93 31zM233 178q-10 -10 -40 -15t-57.5 -7.5t-49.5 -21.5t-22 -54q0 -32 11.5 -49t41.5 -17q40 0 64 37t52 127z" />
<glyph unicode="&#xe7;" horiz-adv-x="264" vert-adv-y="577" d="M192 293q37 0 62 -16t25 -29q0 -10 -9 -18t-17 -8q-14 0 -14 14q0 6 1.5 14t1.5 10q0 19 -48 19q-42 0 -86 -60t-44 -143q0 -25 13 -40t25.5 -18.5t24.5 -3.5q35 0 51 17q6 8 13 14.5t18 6.5q19 0 28 2t12.5 5t13.5 14l1 -1q-16 -25 -34 -41t-38.5 -22t-32.5 -7.5 t-31 -1.5q-11 0 -26 4q19 -15 29.5 -36.5t10.5 -40.5q0 -22 -8 -42t-26 -20q-12 0 -22.5 13.5t-22.5 32.5q-1 2 -1 4t2 2q7 0 21 -22t23 -24q10 4 10 35q0 54 -38 105q-55 25 -55 86q0 42 18 85.5t57.5 77t91.5 33.5z" />
<glyph unicode="&#xe8;" horiz-adv-x="258" vert-adv-y="577" d="M229 478q15 15 27.5 27t18.5 12q15 0 21 -26v-6q0 -26 -46 -72q-5 -5 -19.5 -17t-17.5 -14q7 12 18.5 28.5t15.5 23.5q6 12 6 20q0 19 -24 24zM192 293q29 0 56 -13.5t27 -37.5q0 -6 -3.5 -17t-14 -28.5t-36 -29.5t-61.5 -12q-18 0 -35.5 4t-18.5 4q-11 0 -34 -21 q-12 -32 -12 -60q0 -68 73 -68q27 0 43 16q1 1 6.5 8t10 10t11.5 3h14q7 0 12.5 1t9 3t6.5 4.5t5.5 6t5.5 7.5l1 -1q-18 -33 -40 -50t-37 -19.5t-41 -2.5q-24 0 -48.5 6t-48 29t-23.5 60q-3 -2 -20 -23l-1 1q15 25 21 32q11 52 34 97q46 91 138 91zM194 279q-56 0 -117 -123 q24 18 28 18q1 0 7.5 -1t16.5 -2t20 -1q38 1 63.5 31.5t25.5 49.5q0 28 -44 28z" />
<glyph unicode="&#xe9;" horiz-adv-x="258" vert-adv-y="577" d="M291 496q0 -8 -13 -53q-13 13 -18 13q-15 0 -29 -19q-5 -7 -13.5 -25t-15.5 -30q15 71 21 84q20 44 48 44q20 0 20 -14zM192 293q29 0 56 -13.5t27 -37.5q0 -6 -3.5 -17t-14 -28.5t-36 -29.5t-61.5 -12q-18 0 -35.5 4t-18.5 4q-11 0 -34 -21q-12 -32 -12 -60 q0 -68 73 -68q27 0 43 16q1 1 6.5 8t10 10t11.5 3h14q7 0 12.5 1t9 3t6.5 4.5t5.5 6t5.5 7.5l1 -1q-18 -33 -40 -50t-37 -19.5t-41 -2.5q-24 0 -48.5 6t-48 29t-23.5 60q-3 -2 -20 -23l-1 1q15 25 21 32q11 52 34 97q46 91 138 91zM194 279q-56 0 -117 -123q24 18 28 18 q1 0 7.5 -1t16.5 -2t20 -1q38 1 63.5 31.5t25.5 49.5q0 28 -44 28z" />
<glyph unicode="&#xea;" horiz-adv-x="258" vert-adv-y="577" d="M251 508q18 -40 45 -71.5t33 -51.5q-51 34 -66.5 48t-33.5 40q-10 -16 -21.5 -25.5t-44 -29t-53.5 -33.5q6 19 44.5 50.5t56.5 72.5h40zM192 293q29 0 56 -13.5t27 -37.5q0 -6 -3.5 -17t-14 -28.5t-36 -29.5t-61.5 -12q-18 0 -35.5 4t-18.5 4q-11 0 -34 -21 q-12 -32 -12 -60q0 -68 73 -68q27 0 43 16q1 1 6.5 8t10 10t11.5 3h14q7 0 12.5 1t9 3t6.5 4.5t5.5 6t5.5 7.5l1 -1q-18 -33 -40 -50t-37 -19.5t-41 -2.5q-24 0 -48.5 6t-48 29t-23.5 60q-3 -2 -20 -23l-1 1q15 25 21 32q11 52 34 97q46 91 138 91zM194 279q-56 0 -117 -123 q24 18 28 18q1 0 7.5 -1t16.5 -2t20 -1q38 1 63.5 31.5t25.5 49.5q0 28 -44 28z" />
<glyph unicode="&#xeb;" horiz-adv-x="258" vert-adv-y="577" d="M294 461q0 6 11 12t11 16q0 4 -5 9q23 10 31 10q11 0 11 -10q0 -17 -14 -32t-30 -15q-15 0 -15 10zM134 461q0 6 11 12t11 16q0 2 -2 5l-3 4q20 10 31 10t11 -10q0 -17 -14 -32t-30 -15q-15 0 -15 10zM192 293q29 0 56 -13.5t27 -37.5q0 -6 -3.5 -17t-14 -28.5t-36 -29.5 t-61.5 -12q-18 0 -35.5 4t-18.5 4q-11 0 -34 -21q-12 -32 -12 -60q0 -68 73 -68q27 0 43 16q1 1 6.5 8t10 10t11.5 3h14q7 0 12.5 1t9 3t6.5 4.5t5.5 6t5.5 7.5l1 -1q-18 -33 -40 -50t-37 -19.5t-41 -2.5q-24 0 -48.5 6t-48 29t-23.5 60q-3 -2 -20 -23l-1 1q15 25 21 32 q11 52 34 97q46 91 138 91zM194 279q-56 0 -117 -123q24 18 28 18q1 0 7.5 -1t16.5 -2t20 -1q38 1 63.5 31.5t25.5 49.5q0 28 -44 28z" />
<glyph unicode="&#xec;" horiz-adv-x="185" vert-adv-y="577" d="M166 478q15 15 27.5 27t18.5 12q15 0 21 -26v-6q0 -26 -46 -72q-5 -5 -19.5 -17t-17.5 -14q7 12 18.5 28.5t15.5 23.5q6 12 6 20q0 19 -24 24zM119 289q9 0 15.5 -7t6.5 -16q0 -21 -17.5 -61.5t-44.5 -64.5q-12 -36 -12 -77q0 -49 26 -49q11 0 16.5 3.5t18.5 19.5 q3 5 7.5 9.5t11.5 4.5h10q14 0 19 5.5t10 15.5q-15 -32 -39 -56q-21 -16 -43 -16q-38 0 -57 22.5t-19 54.5q0 14 6 42q-14 -16 -34 -47q22 43 23 45t14 15q11 47 34.5 102t47.5 55zM125 259q0 -1 -11.5 -23t-19 -39t-11.5 -35q36 39 42 97z" />
<glyph unicode="&#xed;" horiz-adv-x="185" vert-adv-y="577" d="M119 289q9 0 15.5 -7t6.5 -16q0 -21 -17.5 -61.5t-44.5 -64.5q-12 -36 -12 -77q0 -49 26 -49q11 0 16.5 3.5t18.5 19.5q3 5 7.5 9.5t11.5 4.5h10q14 0 19 5.5t10 15.5q-15 -32 -39 -56q-21 -16 -43 -16q-38 0 -57 22.5t-19 54.5q0 14 6 42q-14 -16 -34 -47q22 43 23 45 t14 15q11 47 34.5 102t47.5 55zM125 259q0 -1 -11.5 -23t-19 -39t-11.5 -35q36 39 42 97zM236 496q0 -8 -13 -53q-13 13 -18 13q-15 0 -29 -19q-5 -7 -13.5 -25t-15.5 -30q15 71 21 84q20 44 48 44q20 0 20 -14z" />
<glyph unicode="&#xee;" horiz-adv-x="185" vert-adv-y="577" d="M119 289q9 0 15.5 -7t6.5 -16q0 -21 -17.5 -61.5t-44.5 -64.5q-12 -36 -12 -77q0 -49 26 -49q11 0 16.5 3.5t18.5 19.5q3 5 7.5 9.5t11.5 4.5h10q14 0 19 5.5t10 15.5q-15 -32 -39 -56q-21 -16 -43 -16q-38 0 -57 22.5t-19 54.5q0 14 6 42q-14 -16 -34 -47q22 43 23 45 t14 15q11 47 34.5 102t47.5 55zM125 259q0 -1 -11.5 -23t-19 -39t-11.5 -35q36 39 42 97zM196 508q18 -40 45 -71.5t33 -51.5q-51 34 -66.5 48t-33.5 40q-10 -16 -21.5 -25.5t-44 -29t-53.5 -33.5q6 19 44.5 50.5t56.5 72.5h40z" />
<glyph unicode="&#xef;" horiz-adv-x="185" vert-adv-y="577" d="M119 289q9 0 15.5 -7t6.5 -16q0 -21 -17.5 -61.5t-44.5 -64.5q-12 -36 -12 -77q0 -49 26 -49q11 0 16.5 3.5t18.5 19.5q3 5 7.5 9.5t11.5 4.5h10q14 0 19 5.5t10 15.5q-15 -32 -39 -56q-21 -16 -43 -16q-38 0 -57 22.5t-19 54.5q0 14 6 42q-14 -16 -34 -47q22 43 23 45 t14 15q11 47 34.5 102t47.5 55zM125 259q0 -1 -11.5 -23t-19 -39t-11.5 -35q36 39 42 97zM256 461q0 6 11 12t11 16q0 4 -5 9q23 10 31 10q11 0 11 -10q0 -17 -14 -32t-30 -15q-15 0 -15 10zM96 461q0 6 11 12t11 16q0 2 -2 5l-3 4q20 10 31 10t11 -10q0 -17 -14 -32 t-30 -15q-15 0 -15 10z" />
<glyph unicode="&#xf0;" horiz-adv-x="287" vert-adv-y="577" d="M225 188q0 46 -13 92t-25 67q-13 23 -34 49l-37 -40l-14 13q15 17 41 39q-13 15 -29.5 33.5t-16.5 19.5q0 24 13 24q6 0 56 -55q21 21 40 50l15 -13l-46 -48q26 -32 36 -49q52 -85 52 -183q0 -53 -30 -120q8 -19 20 -19q7 0 17 7.5t16 17.5l1 -1q-2 -9 -14.5 -19.5 t-19.5 -10.5q-19 0 -27 14q-37 -56 -97 -56q-37 0 -62 12.5t-34.5 32t-12.5 31.5t-3 21q0 79 48 137.5t90 58.5q22 0 33 -14t11 -26q0 -7 -7 -7q-3 0 -10 1.5t-9 1.5q-7 30 -18 30q-22 0 -58.5 -52.5t-36.5 -147.5q0 -65 50 -65q49 0 91 79q24 44 24 95z" />
<glyph unicode="&#xf1;" horiz-adv-x="344" vert-adv-y="577" d="M166 448q22 35 38 35q17 0 57.5 -11.5t53.5 -11.5q11 0 19 2t13.5 5.5t11 9l11.5 11.5q1 -1 7 -7.5t7 -11.5q-9 -7 -16 -13t-17.5 -10t-22.5 -4q-27 0 -61.5 11.5t-45.5 11.5q-14 0 -24.5 -12.5t-13.5 -12.5q-8 0 -17 8zM248 293q44 0 61 -16t17 -32q0 -40 -39 -111.5 t-40 -93.5q0 -13 8 -21q5 -5 16 -5q30 0 72 59l1 -1q-25 -46 -51 -65q-14 -7 -29 -7q-32 0 -45 27q-5 11 -5 26q0 13 37.5 87t37.5 107q0 18 -9.5 25t-33.5 7q-47 0 -84 -63l-97 -204q-6 -12 -17 -12q-17 0 -17 12q0 5 2 9.5t2 5.5l31 167q-10 -14 -31 -57t-35 -65l-1 1 q41 77 61 131l19 53q7 36 29 36q17 0 17 -24q0 -23 -22 -51q-10 -30 -21 -98q52 117 63 131q34 42 103 42z" />
<glyph unicode="&#xf2;" horiz-adv-x="295" vert-adv-y="577" d="M229 478q15 15 27.5 27t18.5 12q15 0 21 -26v-6q0 -26 -46 -72q-5 -5 -19.5 -17t-17.5 -14q7 12 18.5 28.5t15.5 23.5q6 12 6 20q0 19 -24 24zM163 293q22 0 33 -14t11 -26q0 -7 -7 -7q-3 0 -10 1.5t-9 1.5q-7 30 -18 30q-22 0 -58.5 -52.5t-36.5 -147.5q0 -65 50 -65 q58 0 90 79q-12 25 -12 60q0 29 8 61l8 33q-1 6 -1 20q0 24 13 24q5 0 15.5 -7.5t14.5 -19.5q9 -23 13 -50l4 -27q0 -53 -30 -120q8 -19 20 -19q16 0 33 25l1 -1q-2 -9 -14.5 -19.5t-19.5 -10.5q-19 0 -27 14q-37 -56 -97 -56q-37 0 -62 12.5t-34.5 32t-12.5 31.5t-3 21 q0 79 48 137.5t90 58.5zM222 249q0 -6 -1 -9q0 -2 -4 -15t-7 -30.5t-3 -35.5q0 -28 8 -52q16 39 16 81q0 23 -9 61z" />
<glyph unicode="&#xf3;" horiz-adv-x="295" vert-adv-y="577" d="M298 496q0 -8 -13 -53q-13 13 -18 13q-15 0 -29 -19q-5 -7 -13.5 -25t-15.5 -30q15 71 21 84q20 44 48 44q20 0 20 -14zM163 293q22 0 33 -14t11 -26q0 -7 -7 -7q-3 0 -10 1.5t-9 1.5q-7 30 -18 30q-22 0 -58.5 -52.5t-36.5 -147.5q0 -65 50 -65q58 0 90 79 q-12 25 -12 60q0 29 8 61l8 33q-1 6 -1 20q0 24 13 24q5 0 15.5 -7.5t14.5 -19.5q9 -23 13 -50l4 -27q0 -53 -30 -120q8 -19 20 -19q16 0 33 25l1 -1q-2 -9 -14.5 -19.5t-19.5 -10.5q-19 0 -27 14q-37 -56 -97 -56q-37 0 -62 12.5t-34.5 32t-12.5 31.5t-3 21q0 79 48 137.5 t90 58.5zM222 249q0 -6 -1 -9q0 -2 -4 -15t-7 -30.5t-3 -35.5q0 -28 8 -52q16 39 16 81q0 23 -9 61z" />
<glyph unicode="&#xf4;" horiz-adv-x="295" vert-adv-y="577" d="M239 508q18 -40 45 -71.5t33 -51.5q-51 34 -66.5 48t-33.5 40q-10 -16 -21.5 -25.5t-44 -29t-53.5 -33.5q6 19 44.5 50.5t56.5 72.5h40zM163 293q22 0 33 -14t11 -26q0 -7 -7 -7q-3 0 -10 1.5t-9 1.5q-7 30 -18 30q-22 0 -58.5 -52.5t-36.5 -147.5q0 -65 50 -65 q58 0 90 79q-12 25 -12 60q0 29 8 61l8 33q-1 6 -1 20q0 24 13 24q5 0 15.5 -7.5t14.5 -19.5q9 -23 13 -50l4 -27q0 -53 -30 -120q8 -19 20 -19q16 0 33 25l1 -1q-2 -9 -14.5 -19.5t-19.5 -10.5q-19 0 -27 14q-37 -56 -97 -56q-37 0 -62 12.5t-34.5 32t-12.5 31.5t-3 21 q0 79 48 137.5t90 58.5zM222 249q0 -6 -1 -9q0 -2 -4 -15t-7 -30.5t-3 -35.5q0 -28 8 -52q16 39 16 81q0 23 -9 61z" />
<glyph unicode="&#xf5;" horiz-adv-x="295" vert-adv-y="577" d="M127 448q22 35 38 35q17 0 57.5 -11.5t53.5 -11.5q11 0 19 2t13.5 5.5t11 9l11.5 11.5q1 -1 7 -7.5t7 -11.5q-9 -7 -16 -13t-17.5 -10t-22.5 -4q-27 0 -61.5 11.5t-45.5 11.5q-14 0 -24.5 -12.5t-13.5 -12.5q-8 0 -17 8zM163 293q22 0 33 -14t11 -26q0 -7 -7 -7 q-3 0 -10 1.5t-9 1.5q-7 30 -18 30q-22 0 -58.5 -52.5t-36.5 -147.5q0 -65 50 -65q58 0 90 79q-12 25 -12 60q0 29 8 61l8 33q-1 6 -1 20q0 24 13 24q5 0 15.5 -7.5t14.5 -19.5q9 -23 13 -50l4 -27q0 -53 -30 -120q8 -19 20 -19q16 0 33 25l1 -1q-2 -9 -14.5 -19.5 t-19.5 -10.5q-19 0 -27 14q-37 -56 -97 -56q-37 0 -62 12.5t-34.5 32t-12.5 31.5t-3 21q0 79 48 137.5t90 58.5zM222 249q0 -6 -1 -9q0 -2 -4 -15t-7 -30.5t-3 -35.5q0 -28 8 -52q16 39 16 81q0 23 -9 61z" />
<glyph unicode="&#xf6;" horiz-adv-x="295" vert-adv-y="577" d="M294 461q0 6 11 12t11 16q0 4 -5 9q23 10 31 10q11 0 11 -10q0 -17 -14 -32t-30 -15q-15 0 -15 10zM134 461q0 6 11 12t11 16q0 2 -2 5l-3 4q20 10 31 10t11 -10q0 -17 -14 -32t-30 -15q-15 0 -15 10zM163 293q22 0 33 -14t11 -26q0 -7 -7 -7q-3 0 -10 1.5t-9 1.5 q-7 30 -18 30q-22 0 -58.5 -52.5t-36.5 -147.5q0 -65 50 -65q58 0 90 79q-12 25 -12 60q0 29 8 61l8 33q-1 6 -1 20q0 24 13 24q5 0 15.5 -7.5t14.5 -19.5q9 -23 13 -50l4 -27q0 -53 -30 -120q8 -19 20 -19q16 0 33 25l1 -1q-2 -9 -14.5 -19.5t-19.5 -10.5q-19 0 -27 14 q-37 -56 -97 -56q-37 0 -62 12.5t-34.5 32t-12.5 31.5t-3 21q0 79 48 137.5t90 58.5zM222 249q0 -6 -1 -9q0 -2 -4 -15t-7 -30.5t-3 -35.5q0 -28 8 -52q16 39 16 81q0 23 -9 61z" />
<glyph unicode="&#xf7;" horiz-adv-x="369" vert-adv-y="577" d="M224 396q7 0 13 -6.5t6 -14.5q0 -28 -27 -28q-18 0 -22 11q0 17 6 26t11 10.5t13 1.5zM173 136q7 0 13 -6.5t6 -14.5q0 -28 -27 -28q-17 0 -21 11q0 38 29 38zM51 247q45 -1 172 -1q70 0 110 7q-1 -8 -7 -33q-52 -4 -75 -4q-7 0 -77.5 1.5t-128.5 1.5q0 10 6 28z" />
<glyph unicode="&#xf8;" horiz-adv-x="299" vert-adv-y="577" d="M246 333l29 -17l-26 -38q15 -15 21 -44.5t6 -46.5q0 -15 -5 -40t-17.5 -61t-42 -61t-69.5 -25q-44 0 -72 19l-24 -34l-23 17l30 33q-23 27 -23 62q0 79 48 137.5t90 58.5q30 0 41 -26zM72 58q55 69 126 189q-2 1 -6 1t-6 1q-7 30 -18 30q-22 0 -60.5 -52.5t-38.5 -147.5 q0 -11 3 -21zM228 248l-147 -212q14 -22 42 -22q32 0 56.5 24.5t35.5 58.5t16 57.5t5 33.5q0 40 -8 60z" />
<glyph unicode="&#xf9;" horiz-adv-x="356" vert-adv-y="577" d="M229 478q15 15 27.5 27t18.5 12q15 0 21 -26v-6q0 -26 -46 -72q-5 -5 -19.5 -17t-17.5 -14q7 12 18.5 28.5t15.5 23.5q6 12 6 20q0 19 -24 24zM126 282q-7 -7 -20 -43.5t-17 -57.5q13 14 29.5 46.5t16.5 45.5q0 9 -9 9zM85 155q-10 -43 -12 -69q0 -29 13 -50.5t39 -21.5 q43 0 64.5 27t39.5 88q2 6 16.5 52.5t29.5 100.5q5 11 23 11q19 0 19 -15q0 -17 -25.5 -89.5t-25.5 -105.5q0 -69 26 -69q22 0 38 16q7 9 25 43l1 -1q-19 -49 -39 -64q-13 -8 -26 -8q-30 0 -39.5 19t-12.5 48q-4 -9 -9 -17t-9.5 -15.5t-12.5 -14t-18.5 -11t-26.5 -7 t-37 -2.5q-40 0 -61.5 28t-21.5 61q0 18 3 29q-16 -9 -23 -16q-10 -10 -23 -30l-1 1q4 8 19 31t29 36q1 2 12.5 50.5t26.5 76.5t36 28q26 0 26 -23q0 -14 -16 -49.5t-47 -67.5z" />
<glyph unicode="&#xfa;" horiz-adv-x="380" vert-adv-y="577" d="M303 496q0 -8 -13 -53q-13 13 -18 13q-15 0 -29 -19q-5 -7 -13.5 -25t-15.5 -30q15 71 21 84q20 44 48 44q20 0 20 -14zM126 282q-7 -7 -20 -43.5t-17 -57.5q13 14 29.5 46.5t16.5 45.5q0 9 -9 9zM85 155q-10 -43 -12 -69q0 -29 13 -50.5t39 -21.5q43 0 64.5 27t39.5 88 q2 6 16.5 52.5t29.5 100.5q5 11 23 11q19 0 19 -15q0 -17 -25.5 -89.5t-25.5 -105.5q0 -69 26 -69q22 0 38 16q7 9 25 43l1 -1q-19 -49 -39 -64q-13 -8 -26 -8q-30 0 -39.5 19t-12.5 48q-4 -9 -9 -17t-9.5 -15.5t-12.5 -14t-18.5 -11t-26.5 -7t-37 -2.5q-40 0 -61.5 28 t-21.5 61q0 18 3 29q-16 -9 -23 -16q-10 -10 -23 -30l-1 1q4 8 19 31t29 36q1 2 12.5 50.5t26.5 76.5t36 28q26 0 26 -23q0 -14 -16 -49.5t-47 -67.5z" />
<glyph unicode="&#xfb;" horiz-adv-x="356" vert-adv-y="577" d="M251 508q18 -40 45 -71.5t33 -51.5q-51 34 -66.5 48t-33.5 40q-10 -16 -21.5 -25.5t-44 -29t-53.5 -33.5q6 19 44.5 50.5t56.5 72.5h40zM126 282q-7 -7 -20 -43.5t-17 -57.5q13 14 29.5 46.5t16.5 45.5q0 9 -9 9zM85 155q-10 -43 -12 -69q0 -29 13 -50.5t39 -21.5 q43 0 64.5 27t39.5 88q2 6 16.5 52.5t29.5 100.5q5 11 23 11q19 0 19 -15q0 -17 -25.5 -89.5t-25.5 -105.5q0 -69 26 -69q22 0 38 16q7 9 25 43l1 -1q-19 -49 -39 -64q-13 -8 -26 -8q-30 0 -39.5 19t-12.5 48q-4 -9 -9 -17t-9.5 -15.5t-12.5 -14t-18.5 -11t-26.5 -7 t-37 -2.5q-40 0 -61.5 28t-21.5 61q0 18 3 29q-16 -9 -23 -16q-10 -10 -23 -30l-1 1q4 8 19 31t29 36q1 2 12.5 50.5t26.5 76.5t36 28q26 0 26 -23q0 -14 -16 -49.5t-47 -67.5z" />
<glyph unicode="&#xfc;" horiz-adv-x="356" vert-adv-y="577" d="M304 461q0 6 11 12t11 16q0 4 -5 9q23 10 31 10q11 0 11 -10q0 -17 -14 -32t-30 -15q-15 0 -15 10zM144 461q0 6 11 12t11 16q0 2 -2 5l-3 4q20 10 31 10t11 -10q0 -17 -14 -32t-30 -15q-15 0 -15 10zM126 282q-7 -7 -20 -43.5t-17 -57.5q13 14 29.5 46.5t16.5 45.5 q0 9 -9 9zM85 155q-10 -43 -12 -69q0 -29 13 -50.5t39 -21.5q43 0 64.5 27t39.5 88q2 6 16.5 52.5t29.5 100.5q5 11 23 11q19 0 19 -15q0 -17 -25.5 -89.5t-25.5 -105.5q0 -69 26 -69q22 0 38 16q7 9 25 43l1 -1q-19 -49 -39 -64q-13 -8 -26 -8q-30 0 -39.5 19t-12.5 48 q-4 -9 -9 -17t-9.5 -15.5t-12.5 -14t-18.5 -11t-26.5 -7t-37 -2.5q-40 0 -61.5 28t-21.5 61q0 18 3 29q-16 -9 -23 -16q-10 -10 -23 -30l-1 1q4 8 19 31t29 36q1 2 12.5 50.5t26.5 76.5t36 28q26 0 26 -23q0 -14 -16 -49.5t-47 -67.5z" />
<glyph unicode="&#xfd;" horiz-adv-x="317" vert-adv-y="577" d="M296 496q0 -8 -13 -53q-13 13 -18 13q-15 0 -29 -19q-5 -7 -13.5 -25t-15.5 -30q15 71 21 84q20 44 48 44q20 0 20 -14zM126 282q-6 -7 -18 -43t-16 -58q13 14 28 46.5t15 45.5q0 9 -9 9zM317 271q0 -37 -16.5 -76t-24.5 -48q-66 -252 -142 -463q-50 -114 -141 -114 q-16 0 -27.5 1.5t-26 6.5t-22 17.5t-7.5 31.5q0 23 5 36t20 31t42 50q18 22 41 49.5t45.5 55.5t59.5 77l2 -1q-41 -58 -88.5 -122.5t-60 -83t-22 -41.5t-9.5 -48q0 -20 13 -32.5t32 -12.5q27 0 53 16q28 18 57 84t52.5 151t53.5 183q-11 -9 -37 -14t-43 -5q-69 0 -80 118 q-10 -7 -24 -20q-16 -15 -22 -26l-1 1q3 13 22 37l25 30q6 19 12 48q14 64 25 84.5t37 20.5q8 0 12 -1q17 0 17 -21q0 -9 -3 -23t-17.5 -41.5t-37.5 -51.5q-12 -37 -12 -72q0 -69 49 -69q48 0 96 89q5 16 16.5 57t21.5 71.5t19 50.5q8 10 15 12q13 0 17 -4.5t4 -18.5z" />
<glyph unicode="&#xfe;" horiz-adv-x="317" vert-adv-y="577" d="M80 53q40 -36 70 -36q38 0 66 22t41 55t18.5 62t5.5 53q0 28 -11 49t-35 21q-18 0 -38.5 -17t-38 -44t-31 -51t-24.5 -47l-11 -23zM75 36q-24 -79 -56 -177t-56 -169t-27 -81q-2 -7 -3.5 -13.5t-3.5 -11.5t-6 -7.5t-10 -2.5q-10 0 -10 22q0 11 12 54t29 96t50 159t61 197 q27 88 27 110q-4 -7 -25.5 -52t-55.5 -88q37 59 93 207q19 48 36 116t28.5 99t29.5 31q9 0 9 -24q0 -13 -19.5 -86t-40.5 -147.5t-22 -79.5q29 56 60.5 80.5t53.5 24.5q36 0 64.5 -22t28.5 -63q0 -21 -3 -43.5t-14 -53.5t-29 -54t-52 -40t-79 -17q-29 0 -70 36z" />
<glyph unicode="&#xff;" horiz-adv-x="317" vert-adv-y="577" d="M294 461q0 6 11 12t11 16q0 4 -5 9q23 10 31 10q11 0 11 -10q0 -17 -14 -32t-30 -15q-15 0 -15 10zM134 461q0 6 11 12t11 16q0 2 -2 5l-3 4q20 10 31 10t11 -10q0 -17 -14 -32t-30 -15q-15 0 -15 10zM126 282q-6 -7 -18 -43t-16 -58q13 14 28 46.5t15 45.5q0 9 -9 9z M317 271q0 -37 -16.5 -76t-24.5 -48q-66 -252 -142 -463q-50 -114 -141 -114q-16 0 -27.5 1.5t-26 6.5t-22 17.5t-7.5 31.5q0 23 5 36t20 31t42 50q18 22 41 49.5t45.5 55.5t59.5 77l2 -1q-41 -58 -88.5 -122.5t-60 -83t-22 -41.5t-9.5 -48q0 -20 13 -32.5t32 -12.5 q27 0 53 16q28 18 57 84t52.5 151t53.5 183q-11 -9 -37 -14t-43 -5q-69 0 -80 118q-10 -7 -24 -20q-16 -15 -22 -26l-1 1q3 13 22 37l25 30q6 19 12 48q14 64 25 84.5t37 20.5q8 0 12 -1q17 0 17 -21q0 -9 -3 -23t-17.5 -41.5t-37.5 -51.5q-12 -37 -12 -72q0 -69 49 -69 q48 0 96 89q5 16 16.5 57t21.5 71.5t19 50.5q8 10 15 12q13 0 17 -4.5t4 -18.5z" />
<glyph unicode="&#x153;" horiz-adv-x="453" vert-adv-y="577" d="M389 293q28 0 55.5 -13.5t27.5 -37.5q0 -4 -2 -11.5t-9 -21.5t-18.5 -25.5t-34.5 -20t-52 -8.5q-18 0 -35 4t-19 4q-2 -1 -6.5 -1t-8.5 -1t-10 -5q-21 -56 -21 -74q0 -35 21 -51.5t52 -16.5q27 0 44 16q2 2 5.5 6.5t6 7t6.5 5t9 2.5h14q12 0 19.5 3t10.5 6t10 12 q-18 -33 -40 -50t-37 -19.5t-41 -2.5q-78 0 -108 48q-35 -48 -91 -48q-37 0 -62 12.5t-34.5 32t-12.5 31.5t-3 21q0 79 48 137.5t90 58.5q22 0 33 -14t11 -26q0 -7 -7 -7q-3 0 -10 1.5t-9 1.5q-7 30 -18 30q-22 0 -58.5 -52.5t-36.5 -147.5q0 -65 50 -65q58 0 90 79 q23 55 23 95q0 35 -9 61q-2 6 -6.5 10t-4.5 8q0 24 13 24q5 0 15.5 -7.5t14.5 -19.5q4 -11 11 -36q46 65 124 65zM389 279q-34 0 -58.5 -28t-50.5 -81q3 2 19 4l16 -2q16 -2 29 -2q38 1 63.5 31.5t25.5 49.5q0 28 -44 28z" />
<glyph unicode="&#x178;" horiz-adv-x="839" vert-adv-y="577" d="M812 683q0 6 11 12t11 16q0 4 -5 9q23 10 31 10q11 0 11 -10q0 -17 -14 -32t-30 -15q-15 0 -15 10zM652 683q0 6 11 12t11 16q0 2 -2 5l-3 4q20 10 31 10t11 -10q0 -17 -14 -32t-30 -15q-15 0 -15 10zM881 595q24 0 24 -65q0 -23 -6 -59.5t-43 -134t-102 -205.5 q-13 -55 -66 -218t-110 -290q-7 -15 -34 -30q-34 -18 -101 -22q-55 2 -105 28q-77 48 -77 112q0 20 11 36.5t38 16.5q49 0 82 -34q9 -9 20.5 -27.5t11.5 -32.5q-6 -11 -23 -11q-13 0 -20 7q1 6 1 29q0 17 -9 36q-7 8 -20 15t-20 7q-16 0 -27 -22t-11 -46q0 -51 49 -77 q43 -28 96 -28q44 0 67 20q35 31 48 58q22 45 88 232l66 188q-34 -32 -49 -44t-40 -23t-56 -11q-29 0 -52 10.5t-36 28.5t-22.5 37t-13 41.5t-5 36.5t-1.5 27q0 31 13 75.5t35.5 98t51.5 128.5q-57 -32 -86 -32q-48 0 -84.5 15.5t-55 34t-47 34t-62.5 15.5q-31 0 -49 -22 t-21.5 -41t-3.5 -38q0 -27 7.5 -48t19.5 -21q8 0 8 14q0 7 -0.5 14t-0.5 17q0 4 5 4t17.5 -9t12.5 -18q0 -13 -8 -21q-12 -16 -31 -16q-25 0 -46.5 32t-21.5 64q0 43 33 72.5t71 29.5q40 0 73.5 -15t53.5 -33.5t52 -33.5t68 -15q20 0 38.5 8.5t27.5 15.5t36 31q9 7 20 39 q10 27 31 34q7 0 12 -3q6 -1 14.5 -14t8.5 -19v-1q-1 -10 -14.5 -16.5t-16.5 -11.5q-14 -17 -24 -58q-18 -49 -51 -125.5t-45 -117t-12 -84.5q0 -71 29.5 -100.5t59.5 -29.5q61 0 172 135q34 137 54.5 223.5t36.5 136t30.5 68t35.5 18.5zM872 573q-25 -34 -42.5 -93 t-35.5 -148t-32 -138q22 37 67.5 159.5t45.5 207.5q0 9 -3 12z" />
<glyph unicode="&#x2c6;" horiz-adv-x="226" vert-adv-y="577" d="M145 508q18 -40 45 -71.5t33 -51.5q-51 34 -66.5 48t-33.5 40q-10 -16 -21.5 -25.5t-44 -29t-53.5 -33.5q6 19 44.5 50.5t56.5 72.5h40z" />
<glyph unicode="&#x2da;" horiz-adv-x="226" vert-adv-y="577" d="M83 445q0 -19 13 -32t32 -13q18 0 31.5 13t13.5 32q0 18 -13.5 31.5t-31.5 13.5q-19 0 -32 -13.5t-13 -31.5zM59 447q0 27 19 46t46 19t46 -19t19 -46t-19 -46t-46 -19t-46 19t-19 46z" />
<glyph unicode="&#x2dc;" horiz-adv-x="276" vert-adv-y="577" d="M19 448q22 35 38 35q17 0 57.5 -11.5t53.5 -11.5q11 0 19 2t13.5 5.5t11 9l11.5 11.5q1 -1 7 -7.5t7 -11.5q-9 -7 -16 -13t-17.5 -10t-22.5 -4q-27 0 -61.5 11.5t-45.5 11.5q-14 0 -24.5 -12.5t-13.5 -12.5q-8 0 -17 8z" />
<glyph unicode="&#x2000;" horiz-adv-x="410" vert-adv-y="0" />
<glyph unicode="&#x2001;" horiz-adv-x="821" vert-adv-y="0" />
<glyph unicode="&#x2002;" horiz-adv-x="410" vert-adv-y="0" />
<glyph unicode="&#x2003;" horiz-adv-x="821" vert-adv-y="0" />
<glyph unicode="&#x2004;" horiz-adv-x="273" vert-adv-y="0" />
<glyph unicode="&#x2005;" horiz-adv-x="205" vert-adv-y="0" />
<glyph unicode="&#x2006;" horiz-adv-x="136" vert-adv-y="0" />
<glyph unicode="&#x2007;" horiz-adv-x="136" vert-adv-y="0" />
<glyph unicode="&#x2008;" horiz-adv-x="102" vert-adv-y="0" />
<glyph unicode="&#x2009;" horiz-adv-x="164" vert-adv-y="0" />
<glyph unicode="&#x200a;" horiz-adv-x="45" vert-adv-y="0" />
<glyph unicode="&#x2010;" horiz-adv-x="384" vert-adv-y="577" d="M79 247q46 -1 173 -1q70 0 110 7q-5 -25 -7 -33q-52 -4 -76 -4q-6 0 -76.5 1.5t-128.5 1.5q0 9 5 28z" />
<glyph unicode="&#x2011;" horiz-adv-x="384" vert-adv-y="577" d="M79 247q46 -1 173 -1q70 0 110 7q-5 -25 -7 -33q-52 -4 -76 -4q-6 0 -76.5 1.5t-128.5 1.5q0 9 5 28z" />
<glyph unicode="&#x2012;" horiz-adv-x="384" vert-adv-y="577" d="M79 247q46 -1 173 -1q70 0 110 7q-5 -25 -7 -33q-52 -4 -76 -4q-6 0 -76.5 1.5t-128.5 1.5q0 9 5 28z" />
<glyph unicode="&#x2013;" horiz-adv-x="608" vert-adv-y="577" d="M83 247q82 -1 307 -1q125 0 196 7q-9 -25 -12 -33q-93 -4 -136 -4q-10 0 -135.5 1.5t-228.5 1.5q0 9 9 28z" />
<glyph unicode="&#x2014;" horiz-adv-x="1120" vert-adv-y="577" d="M92 247q163 -1 615 -1q249 0 391 7q-18 -25 -25 -33q-185 -4 -270 -4q-21 0 -272 1.5t-457 1.5q0 9 18 28z" />
<glyph unicode="&#x202f;" horiz-adv-x="164" vert-adv-y="0" />
<glyph unicode="&#x205f;" horiz-adv-x="205" vert-adv-y="0" />
<glyph unicode="&#x20ac;" horiz-adv-x="397" vert-adv-y="577" d="M305 29q-21 -15 -38 -22t-42 -7q-34 0 -68.5 12.5t-63.5 45t-34 78.5l-44 -18v7v7q0 6 -1 16q20 8 44 18q1 26 4 52l-34 -15v7v7q0 6 -1 16q19 7 40 17q21 100 77 162.5t126 62.5q53 0 83 -26.5t30 -55.5q0 -42 -12 -49q-15 18 -22 53q0 63 -68 63q-58 0 -103 -52.5 t-68 -137.5q14 7 24 11q115 48 137 59q1 -6 1 -13q0 -5 -1 -12t-1 -9q0 -1 1 -2v-1q-42 -14 -107 -41l-63 -27q-5 -26 -7 -53l32 14q104 43 131 57q1 -6 1 -13q0 -5 -1 -12t-1 -9q0 -1 1 -2v-1q-36 -12 -101 -39l-64 -27q-1 -12 -1 -24q0 -41 23.5 -68t50.5 -36.5t53 -9.5 q20 0 36 11t39 36q29 -2 29 -10q0 -7 -17 -20z" />
<glyph unicode="&#x25fc;" horiz-adv-x="295" vert-adv-y="590" d="M0 295h295v-295h-295v295z" />
</font>
</defs>
</svg>
