<?xml version="1.0" encoding="UTF-8" standalone="no"?>
<svg
   xmlns:dc="http://purl.org/dc/elements/1.1/"
   xmlns:cc="http://creativecommons.org/ns#"
   xmlns:rdf="http://www.w3.org/1999/02/22-rdf-syntax-ns#"
   xmlns:svg="http://www.w3.org/2000/svg"
   xmlns="http://www.w3.org/2000/svg"
   xmlns:sodipodi="http://sodipodi.sourceforge.net/DTD/sodipodi-0.dtd"
   xmlns:inkscape="http://www.inkscape.org/namespaces/inkscape"
   width="210mm"
   height="297mm"
   viewBox="0 0 744.09448 1052.3622"
   id="svg2"
   version="1.1"
   inkscape:version="1.0beta2 (2b71d25, 2019-12-03)"
   sodipodi:docname="front.svg">
  <defs
     id="defs4">
    <inkscape:path-effect
       lpeversion="0"
       bendpath4-nodetypes="cc"
       bendpath2-nodetypes="cc"
       bendpath3-nodetypes="cc"
       bendpath4="M -201.67979,-73.696954 89.286681,520.60504"
       bendpath3="m -205.07411,516.44651 80.96193,58.62218"
       bendpath2="M -11.241984,-108.4416 66.018963,598.92593"
       bendpath1="m -141.94646,-110.10673 h 97.401874"
       xx="true"
       yy="true"
       is_visible="true"
       id="path-effect6576"
       effect="envelope" />
    <inkscape:path-effect
       lpeversion="0"
       bendpath4="M -141.94646,-110.10673 V 632.95756"
       bendpath3="m -141.94646,632.95756 h 97.401874"
       bendpath2="M -44.544586,-110.10673 V 632.95756"
       bendpath1="m -141.94646,-110.10673 h 97.401874"
       xx="true"
       yy="true"
       is_visible="true"
       id="path-effect6481"
       effect="envelope" />
    <inkscape:path-effect
       hide_knot="false"
       lpeversion="0"
       bendpath-nodetypes="cc"
       vertical="false"
       scale_y_rel="false"
       prop_scale="1.44"
       bendpath="M -50.364305,278.07671 -277.6628,126.54987"
       is_visible="true"
       id="path-effect5905"
       effect="bend_path" />
    <pattern
       id="pattern4993"
       patternTransform="translate(-142.45062,-110.60673)"
       height="744.06429"
       width="98.406668"
       patternUnits="userSpaceOnUse">
      <g
         transform="translate(142.45062,110.60673)"
         id="g4965">
        <path
           inkscape:connector-curvature="0"
           id="path3699"
           d="m -76.51302,609.22946 c -2.67436,-10.69743 -2.30449,-3.07729 0,-9.99078 0.17552,-0.52656 -0.24822,-1.16869 0,-1.66513 0.35104,-0.70208 1.31409,-0.96305 1.66513,-1.66513 0.49645,-0.99289 -0.35104,-2.27714 0,-3.33026 0.40562,-1.21686 1.80613,-4.23333 3.33026,-4.99539 0.49645,-0.24823 1.16869,0.24822 1.66513,0 1.99816,-0.99908 2.99724,-3.99631 4.99539,-4.99539 0.49645,-0.24823 1.27266,0.39247 1.66513,0 0.78495,-0.78495 -0.49644,-2.33737 0,-3.33026 0.35104,-0.70208 1.31409,-0.96305 1.66513,-1.66513 0.24823,-0.49645 -0.24822,-1.16869 0,-1.66513 0.35104,-0.70208 1.31409,-0.96305 1.66513,-1.66513 0.24823,-0.49645 0,-1.11009 0,-1.66513 0,-1.11009 -0.35104,-2.27714 0,-3.33026 0.24823,-0.74467 1.31409,-0.96305 1.66513,-1.66513 0.24823,-0.49645 0,-1.11009 0,-1.66513 0,-1.11009 0,-2.22018 0,-3.33026 0,-0.55505 -0.55504,-1.66513 0,-1.66513 0.55505,0 0.55505,1.66513 0,1.66513 -0.55504,0 0.24823,-1.16869 0,-1.66513 -3.46493,-6.92988 0.11496,1.78008 -3.33026,-1.66513 -0.39247,-0.39248 0.39248,-1.27266 0,-1.66513 -0.39247,-0.39248 -1.27265,-0.39248 -1.66513,0 -0.39247,0.39247 0.24823,1.16868 0,1.66513 -0.35104,0.70208 -1.31409,0.96305 -1.66513,1.66513 -0.49644,0.99289 0.78495,2.54531 0,3.33026 -0.39247,0.39247 -1.27265,-0.39248 -1.66513,0 -0.34041,0.34041 0.33011,4.33518 0,4.99539 -0.81926,1.63853 -5.84125,5.02198 -6.66052,6.66052 -0.24822,0.49644 0.39248,1.27265 0,1.66513 -0.39247,0.39247 -1.27265,-0.39248 -1.66513,0 -0.39247,0.39247 0.24823,1.16868 0,1.66513 -0.35104,0.70208 -1.11008,1.11008 -1.66513,1.66513 -0.55504,0.55504 -0.96305,1.31409 -1.66513,1.66513 -0.49644,0.24822 -1.27265,-0.39248 -1.66513,0 -0.78495,0.78495 0.78495,2.54531 0,3.33026 -0.39247,0.39247 -1.11008,0 -1.66513,0 0,1.11008 0.49645,2.33737 0,3.33026 -0.24822,0.49644 -1.27265,-0.39248 -1.66513,0 -0.39247,0.39247 0.24823,1.16868 0,1.66513 -0.35104,0.70208 -1.11008,2.22017 -1.66513,1.66513 -0.55504,-0.55505 1.66513,-2.45008 1.66513,-1.66513 0,1.24111 -0.97668,2.29759 -1.66513,3.33026 0.16622,3.29872 -2.45266,0.78753 -3.33026,1.66513 -0.78495,0.78495 1.11009,3.33026 0,3.33026 -0.55504,0 0,-2.22018 0,-1.66513 0,1.11008 0,2.22017 0,3.33026 0,0.55504 -0.39247,1.27265 0,1.66513 1.91336,1.91335 2.94483,1.66513 4.99539,1.66513 0.55505,0 1.2211,-0.33303 1.66513,0 1.88388,1.41291 3.33026,3.33026 4.99539,4.99539 z"
           style="fill:none;fill-rule:nonzero;stroke:#000000;stroke-width:1;stroke-linecap:butt;stroke-linejoin:miter;stroke-miterlimit:4;stroke-dasharray:none;stroke-opacity:1" />
        <path
           inkscape:connector-curvature="0"
           id="path3701"
           d="m -88.16893,592.57816 c -1.66513,-2.22018 -3.33026,-4.44035 -4.99539,-6.66052 0,-0.55505 0.24822,-1.16869 0,-1.66513 -0.35104,-0.70208 -1.41691,-0.92046 -1.66513,-1.66513 -0.35104,-1.05312 0.26924,-2.25332 0,-3.33026 -0.30101,-1.20406 -1.27265,-2.15284 -1.66513,-3.33026 -0.17552,-0.52656 0.39248,-1.27266 0,-1.66513 -0.39247,-0.39248 -1.16868,0.24822 -1.66513,0 -6.92987,-3.46494 1.78009,0.11495 -1.66513,-3.33026 -0.39247,-0.39248 -1.27265,0.39247 -1.66513,0 -0.39247,-0.39248 0.24822,-1.16869 0,-1.66513 -0.68489,-1.36978 -5.83952,-5.42902 -6.66052,-6.66052 -0.61576,-0.92365 0.49645,-2.33737 0,-3.33026 -0.35104,-0.70208 -1.31409,-0.96305 -1.66513,-1.66513 -0.66605,-1.33211 0.66605,-3.66329 0,-4.99539 -3.46493,-6.92988 0.11495,1.78008 -3.33026,-1.66513 -0.39247,-0.39248 -0.55504,-1.66513 0,-1.66513 0.78495,0 1.66513,0.88018 1.66513,1.66513 0,2.22017 -3.8853,-2.77522 -1.66513,1.66513 0.35104,0.70208 1.31409,0.96305 1.66513,1.66513 0.66605,1.3321 -0.66605,3.66328 0,4.99539 0.35104,0.70208 1.31409,0.96305 1.66513,1.66513 0.24822,0.49644 -0.24822,1.16868 0,1.66513 0.35104,0.70208 1.31409,0.96305 1.66513,1.66513 0.49123,0.98246 -0.38178,3.85006 0,4.99539 0.78495,2.35485 2.54531,4.30567 3.33026,6.66052 0.17552,0.52656 0,1.11008 0,1.66513 0.55504,1.11008 1.27266,2.15283 1.66513,3.33026 0.17552,0.52656 -0.39247,1.27265 0,1.66513 0.39248,0.39247 1.27266,-0.39248 1.66513,0 0.39248,0.39247 -0.24822,1.16868 0,1.66513 0.35104,0.70208 1.31409,0.96305 1.66513,1.66513 0.49645,0.99289 -0.78495,2.54531 0,3.33026 0.78495,0.78495 2.54531,-0.78495 3.33026,0 0.78495,0.78495 -0.78495,2.54531 0,3.33026 0.39248,0.39247 1.27266,-0.39248 1.66513,0 0.39248,0.39247 -0.55504,1.66513 0,1.66513 2.2885,0 5.39109,-3.56928 6.66052,-1.66513 1.3769,2.06534 -2.72823,4.2524 -3.33026,6.66052 -0.13462,0.53847 1.27266,-0.39248 1.66513,0 0.39248,0.39247 0,1.11009 0,1.66513 0.55505,0 1.16869,-0.24822 1.66513,0 3.6817,1.84085 0.51673,1.03345 1.66513,3.33026 0.35104,0.70208 1.31409,0.96305 1.66513,1.66513 0.24823,0.49644 0,1.11009 0,1.66513 0,0.55504 0,1.11009 0,1.66513 0,2.77522 0,5.55043 0,8.32565 0,1.11009 0,2.22017 0,3.33026 0,0.55504 -0.24822,1.16868 0,1.66513 0.35104,0.70208 1.31409,0.96305 1.66513,1.66513 0.49645,0.99289 -0.78495,2.54531 0,3.33026 0.39248,0.39247 1.27266,-0.39248 1.66513,0 0.39248,0.39247 -0.24822,1.16868 0,1.66513 0.35104,0.70208 1.31409,0.96305 1.66513,1.66513 0.24823,0.49645 -0.39247,1.27265 0,1.66513 0.39248,0.39247 1.66513,-0.55504 1.66513,0 0,0.55504 -1.66513,0.55504 -1.66513,0 0,-0.78495 1.31409,-0.96305 1.66513,-1.66513 0.24823,-0.49645 0,-1.11009 0,-1.66513 0,-0.55504 0,-1.11009 0,-1.66513 0,-1.11009 0,-2.22017 0,-3.33026 0,-1.11009 -0.35104,-2.27714 0,-3.33026 0.24823,-0.74467 1.31409,-0.96305 1.66513,-1.66513 0.49645,-0.99289 -0.78495,-2.54531 0,-3.33026 2.22018,-2.22017 1.59779,3.53227 3.33026,-1.66513 0.35104,-1.05312 0,-2.22017 0,-3.33026 0,-0.55504 0.39248,-1.27266 0,-1.66513 -0.39247,-0.39248 -1.66513,-0.55504 -1.66513,0 0,0.78495 1.66513,2.45008 1.66513,1.66513 0,-1.24112 -1.36411,-2.1262 -1.66513,-3.33026 -0.26923,-1.07694 0,-2.22017 0,-3.33026"
           style="fill:none;fill-rule:nonzero;stroke:#000000;stroke-width:1;stroke-linecap:butt;stroke-linejoin:miter;stroke-miterlimit:4;stroke-dasharray:none;stroke-opacity:1" />
        <path
           inkscape:connector-curvature="0"
           id="path3703"
           d="m -86.5038,580.92225 c -7.35398,-9.19248 -6.66052,-4.77164 -6.66052,-11.65591 0,-0.55505 0.24822,-1.16869 0,-1.66513 -3.46493,-6.92988 0.11496,1.78008 -3.33026,-1.66513 -0.78495,-0.78495 0.49645,-2.33737 0,-3.33026 -0.35104,-0.70208 -1.31409,-0.96305 -1.66513,-1.66513 -0.24822,-0.49645 0.24822,-1.16869 0,-1.66513 -1.18154,-2.36308 -2.14872,-0.96719 -3.33026,-3.33026 -0.49644,-0.9929 0.49645,-2.33737 0,-3.33026 -0.35104,-0.70208 -1.31409,-0.96305 -1.66513,-1.66513 -0.24822,-0.49645 0.24822,-1.16869 0,-1.66513 -0.35104,-0.70208 -1.31409,-0.96305 -1.66513,-1.66513 -0.1866,-0.37321 0,-6.26484 0,-6.66052 0,-4.44035 0,-8.8807 0,-13.32104 0,-1.09417 0.31316,-4.05593 0,-4.99539 -0.39247,-1.17743 -1.27265,-2.15284 -1.66513,-3.33027 -0.31315,-0.93946 0,-3.90122 0,-4.99539 0,-3.8853 0,-7.7706 0,-11.65591 0,-0.87073 -0.21891,-6.22268 0,-6.66052 0.35104,-0.70208 1.31409,-0.96305 1.66513,-1.66513 1.05065,-2.1013 -2.42527,-4.76914 3.33026,-3.33026 1.20406,0.30102 2.45266,0.78753 3.33026,1.66513 0.39248,0.39248 0,1.11009 0,1.66513 0,0.55505 0,1.11009 0,1.66513 0,4.99539 0,9.99078 0,14.98617 0,0.55505 0,1.11009 0,1.66513 0,0.55505 -0.24822,1.16869 0,1.66513 0.35104,0.70209 1.31409,0.96305 1.66513,1.66513 0.24822,0.49645 -0.24822,1.16869 0,1.66513 0.35104,0.70209 1.31409,0.96305 1.66513,1.66513 0.24822,0.49645 -0.17552,1.13857 0,1.66514 0.39248,1.17742 1.11009,2.22017 1.66513,3.33026 0.55505,1.11008 0.97669,2.29759 1.66513,3.33026 0.43541,0.65311 1.31409,0.96304 1.66513,1.66513 0.49645,0.99289 -0.78495,2.54531 0,3.33026 3.44522,3.44521 -0.13467,-5.26475 3.33026,1.66513 0.49645,0.99289 -0.35104,2.27714 0,3.33026 0.39248,1.17742 1.27266,2.15283 1.66513,3.33026 0.17552,0.52656 -0.24822,1.16868 0,1.66513 0.35104,0.70208 1.31409,0.96305 1.66513,1.66513 0.49645,0.99289 -0.49644,2.33736 0,3.33026 0.21676,0.43351 2.96681,2.02858 1.66513,3.33026 -0.39247,0.39247 -1.11008,0 -1.66513,0 -0.55504,0 -1.11008,0 -1.66513,0 -0.55504,0 -1.66513,0.55504 -1.66513,0 0,-0.55505 1.66513,0.55504 1.66513,0 0,-0.78495 -1.31409,-0.96305 -1.66513,-1.66513 -0.24822,-0.49645 -0.55504,-1.66513 0,-1.66513 0.55505,0 0,2.22017 0,1.66513 0,-1.11009 0,-2.22018 0,-3.33026 0,-1.66513 -0.74467,-3.50606 0,-4.99539 0.24823,-0.49645 1.11009,0 1.66513,0 1.11009,0 2.22018,0 3.33026,0 0.55505,0 1.16869,-0.24823 1.66513,0 0.70208,0.35104 1.11009,1.11008 1.66513,1.66513"
           style="fill:none;fill-rule:nonzero;stroke:#000000;stroke-width:1;stroke-linecap:butt;stroke-linejoin:miter;stroke-miterlimit:4;stroke-dasharray:none;stroke-opacity:1" />
        <path
           inkscape:connector-curvature="0"
           id="path3705"
           d="m -56.53146,547.61965 c -1.7827,-4.7478 -1.66513,-7.1257 -1.66513,-11.65591 0,-0.55505 0,-1.11009 0,-1.66513 0,-0.55505 -0.24822,-1.16869 0,-1.66513 0.35104,-0.70208 1.31409,-0.96305 1.66513,-1.66513 0.24823,-0.49645 -0.24822,-1.16869 0,-1.66513 0.35104,-0.70209 1.31409,-0.96305 1.66513,-1.66513 0.52329,-1.04658 -0.52328,-5.61395 0,-6.66052 0.24823,-0.49645 1.27266,0.39247 1.66513,0 0.78495,-0.78495 -0.49644,-2.33737 0,-3.33027 0.35104,-0.70208 1.41691,-0.92046 1.66513,-1.66513 0.35104,-1.05312 0,-2.22017 0,-3.33026 0,-0.55504 -0.24822,-1.16868 0,-1.66513 0.35104,-0.70208 1.31409,-0.96304 1.66513,-1.66513 0.66606,-1.3321 -0.66605,-3.66328 0,-4.99539 0.35104,-0.70208 1.31409,-0.96305 1.66513,-1.66513 0.49123,-0.98246 -0.38177,-3.85006 0,-4.99539 4.02041,-12.06123 -0.48006,2.62526 3.33026,-4.99539 0.24823,-0.49644 0,-1.11008 0,-1.66513 0,-4.44034 0,-8.88069 0,-13.32104 0,-0.55504 0,-1.11008 0,-1.66513 0,-0.55504 0.49645,-1.4169 0,-1.66513 -0.99289,-0.49644 -2.27714,-0.35104 -3.33026,0 -0.20685,0.069 -4.85255,4.70972 -4.99539,4.99539 -0.30108,0.60217 0,7.16749 0,8.32565 0,9.43574 1.11009,0.55505 -1.66513,3.33026 -0.78495,0.78495 0.49645,2.33737 0,3.33026 -0.35104,0.70208 -1.31409,0.96305 -1.66513,1.66513 -0.49644,0.9929 0.78495,2.54531 0,3.33026 -0.39247,0.39248 -1.27265,-0.39247 -1.66513,0 -0.78495,0.78495 0.78495,2.54531 0,3.33026 -0.39247,0.39248 -1.27265,-0.39247 -1.66513,0 -0.39247,0.39248 0.24823,1.16869 0,1.66513 -0.99907,1.99816 -3.99631,2.99724 -4.99539,4.99539 -0.24822,0.49645 0.39248,1.27266 0,1.66513 -0.78495,0.78495 -2.54531,-0.78495 -3.33026,0 -0.39247,0.39248 0.39248,1.27266 0,1.66513 -0.39247,0.39248 -1.27265,-0.39247 -1.66513,0 -0.39247,0.39248 0.24823,1.16869 0,1.66513 -0.35104,0.70209 -1.31409,0.96305 -1.66513,1.66513 -0.49644,0.9929 0.78495,2.54532 0,3.33026 -0.39247,0.39248 -1.27265,-0.39247 -1.66513,0 -0.17153,0.17154 0.13837,7.91055 0,8.32566 -0.24822,0.74466 -1.31409,0.96304 -1.66513,1.66513 -0.15276,0.30552 0.12221,4.99539 0,4.99539 -0.55504,0 0,-2.22018 0,-1.66513 0,1.70001 0.26966,10.84694 0,11.65591 -0.24822,0.74466 -1.31409,0.96305 -1.66513,1.66513 -0.24822,0.49644 0.55505,1.66513 0,1.66513 -0.55504,0 0,-1.11009 0,-1.66513"
           style="fill:none;fill-rule:nonzero;stroke:#000000;stroke-width:1;stroke-linecap:butt;stroke-linejoin:miter;stroke-miterlimit:4;stroke-dasharray:none;stroke-opacity:1" />
        <path
           inkscape:connector-curvature="0"
           id="path3707"
           d="m -78.17815,535.96374 c 0,-2.22018 0,-4.44035 0,-6.66052 -0.55504,-0.55505 -1.4169,-0.92047 -1.66513,-1.66513 -1.66513,-4.99539 0.83257,-1.66513 0,-4.99539 -0.4257,-1.7028 -1.01326,-3.36573 -1.66513,-4.9954 -0.46094,-1.15234 -1.27265,-2.15283 -1.66513,-3.33026 -0.46519,-1.39558 0.55176,-5.55699 0,-6.66052 -0.35104,-0.70208 -1.31409,-0.96305 -1.66513,-1.66513 -0.24822,-0.49644 0,-1.11008 0,-1.66513 -0.55504,-1.11008 -0.92046,-2.33736 -1.66513,-3.33026 -0.94194,-1.25592 -2.45943,-2.02402 -3.33026,-3.33026 -0.30788,-0.46182 0.24823,-1.16868 0,-1.66513 -0.35104,-0.70208 -1.31409,-0.96305 -1.66513,-1.66513 -0.24822,-0.49644 0.24823,-1.16868 0,-1.66513 -0.35104,-0.70208 -1.31409,-0.96305 -1.66513,-1.66513 -0.24822,-0.49644 0.24822,-1.16868 0,-1.66513 -0.35104,-0.70208 -1.31409,-0.96305 -1.66513,-1.66513 -0.49644,-0.99289 0.49645,-2.33736 0,-3.33026 -0.35104,-0.70208 -1.31409,-0.96305 -1.66513,-1.66513 -0.49644,-0.99289 0.26924,-2.25331 0,-3.33026 -0.4257,-1.70279 -1.23943,-3.29259 -1.66513,-4.99539 -0.13462,-0.53847 0.24822,-1.16868 0,-1.66513 -5.52254,-5.52254 0.78495,1.5699 -1.66513,-3.33026 -0.35104,-0.70208 -1.41691,-0.92046 -1.66513,-1.66513 -0.35104,-1.05312 0,-2.22017 0,-3.33026 0,-1.93433 0.37738,-6.81613 0,-8.32565 -0.30101,-1.20406 -1.27265,-2.15283 -1.66513,-3.33026 -0.17552,-0.52656 0.17552,-1.13857 0,-1.66513 -0.39247,-1.17742 -1.27265,-2.15283 -1.66513,-3.33026 -0.17552,-0.52656 0.24822,-1.16868 0,-1.66513 -0.35104,-0.70208 -1.31409,-0.96305 -1.66513,-1.66513 -0.24822,-0.49644 0.39248,-1.27265 0,-1.66513 -0.39247,-0.39247 -1.66513,0.55505 -1.66513,0 0,-0.55504 1.66513,-0.55504 1.66513,0 0,0.78495 -1.31409,0.96305 -1.66513,1.66513 -0.24822,0.49645 0,1.11009 0,1.66513 0,1.11009 0,2.22018 0,3.33026 0,3.88531 0,7.77061 0,11.65591 0,6.10548 0,12.21096 0,18.31643 0,1.15817 -0.30108,7.72349 0,8.32565 0.35104,0.70208 1.11009,1.11009 1.66513,1.66513 0.55504,0.55505 1.11009,1.11009 1.66513,1.66513"
           style="fill:none;fill-rule:nonzero;stroke:#000000;stroke-width:1;stroke-linecap:butt;stroke-linejoin:miter;stroke-miterlimit:4;stroke-dasharray:none;stroke-opacity:1" />
        <path
           inkscape:connector-curvature="0"
           id="path3709"
           d="m -83.17354,497.66574 c 2.46632,-4.11053 5.83327,-8.35751 6.66052,-13.32104 1.15607,-6.9364 -1.7224,-3.27299 1.66513,-6.66052 0.55505,-0.55504 1.41691,-0.92046 1.66513,-1.66513 0.70208,-2.10624 -0.53847,-4.50663 0,-6.66052 2.01021,-8.04082 0.79131,0.0825 3.33026,-4.99539 0.53979,-1.07958 -0.52291,-8.42203 0,-9.99078 0.39248,-1.17742 1.36412,-2.1262 1.66513,-3.33026 0.0139,-0.0557 -0.009,-4.98654 0,-4.99539 0.39248,-0.39247 1.27266,0.39248 1.66513,0 0.78495,-0.78495 -0.49644,-2.33737 0,-3.33026 3.81033,-7.62064 -0.69015,7.06584 3.33026,-4.99539 0.17552,-0.52656 -0.39247,-1.27265 0,-1.66513 0.39248,-0.39247 1.27266,0.39248 1.66513,0 0.39248,-0.39247 -0.39247,-1.27265 0,-1.66513 3.44522,-3.44521 -0.13467,5.26474 3.33026,-1.66513 0.24823,-0.49644 -0.39247,-1.27265 0,-1.66513 0.39248,-0.39247 1.16869,0.24822 1.66513,0 0.70208,-0.35104 0.96305,-1.31409 1.66513,-1.66513 0.49645,-0.24822 1.27266,0.39248 1.66513,0 0.39248,-0.39247 -0.24822,-1.16868 0,-1.66513 0.35104,-0.70208 1.11009,-1.11009 1.66513,-1.66513 0.55505,-0.55504 1.11009,-1.11009 1.66513,-1.66513 0.55505,-0.55504 1.31409,-0.96305 1.66513,-1.66513 0.24823,-0.49645 -0.39247,-1.27265 0,-1.66513 2.22018,-2.22017 1.66513,2.77522 1.66513,-1.66513 0,-0.55504 -0.39247,-1.27265 0,-1.66513 0.39248,-0.39247 1.66513,-0.55504 1.66513,0 0,0.55504 -1.66513,-0.55504 -1.66513,0 0,0.78495 1.41691,0.92046 1.66513,1.66513 0.52656,1.57968 0,3.33026 0,4.99539 0,4.44035 0,8.88069 0,13.32104 0,4.99539 0,9.99078 0,14.98617 0,1.34049 0.34838,5.6154 0,6.66052 -0.39247,1.17743 -1.27265,2.15284 -1.66513,3.33026 -0.35104,1.05312 0.49645,2.33737 0,3.33026 -0.70208,1.40416 -2.83381,1.84093 -3.33026,3.33026 -0.35104,1.05312 0.49645,2.33737 0,3.33026 -0.24822,0.49645 -1.27265,-0.39247 -1.66513,0 -0.59814,0.59814 0.53863,5.58327 0,6.66052 -0.24822,0.49645 -1.27265,-0.39247 -1.66513,0 -0.39247,0.39248 0.17552,1.13857 0,1.66513 -0.39247,1.17743 -1.27265,2.15284 -1.66513,3.33026 -0.17552,0.52656 0.24823,1.16869 0,1.66513 -0.35104,0.70208 -1.31409,0.96305 -1.66513,1.66513 -0.24822,0.49645 0.39248,1.27266 0,1.66513 -0.39247,0.39248 -1.27265,-0.39247 -1.66513,0 -0.39247,0.39248 0.24823,1.16869 0,1.66513 -0.35104,0.70208 -1.31409,0.96305 -1.66513,1.66513 -0.24822,0.49645 0.24823,1.16869 0,1.66513 -0.70208,1.40416 -2.62818,1.9261 -3.33026,3.33026 -0.24822,0.49645 0.39248,1.27266 0,1.66513 -0.39247,0.39248 -1.27265,-0.39247 -1.66513,0 -0.39247,0.39248 0.24823,1.16869 0,1.66513 -5.52254,5.52255 0.78495,-1.5699 -1.66513,3.33026 -0.35104,0.70208 -1.4169,0.92047 -1.66513,1.66513 -0.35104,1.05313 0.35104,2.27714 0,3.33026 -0.24822,0.74467 -1.31409,0.96305 -1.66513,1.66513 -0.49644,0.9929 0.49645,2.33737 0,3.33026 -0.35104,0.70209 -1.31409,0.96305 -1.66513,1.66513 -0.26531,0.53064 0,6.83749 0,8.32566"
           style="fill:none;fill-rule:nonzero;stroke:#000000;stroke-width:1;stroke-linecap:butt;stroke-linejoin:miter;stroke-miterlimit:4;stroke-dasharray:none;stroke-opacity:1" />
        <path
           inkscape:connector-curvature="0"
           id="path3711"
           d="m -84.83867,486.00983 c -0.0246,-0.0615 -2.16138,-8.57377 -4.99539,-9.99078 -0.49644,-0.24822 -1.4169,0.49645 -1.66513,0 -0.49644,-0.99289 0,-2.22017 0,-3.33026 0,-1.11008 0,-2.22017 0,-3.33026 0,-0.9294 -0.25408,-7.56341 0,-8.32565 0.24823,-0.74467 1.11009,-1.11008 1.66513,-1.66513 0.55505,-1.11008 1.36412,-2.1262 1.66513,-3.33026 0.43123,-1.72489 0,-4.75118 0,-6.66052 0,-4.44034 0,-8.88069 0,-13.32104 0,-4.44035 0,-8.88069 0,-13.32104 0,-1.66513 0.52656,-3.41571 0,-4.99539 -0.49644,-1.48934 -2.62818,-1.9261 -3.33026,-3.33026 -0.24822,-0.49645 0.24823,-1.16868 0,-1.66513 -3.81032,-7.62065 0.69015,7.06584 -3.33026,-4.99539 -0.17552,-0.52656 0.24822,-1.16868 0,-1.66513 -0.35104,-0.70208 -1.31409,-0.96305 -1.66513,-1.66513 -0.49644,-0.99289 0.49645,-2.33737 0,-3.33026 -0.35104,-0.70208 -1.41691,-0.92046 -1.66513,-1.66513 -0.25387,-0.76161 0.37047,-5.91958 0,-6.66052 -0.70208,-1.40416 -2.62818,-1.9261 -3.33026,-3.33026 -0.24822,-0.49645 0.39248,-1.27266 0,-1.66513 -0.39247,-0.39248 -1.27265,0.39247 -1.66513,0 -0.99513,-0.99513 1.79981,-3.33026 -1.66513,-3.33026 -0.55504,0 0,1.11009 0,1.66513 0,0.55504 0,1.11009 0,1.66513 0,2.22017 0,4.44035 0,6.66052 0,6.10548 0,12.21095 0,18.31643 0,9.43574 0,18.87147 0,28.30721 0,2.22018 0,4.44035 0,6.66052 0,1.11009 0,2.22018 0,3.33026 0,0.55505 -0.24822,1.16869 0,1.66513 0.35104,0.70208 1.41691,0.92046 1.66513,1.66513 0.70208,2.10624 -0.70208,4.55428 0,6.66052 1.73247,5.19741 1.11009,-0.55504 3.33026,1.66513 0.39248,0.39248 -0.24822,1.16869 0,1.66513 0.35104,0.70208 1.11009,1.11009 1.66513,1.66513 0.55505,0.55505 1.11009,1.11009 1.66513,1.66513 2.22018,2.22018 4.44035,4.44035 6.66052,6.66052 0.55505,0.55505 1.31409,0.96305 1.66513,1.66513 0.49645,0.99289 -0.41227,2.29957 0,3.33026 5.51515,13.78786 1.79542,-1.0137 4.99539,14.98617"
           style="fill:none;fill-rule:nonzero;stroke:#000000;stroke-width:1;stroke-linecap:butt;stroke-linejoin:miter;stroke-miterlimit:4;stroke-dasharray:none;stroke-opacity:1" />
        <path
           inkscape:connector-curvature="0"
           id="path3713"
           d="m -71.51763,446.04671 c 0.55505,-2.22017 0.48771,-4.69814 1.66513,-6.66052 0.63855,-1.06425 2.45266,-0.78753 3.33026,-1.66513 0.39248,-0.39247 -0.39247,-1.27265 0,-1.66513 0.39248,-0.39247 1.16869,0.24822 1.66513,0 2.55028,-1.27514 1.30216,-2.96729 3.33026,-4.99539 0.39248,-0.39247 1.27266,0.39248 1.66513,0 0.39248,-0.39247 -0.39247,-1.27265 0,-1.66513 0.39248,-0.39247 1.27266,0.39248 1.66513,0 0.39248,-0.39247 -0.24822,-1.16868 0,-1.66513 0.70208,-1.40416 2.62818,-1.9261 3.33026,-3.33026 0.49645,-0.99289 -0.49644,-2.33737 0,-3.33026 0.70208,-1.40416 2.62818,-1.9261 3.33026,-3.33026 0.24823,-0.49645 -0.39247,-1.27265 0,-1.66513 0.39248,-0.39247 1.27266,0.39248 1.66513,0 0.39248,-0.39247 -0.39247,-1.27265 0,-1.66513 0.8776,-0.8776 2.45266,-0.78753 3.33026,-1.66513 0.39248,-0.39247 0,-1.11009 0,-1.66513 0,-0.55504 0,-1.11009 0,-1.66513 0,-2.22017 0,-4.44035 0,-6.66052 0,-1.11009 0,-2.22017 0,-3.33026 0,-0.55504 -0.24822,-1.16868 0,-1.66513 0.35104,-0.70208 1.31409,-0.96305 1.66513,-1.66513 0.24823,-0.49645 0,-1.11009 0,-1.66513 0,-1.11009 0,-2.22017 0,-3.33026 0,-2.77522 0,-5.55043 0,-8.32565 0,-5.55043 0,-11.10087 0,-16.6513 0,-0.99514 0.39248,-3.33026 -1.66513,-3.33026 -0.78495,0 -0.96305,1.31409 -1.66513,1.66513 -0.49644,0.24822 -1.27265,-0.39248 -1.66513,0 -0.39247,0.39247 0.24823,1.16868 0,1.66513 -0.35104,0.70208 -1.31409,0.96305 -1.66513,1.66513 -2.45008,4.90016 3.85741,-2.19228 -1.66513,3.33026 -0.87663,0.87663 -4.55073,4.10607 -4.99539,4.99539 -0.24822,0.49644 0.24823,1.16868 0,1.66513 -0.35104,0.70208 -1.11008,1.11009 -1.66513,1.66513 -1.69264,1.69264 -2.6582,2.30716 -3.33026,4.99539 -0.26923,1.07694 0.49645,2.33737 0,3.33026 -0.24822,0.49645 -1.4169,-0.49645 -1.66513,0 -0.49644,0.99289 0.49645,2.33737 0,3.33026 -0.24822,0.49645 -1.27265,-0.39248 -1.66513,0 -0.5111,0.5111 0.30899,5.42456 0,6.66052 -0.30101,1.20406 -1.27265,2.15284 -1.66513,3.33026 -0.3034,0.91022 0,10.3543 0,11.65591 0,4.99539 0,9.99078 0,14.98617 0,0.55504 0,1.11009 0,1.66513 0,0.55504 0.39248,1.27266 0,1.66513 -0.39247,0.39248 -1.27265,-0.39247 -1.66513,0 -0.78495,0.78495 0.35104,2.27714 0,3.33026 -0.39247,1.17743 -1.11008,2.22017 -1.66513,3.33026"
           style="fill:none;fill-rule:nonzero;stroke:#000000;stroke-width:1;stroke-linecap:butt;stroke-linejoin:miter;stroke-miterlimit:4;stroke-dasharray:none;stroke-opacity:1" />
        <path
           inkscape:connector-curvature="0"
           id="path3715"
           d="m -88.16893,414.40924 c -0.32364,-0.43152 -6.20859,-8.93225 -8.32565,-9.99078 -0.99289,-0.49645 -2.54531,0.78495 -3.33026,0 -0.78495,-0.78495 0.26924,-2.25332 0,-3.33026 -0.30101,-1.20406 -1.27265,-2.15284 -1.66513,-3.33026 -0.35104,-1.05312 0.49645,-2.33737 0,-3.33026 -0.35104,-0.70208 -1.31409,-0.96305 -1.66513,-1.66513 -0.24822,-0.49645 0.24822,-1.16868 0,-1.66513 -0.35104,-0.70208 -1.31409,-0.96305 -1.66513,-1.66513 -0.49644,-0.99289 0.49645,-2.33737 0,-3.33026 -3.81032,-7.62065 0.69015,7.06584 -3.33026,-4.99539 -0.35104,-1.05312 0.78495,-2.54531 0,-3.33026 -0.39247,-0.39248 -1.27265,0.39247 -1.66513,0 -0.78495,-0.78495 0.35104,-2.27714 0,-3.33026 -0.39247,-1.17743 -1.27265,-2.15284 -1.66513,-3.33026 -0.33299,-0.99899 0,-6.99695 0,-8.32565 0,-7.77061 0,-15.54122 0,-23.31182 0,-1.71543 -0.24573,-11.16444 0,-11.65591 0.35104,-0.70208 1.11009,-1.11009 1.66513,-1.66513 0.55504,-0.55505 0.92046,-1.41691 1.66513,-1.66513 2.04235,-0.68079 4.01104,-0.30357 4.99539,1.66513 0.30109,0.60216 0,7.16748 0,8.32565 0,0.55504 -0.39247,1.27265 0,1.66513 4.44035,4.44034 -0.55504,-4.99539 1.66513,1.66513 0.39248,1.17742 1.27266,2.15283 1.66513,3.33026 0.17552,0.52656 -0.24822,1.16868 0,1.66513 0.35104,0.70208 1.31409,0.96305 1.66513,1.66513 0.49645,0.99289 -0.35104,2.27714 0,3.33026 0.39248,1.17742 1.27266,2.15283 1.66513,3.33026 0.35104,1.05312 -0.49644,2.33737 0,3.33026 3.81033,7.62064 -0.69015,-7.06584 3.33026,4.99539 0.35104,1.05312 -0.49644,2.33737 0,3.33026 0.35104,0.70208 1.31409,0.96305 1.66513,1.66513 0.24823,0.49644 -0.17552,1.13857 0,1.66513 0.39248,1.17742 1.36412,2.1262 1.66513,3.33026 0.36725,1.46901 -0.47548,5.23407 0,6.66052 0.39248,1.17742 1.27266,2.15283 1.66513,3.33026 0.35104,1.05312 -0.49644,2.33737 0,3.33026 0.35104,0.70208 1.11009,1.11009 1.66513,1.66513 0,1.11009 -0.49644,2.33737 0,3.33026 0.24823,0.49645 1.27266,-0.39248 1.66513,0 0.39248,0.39247 -0.24822,1.16868 0,1.66513 0.89303,1.78605 2.43724,1.54421 3.33026,3.33026 0.24823,0.49645 -0.39247,1.27265 0,1.66513 0.39248,0.39247 1.27266,-0.39248 1.66513,0 0.39248,0.39247 0,1.11009 0,1.66513 0,0.55504 0,1.11009 0,1.66513 0,5.55043 0,11.10087 0,16.6513"
           style="fill:none;fill-rule:nonzero;stroke:#000000;stroke-width:1;stroke-linecap:butt;stroke-linejoin:miter;stroke-miterlimit:4;stroke-dasharray:none;stroke-opacity:1" />
        <path
           inkscape:connector-curvature="0"
           id="path3717"
           d="m -79.84328,382.77177 c 0,-2.22017 -0.43541,-4.48346 0,-6.66052 0.15394,-0.76971 1.31409,-0.96305 1.66513,-1.66513 0.49645,-0.99289 -0.78495,-2.54531 0,-3.33026 0.39248,-0.39248 1.27266,0.39247 1.66513,0 0.35601,-0.356 -0.30601,-5.74249 0,-6.66052 0.39248,-1.17743 1.11009,-2.22018 1.66513,-3.33026 0,-1.66513 -0.40385,-3.37998 0,-4.99539 0.19038,-0.76152 1.31409,-0.96305 1.66513,-1.66513 0.52524,-1.05048 -0.52524,-7.27517 0,-8.32565 0.35104,-0.70208 1.31409,-0.96305 1.66513,-1.66513 0.24823,-0.49645 -0.39247,-1.27266 0,-1.66513 0.39248,-0.39248 1.27266,0.39247 1.66513,0 0.78495,-0.78495 -0.49644,-2.33737 0,-3.33026 0.70208,-1.40416 2.62818,-1.9261 3.33026,-3.33026 0.24823,-0.49645 -0.17552,-1.13857 0,-1.66513 4.02041,-12.06123 -0.48006,2.62525 3.33026,-4.99539 0.66606,-1.33211 -0.66605,-3.66329 0,-4.99539 0.35104,-0.70208 1.31409,-0.96305 1.66513,-1.66513 0.74467,-1.48934 -0.74467,-3.50606 0,-4.99539 0.24823,-0.49645 1.27266,0.39247 1.66513,0 0.39248,-0.39248 -0.39247,-1.27266 0,-1.66513 0.39248,-0.39248 1.27266,0.39247 1.66513,0 0.8776,-0.8776 1.36412,-2.12621 1.66513,-3.33026 0.26924,-1.07695 -0.35104,-2.27714 0,-3.33026 0.49645,-1.48934 2.62818,-1.9261 3.33026,-3.33026 0.24823,-0.49645 -0.24822,-1.16869 0,-1.66513 0.70208,-1.40417 2.45944,-2.02403 3.33026,-3.33026 0.68845,-1.03267 0.78753,-2.45266 1.66513,-3.33026 0.39248,-0.39248 1.11009,0 1.66513,0 0.55505,0 1.27266,-0.39248 1.66513,0 0.39248,0.39247 0,1.11008 0,1.66513 0,0.55504 0,1.11008 0,1.66513 0,3.8853 0,7.7706 0,11.65591 0,1.66513 0.74467,3.50605 0,4.99539 -0.24822,0.49644 -1.27265,-0.39248 -1.66513,0 -0.45561,0.45561 0.45166,5.7572 0,6.66052 -0.35104,0.70208 -1.31409,0.96305 -1.66513,1.66513 -0.24822,0.49644 0,1.11008 0,1.66513 0,0.55504 0,1.11008 0,1.66513 0,3.33026 0,6.66052 0,9.99078 0,1.66513 0,3.33026 0,4.99539 0,0.55504 0.39248,1.27265 0,1.66513 -0.39247,0.39247 -1.16868,-0.24823 -1.66513,0 -1.52413,0.76206 -2.92464,3.77853 -3.33026,4.99539 -0.83256,2.49769 1.66513,1.66513 0,4.99539 -1.7226,0 -2.30145,-0.39248 -3.33026,1.66513 -0.24822,0.49644 0.24823,1.16868 0,1.66513 -0.35104,0.70208 -1.31409,0.96305 -1.66513,1.66513 -0.24822,0.49644 0.24823,1.16868 0,1.66513 -0.35104,0.70208 -1.31409,0.96305 -1.66513,1.66513 -0.24822,0.49644 0.24823,1.16868 0,1.66513 -0.35104,0.70208 -1.31409,0.96305 -1.66513,1.66513 -0.5157,1.0314 0.49269,6.16784 0,6.66052 -0.39247,0.39247 -1.4169,-0.49645 -1.66513,0 -0.49644,0.99289 0.35104,2.27714 0,3.33026 -1.73246,5.1974 -1.11008,-0.55504 -3.33026,1.66513 -0.8776,0.8776 -1.27265,2.15283 -1.66513,3.33026 -0.17552,0.52656 0.39248,1.27265 0,1.66513 -0.39247,0.39247 -1.27265,-0.39248 -1.66513,0 -0.39247,0.39247 0.39248,1.27265 0,1.66513 -0.39247,0.39247 -1.27265,-0.39248 -1.66513,0 -0.39247,0.39247 0,1.11009 0,1.66513 0,1.11009 0,2.22017 0,3.33026"
           style="fill:none;fill-rule:nonzero;stroke:#000000;stroke-width:1;stroke-linecap:butt;stroke-linejoin:miter;stroke-miterlimit:4;stroke-dasharray:none;stroke-opacity:1" />
        <path
           inkscape:connector-curvature="0"
           id="path3719"
           d="m -84.83867,342.80865 c -6.67307,0.81308 -2.21652,-7.76332 -3.33026,-9.99078 -0.35104,-0.70208 -1.47475,-0.90362 -1.66513,-1.66513 -0.40385,-1.61542 0.32656,-3.3626 0,-4.99539 -0.2434,-1.21702 -1.36411,-2.12621 -1.66513,-3.33026 -0.39179,-1.56718 0.3918,-3.42821 0,-4.99539 -0.4257,-1.7028 -1.23943,-3.2926 -1.66513,-4.99539 -0.13462,-0.53847 0.17552,-1.13857 0,-1.66513 -0.39247,-1.17743 -1.27265,-2.15284 -1.66513,-3.33026 -0.17552,-0.52656 0.13462,-1.12666 0,-1.66513 -0.4257,-1.7028 -1.23943,-3.2926 -1.66513,-4.99539 -0.26923,-1.07695 0.49645,-2.33737 0,-3.33026 -0.35104,-0.70208 -1.19416,-1.03717 -1.66513,-1.66513 -1.20074,-1.60099 -2.43528,-3.20543 -3.33026,-4.99539 -0.24822,-0.49645 0.39248,-1.27266 0,-1.66513 -0.39247,-0.39248 -1.27265,0.39247 -1.66513,0 -0.39247,-0.39248 0.24822,-1.16869 0,-1.66513 -3.46493,-6.92988 0.11495,1.78008 -3.33026,-1.66513 -0.39247,-0.39248 0.39248,-1.27266 0,-1.66514 -2.22017,-2.22017 -1.66513,2.77522 -1.66513,-1.66513 0,-9.43573 1.11009,-0.55504 -1.66513,-3.33026 -0.39247,-0.39247 0,-1.11008 0,-1.66513 0,-0.55504 0,-1.11008 0,-1.66513 0,-1.11008 0,-2.22017 0,-3.33026 0,-0.55504 -0.55504,-1.66513 0,-1.66513 0.55504,0 0,1.11009 0,1.66513 0,3.33026 0,6.66052 0,9.99078 0,5.55044 0,11.10087 0,16.65131 0,0.95944 -0.30345,7.71875 0,8.32565 0.35104,0.70208 1.31409,0.96305 1.66513,1.66513 0.21526,0.43052 0,8.81053 0,9.99078 0,0.55504 -0.24822,1.16868 0,1.66513 0.70208,1.40416 2.83382,1.84092 3.33026,3.33026 0,7.58014 -0.78495,0.0952 1.66513,4.99539 0.25338,0.50675 0,4.24548 0,4.99539 0,1.66513 -0.74467,3.50605 0,4.99539 0.24822,0.49644 1.41691,-0.49645 1.66513,0 0.49645,0.99289 -0.49644,2.33737 0,3.33026 0.24822,0.49644 1.27266,-0.39248 1.66513,0 0.39248,0.39247 -0.24822,1.16868 0,1.66513 0.70208,1.40416 2.62818,1.9261 3.33026,3.33026 0.24822,0.49644 -0.24822,1.16868 0,1.66513 0.35104,0.70208 1.31409,0.96305 1.66513,1.66513 0.24822,0.49644 -0.24822,1.16868 0,1.66513 0.35104,0.70208 1.11009,1.11008 1.66513,1.66513 1.11009,1.11008 2.45944,2.02402 3.33026,3.33026 0.30788,0.46182 -0.39247,1.27265 0,1.66513 0.39248,0.39247 1.27266,-0.39248 1.66513,0 0.25841,0.2584 -0.21598,4.34745 0,4.99539 0.55505,1.11009 1.11009,2.22017 1.66513,3.33026 0.55505,0 1.27266,-0.39248 1.66513,0 0.78495,0.78495 -0.49644,2.33737 0,3.33026 0.35104,0.70208 1.31409,0.96305 1.66513,1.66513 0.33011,0.66021 -0.34041,4.65498 0,4.99539 2.22018,2.22017 1.66513,-2.77522 1.66513,1.66513"
           style="fill:none;fill-rule:nonzero;stroke:#000000;stroke-width:1;stroke-linecap:butt;stroke-linejoin:miter;stroke-miterlimit:4;stroke-dasharray:none;stroke-opacity:1" />
        <path
           inkscape:connector-curvature="0"
           id="path3721"
           d="m -69.8525,329.48761 c 0,-4.99539 0,-9.99078 0,-14.98617 0,-0.55505 -0.39247,-1.27266 0,-1.66513 0.39248,-0.39248 1.27266,0.39247 1.66513,0 0.78495,-0.78495 -0.49644,-2.33737 0,-3.33026 0.35104,-0.70208 1.31409,-0.96305 1.66513,-1.66513 0.24823,-0.49645 -0.24822,-1.16869 0,-1.66513 0.35104,-0.70208 1.31409,-0.96305 1.66513,-1.66513 0.24823,-0.49645 -0.39247,-1.27266 0,-1.66513 0.39248,-0.39248 1.27266,0.39247 1.66513,0 0.78495,-0.78495 -0.49644,-2.33737 0,-3.33026 3.46494,-6.92988 -0.11495,1.78008 3.33026,-1.66513 0.39248,-0.39248 -0.39247,-1.27266 0,-1.66513 0.39248,-0.39248 1.27266,0.39247 1.66513,0 0.34042,-0.34042 -0.3301,-4.33518 0,-4.99539 0.70208,-1.40417 2.62818,-1.9261 3.33026,-3.33026 0.24823,-0.49645 -0.17552,-1.13857 0,-1.66513 0.39248,-1.17743 1.27266,-2.15284 1.66513,-3.33027 0.34935,-1.04803 0,-6.82476 0,-8.32565 0,-5.55043 0,-11.10086 0,-16.6513 0,-2.22017 0,-4.44034 0,-6.66052 0,-0.55504 -0.55504,-1.66513 0,-1.66513 0.55505,0 0,2.22018 0,1.66513 0,-1.66513 0.52656,-3.41571 0,-4.99539 -0.008,-0.0229 -4.83498,-0.1604 -4.99539,0 -0.78495,0.78495 0.78495,2.54531 0,3.33026 -0.39247,0.39248 -1.4169,-0.49644 -1.66513,0 -0.49644,0.9929 0.35104,2.27714 0,3.33026 -0.24822,0.74467 -1.31409,0.96305 -1.66513,1.66513 -0.24822,0.49645 0.24823,1.16869 0,1.66513 -0.35104,0.70208 -1.4169,0.92047 -1.66513,1.66513 -0.35104,1.05312 0.26924,2.25332 0,3.33026 -0.30101,1.20406 -1.27265,2.15284 -1.66513,3.33026 -0.17552,0.52656 0.24823,1.16869 0,1.66513 -0.35104,0.70208 -1.31409,0.96305 -1.66513,1.66513 -0.24822,0.49645 0.24823,1.16869 0,1.66513 -0.35104,0.70208 -1.31409,0.96305 -1.66513,1.66513 -0.49644,0.9929 0.49645,2.33737 0,3.33026 -0.35104,0.70209 -1.31409,0.96305 -1.66513,1.66513 -0.24822,0.49645 0.24823,1.16869 0,1.66513 -0.35104,0.70209 -1.4169,0.92047 -1.66513,1.66513 -0.35104,1.05313 0.35104,2.27714 0,3.33026 -0.24822,0.74467 -1.31409,0.96305 -1.66513,1.66513 -0.24822,0.49645 0.24823,1.16869 0,1.66514 -0.35104,0.70208 -1.4169,0.92046 -1.66513,1.66513 -0.35104,1.05312 0.26924,2.25331 0,3.33026 -0.30101,1.20405 -1.36411,2.1262 -1.66513,3.33026 -0.26923,1.07694 0,2.22017 0,3.33026 0,0.55504 0.24823,1.16868 0,1.66513 -0.35104,0.70208 -1.31409,0.96305 -1.66513,1.66513 -0.24822,0.49644 0.17552,1.13857 0,1.66513 -0.39247,1.17742 -1.27265,2.15283 -1.66513,3.33026 -0.30601,0.91803 0.35601,6.30451 0,6.66052 -0.39247,0.39247 -1.27265,-0.39248 -1.66513,0 -0.39247,0.39247 0.24823,1.16868 0,1.66513 -0.35104,0.70208 -1.31409,0.96305 -1.66513,1.66513 -0.21526,0.43052 0,8.81053 0,9.99078"
           style="fill:none;fill-rule:nonzero;stroke:#000000;stroke-width:1;stroke-linecap:butt;stroke-linejoin:miter;stroke-miterlimit:4;stroke-dasharray:none;stroke-opacity:1" />
        <path
           inkscape:connector-curvature="0"
           id="path3723"
           d="m -86.5038,287.85936 c 0,-2.22018 0,-4.44035 0,-6.66053 0,-3.33026 0,-6.66052 0,-9.99078 0,-0.55504 0,-1.11008 0,-1.66513 0,-0.55504 0.24823,-1.16868 0,-1.66513 -0.35104,-0.70208 -1.31409,-0.96305 -1.66513,-1.66513 -2.45008,-4.90016 3.85741,2.19229 -1.66513,-3.33026 -0.55504,-0.55504 -1.31409,-0.96305 -1.66513,-1.66513 -0.88276,-1.76551 0.88276,-1.56474 0,-3.33026 -0.35104,-0.70208 -1.31409,-0.96305 -1.66513,-1.66513 -0.24822,-0.49644 0.24822,-1.16868 0,-1.66513 -1.27514,-2.55027 -2.96729,-1.30216 -4.99539,-3.33026 -0.78495,-0.78495 0.49645,-2.33736 0,-3.33026 -0.35104,-0.70208 -1.22972,-1.01201 -1.66513,-1.66513 -3.66855,-0.83854 -0.88018,-3.42549 -1.66513,-4.99539 -0.35104,-0.70208 -1.22972,-1.01201 -1.66513,-1.66513 -0.68844,-1.03267 -0.92046,-2.33737 -1.66513,-3.33026 -0.94194,-1.25592 -2.62818,-1.9261 -3.33026,-3.33026 -0.49644,-0.99289 0.49645,-2.33737 0,-3.33026 -0.24822,-0.49644 -1.27265,0.39248 -1.66513,0 -0.83256,-0.83256 0.83257,-4.16282 0,-4.99539 -0.39247,-0.39247 -1.27265,0.39248 -1.66513,0 -0.78495,-0.78495 0.78495,-2.54531 0,-3.33026 -0.39247,-0.39247 -1.27265,-0.39247 -1.66513,0 -0.39247,0.39248 0,1.11009 0,1.66513 0,1.11009 0,2.22018 0,3.33026 0,6.66052 0,13.32104 0,19.98156 0,1.66513 0,3.33026 0,4.99539 0,0.55505 -0.39247,1.27266 0,1.66513 0.39248,0.39248 1.41691,-0.49644 1.66513,0 1.11009,2.22018 -1.11009,6.10548 0,8.32565 0.24822,0.49645 1.27266,-0.39247 1.66513,0 0.48116,0.48116 -0.51119,5.89374 0,6.66052 0.87082,1.30624 2.45944,2.02403 3.33026,3.33026 0.30788,0.46183 -0.13462,1.12666 0,1.66513 0.4257,1.7028 1.23943,3.2926 1.66513,4.99539 0.2833,1.1332 -0.45532,4.08476 0,4.99539 0.35104,0.70209 1.31409,0.96305 1.66513,1.66513 0.24822,0.49645 -0.24822,1.16869 0,1.66514 0.63599,1.27197 4.61954,3.86784 4.99539,4.99539 0.003,0.008 -0.002,4.9938 0,4.99539 0.39248,0.39247 1.27266,-0.39248 1.66513,0 0.39248,0.39247 -0.24822,1.16868 0,1.66513 0.35104,0.70208 1.41691,0.92046 1.66513,1.66513 0.35104,1.05312 -0.26923,2.25331 0,3.33026 0.30102,1.20405 1.27266,2.15283 1.66513,3.33026 0.17552,0.52656 -0.39247,1.27265 0,1.66513 0.39248,0.39247 1.27266,-0.39248 1.66513,0 0.78495,0.78495 -0.49644,2.33736 0,3.33026 0.35104,0.70208 1.31409,0.96305 1.66513,1.66513 0.24823,0.49644 -0.24822,1.16868 0,1.66513 0.89303,1.78604 2.43724,1.54421 3.33026,3.33026 0.49645,0.99289 -0.78495,2.54531 0,3.33026 2.22018,2.22017 1.66513,-2.77522 1.66513,1.66513"
           style="fill:none;fill-rule:nonzero;stroke:#000000;stroke-width:1;stroke-linecap:butt;stroke-linejoin:miter;stroke-miterlimit:4;stroke-dasharray:none;stroke-opacity:1" />
        <path
           inkscape:connector-curvature="0"
           id="path3725"
           d="m -79.84328,274.53831 c 4.61138,-1.81613 4.25904,-6.7888 6.66052,-9.99078 0.94194,-1.25592 2.22018,-2.22017 3.33026,-3.33026 0.55505,-0.55504 1.31409,-0.96305 1.66513,-1.66513 0.24823,-0.49644 0,-1.11008 0,-1.66513 0,-1.11008 -0.35104,-2.27714 0,-3.33026 0.49645,-1.48933 2.62818,-1.9261 3.33026,-3.33026 0.24823,-0.49644 -0.24822,-1.16868 0,-1.66513 0.35104,-0.70208 1.31409,-0.96305 1.66513,-1.66513 0.33011,-0.66021 -0.34041,-4.65497 0,-4.99539 0.39248,-0.39247 1.27266,0.39248 1.66513,0 0.39248,-0.39247 -0.17552,-1.13857 0,-1.66513 0.39248,-1.17742 0.78753,-2.45266 1.66513,-3.33026 0.39248,-0.39247 1.27266,0.39248 1.66513,0 0.39248,-0.39247 -0.17552,-1.13857 0,-1.66513 0.39248,-1.17742 1.27266,-2.15283 1.66513,-3.33026 0.35104,-1.05312 0,-2.22017 0,-3.33026 0,-2.77521 0,-5.55043 0,-8.32565 0,-7.7706 0,-15.54121 0,-23.31182 0,-1.59735 1.34493,-6.50042 -1.66513,-4.99539 -0.70208,0.35104 -1.11008,1.11009 -1.66513,1.66513 -0.55504,0.55504 -1.31409,0.96305 -1.66513,1.66513 -0.24822,0.49645 0.24823,1.16869 0,1.66513 -0.35104,0.70208 -1.31409,0.96305 -1.66513,1.66513 -0.24822,0.49645 0.24823,1.16869 0,1.66513 -3.46493,6.92987 0.11496,-1.78008 -3.33026,1.66513 -0.39247,0.39248 0.24823,1.16869 0,1.66513 -0.35104,0.70208 -1.31409,0.96305 -1.66513,1.66513 -0.24822,0.49645 0.24823,1.16869 0,1.66513 -0.35104,0.70208 -1.31409,0.96305 -1.66513,1.66513 -0.52328,1.04657 0.52329,5.61395 0,6.66052 -0.35104,0.70208 -1.31409,0.96305 -1.66513,1.66513 -0.52328,1.04657 0.52329,5.61395 0,6.66052 -0.35104,0.70208 -1.31409,0.96305 -1.66513,1.66513 -0.52328,1.04657 0.52329,5.61395 0,6.66052 -0.35104,0.70208 -1.31409,0.96305 -1.66513,1.66513 -0.52328,1.04657 0.52329,5.61395 0,6.66052 -0.35104,0.70208 -1.31409,0.96305 -1.66513,1.66513 -0.49644,0.99289 0.78495,2.54531 0,3.33026 -0.39247,0.39248 -1.16868,-0.24822 -1.66513,0 -0.70208,0.35104 -1.11008,1.11009 -1.66513,1.66513"
           style="fill:none;fill-rule:nonzero;stroke:#000000;stroke-width:1;stroke-linecap:butt;stroke-linejoin:miter;stroke-miterlimit:4;stroke-dasharray:none;stroke-opacity:1" />
        <path
           inkscape:connector-curvature="0"
           id="path3727"
           d="m -88.16893,252.89162 c -1.66513,-2.77521 -3.33026,-5.55043 -4.99539,-8.32565 0,-0.55504 0.17552,-1.13857 0,-1.66513 -0.39247,-1.17742 -1.11008,-2.22017 -1.66513,-3.33026 -0.55504,-1.11008 -0.97668,-2.29759 -1.66513,-3.33026 -0.43541,-0.65311 -1.31409,-0.96305 -1.66513,-1.66513 -0.24822,-0.49644 0.13462,-1.12666 0,-1.66513 -0.4257,-1.70279 -1.23943,-3.29259 -1.66513,-4.99539 -0.13462,-0.53847 0.24822,-1.16868 0,-1.66513 -0.35104,-0.70208 -1.31409,-0.96305 -1.66513,-1.66513 -0.24822,-0.49644 0.39248,-1.27265 0,-1.66513 -0.39247,-0.39247 -1.27265,0.39248 -1.66513,0 -0.39247,-0.39247 0.24822,-1.16868 0,-1.66513 -1.27514,-2.55027 -2.96729,-1.30216 -4.99539,-3.33026 -0.34041,-0.34041 0.33011,-4.33518 0,-4.99539 -0.35104,-0.70208 -1.11009,-1.11008 -1.66513,-1.66513 0,-1.11008 0.35104,-2.27714 0,-3.33026 -0.24822,-0.74467 -1.47475,-0.90362 -1.66513,-1.66513 -0.53847,-2.15388 0,-4.44035 0,-6.66052 0,-4.44035 0,-8.88069 0,-13.32104 0,-1.11009 0,-2.22017 0,-3.33026 0,-0.55504 0.17552,-1.13857 0,-1.66513 -0.39247,-1.17742 -1.27265,-2.15283 -1.66513,-3.33026 -0.38178,-1.14533 0.49123,-4.01293 0,-4.99539 -0.35104,-0.70208 -1.31409,-0.96305 -1.66513,-1.66513 -0.1866,-0.37321 0,-6.26483 0,-6.66052 0,-0.55504 -0.39247,-1.27266 0,-1.66513 0.39248,-0.39248 1.11009,0 1.66513,0 0.55504,0 1.16869,-0.24822 1.66513,0 0.70208,0.35104 1.11009,1.11009 1.66513,1.66513 5.52254,5.52254 -0.78495,-1.5699 1.66513,3.33026 0.35104,0.70208 1.41691,0.92046 1.66513,1.66513 0.35104,1.05312 -0.35104,2.27714 0,3.33026 0.24822,0.74467 1.31409,0.96305 1.66513,1.66513 0.24822,0.49645 0,1.11009 0,1.66513 0.55504,0.55504 1.31409,0.96305 1.66513,1.66513 0.24822,0.49645 -0.24822,1.16868 0,1.66513 2.07568,4.15135 1.25459,-0.82109 3.33026,3.33026 0.33011,0.66021 -0.34041,4.65498 0,4.99539 3.44522,3.44521 -0.13467,-5.26474 3.33026,1.66513 0.25313,0.50626 0,5.51071 0,6.66052 0,0.39569 -0.1866,6.28732 0,6.66052 0.35104,0.70208 1.31409,0.96305 1.66513,1.66513 0.54092,1.08184 -0.54092,8.90895 0,9.99078 0.35104,0.70208 1.31409,0.96305 1.66513,1.66513 0.24822,0.49645 0,1.11009 0,1.66513 0,1.11009 -0.35104,2.27714 0,3.33026 0.24822,0.74467 1.41691,0.92046 1.66513,1.66513 0.35104,1.05312 -0.26923,2.25332 0,3.33026 0.30102,1.20406 1.27266,2.15284 1.66513,3.33026 0.21598,0.64794 -0.2584,4.73699 0,4.99539 0.39248,0.39248 1.27266,-0.39247 1.66513,0 0.34042,0.34042 -0.3301,4.33518 0,4.99539 2.05761,4.11521 1.66513,-0.57476 1.66513,3.33026"
           style="fill:none;fill-rule:nonzero;stroke:#000000;stroke-width:1;stroke-linecap:butt;stroke-linejoin:miter;stroke-miterlimit:4;stroke-dasharray:none;stroke-opacity:1" />
        <path
           inkscape:connector-curvature="0"
           id="path3729"
           d="m -79.84328,222.91928 c -1.30484,-5.71596 6.57045,-4.81525 8.32565,-8.32565 0.24823,-0.49644 -0.24822,-1.16868 0,-1.66513 0.35104,-0.70208 1.31409,-0.96305 1.66513,-1.66513 0.24823,-0.49644 0,-1.11008 0,-1.66513 0,-1.11008 -0.49644,-2.33737 0,-3.33026 0.24823,-0.49644 1.27266,0.39248 1.66513,0 0.54889,-0.54889 -0.40165,-5.45555 0,-6.66052 0.24823,-0.74467 1.31409,-0.96305 1.66513,-1.66513 0.49645,-0.99289 -0.78495,-2.54531 0,-3.33026 0.39248,-0.39247 1.41691,0.49645 1.66513,0 0.49645,-0.99289 -0.35104,-2.27714 0,-3.33026 0.24823,-0.74467 1.31409,-0.96305 1.66513,-1.66513 0.49645,-0.99289 -0.49644,-2.33737 0,-3.33026 0.35104,-0.70208 1.41691,-0.92046 1.66513,-1.66513 0.35104,-1.05312 0,-2.22017 0,-3.33026 0,-0.55504 -0.24822,-1.16868 0,-1.66513 0.35104,-0.70208 1.31409,-0.96305 1.66513,-1.66513 0.21892,-0.43783 0,-5.78979 0,-6.66052 0,-4.44035 0,-8.88069 0,-13.32104 0,-1.11009 0,-2.22017 0,-3.33026 0,-0.55504 -0.24822,-1.16868 0,-1.66513 0.35104,-0.70208 1.31409,-0.96305 1.66513,-1.66513 0.18661,-0.37321 0,-6.26484 0,-6.66052 0,-3.42659 0.96633,-9.02445 -1.66513,-11.65591 -0.39247,-0.39248 -1.66513,0.55504 -1.66513,0 0,-0.55504 1.66513,-0.55504 1.66513,0 0,0.55504 -1.11008,0 -1.66513,0 -1.11008,0 -2.33737,-0.49645 -3.33026,0 -0.49644,0.24822 0.39248,1.27265 0,1.66513 -0.39247,0.39247 -1.16868,-0.24822 -1.66513,0 -3.03206,1.51603 -0.97608,1.26313 -1.66513,3.33026 -0.39247,1.17742 -1.27265,2.15283 -1.66513,3.33026 -0.17552,0.52656 0,1.11009 0,1.66513 -0.55504,0.55504 -1.31409,0.96305 -1.66513,1.66513 -0.49644,0.99289 0.49645,2.33737 0,3.33026 -0.35104,0.70208 -1.31409,0.96305 -1.66513,1.66513 -0.24822,0.49645 0.24823,1.16868 0,1.66513 -0.70208,1.40416 -2.62818,1.9261 -3.33026,3.33026 -0.24822,0.49645 0.13462,1.12666 0,1.66513 -0.4257,1.70279 -1.01326,3.36573 -1.66513,4.99539 -0.46094,1.15235 -1.36411,2.1262 -1.66513,3.33026 -0.26923,1.07694 0,2.22017 0,3.33026 0,0.55504 0.24823,1.16868 0,1.66513 -0.35104,0.70208 -1.31409,0.96305 -1.66513,1.66513 -0.24822,0.49645 0.24823,1.16868 0,1.66513 -3.30454,6.60908 -0.52629,-7.35934 -3.33026,6.66052 -0.42449,2.12245 0.56254,8.30317 0,9.99078 -0.24822,0.74467 -1.4169,0.92046 -1.66513,1.66513 -0.35104,1.05312 0,2.22017 0,3.33026 0,0.92941 0.25408,7.56342 0,8.32565 -0.24822,0.74467 -1.31409,0.96305 -1.66513,1.66513 -0.24822,0.49645 0,1.11009 0,1.66513 0,0.55505 0,1.11009 0,1.66513 0,2.77522 0,5.55044 0,8.32565"
           style="fill:none;fill-rule:nonzero;stroke:#000000;stroke-width:1;stroke-linecap:butt;stroke-linejoin:miter;stroke-miterlimit:4;stroke-dasharray:none;stroke-opacity:1" />
        <path
           inkscape:connector-curvature="0"
           id="path3731"
           d="m -98.15971,184.62129 c 0,-3.33026 0.47097,-6.69399 0,-9.99078 -0.11101,-0.77706 -1.11008,-1.11009 -1.66513,-1.66513 -1.66513,-1.66513 -3.48785,-3.18634 -4.99539,-4.99539 -1.28116,-1.53739 -2.12952,-3.3944 -3.33026,-4.99539 -0.47097,-0.62796 -1.31409,-0.96305 -1.66513,-1.66513 -0.49644,-0.99289 0.49645,-2.33737 0,-3.33026 -0.35104,-0.70208 -1.31409,-0.96305 -1.66513,-1.66513 -0.24822,-0.49645 0.39248,-1.27266 0,-1.66513 -0.39247,-0.39248 -1.27265,0.39247 -1.66513,0 -0.39247,-0.39248 0.24822,-1.16868 0,-1.66513 -0.35104,-0.70208 -1.31409,-0.96305 -1.66513,-1.66513 -0.24822,-0.49645 0.24822,-1.16868 0,-1.66513 -0.35104,-0.70208 -1.31409,-0.96305 -1.66513,-1.66513 -0.3301,-0.66021 0.34041,-4.65498 0,-4.99539 -0.39247,-0.39248 -1.41691,0.49644 -1.66513,0 -0.49644,-0.99289 0,-2.22017 0,-3.33026 0,-1.85065 0.32475,-12.3468 0,-13.32104 -0.39247,-1.17743 -1.27265,-2.15284 -1.66513,-3.33026 -0.35104,-1.05312 0.49645,-2.33737 0,-3.33026 -0.35104,-0.70208 -1.31409,-0.96305 -1.66513,-1.66513 -0.49568,-0.99136 0.46731,-6.92373 0,-8.32565 -0.39247,-1.17743 -2.22017,-2.22018 -1.66513,-3.33026 0.49645,-0.99289 2.27714,-0.35104 3.33026,0 0.74467,0.24822 1.11009,1.11008 1.66513,1.66513 1.11009,1.11008 2.07434,2.38832 3.33026,3.33026 0.99289,0.74467 2.29759,0.97668 3.33026,1.66513 0.65312,0.43541 1.11009,1.11008 1.66513,1.66513 0.55504,0.55504 1.31409,0.96305 1.66513,1.66513 0.24822,0.49644 -0.39247,1.27265 0,1.66513 0.39248,0.39247 1.27266,-0.39248 1.66513,0 0.78495,0.78495 -0.49644,2.33737 0,3.33026 0.35104,0.70208 1.31409,0.96305 1.66513,1.66513 0.40119,0.80237 -0.22785,10.74452 0,11.65591 0.33281,1.33123 4.53076,3.6015 4.99539,4.99539 0.5898,1.76939 -0.58979,4.89113 0,6.66052 0.39248,1.17742 1.36412,2.1262 1.66513,3.33026 0.34413,1.3765 -0.42311,9.14456 0,9.99078 2.05761,4.11521 1.66513,-0.57477 1.66513,3.33026 0,1.40978 -0.29839,5.76534 0,6.66052 0.24822,0.74467 1.31409,0.96305 1.66513,1.66513 1.11009,2.22017 -1.66513,1.66513 1.66513,1.66513"
           style="fill:none;fill-rule:nonzero;stroke:#000000;stroke-width:1;stroke-linecap:butt;stroke-linejoin:miter;stroke-miterlimit:4;stroke-dasharray:none;stroke-opacity:1" />
        <path
           inkscape:connector-curvature="0"
           id="path3733"
           d="m -86.5038,166.30486 c 7.01834,-1.33492 0.39944,-5.79426 1.66513,-8.32565 0.35104,-0.70208 1.31409,-0.96305 1.66513,-1.66513 0.24823,-0.49645 -0.24822,-1.16868 0,-1.66513 0.35104,-0.70208 1.31409,-0.96305 1.66513,-1.66513 0.24823,-0.49645 -0.33302,-1.2211 0,-1.66513 1.41291,-1.88388 3.33026,-3.33026 4.99539,-4.99539 0.55505,-0.55504 1.31409,-0.96305 1.66513,-1.66513 0.24823,-0.49645 -0.24822,-1.16869 0,-1.66513 0.35104,-0.70208 1.41691,-0.92046 1.66513,-1.66513 0.70208,-2.10624 -0.53847,-4.50664 0,-6.66052 2.01021,-8.04082 0.79131,0.0825 3.33026,-4.99539 0.53203,-1.06406 -0.44675,-5.32026 0,-6.66052 0.39248,-1.17743 1.27266,-2.15284 1.66513,-3.33026 0.35895,-1.07685 0,-6.50749 0,-8.32565 0,-6.10548 0,-12.21096 0,-18.31643 0,-4.44035 0,-8.8807 0,-13.32104 0,-0.55505 0,-1.11009 0,-1.66513 0,-0.55505 0.39248,-1.27266 0,-1.66513 -0.39247,-0.39248 -1.11008,0 -1.66513,0 -3.82678,0 -2.29899,1.53266 -4.99539,3.33026 -1.03267,0.68844 -2.29759,0.97668 -3.33026,1.66513 -1.30623,0.87082 -2.22017,2.22017 -3.33026,3.33026 -1.11008,1.11008 -2.45943,2.02402 -3.33026,3.33026 -0.68844,1.03267 -0.97668,2.29759 -1.66513,3.33026 -0.43541,0.65311 -1.4169,0.92046 -1.66513,1.66513 -0.25387,0.76161 0.37047,5.91957 0,6.66052 -0.35104,0.70208 -1.31409,0.96305 -1.66513,1.66513 -0.24822,0.49644 0,1.11008 0,1.66513 0,1.28603 0.33863,8.9749 0,9.99078 -0.39247,1.17742 -1.36411,2.1262 -1.66513,3.33026 -0.26923,1.07694 0,2.22017 0,3.33026 0,3.33026 0,6.66052 0,9.99078 0,0.55504 0.17552,1.13857 0,1.66513 -0.39247,1.17742 -1.36411,2.1262 -1.66513,3.33026 -0.26923,1.07694 0,2.22017 0,3.33026 0,3.33026 0,6.66052 0,9.99078"
           style="fill:none;fill-rule:nonzero;stroke:#000000;stroke-width:1;stroke-linecap:butt;stroke-linejoin:miter;stroke-miterlimit:4;stroke-dasharray:none;stroke-opacity:1" />
        <path
           inkscape:connector-curvature="0"
           id="path3735"
           d="m -101.48997,103.02992 c -1.85551,-7.42204 -0.0469,-5.04231 -3.33026,-8.32565 -0.55504,-0.55505 -1.31409,-0.96305 -1.66513,-1.66513 -2.45008,-4.90016 3.85741,2.19228 -1.66513,-3.33026 -3.75085,-3.75085 0.26165,1.0466 -1.66513,-6.66052 -0.19038,-0.76152 -1.31409,-0.96305 -1.66513,-1.66513 -0.24822,-0.49645 0,-1.11009 0,-1.66513 -1.11009,-0.55505 -2.45266,-0.78753 -3.33026,-1.66513 -0.78495,-0.78495 0.78495,-2.54531 0,-3.33026 -3.44521,-3.44522 0.13468,5.26474 -3.33026,-1.66513 -0.24822,-0.49645 0.24822,-1.16869 0,-1.66513 -0.35104,-0.70208 -1.31409,-0.96305 -1.66513,-1.66513 -0.24822,-0.49645 0.39248,-1.27266 0,-1.66513 -0.39247,-0.39248 -1.27265,0.39247 -1.66513,0 -0.39247,-0.39248 0.39248,-1.27266 0,-1.66513 -0.39247,-0.39248 -1.16868,0.24822 -1.66513,0 -6.92987,-3.46494 1.78008,0.11495 -1.66513,-3.33026 -0.39247,-0.39248 -1.27265,0.39247 -1.66513,0 -0.39247,-0.39248 0.39248,-1.27266 0,-1.66513 -0.39247,-0.39248 -1.11009,0 -1.66513,0 0,-0.55505 0.24822,-1.16869 0,-1.66513 -1.99366,-3.98732 -3.33026,1.04935 -3.33026,-3.33026 0,-1.11009 0,-2.22018 0,-3.33026 0,-0.55505 -0.55504,-1.66513 0,-1.66513 0.55504,0 0,1.11008 0,1.66513 0,1.11008 0,2.22017 0,3.33026 0,2.77521 0,5.55043 0,8.32565 0,3.33026 0,6.66052 0,9.99078 0,1.11008 -0.35104,2.27714 0,3.33026 0.26544,0.79631 3.06482,2.53394 3.33026,3.33026 0.35104,1.05312 -0.35104,2.27714 0,3.33026 0.24822,0.74467 1.11009,1.11008 1.66513,1.66513 0,1.11008 -0.26923,2.25331 0,3.33026 2.01021,8.04082 0.7913,-0.0825 3.33026,4.99539 2.45008,4.90016 -3.85741,-2.19228 1.66513,3.33026 1.11009,1.11008 2.22017,2.22017 3.33026,3.33026 0.55504,0.55504 1.31409,0.96305 1.66513,1.66513 0.24822,0.49644 -0.24822,1.16868 0,1.66513 1.84085,3.68169 1.03345,0.51672 3.33026,1.66513 1.36978,0.68488 5.42902,5.83951 6.66052,6.66052 0.46183,0.30788 1.27266,-0.39248 1.66513,0 0.356,0.356 -0.30601,5.74249 0,6.66052 4.02041,12.06123 -0.48006,-2.62526 3.33026,4.99539 0.24822,0.49644 0,1.11008 0,1.66513"
           style="fill:none;fill-rule:nonzero;stroke:#000000;stroke-width:1;stroke-linecap:butt;stroke-linejoin:miter;stroke-miterlimit:4;stroke-dasharray:none;stroke-opacity:1" />
        <path
           inkscape:connector-curvature="0"
           id="path3737"
           d="m -91.49919,99.69966 c 0,-21.93577 -1.96237,-2.73577 1.66513,-9.99078 0.24823,-0.49645 -0.39247,-1.27266 0,-1.66513 0.39248,-0.39248 1.16869,0.24822 1.66513,0 0.70208,-0.35104 0.96305,-1.31409 1.66513,-1.66513 0.49645,-0.24823 1.27266,0.39247 1.66513,0 0.39248,-0.39248 -0.39247,-1.27266 0,-1.66513 3.44522,-3.44522 -0.13467,5.26474 3.33026,-1.66513 0.24823,-0.49645 0,-1.11009 0,-1.66513 0,-2.54724 -0.17552,-3.89955 1.66513,-6.66052 0.30789,-0.46183 1.27266,0.39247 1.66513,0 6.49856,-6.49856 -0.38543,-0.89426 1.66513,-4.99539 0.35104,-0.70208 1.31409,-0.96305 1.66513,-1.66513 0.24823,-0.49645 0,-1.11009 0,-1.66513 0,-0.55505 0,-1.11009 0,-1.66513 0,-1.66513 0,-3.33026 0,-4.99539 0,-6.66052 0,-13.32105 0,-19.98157 0,-3.8853 0,-7.7706 0,-11.65591 0,-1.11008 0.78495,-2.54531 0,-3.33026 -0.78495,-0.78495 -2.22017,0 -3.33026,0 -0.55504,0 -1.27265,-0.39247 -1.66513,0 -0.8776,0.8776 -0.78753,2.45266 -1.66513,3.33026 -0.39247,0.39248 -1.27265,-0.39247 -1.66513,0 -0.39247,0.39248 0.24823,1.16869 0,1.66513 -0.70208,1.40417 -2.62818,1.9261 -3.33026,3.33026 -0.49644,0.9929 0.35104,2.27714 0,3.33026 -0.39247,1.17743 -1.27265,2.15284 -1.66513,3.33026 -0.17552,0.52656 0.17552,1.13857 0,1.66513 -0.39247,1.17743 -1.27265,2.15284 -1.66513,3.33026 -0.17552,0.52657 0.13462,1.12666 0,1.66513 -0.4257,1.7028 -1.23943,3.2926 -1.66513,4.9954 -0.52239,2.08957 0.5224,4.57094 0,6.66052 -0.30101,1.20405 -1.27265,2.15283 -1.66513,3.33026 -0.58979,1.76938 0.5898,4.89113 0,6.66052 -0.39247,1.17742 -1.27265,2.15283 -1.66513,3.33026 -0.5932,1.77961 0.70394,6.91776 0,8.32565 -0.24822,0.49644 -1.41691,-0.49645 -1.66513,0 -0.49644,0.99289 0,2.22017 0,3.33026 0,0.55504 0.39248,1.27265 0,1.66513 -0.39247,0.39247 -1.27265,-0.39248 -1.66513,0 -0.0536,0.0536 0,4.59155 0,4.99539"
           style="fill:none;fill-rule:nonzero;stroke:#000000;stroke-width:1;stroke-linecap:butt;stroke-linejoin:miter;stroke-miterlimit:4;stroke-dasharray:none;stroke-opacity:1" />
        <path
           inkscape:connector-curvature="0"
           id="path3739"
           d="m -103.1551,64.73193 c -10.15416,-2.35756 -1.28336,-9.22725 -3.33026,-13.32104 -0.70208,-1.40417 -2.45944,-2.02403 -3.33026,-3.33027 -0.30788,-0.46182 0.17552,-1.13856 0,-1.66513 -0.39247,-1.17742 -1.11009,-2.22017 -1.66513,-3.33026 -0.55504,-1.11008 -0.97668,-2.29759 -1.66513,-3.33026 -2.03117,-3.04674 -2.12294,-0.16612 -3.33026,-4.99539 -0.26923,-1.07694 0.61577,-2.40661 0,-3.33026 -0.68845,-1.03267 -2.45266,-0.78753 -3.33026,-1.66513 -2.22017,-2.22017 3.53228,-1.59779 -1.66513,-3.33026 -1.05312,-0.35104 -2.40661,0.61577 -3.33026,0 -1.03267,-0.68844 -0.97668,-2.29759 -1.66513,-3.33026 -0.43541,-0.65311 -1.11009,-1.11008 -1.66513,-1.66513 -0.55504,-0.55504 -0.96305,-1.31409 -1.66513,-1.66513 -0.49645,-0.24822 -1.41691,0.49645 -1.66513,0 -0.49645,-0.99289 0,-2.22017 0,-3.33026 0,-0.55504 -0.55504,-1.66513 0,-1.66513 0.55504,0 0,2.22018 0,1.66513 0,-1.11008 0.35104,-2.27714 0,-3.33026 -0.24822,-0.74467 -0.88018,-1.66513 -1.66513,-1.66513 -0.78495,0 -1.41691,0.92046 -1.66513,1.66513 -0.52656,1.57968 0,3.33026 0,4.99539 0,3.88531 0,7.77061 0,11.65591 0,0.55505 -0.24822,1.16869 0,1.66513 0.35104,0.70208 1.31409,0.96305 1.66513,1.66513 0.24822,0.49645 -0.24822,1.16869 0,1.66513 0.35104,0.70208 1.41691,0.92047 1.66513,1.66513 0.35104,1.05313 -0.35104,2.27714 0,3.33026 0.24822,0.74467 1.11009,1.11009 1.66513,1.66513 0.55504,1.11009 1.36412,2.12621 1.66513,3.33026 0.26924,1.07695 -0.35104,2.27714 0,3.33026 0.49645,1.48934 2.62818,1.9261 3.33026,3.33027 0.24822,0.49644 -0.17552,1.13856 0,1.66513 2.01219,6.03658 0.79005,1.18506 3.33026,4.99539 3.66856,0.83854 0.88018,3.42549 1.66513,4.99539 0.35104,0.70208 1.11009,1.11008 1.66513,1.66513 0.55504,0 1.41691,-0.49645 1.66513,0 0.49645,0.99289 0,2.22017 0,3.33026 0,0.55504 -0.39247,1.27265 0,1.66513 0.39248,0.39247 1.27266,-0.39248 1.66513,0 0.39248,0.39247 -0.39247,1.27265 0,1.66513 0.39248,0.39247 1.16869,-0.24823 1.66513,0 6.92987,3.46493 -1.78008,-0.11496 1.66513,3.33026 0.39248,0.39247 1.27266,-0.39248 1.66513,0 0.39248,0.39247 0,1.11008 0,1.66513 1.11009,0.55504 2.22017,1.11008 3.33026,1.66513"
           style="fill:none;fill-rule:nonzero;stroke:#000000;stroke-width:1;stroke-linecap:butt;stroke-linejoin:miter;stroke-miterlimit:4;stroke-dasharray:none;stroke-opacity:1" />
        <path
           inkscape:connector-curvature="0"
           id="path3741"
           d="m -93.16432,51.41089 c -1.82064,-4.17799 -1.66513,-7.48071 -1.66513,-11.65592 0,-0.55504 -0.17552,-1.13857 0,-1.66513 4.02041,-12.06123 -0.48006,2.62526 3.33026,-4.99539 0.24823,-0.49644 -0.24822,-1.16868 0,-1.66513 0.35104,-0.70208 1.11009,-1.11008 1.66513,-1.66513 0.55505,-0.55504 0.96305,-1.31409 1.66513,-1.66513 0.49645,-0.24822 1.27266,0.39248 1.66513,0 0.39248,-0.39247 -0.39247,-1.27265 0,-1.66513 0.39248,-0.39247 1.27266,0.39248 1.66513,0 0.39248,-0.39247 -0.24822,-1.16868 0,-1.66513 0.70208,-1.40416 2.62818,-1.9261 3.33026,-3.33026 0.22188,-0.44375 0,-9.23749 0,-9.99078 0,-7.7706 0,-15.54121 0,-23.31182 0,-1.15816 0.30109,-7.72348 0,-8.32565 -0.35104,-0.70208 -1.4169,-0.92046 -1.66513,-1.66513 -0.003,-0.008 0.002,-4.9938 0,-4.99539 -0.78495,-0.78495 -3.33026,1.11009 -3.33026,0 0,-0.55504 2.05761,-0.39247 1.66513,0 -2.0281,2.0281 -3.72025,0.77999 -4.99539,3.33026 -0.24822,0.49645 0.24823,1.16869 0,1.66513 -1.78604,3.57209 -1.54421,-0.24183 -3.33026,3.33026 -0.24822,0.49645 0.24822,1.16869 0,1.66513 -2.0576,4.11521 -1.66513,-0.57476 -1.66513,3.33026 0,0.55505 0,1.11009 0,1.66513 0,1.11009 0.78495,2.54531 0,3.33026 -0.78495,0.78495 -2.33737,-0.49644 -3.33026,0 -0.99289,0.49645 0.49645,2.33737 0,3.33026 -0.35104,0.70208 -1.41691,0.92046 -1.66513,1.66513 -0.35104,1.05312 0,2.22018 0,3.33026 0,0.55505 0.24822,1.16869 0,1.66513 -0.35104,0.70208 -1.31409,0.96305 -1.66513,1.66513 -0.66605,1.33211 0.66605,3.66329 0,4.99539 -0.35104,0.70208 -1.41691,0.92046 -1.66513,1.66513 -0.36725,1.10177 0,9.39945 0,11.65591 0,7.77061 0,15.54122 0,23.31182"
           style="fill:none;fill-rule:nonzero;stroke:#000000;stroke-width:1;stroke-linecap:butt;stroke-linejoin:miter;stroke-miterlimit:4;stroke-dasharray:none;stroke-opacity:1" />
        <path
           inkscape:connector-curvature="0"
           id="path3743"
           d="m -114.81101,21.43854 c -2.22017,-4.44034 -4.44035,-8.88069 -6.66052,-13.32104 -0.55504,-1.11008 -1.27265,-2.15283 -1.66513,-3.33026 -0.17552,-0.52656 0.17552,-1.13857 0,-1.66513 -0.39247,-1.17742 -1.27265,-2.15283 -1.66513,-3.33026 -0.58979,-1.76938 0.5898,-4.89113 0,-6.66052 -0.39247,-1.17742 -1.27265,-2.15283 -1.66513,-3.33026 -0.52656,-1.57968 0.52656,-3.41571 0,-4.99539 -0.49645,-1.48934 -2.62818,-1.9261 -3.33026,-3.33026 -0.24822,-0.49644 0.24822,-1.16868 0,-1.66513 -0.35104,-0.70208 -1.31409,-0.96305 -1.66513,-1.66513 -0.24822,-0.49644 0.24822,-1.16868 0,-1.66513 -0.35104,-0.70208 -1.31409,-0.96305 -1.66513,-1.66513 -0.24822,-0.49644 0.24822,-1.16868 0,-1.66513 -0.99908,-1.99815 -3.99631,-2.99723 -4.99539,-4.99539 -0.25338,-0.50675 0,-4.24548 0,-4.99539 0,-1.66513 0,-3.33026 0,-4.99539 0,-1.11009 -0.35104,-2.27714 0,-3.33026 0.24822,-0.74467 0.88018,-1.66513 1.66513,-1.66513 3.3917,0 4.36638,3.84832 6.66052,4.99539 2.29681,1.14841 1.48941,-2.01656 3.33026,1.66513 0.66605,1.33211 -0.66605,3.66329 0,4.99539 0.24822,0.49645 1.27266,-0.39247 1.66513,0 0.39248,0.39248 -0.24822,1.16869 0,1.66513 0.99908,1.99816 3.99631,2.99724 4.99539,4.99539 0.24822,0.49645 -0.17552,1.13857 0,1.66513 0.39248,1.17743 1.27266,2.15284 1.66513,3.33026 1.65227,4.95681 -3.94281,-3.41652 1.66513,4.99539 -0.16622,3.29872 2.45266,0.78753 3.33026,1.66513 0.78495,0.78495 -0.49644,2.33737 0,3.33026 0.35104,0.70208 1.31409,0.96305 1.66513,1.66513 0.49645,0.99289 -0.49644,2.33737 0,3.33026 0.35104,0.70208 1.31409,0.96305 1.66513,1.66513 2.45008,4.90016 -3.85741,-2.19228 1.66513,3.33026"
           style="fill:none;fill-rule:nonzero;stroke:#000000;stroke-width:1;stroke-linecap:butt;stroke-linejoin:miter;stroke-miterlimit:4;stroke-dasharray:none;stroke-opacity:1" />
        <path
           inkscape:connector-curvature="0"
           id="path3745"
           d="m -101.48997,-8.5338 c 0,-2.22017 -0.70208,-4.55428 0,-6.66052 0.49645,-1.48934 2.45944,-2.02402 3.33026,-3.33026 0.61577,-0.92365 -0.49644,-2.33737 0,-3.33026 0.35104,-0.70208 1.31409,-0.96305 1.66513,-1.66513 0.24822,-0.49644 -0.24822,-1.16868 0,-1.66513 0.35104,-0.70208 1.31409,-0.96305 1.66513,-1.66513 0.48778,-0.97556 -0.30676,-7.09862 0,-8.32565 0.30102,-1.20406 1.42173,-2.11325 1.66513,-3.33026 0.32656,-1.63279 0,-3.33026 0,-4.99539 0,-1.11009 -0.35104,-2.27714 0,-3.33026 0.24822,-0.74467 1.31409,-0.96305 1.66513,-1.66513 0.47044,-0.94087 -0.46568,-6.9286 0,-8.32565 0.39248,-1.17742 1.27266,-2.15283 1.66513,-3.33026 0.3004,-0.90118 0,-6.09325 0,-6.66052 0,-5.55043 0,-11.10087 0,-16.6513 0,-4.44035 0,-8.88069 0,-13.32104 0,-1.09386 0.19578,-6.26896 0,-6.66052 -0.24822,-0.49645 -1.11008,0 -1.66513,0 -2.72645,0 -3.33026,0.6038 -3.33026,3.33026 0,3.76192 0.24822,-0.74467 -1.66513,4.99539 -0.38177,1.14533 0.49123,4.01293 0,4.99539 -0.35104,0.70208 -1.31409,0.96305 -1.66513,1.66513 -0.30934,0.61868 0,10.23534 0,11.65591 0,4.44035 0,8.88069 0,13.32104 0,0.87073 0.21892,6.22269 0,6.66052 -0.35104,0.70208 -1.31409,0.96305 -1.66513,1.66513 -0.49644,0.99289 0.78495,2.54531 0,3.33026 -0.39247,0.39248 -1.11008,0 -1.66513,0 -0.55504,1.11009 -1.27265,2.15284 -1.66513,3.33026 -0.17552,0.52656 0.17552,1.13857 0,1.66513 -0.39247,1.17743 -1.27265,2.15284 -1.66513,3.33026 -0.35104,1.05312 0.49645,2.33737 0,3.33026 -0.35104,0.70208 -1.31409,0.96305 -1.66513,1.66513 -0.24822,0.49645 0,1.11009 0,1.66513 0,0.55504 0,1.11009 0,1.66513"
           style="fill:none;fill-rule:nonzero;stroke:#000000;stroke-width:1;stroke-linecap:butt;stroke-linejoin:miter;stroke-miterlimit:4;stroke-dasharray:none;stroke-opacity:1" />
        <path
           inkscape:connector-curvature="0"
           id="path3747"
           d="m -109.81562,-18.52458 c 0,-16.59551 1.5699,-1.85559 -1.66513,-8.32565 -0.24822,-0.49644 0.24822,-1.16868 0,-1.66513 -0.35104,-0.70208 -1.31409,-0.96305 -1.66513,-1.66513 -0.24822,-0.49644 0.24822,-1.16868 0,-1.66513 -0.35104,-0.70208 -1.11009,-1.11009 -1.66513,-1.66513 -0.55504,-0.55504 -0.96305,-1.31409 -1.66513,-1.66513 -0.49644,-0.24822 -1.27265,0.39248 -1.66513,0 -0.39247,-0.39247 0.39248,-1.27265 0,-1.66513 -0.39247,-0.39247 -1.27265,0.39248 -1.66513,0 -0.39247,-0.39247 0.24822,-1.16868 0,-1.66513 -0.35104,-0.70208 -1.11009,-1.11009 -1.66513,-1.66513 -0.87663,-0.87663 -4.55073,-4.10607 -4.99539,-4.99539 -0.24822,-0.49644 0.24822,-1.16868 0,-1.66513 -3.81032,-7.62065 0.69015,7.06584 -3.33026,-4.99539 -0.35104,-1.05312 0.49645,-2.33737 0,-3.33026 -0.35104,-0.70208 -1.31409,-0.96305 -1.66513,-1.66513 -0.24822,-0.49645 0.17552,-1.13857 0,-1.66513 -0.39247,-1.17742 -1.42173,-2.11325 -1.66513,-3.33026 -0.32656,-1.63279 0.40385,-3.37998 0,-4.99539 -0.19038,-0.76151 -1.31409,-0.96305 -1.66513,-1.66513 -0.24822,-0.49645 0.24822,-1.16868 0,-1.66513 -0.35104,-0.70208 -1.31409,-0.96305 -1.66513,-1.66513 -0.24822,-0.49645 0,-1.11009 0,-1.66513 0,-1.11009 0.26924,-2.25332 0,-3.33026 -0.30101,-1.20406 -1.27265,-2.15284 -1.66513,-3.33026 -1.65227,-4.95681 3.94281,3.41652 -1.66513,-4.99539 -0.43541,-0.65312 -1.31409,-0.96305 -1.66513,-1.66513 -0.24822,-0.49645 0,-1.11009 0,-1.66513 0,-0.55504 0,-1.11009 0,-1.66513 0,-0.55504 0,-2.22017 0,-1.66513 0,1.11009 -1.11009,3.33026 0,3.33026 1.24111,0 0.97668,-2.29759 1.66513,-3.33026 -0.16622,-3.29872 2.45266,-0.78753 3.33026,-1.66513 1.10663,-1.10663 -1.10663,-2.22363 0,-3.33026 0.39248,-0.39248 1.27266,0.39247 1.66513,0 0.40068,-0.40068 -0.40068,-6.25984 0,-6.66052 0.39248,-0.39248 1.66513,-0.55504 1.66513,0 0,0.78495 -2.45008,1.66513 -1.66513,1.66513 1.24111,0 2.08915,-1.66513 3.33026,-1.66513 0.55504,0 -0.24822,1.16868 0,1.66513 0.35104,0.70208 1.31409,0.96305 1.66513,1.66513 0.24822,0.49644 -0.24822,1.16868 0,1.66513 0.35104,0.70208 1.22972,1.01201 1.66513,1.66513 0.68845,1.03267 0.97668,2.29759 1.66513,3.33026 2.54022,3.81032 1.31807,-1.04119 3.33026,4.99539 0.17552,0.52656 -0.24822,1.16868 0,1.66513 0.35104,0.70208 1.31409,0.96305 1.66513,1.66513 0.37047,0.74094 -0.25387,5.89891 0,6.66052 0.24822,0.74467 1.31409,0.96305 1.66513,1.66513 0.24822,0.49645 -0.24822,1.16868 0,1.66513 0.35104,0.70208 1.31409,0.96305 1.66513,1.66513 0.66605,1.3321 -0.66605,3.66329 0,4.99539 0.35104,0.70208 1.31409,0.96305 1.66513,1.66513 0.66605,1.3321 -0.66605,3.66329 0,4.99539 0.35104,0.70208 1.31409,0.96305 1.66513,1.66513 0.1866,0.37321 0,6.26484 0,6.66052 0,6.10548 0,12.21095 0,18.31643"
           style="fill:none;fill-rule:nonzero;stroke:#000000;stroke-width:1;stroke-linecap:butt;stroke-linejoin:miter;stroke-miterlimit:4;stroke-dasharray:none;stroke-opacity:1" />
        <path
           inkscape:connector-curvature="0"
           id="path3749"
           d="m -106.48536,-51.82718 c 0,-5.55043 0,-11.10087 0,-16.6513 0,-0.55504 -0.39247,-1.27266 0,-1.66513 0.39248,-0.39248 1.27266,0.39247 1.66513,0 0.83257,-0.83257 -0.83256,-4.16283 0,-4.99539 0.39248,-0.39248 1.27266,0.39247 1.66513,0 0.78495,-0.78495 -0.35104,-2.27714 0,-3.33026 0.39248,-1.17743 1.27266,-2.15284 1.66513,-3.33026 0.35104,-1.05312 0,-2.22017 0,-3.33026 0,-2.77522 0,-5.55043 0,-8.32565 0,-2.77522 0,-5.55043 0,-8.32565 0,-0.55504 0.39248,-1.27266 0,-1.66513 -0.39247,-0.39248 -1.41691,0.49644 -1.66513,0 -0.49644,-0.99289 0.49645,-2.33737 0,-3.33026 -0.24822,-0.49645 -1.27265,0.39247 -1.66513,0 -0.99513,-0.99514 1.79981,-3.33026 -1.66513,-3.33026 -2.52671,0 -1.33342,2.33512 -1.66513,3.33026 -4.02041,12.06123 0.48006,-2.62526 -3.33026,4.99539 -0.24822,0.49644 0,1.11009 0,1.66513 0,7.21556 0,14.43113 0,21.64669 0,1.11009 0,2.22017 0,3.33026 0,0.55504 0.39248,1.27265 0,1.66513 -0.39247,0.39247 -1.27265,-0.39248 -1.66513,0 -0.40068,0.40068 0.40068,6.25984 0,6.66052 -0.39247,0.39247 -1.27265,-0.39247 -1.66513,0 -0.39247,0.39247 0,1.11009 0,1.66513 0,0.55504 0,1.11009 0,1.66513 0,7.77061 0,15.54121 0,23.31182"
           style="fill:none;fill-rule:nonzero;stroke:#000000;stroke-width:1;stroke-linecap:butt;stroke-linejoin:miter;stroke-miterlimit:4;stroke-dasharray:none;stroke-opacity:1" />
      </g>
    </pattern>
    <inkscape:path-effect
       lpeversion="0"
       bendpath4-nodetypes="cc"
       bendpath2-nodetypes="cc"
       bendpath3-nodetypes="cc"
       bendpath4="M -201.67979,-73.696954 144.53056,496.40088"
       bendpath3="m -205.07411,516.44651 80.96193,58.62218"
       bendpath2="m -11.241984,-108.4416 -4.995391,741.39916"
       bendpath1="m -141.94646,-110.10673 h 97.401874"
       xx="true"
       yy="true"
       is_visible="true"
       id="path-effect6576-1"
       effect="envelope" />
    <inkscape:path-effect
       lpeversion="0"
       bendpath4-nodetypes="cc"
       bendpath2-nodetypes="cc"
       bendpath3-nodetypes="cc"
       bendpath4="M -201.67979,-73.696954 144.53056,496.40088"
       bendpath3="m -205.07411,516.44651 80.96193,58.62218"
       bendpath2="m 39.390618,-106.25537 5.542683,695.51763"
       bendpath1="m -141.94646,-110.10673 h 97.401874"
       xx="true"
       yy="true"
       is_visible="true"
       id="path-effect6576-3"
       effect="envelope" />
    <inkscape:path-effect
       lpeversion="0"
       bendpath4-nodetypes="cc"
       bendpath2-nodetypes="cc"
       bendpath3-nodetypes="cc"
       bendpath4="M -201.67979,-73.696954 144.53056,496.40088"
       bendpath3="m -205.07411,516.44651 80.96193,58.62218"
       bendpath2="M -245.80538,-1.8572606 19.188253,564.4364"
       bendpath1="m -141.94646,-110.10673 h 97.401874"
       xx="true"
       yy="true"
       is_visible="true"
       id="path-effect6576-1-3"
       effect="envelope" />
  </defs>
  <sodipodi:namedview
     inkscape:document-rotation="0"
     id="base"
     pagecolor="#ffffff"
     bordercolor="#666666"
     borderopacity="1.0"
     inkscape:pageopacity="0.0"
     inkscape:pageshadow="2"
     inkscape:zoom="0.56390993"
     inkscape:cx="396.85039"
     inkscape:cy="561.25984"
     inkscape:document-units="px"
     inkscape:current-layer="g13339"
     showgrid="false"
     inkscape:window-width="1382"
     inkscape:window-height="807"
     inkscape:window-x="22"
     inkscape:window-y="25"
     inkscape:window-maximized="0" />
  <metadata
     id="metadata7">
    <rdf:RDF>
      <cc:Work
         rdf:about="">
        <dc:format>image/svg+xml</dc:format>
        <dc:type
           rdf:resource="http://purl.org/dc/dcmitype/StillImage" />
        <dc:title></dc:title>
      </cc:Work>
    </rdf:RDF>
  </metadata>
  <g
     transform="translate(0,-308.26772)"
     id="layer1"
     inkscape:groupmode="layer"
     inkscape:label="Layer 1">
    <g
       inkscape:export-ydpi="200"
       inkscape:export-xdpi="200"
       transform="matrix(1.21,0,0,1.21,-115.69023,-123.75649)"
       id="g5272">
      <g
         id="g13339">
        <g
           style="font-style:normal;font-variant:normal;font-weight:normal;font-stretch:normal;font-size:15.972px;line-height:0%;font-family:Dekko;-inkscape-font-specification:'Dekko, Normal';text-align:start;letter-spacing:0px;word-spacing:0px;writing-mode:lr-tb;text-anchor:start;fill:#000000;fill-opacity:1;stroke:none;stroke-width:1.331px;stroke-linecap:butt;stroke-linejoin:miter;stroke-opacity:1"
           id="text3755-8-9-9-7-40-2-6"
           transform="matrix(0,-1.0189093,0.98144163,0,0,0)"
           aria-label="" />
        <g
           transform="matrix(2.3579477,0,0,2.3579477,-530.40139,-745.68366)"
           style="font-style:normal;font-variant:normal;font-weight:normal;font-stretch:normal;font-size:15.972px;line-height:0%;font-family:Metamorphous;-inkscape-font-specification:'Metamorphous, Normal';text-align:start;letter-spacing:0px;word-spacing:0px;writing-mode:lr-tb;text-anchor:start;fill:#000000;fill-opacity:1;stroke:none;stroke-width:1.331px;stroke-linecap:butt;stroke-linejoin:miter;stroke-opacity:1"
           id="text3407-4-1-9-75-0-4-9"
           aria-label="Keldling Brew ">
          <g
             aria-label="Keldling Brew"
             transform="matrix(1.2419075,0,0,1.2419075,586.84019,581.43069)"
             id="text6105"
             style="font-style:normal;font-variant:normal;font-weight:normal;font-stretch:normal;font-size:25.4px;line-height:0%;font-family:Metamorphous;-inkscape-font-specification:'Metamorphous Normal';font-variant-ligatures:normal;font-variant-caps:normal;font-variant-numeric:normal;font-variant-east-asian:normal;text-align:start;letter-spacing:0px;word-spacing:0px;writing-mode:lr-tb;text-anchor:start;fill:#000000;fill-opacity:1;stroke:none;stroke-width:0.282222px;stroke-linecap:butt;stroke-linejoin:miter;stroke-opacity:1">
            <path
               d="m -193.04373,83.857593 v -1.079004 h 6.41201 v 1.079004 q -1.10381,0.136426 -1.90996,0.905371 -0.27285,0.26045 -0.57051,0.607715 l -5.03535,6.573242 9.83506,12.836419 -0.84336,0.70694 -12.00547,-12.712402 5.08496,-6.771679 q 0.86817,-0.992188 0.86817,-1.562695 0,-0.582911 -1.83555,-0.582911 z m -10.0583,16.867187 0.43408,-0.062 q 1.12862,-0.14883 1.35186,-0.40928 0.23564,-0.260446 0.29765,-0.657321 0.062,-0.409277 0.062,-1.128613 v -12.42715 q 0,-1.413867 -0.29766,-1.686719 -0.28525,-0.272851 -0.71934,-0.347266 -0.42168,-0.08682 -1.12861,-0.148828 v -1.079004 h 6.80889 v 1.079004 q -0.71934,0.06201 -1.15342,0.136426 -0.42168,0.06201 -0.64492,0.272852 -0.22324,0.21084 -0.28526,0.620117 -0.062,0.409277 -0.062,1.153418 v 12.427148 q 0,1.389063 0.24805,1.661916 0.26045,0.27285 0.62012,0.35967 0.37207,0.0744 1.00459,0.16123 l 0.5333,0.0744 v 1.02939 h -7.06934 z"
               style="font-style:normal;font-variant:normal;font-weight:normal;font-stretch:normal;font-size:25.4px;line-height:1.25;font-family:Metamorphous;-inkscape-font-specification:'Metamorphous Normal';font-variant-ligatures:normal;font-variant-caps:normal;font-variant-numeric:normal;font-variant-east-asian:normal;fill:#000000;fill-opacity:1;stroke-width:0.282222px"
               id="path3951"
               inkscape:connector-curvature="0" />
            <path
               d="m -172.12097,99.906226 q -1.69913,2.095994 -5.09737,2.095994 -3.27422,0 -5.12217,-2.120799 -1.77353,-2.046386 -1.77353,-5.407422 0,-3.460253 1.97197,-5.71748 1.95957,-2.232422 5.02295,-2.232422 2.34404,0 3.65869,0.992188 1.25264,0.930175 1.25264,2.554882 0,2.095997 -2.03398,3.534668 -2.36885,1.674317 -7.16856,1.711524 0.43408,5.072561 4.58887,5.072561 2.60449,0 3.99355,-1.190628 z m -9.32657,-5.915918 q 4.41524,-0.08682 5.97793,-2.095996 0.57051,-0.744141 0.57051,-1.847949 0,-1.438672 -1.24023,-1.984375 -0.48369,-0.21084 -1.20303,-0.21084 -0.71934,0 -1.27744,0.260449 -0.55811,0.248047 -1.00459,0.694531 -0.44649,0.434082 -0.78135,1.029395 -0.33486,0.58291 -0.55811,1.265039 -0.45888,1.401465 -0.48369,2.889746 z"
               style="font-style:normal;font-variant:normal;font-weight:normal;font-stretch:normal;font-size:25.4px;line-height:1.25;font-family:Metamorphous;-inkscape-font-specification:'Metamorphous Normal';font-variant-ligatures:normal;font-variant-caps:normal;font-variant-numeric:normal;font-variant-east-asian:normal;fill:#000000;fill-opacity:1;stroke-width:0.282222px"
               id="path3953"
               inkscape:connector-curvature="0" />
            <path
               d="m -169.42966,100.72478 0.43408,-0.062 q 0.5333,-0.0744 0.86816,-0.14883 0.33487,-0.0868 0.5209,-0.29765 0.32246,-0.384476 0.32246,-1.748734 V 83.547535 q 0,-1.413867 -0.29766,-1.686719 -0.29765,-0.285254 -0.71933,-0.359668 -0.42168,-0.08682 -1.12861,-0.148828 v -1.054199 h 4.65087 v 18.169433 q 0,1.289844 0.42168,1.699116 0.31006,0.31006 1.48829,0.47129 l 0.59531,0.0868 v 1.0294 h -7.15615 z"
               style="font-style:normal;font-variant:normal;font-weight:normal;font-stretch:normal;font-size:25.4px;line-height:1.25;font-family:Metamorphous;-inkscape-font-specification:'Metamorphous Normal';font-variant-ligatures:normal;font-variant-caps:normal;font-variant-numeric:normal;font-variant-east-asian:normal;fill:#000000;fill-opacity:1;stroke-width:0.282222px"
               id="path3955"
               inkscape:connector-curvature="0" />
            <path
               d="m -150.41687,87.429468 q -1.92237,-5.705078 -7.70186,-6.982519 l 0.26045,-1.091406 q 5.69268,0.843359 8.57002,4.812109 2.57969,3.571875 2.57969,8.867676 0,4.167187 -1.89756,6.598046 -1.89756,2.418456 -5.08496,2.418456 -3.05098,0 -4.98574,-2.455663 -1.79834,-2.257226 -1.79834,-5.357812 0,-3.137793 1.67431,-5.370215 1.84795,-2.455664 5.03535,-2.455664 1.97198,0 3.34864,1.016992 z m 0.88056,5.915918 q 0,-5.593457 -3.99355,-5.593457 -2.24483,0 -3.26182,2.021582 -0.84336,1.63711 -0.84336,4.502051 0,4.241601 2.05879,5.816698 0.76895,0.58291 1.98438,0.58291 1.22783,0 2.03398,-0.5581 0.80615,-0.55811 1.25264,-1.537895 0.76894,-1.699121 0.76894,-5.233789 z"
               style="font-style:normal;font-variant:normal;font-weight:normal;font-stretch:normal;font-size:25.4px;line-height:1.25;font-family:Metamorphous;-inkscape-font-specification:'Metamorphous Normal';font-variant-ligatures:normal;font-variant-caps:normal;font-variant-numeric:normal;font-variant-east-asian:normal;fill:#000000;fill-opacity:1;stroke-width:0.282222px"
               id="path3957"
               inkscape:connector-curvature="0" />
            <path
               d="m -143.98006,100.72478 0.43409,-0.062 q 0.5333,-0.0744 0.86816,-0.14883 0.33486,-0.0868 0.5209,-0.29765 0.32246,-0.384476 0.32246,-1.748734 V 83.547535 q 0,-1.413867 -0.29766,-1.686719 -0.29765,-0.285254 -0.71933,-0.359668 -0.42168,-0.08682 -1.12862,-0.148828 v -1.054199 h 4.65088 v 18.169433 q 0,1.289844 0.42168,1.699116 0.31006,0.31006 1.48828,0.47129 l 0.59532,0.0868 v 1.0294 h -7.15616 z"
               style="font-style:normal;font-variant:normal;font-weight:normal;font-stretch:normal;font-size:25.4px;line-height:1.25;font-family:Metamorphous;-inkscape-font-specification:'Metamorphous Normal';font-variant-ligatures:normal;font-variant-caps:normal;font-variant-numeric:normal;font-variant-east-asian:normal;fill:#000000;fill-opacity:1;stroke-width:0.282222px"
               id="path3959"
               inkscape:connector-curvature="0" />
            <path
               d="m -134.46746,81.823609 2.25723,-2.220019 2.20762,2.220019 -2.20762,2.244824 z m -1.02939,18.901171 0.43408,-0.062 q 0.5333,-0.0744 0.86816,-0.14883 0.33487,-0.0868 0.5209,-0.29765 0.32246,-0.384476 0.32246,-1.761136 v -8.408789 q 0,-1.413867 -0.29765,-1.699121 -0.29766,-0.297657 -0.71934,-0.372071 -0.42168,-0.07441 -1.12861,-0.136425 v -1.066602 h 6.78408 v 1.066602 q -0.70693,0.07441 -1.12861,0.148828 -0.42168,0.07441 -0.64492,0.285254 -0.35967,0.334863 -0.35967,1.773535 v 8.408789 q 0,1.413867 0.22324,1.674316 0.22324,0.26045 0.5457,0.34727 0.33487,0.0868 0.88057,0.17363 l 0.48369,0.0744 v 1.02939 h -6.78408 z"
               style="font-style:normal;font-variant:normal;font-weight:normal;font-stretch:normal;font-size:25.4px;line-height:1.25;font-family:Metamorphous;-inkscape-font-specification:'Metamorphous Normal';font-variant-ligatures:normal;font-variant-caps:normal;font-variant-numeric:normal;font-variant-east-asian:normal;fill:#000000;fill-opacity:1;stroke-width:0.282222px"
               id="path3961"
               inkscape:connector-curvature="0" />
            <path
               d="m -121.59382,89.351832 q 1.12861,-2.244825 4.04316,-3.720704 2.1456,1.141016 3.29902,2.505274 1.82315,2.195215 2.20762,6.523633 0.12402,1.488281 0.12402,2.877343 0,1.389063 0.0496,1.885157 0.0496,0.496093 0.21084,0.756545 0.16123,0.24804 0.47129,0.33486 0.31006,0.0744 0.62012,0.12402 0.31006,0.0496 0.43408,0.062 0.13643,0 0.27285,0.0248 v 1.0294 h -6.78408 v -1.0294 q 0.70693,-0.0868 1.12861,-0.16123 0.42168,-0.0868 0.64493,-0.31006 0.35966,-0.359663 0.35966,-1.996773 v -1.438675 q 0,-2.840136 -0.13642,-3.931543 -0.13643,-1.103808 -0.34727,-1.810742 -0.19844,-0.719336 -0.5457,-1.351855 -0.68213,-1.190625 -2.1332,-2.344043 -3.91914,2.418457 -3.91914,6.548437 v 4.204395 q 0,1.637109 0.23564,1.959569 0.24805,0.32246 0.60771,0.42168 0.35967,0.0868 0.97979,0.17363 l 0.32246,0.0372 v 1.0294 h -6.78408 v -1.01699 q 0.0744,-0.0372 0.18603,-0.0372 0.12403,-0.0124 0.43409,-0.0496 0.32246,-0.0496 0.65732,-0.13643 0.34727,-0.0868 0.5333,-0.29766 0.31006,-0.33486 0.31006,-1.686715 v -8.842871 q 0,-1.128613 -0.28525,-1.37666 -0.28526,-0.26045 -0.70694,-0.334864 -0.42168,-0.08682 -1.12861,-0.136425 v -1.066602 h 4.63848 z"
               style="font-style:normal;font-variant:normal;font-weight:normal;font-stretch:normal;font-size:25.4px;line-height:1.25;font-family:Metamorphous;-inkscape-font-specification:'Metamorphous Normal';font-variant-ligatures:normal;font-variant-caps:normal;font-variant-numeric:normal;font-variant-east-asian:normal;fill:#000000;fill-opacity:1;stroke-width:0.282222px"
               id="path3963"
               inkscape:connector-curvature="0" />
            <path
               d="m -97.471271,100.34031 q -1.6123,1.71152 -3.881929,1.71152 -3.12539,0 -4.87412,-2.319237 -1.5627,-2.071191 -1.5627,-5.270996 0,-3.261816 1.72393,-5.481836 1.90996,-2.455664 5.40742,-2.455664 0.992189,0 2.071189,0.07441 2.05879,0.161231 2.56729,0.161231 h 3.21221 v 1.054199 q -1.41387,0.09922 -1.71153,0.409277 -0.29765,0.297657 -0.35967,0.682129 -0.062,0.37207 -0.062,0.967383 v 11.248924 q 0,3.22461 -1.77353,5.46944 -1.92237,2.44326 -5.171779,2.44326 -1.62471,0 -3.13779,-0.74414 l 0.48369,-1.33945 q 1.0666,0.42167 2.39365,0.42167 1.32705,0 2.232419,-0.5457 0.91778,-0.5333 1.46348,-1.40146 0.97978,-1.59991 0.97978,-4.27881 z m -7.503409,-5.878713 q 0,6.213573 3.7207,6.213573 1.612299,0 2.703709,-1.041796 1.079,-1.029394 1.079,-2.480468 v -6.759278 q 0,-1.252636 -0.40927,-1.686718 -0.79375,-0.84336 -2.827739,-0.84336 -4.2664,0 -4.2664,6.598047 z"
               style="font-style:normal;font-variant:normal;font-weight:normal;font-stretch:normal;font-size:25.4px;line-height:1.25;font-family:Metamorphous;-inkscape-font-specification:'Metamorphous Normal';font-variant-ligatures:normal;font-variant-caps:normal;font-variant-numeric:normal;font-variant-east-asian:normal;fill:#000000;fill-opacity:1;stroke-width:0.282222px"
               id="path3965"
               inkscape:connector-curvature="0" />
            <path
               d="m -184.24467,128.6859 q 1.42627,-0.12402 1.72393,-0.42168 0.29765,-0.31006 0.35967,-0.66973 0.062,-0.37207 0.062,-0.96738 v -12.79922 q 0,-1.19062 -0.28526,-1.46348 -0.27285,-0.28525 -0.70693,-0.38447 -0.42168,-0.0992 -1.15342,-0.16123 v -1.079 h 3.22461 q 0.81856,0 1.83555,-0.0868 1.87275,-0.16123 3.28662,-0.16123 1.42627,0 2.76572,0.29765 1.33946,0.29766 2.19522,0.84336 1.66191,1.0542 1.66191,3.02617 0,2.53008 -1.90996,3.99356 -0.63252,0.48369 -1.50068,0.78135 3.6959,0.62011 4.68808,3.00136 0.31006,0.74414 0.31006,1.77354 0,1.01699 -0.47129,2.1208 -0.45888,1.09141 -1.43867,1.92236 -2.1456,1.83555 -6.07715,1.83555 -0.97978,0 -2.15801,-0.12402 -2.17041,-0.24805 -3.1874,-0.24805 h -3.22461 z m 4.66328,-2.59209 q 0,1.24023 0.60772,1.78594 0.86816,0.76894 3.34863,0.76894 2.82774,0 4.09278,-1.26504 1.04179,-1.04179 1.04179,-2.85254 0,-2.6417 -1.99678,-3.7207 -0.74414,-0.40928 -1.48828,-0.45889 -0.74414,-0.062 -1.15341,-0.0868 l -0.84336,-0.0496 q -0.43409,-0.0248 -0.85577,-0.0372 -0.40927,-0.0248 -0.78134,-0.0496 v -1.16582 l 2.56728,-0.16123 q 1.62471,-0.16123 2.38125,-1.41386 0.58291,-0.95498 0.58291,-2.49287 0,-1.46348 -0.81855,-2.19522 -0.99219,-0.88057 -3.39824,-0.88057 -2.90215,0 -3.19981,1.5503 -0.0868,0.45888 -0.0868,0.99218 z"
               style="font-style:normal;font-variant:normal;font-weight:normal;font-stretch:normal;font-size:25.4px;line-height:1.25;font-family:Metamorphous;-inkscape-font-specification:'Metamorphous Normal';font-variant-ligatures:normal;font-variant-caps:normal;font-variant-numeric:normal;font-variant-east-asian:normal;fill:#000000;fill-opacity:1;stroke-width:0.282222px"
               id="path3967"
               inkscape:connector-curvature="0" />
            <path
               d="m -155.99213,119.23531 q 0.69453,-0.66972 0.69453,-2.03398 0,-0.66973 -0.63252,-1.0542 -0.5333,-0.31006 -1.62471,-0.31006 -2.35644,0 -2.35644,1.53789 v 9.42578 q 0,0.5333 0.0992,0.88057 0.11162,0.34726 0.48369,0.5581 0.64492,0.37208 2.97656,0.44649 v 1.02939 h -8.28477 v -1.01699 l 0.0248,-0.0124 q 1.46348,-0.14883 1.74873,-0.40928 0.29766,-0.27285 0.35967,-0.62011 0.0744,-0.35967 0.0744,-0.95498 v -8.59483 q 0,-1.35186 -0.27285,-1.67432 -0.26045,-0.32246 -0.64492,-0.44648 -0.38447,-0.12402 -1.01699,-0.19844 v -1.0542 h 2.56728 q 1.52549,0 2.17041,-0.062 0.64492,-0.062 1.01699,-0.0868 1.11621,-0.0992 1.81075,-0.0992 0.70693,0 1.45107,0.11162 0.74414,0.11162 1.31465,0.38448 1.25263,0.59531 1.25263,1.84795 0,1.00459 -0.81855,1.87275 -0.76895,0.81855 -1.71152,1.079 z"
               style="font-style:normal;font-variant:normal;font-weight:normal;font-stretch:normal;font-size:25.4px;line-height:1.25;font-family:Metamorphous;-inkscape-font-specification:'Metamorphous Normal';font-variant-ligatures:normal;font-variant-caps:normal;font-variant-numeric:normal;font-variant-east-asian:normal;fill:#000000;fill-opacity:1;stroke-width:0.282222px"
               id="path3969"
               inkscape:connector-curvature="0" />
            <path
               d="m -138.29399,127.86734 q -1.69912,2.096 -5.09736,2.096 -3.27422,0 -5.12217,-2.1208 -1.77353,-2.04639 -1.77353,-5.40742 0,-3.46026 1.97197,-5.71748 1.95957,-2.23242 5.02295,-2.23242 2.34404,0 3.65869,0.99218 1.25264,0.93018 1.25264,2.55489 0,2.09599 -2.03399,3.53466 -2.36884,1.67432 -7.16855,1.71153 0.43408,5.07256 4.58887,5.07256 2.60449,0 3.99355,-1.19063 z m -9.32656,-5.91591 q 4.41524,-0.0868 5.97793,-2.096 0.57051,-0.74414 0.57051,-1.84795 0,-1.43867 -1.24024,-1.98437 -0.48369,-0.21084 -1.20302,-0.21084 -0.71934,0 -1.27744,0.26045 -0.55811,0.24804 -1.00459,0.69453 -0.44649,0.43408 -0.78135,1.02939 -0.33487,0.58291 -0.55811,1.26504 -0.45888,1.40147 -0.48369,2.88975 z"
               style="font-style:normal;font-variant:normal;font-weight:normal;font-stretch:normal;font-size:25.4px;line-height:1.25;font-family:Metamorphous;-inkscape-font-specification:'Metamorphous Normal';font-variant-ligatures:normal;font-variant-caps:normal;font-variant-numeric:normal;font-variant-east-asian:normal;fill:#000000;fill-opacity:1;stroke-width:0.282222px"
               id="path3971"
               inkscape:connector-curvature="0" />
            <path
               d="m -128.44652,128.97115 q 1.56269,-1.53789 2.04638,-2.48047 0.4961,-0.94257 0.69454,-1.69912 0.21084,-0.75654 0.31005,-1.68672 0.16123,-1.36425 0.16123,-3.46025 0,-2.1084 -0.0496,-2.57969 -0.0496,-0.48369 -0.24804,-0.74414 -0.18604,-0.27285 -0.58291,-0.37207 -0.38448,-0.11162 -1.0542,-0.17363 v -1.0418 h 6.3624 v 1.0418 q -0.66973,0.0868 -1.0666,0.18603 -0.38447,0.0868 -0.58291,0.33487 -0.31006,0.38447 -0.31006,2.03398 0,1.63711 0.0372,2.86494 0.0372,1.21543 0.16123,2.17041 0.12402,0.94258 0.33486,1.67432 0.22325,0.73174 0.58291,1.37666 0.63252,1.12861 2.1084,2.55488 1.50069,-1.50068 2.15801,-2.80293 0.66973,-1.35185 0.81855,-2.79052 0.22325,-2.02159 0.22325,-4.04317 0,-2.02158 -0.0372,-2.40605 -0.0372,-0.39688 -0.22325,-0.63252 -0.33486,-0.39688 -1.68671,-0.5209 v -1.0418 h 6.21357 v 1.0418 q -1.22783,0.16123 -1.51309,0.48369 -0.29765,0.35967 -0.29765,2.096 0,1.73633 -0.12403,3.22461 -0.11162,1.47588 -0.38447,2.6541 -0.27285,1.16582 -0.70693,2.09599 -0.42168,0.91778 -1.0542,1.67432 -1.12861,1.36426 -3.38584,2.71611 -1.63711,-1.079 -2.45566,-1.97197 -1.37666,-1.51309 -1.98438,-3.00137 -0.69453,1.5875 -1.48828,2.45567 -1.35186,1.47588 -2.97656,2.51767 -2.25723,-1.35185 -3.38584,-2.71611 -1.81075,-2.18281 -2.14561,-6.42441 -0.12402,-1.48828 -0.12402,-2.79053 0,-1.31465 -0.0496,-1.74873 -0.0372,-0.44649 -0.21084,-0.69453 -0.28526,-0.39688 -1.5503,-0.57051 v -1.0418 h 6.21358 v 1.0418 q -1.36426,0.11162 -1.69912,0.57051 -0.26045,0.34726 -0.26045,1.74873 0,1.38906 0.0248,2.61689 0.0372,1.21543 0.13642,2.19522 0.11163,0.97978 0.32246,1.77353 0.21084,0.78135 0.57051,1.48828 0.66973,1.31465 2.15801,2.80293 z"
               style="font-style:normal;font-variant:normal;font-weight:normal;font-stretch:normal;font-size:25.4px;line-height:1.25;font-family:Metamorphous;-inkscape-font-specification:'Metamorphous Normal';font-variant-ligatures:normal;font-variant-caps:normal;font-variant-numeric:normal;font-variant-east-asian:normal;fill:#000000;fill-opacity:1;stroke-width:0.282222px"
               id="path3973"
               inkscape:connector-curvature="0" />
          </g>
        </g>
      </g>
    </g>
  </g>
</svg>
