<?xml version="1.0" encoding="UTF-8" standalone="no"?>
<!-- Created with Inkscape (http://www.inkscape.org/) -->

<svg
   xmlns:dc="http://purl.org/dc/elements/1.1/"
   xmlns:cc="http://creativecommons.org/ns#"
   xmlns:rdf="http://www.w3.org/1999/02/22-rdf-syntax-ns#"
   xmlns:svg="http://www.w3.org/2000/svg"
   xmlns="http://www.w3.org/2000/svg"
   xmlns:sodipodi="http://sodipodi.sourceforge.net/DTD/sodipodi-0.dtd"
   xmlns:inkscape="http://www.inkscape.org/namespaces/inkscape"
   sodipodi:docname="back.svg"
   inkscape:version="0.91 r13725"
   version="1.1"
   id="svg2"
   viewBox="0 0 1052.3622 744.09448"
   height="210mm"
   width="297mm">
  <defs
     id="defs4">
    <inkscape:path-effect
       effect="envelope"
       id="path-effect6576"
       is_visible="true"
       yy="true"
       xx="true"
       bendpath1="m -141.94646,-110.10673 97.401874,0"
       bendpath2="M -11.241984,-108.4416 66.018963,598.92593"
       bendpath3="m -205.07411,516.44651 80.96193,58.62218"
       bendpath4="M -201.67979,-73.696954 89.286681,520.60504"
       bendpath3-nodetypes="cc"
       bendpath2-nodetypes="cc"
       bendpath4-nodetypes="cc" />
    <inkscape:path-effect
       effect="envelope"
       id="path-effect6481"
       is_visible="true"
       yy="true"
       xx="true"
       bendpath1="m -141.94646,-110.10673 97.401874,0"
       bendpath2="m -44.544586,-110.10673 0,743.06429"
       bendpath3="m -141.94646,632.95756 97.401874,0"
       bendpath4="m -141.94646,-110.10673 0,743.06429" />
    <inkscape:path-effect
       effect="bend_path"
       id="path-effect5905"
       is_visible="true"
       bendpath="M -50.364305,278.07671 -277.6628,126.54987"
       prop_scale="1.44"
       scale_y_rel="false"
       vertical="false"
       bendpath-nodetypes="cc" />
    <pattern
       patternUnits="userSpaceOnUse"
       width="98.406668"
       height="744.06429"
       patternTransform="translate(-142.45062,-110.60673)"
       id="pattern4993">
      <g
         id="g4965"
         transform="translate(142.45062,110.60673)">
        <path
           style="fill:none;fill-rule:nonzero;stroke:#000000;stroke-width:1;stroke-linecap:butt;stroke-linejoin:miter;stroke-miterlimit:4;stroke-dasharray:none;stroke-opacity:1"
           d="m -76.51302,609.22946 c -2.67436,-10.69743 -2.30449,-3.07729 0,-9.99078 0.17552,-0.52656 -0.24822,-1.16869 0,-1.66513 0.35104,-0.70208 1.31409,-0.96305 1.66513,-1.66513 0.49645,-0.99289 -0.35104,-2.27714 0,-3.33026 0.40562,-1.21686 1.80613,-4.23333 3.33026,-4.99539 0.49645,-0.24823 1.16869,0.24822 1.66513,0 1.99816,-0.99908 2.99724,-3.99631 4.99539,-4.99539 0.49645,-0.24823 1.27266,0.39247 1.66513,0 0.78495,-0.78495 -0.49644,-2.33737 0,-3.33026 0.35104,-0.70208 1.31409,-0.96305 1.66513,-1.66513 0.24823,-0.49645 -0.24822,-1.16869 0,-1.66513 0.35104,-0.70208 1.31409,-0.96305 1.66513,-1.66513 0.24823,-0.49645 0,-1.11009 0,-1.66513 0,-1.11009 -0.35104,-2.27714 0,-3.33026 0.24823,-0.74467 1.31409,-0.96305 1.66513,-1.66513 0.24823,-0.49645 0,-1.11009 0,-1.66513 0,-1.11009 0,-2.22018 0,-3.33026 0,-0.55505 -0.55504,-1.66513 0,-1.66513 0.55505,0 0.55505,1.66513 0,1.66513 -0.55504,0 0.24823,-1.16869 0,-1.66513 -3.46493,-6.92988 0.11496,1.78008 -3.33026,-1.66513 -0.39247,-0.39248 0.39248,-1.27266 0,-1.66513 -0.39247,-0.39248 -1.27265,-0.39248 -1.66513,0 -0.39247,0.39247 0.24823,1.16868 0,1.66513 -0.35104,0.70208 -1.31409,0.96305 -1.66513,1.66513 -0.49644,0.99289 0.78495,2.54531 0,3.33026 -0.39247,0.39247 -1.27265,-0.39248 -1.66513,0 -0.34041,0.34041 0.33011,4.33518 0,4.99539 -0.81926,1.63853 -5.84125,5.02198 -6.66052,6.66052 -0.24822,0.49644 0.39248,1.27265 0,1.66513 -0.39247,0.39247 -1.27265,-0.39248 -1.66513,0 -0.39247,0.39247 0.24823,1.16868 0,1.66513 -0.35104,0.70208 -1.11008,1.11008 -1.66513,1.66513 -0.55504,0.55504 -0.96305,1.31409 -1.66513,1.66513 -0.49644,0.24822 -1.27265,-0.39248 -1.66513,0 -0.78495,0.78495 0.78495,2.54531 0,3.33026 -0.39247,0.39247 -1.11008,0 -1.66513,0 0,1.11008 0.49645,2.33737 0,3.33026 -0.24822,0.49644 -1.27265,-0.39248 -1.66513,0 -0.39247,0.39247 0.24823,1.16868 0,1.66513 -0.35104,0.70208 -1.11008,2.22017 -1.66513,1.66513 -0.55504,-0.55505 1.66513,-2.45008 1.66513,-1.66513 0,1.24111 -0.97668,2.29759 -1.66513,3.33026 0.16622,3.29872 -2.45266,0.78753 -3.33026,1.66513 -0.78495,0.78495 1.11009,3.33026 0,3.33026 -0.55504,0 0,-2.22018 0,-1.66513 0,1.11008 0,2.22017 0,3.33026 0,0.55504 -0.39247,1.27265 0,1.66513 1.91336,1.91335 2.94483,1.66513 4.99539,1.66513 0.55505,0 1.2211,-0.33303 1.66513,0 1.88388,1.41291 3.33026,3.33026 4.99539,4.99539 z"
           id="path3699"
           inkscape:connector-curvature="0" />
        <path
           style="fill:none;fill-rule:nonzero;stroke:#000000;stroke-width:1;stroke-linecap:butt;stroke-linejoin:miter;stroke-miterlimit:4;stroke-dasharray:none;stroke-opacity:1"
           d="m -88.16893,592.57816 c -1.66513,-2.22018 -3.33026,-4.44035 -4.99539,-6.66052 0,-0.55505 0.24822,-1.16869 0,-1.66513 -0.35104,-0.70208 -1.41691,-0.92046 -1.66513,-1.66513 -0.35104,-1.05312 0.26924,-2.25332 0,-3.33026 -0.30101,-1.20406 -1.27265,-2.15284 -1.66513,-3.33026 -0.17552,-0.52656 0.39248,-1.27266 0,-1.66513 -0.39247,-0.39248 -1.16868,0.24822 -1.66513,0 -6.92987,-3.46494 1.78009,0.11495 -1.66513,-3.33026 -0.39247,-0.39248 -1.27265,0.39247 -1.66513,0 -0.39247,-0.39248 0.24822,-1.16869 0,-1.66513 -0.68489,-1.36978 -5.83952,-5.42902 -6.66052,-6.66052 -0.61576,-0.92365 0.49645,-2.33737 0,-3.33026 -0.35104,-0.70208 -1.31409,-0.96305 -1.66513,-1.66513 -0.66605,-1.33211 0.66605,-3.66329 0,-4.99539 -3.46493,-6.92988 0.11495,1.78008 -3.33026,-1.66513 -0.39247,-0.39248 -0.55504,-1.66513 0,-1.66513 0.78495,0 1.66513,0.88018 1.66513,1.66513 0,2.22017 -3.8853,-2.77522 -1.66513,1.66513 0.35104,0.70208 1.31409,0.96305 1.66513,1.66513 0.66605,1.3321 -0.66605,3.66328 0,4.99539 0.35104,0.70208 1.31409,0.96305 1.66513,1.66513 0.24822,0.49644 -0.24822,1.16868 0,1.66513 0.35104,0.70208 1.31409,0.96305 1.66513,1.66513 0.49123,0.98246 -0.38178,3.85006 0,4.99539 0.78495,2.35485 2.54531,4.30567 3.33026,6.66052 0.17552,0.52656 0,1.11008 0,1.66513 0.55504,1.11008 1.27266,2.15283 1.66513,3.33026 0.17552,0.52656 -0.39247,1.27265 0,1.66513 0.39248,0.39247 1.27266,-0.39248 1.66513,0 0.39248,0.39247 -0.24822,1.16868 0,1.66513 0.35104,0.70208 1.31409,0.96305 1.66513,1.66513 0.49645,0.99289 -0.78495,2.54531 0,3.33026 0.78495,0.78495 2.54531,-0.78495 3.33026,0 0.78495,0.78495 -0.78495,2.54531 0,3.33026 0.39248,0.39247 1.27266,-0.39248 1.66513,0 0.39248,0.39247 -0.55504,1.66513 0,1.66513 2.2885,0 5.39109,-3.56928 6.66052,-1.66513 1.3769,2.06534 -2.72823,4.2524 -3.33026,6.66052 -0.13462,0.53847 1.27266,-0.39248 1.66513,0 0.39248,0.39247 0,1.11009 0,1.66513 0.55505,0 1.16869,-0.24822 1.66513,0 3.6817,1.84085 0.51673,1.03345 1.66513,3.33026 0.35104,0.70208 1.31409,0.96305 1.66513,1.66513 0.24823,0.49644 0,1.11009 0,1.66513 0,0.55504 0,1.11009 0,1.66513 0,2.77522 0,5.55043 0,8.32565 0,1.11009 0,2.22017 0,3.33026 0,0.55504 -0.24822,1.16868 0,1.66513 0.35104,0.70208 1.31409,0.96305 1.66513,1.66513 0.49645,0.99289 -0.78495,2.54531 0,3.33026 0.39248,0.39247 1.27266,-0.39248 1.66513,0 0.39248,0.39247 -0.24822,1.16868 0,1.66513 0.35104,0.70208 1.31409,0.96305 1.66513,1.66513 0.24823,0.49645 -0.39247,1.27265 0,1.66513 0.39248,0.39247 1.66513,-0.55504 1.66513,0 0,0.55504 -1.66513,0.55504 -1.66513,0 0,-0.78495 1.31409,-0.96305 1.66513,-1.66513 0.24823,-0.49645 0,-1.11009 0,-1.66513 0,-0.55504 0,-1.11009 0,-1.66513 0,-1.11009 0,-2.22017 0,-3.33026 0,-1.11009 -0.35104,-2.27714 0,-3.33026 0.24823,-0.74467 1.31409,-0.96305 1.66513,-1.66513 0.49645,-0.99289 -0.78495,-2.54531 0,-3.33026 2.22018,-2.22017 1.59779,3.53227 3.33026,-1.66513 0.35104,-1.05312 0,-2.22017 0,-3.33026 0,-0.55504 0.39248,-1.27266 0,-1.66513 -0.39247,-0.39248 -1.66513,-0.55504 -1.66513,0 0,0.78495 1.66513,2.45008 1.66513,1.66513 0,-1.24112 -1.36411,-2.1262 -1.66513,-3.33026 -0.26923,-1.07694 0,-2.22017 0,-3.33026"
           id="path3701"
           inkscape:connector-curvature="0" />
        <path
           style="fill:none;fill-rule:nonzero;stroke:#000000;stroke-width:1;stroke-linecap:butt;stroke-linejoin:miter;stroke-miterlimit:4;stroke-dasharray:none;stroke-opacity:1"
           d="m -86.5038,580.92225 c -7.35398,-9.19248 -6.66052,-4.77164 -6.66052,-11.65591 0,-0.55505 0.24822,-1.16869 0,-1.66513 -3.46493,-6.92988 0.11496,1.78008 -3.33026,-1.66513 -0.78495,-0.78495 0.49645,-2.33737 0,-3.33026 -0.35104,-0.70208 -1.31409,-0.96305 -1.66513,-1.66513 -0.24822,-0.49645 0.24822,-1.16869 0,-1.66513 -1.18154,-2.36308 -2.14872,-0.96719 -3.33026,-3.33026 -0.49644,-0.9929 0.49645,-2.33737 0,-3.33026 -0.35104,-0.70208 -1.31409,-0.96305 -1.66513,-1.66513 -0.24822,-0.49645 0.24822,-1.16869 0,-1.66513 -0.35104,-0.70208 -1.31409,-0.96305 -1.66513,-1.66513 -0.1866,-0.37321 0,-6.26484 0,-6.66052 0,-4.44035 0,-8.8807 0,-13.32104 0,-1.09417 0.31316,-4.05593 0,-4.99539 -0.39247,-1.17743 -1.27265,-2.15284 -1.66513,-3.33027 -0.31315,-0.93946 0,-3.90122 0,-4.99539 0,-3.8853 0,-7.7706 0,-11.65591 0,-0.87073 -0.21891,-6.22268 0,-6.66052 0.35104,-0.70208 1.31409,-0.96305 1.66513,-1.66513 1.05065,-2.1013 -2.42527,-4.76914 3.33026,-3.33026 1.20406,0.30102 2.45266,0.78753 3.33026,1.66513 0.39248,0.39248 0,1.11009 0,1.66513 0,0.55505 0,1.11009 0,1.66513 0,4.99539 0,9.99078 0,14.98617 0,0.55505 0,1.11009 0,1.66513 0,0.55505 -0.24822,1.16869 0,1.66513 0.35104,0.70209 1.31409,0.96305 1.66513,1.66513 0.24822,0.49645 -0.24822,1.16869 0,1.66513 0.35104,0.70209 1.31409,0.96305 1.66513,1.66513 0.24822,0.49645 -0.17552,1.13857 0,1.66514 0.39248,1.17742 1.11009,2.22017 1.66513,3.33026 0.55505,1.11008 0.97669,2.29759 1.66513,3.33026 0.43541,0.65311 1.31409,0.96304 1.66513,1.66513 0.49645,0.99289 -0.78495,2.54531 0,3.33026 3.44522,3.44521 -0.13467,-5.26475 3.33026,1.66513 0.49645,0.99289 -0.35104,2.27714 0,3.33026 0.39248,1.17742 1.27266,2.15283 1.66513,3.33026 0.17552,0.52656 -0.24822,1.16868 0,1.66513 0.35104,0.70208 1.31409,0.96305 1.66513,1.66513 0.49645,0.99289 -0.49644,2.33736 0,3.33026 0.21676,0.43351 2.96681,2.02858 1.66513,3.33026 -0.39247,0.39247 -1.11008,0 -1.66513,0 -0.55504,0 -1.11008,0 -1.66513,0 -0.55504,0 -1.66513,0.55504 -1.66513,0 0,-0.55505 1.66513,0.55504 1.66513,0 0,-0.78495 -1.31409,-0.96305 -1.66513,-1.66513 -0.24822,-0.49645 -0.55504,-1.66513 0,-1.66513 0.55505,0 0,2.22017 0,1.66513 0,-1.11009 0,-2.22018 0,-3.33026 0,-1.66513 -0.74467,-3.50606 0,-4.99539 0.24823,-0.49645 1.11009,0 1.66513,0 1.11009,0 2.22018,0 3.33026,0 0.55505,0 1.16869,-0.24823 1.66513,0 0.70208,0.35104 1.11009,1.11008 1.66513,1.66513"
           id="path3703"
           inkscape:connector-curvature="0" />
        <path
           style="fill:none;fill-rule:nonzero;stroke:#000000;stroke-width:1;stroke-linecap:butt;stroke-linejoin:miter;stroke-miterlimit:4;stroke-dasharray:none;stroke-opacity:1"
           d="m -56.53146,547.61965 c -1.7827,-4.7478 -1.66513,-7.1257 -1.66513,-11.65591 0,-0.55505 0,-1.11009 0,-1.66513 0,-0.55505 -0.24822,-1.16869 0,-1.66513 0.35104,-0.70208 1.31409,-0.96305 1.66513,-1.66513 0.24823,-0.49645 -0.24822,-1.16869 0,-1.66513 0.35104,-0.70209 1.31409,-0.96305 1.66513,-1.66513 0.52329,-1.04658 -0.52328,-5.61395 0,-6.66052 0.24823,-0.49645 1.27266,0.39247 1.66513,0 0.78495,-0.78495 -0.49644,-2.33737 0,-3.33027 0.35104,-0.70208 1.41691,-0.92046 1.66513,-1.66513 0.35104,-1.05312 0,-2.22017 0,-3.33026 0,-0.55504 -0.24822,-1.16868 0,-1.66513 0.35104,-0.70208 1.31409,-0.96304 1.66513,-1.66513 0.66606,-1.3321 -0.66605,-3.66328 0,-4.99539 0.35104,-0.70208 1.31409,-0.96305 1.66513,-1.66513 0.49123,-0.98246 -0.38177,-3.85006 0,-4.99539 4.02041,-12.06123 -0.48006,2.62526 3.33026,-4.99539 0.24823,-0.49644 0,-1.11008 0,-1.66513 0,-4.44034 0,-8.88069 0,-13.32104 0,-0.55504 0,-1.11008 0,-1.66513 0,-0.55504 0.49645,-1.4169 0,-1.66513 -0.99289,-0.49644 -2.27714,-0.35104 -3.33026,0 -0.20685,0.069 -4.85255,4.70972 -4.99539,4.99539 -0.30108,0.60217 0,7.16749 0,8.32565 0,9.43574 1.11009,0.55505 -1.66513,3.33026 -0.78495,0.78495 0.49645,2.33737 0,3.33026 -0.35104,0.70208 -1.31409,0.96305 -1.66513,1.66513 -0.49644,0.9929 0.78495,2.54531 0,3.33026 -0.39247,0.39248 -1.27265,-0.39247 -1.66513,0 -0.78495,0.78495 0.78495,2.54531 0,3.33026 -0.39247,0.39248 -1.27265,-0.39247 -1.66513,0 -0.39247,0.39248 0.24823,1.16869 0,1.66513 -0.99907,1.99816 -3.99631,2.99724 -4.99539,4.99539 -0.24822,0.49645 0.39248,1.27266 0,1.66513 -0.78495,0.78495 -2.54531,-0.78495 -3.33026,0 -0.39247,0.39248 0.39248,1.27266 0,1.66513 -0.39247,0.39248 -1.27265,-0.39247 -1.66513,0 -0.39247,0.39248 0.24823,1.16869 0,1.66513 -0.35104,0.70209 -1.31409,0.96305 -1.66513,1.66513 -0.49644,0.9929 0.78495,2.54532 0,3.33026 -0.39247,0.39248 -1.27265,-0.39247 -1.66513,0 -0.17153,0.17154 0.13837,7.91055 0,8.32566 -0.24822,0.74466 -1.31409,0.96304 -1.66513,1.66513 -0.15276,0.30552 0.12221,4.99539 0,4.99539 -0.55504,0 0,-2.22018 0,-1.66513 0,1.70001 0.26966,10.84694 0,11.65591 -0.24822,0.74466 -1.31409,0.96305 -1.66513,1.66513 -0.24822,0.49644 0.55505,1.66513 0,1.66513 -0.55504,0 0,-1.11009 0,-1.66513"
           id="path3705"
           inkscape:connector-curvature="0" />
        <path
           style="fill:none;fill-rule:nonzero;stroke:#000000;stroke-width:1;stroke-linecap:butt;stroke-linejoin:miter;stroke-miterlimit:4;stroke-dasharray:none;stroke-opacity:1"
           d="m -78.17815,535.96374 c 0,-2.22018 0,-4.44035 0,-6.66052 -0.55504,-0.55505 -1.4169,-0.92047 -1.66513,-1.66513 -1.66513,-4.99539 0.83257,-1.66513 0,-4.99539 -0.4257,-1.7028 -1.01326,-3.36573 -1.66513,-4.9954 -0.46094,-1.15234 -1.27265,-2.15283 -1.66513,-3.33026 -0.46519,-1.39558 0.55176,-5.55699 0,-6.66052 -0.35104,-0.70208 -1.31409,-0.96305 -1.66513,-1.66513 -0.24822,-0.49644 0,-1.11008 0,-1.66513 -0.55504,-1.11008 -0.92046,-2.33736 -1.66513,-3.33026 -0.94194,-1.25592 -2.45943,-2.02402 -3.33026,-3.33026 -0.30788,-0.46182 0.24823,-1.16868 0,-1.66513 -0.35104,-0.70208 -1.31409,-0.96305 -1.66513,-1.66513 -0.24822,-0.49644 0.24823,-1.16868 0,-1.66513 -0.35104,-0.70208 -1.31409,-0.96305 -1.66513,-1.66513 -0.24822,-0.49644 0.24822,-1.16868 0,-1.66513 -0.35104,-0.70208 -1.31409,-0.96305 -1.66513,-1.66513 -0.49644,-0.99289 0.49645,-2.33736 0,-3.33026 -0.35104,-0.70208 -1.31409,-0.96305 -1.66513,-1.66513 -0.49644,-0.99289 0.26924,-2.25331 0,-3.33026 -0.4257,-1.70279 -1.23943,-3.29259 -1.66513,-4.99539 -0.13462,-0.53847 0.24822,-1.16868 0,-1.66513 -5.52254,-5.52254 0.78495,1.5699 -1.66513,-3.33026 -0.35104,-0.70208 -1.41691,-0.92046 -1.66513,-1.66513 -0.35104,-1.05312 0,-2.22017 0,-3.33026 0,-1.93433 0.37738,-6.81613 0,-8.32565 -0.30101,-1.20406 -1.27265,-2.15283 -1.66513,-3.33026 -0.17552,-0.52656 0.17552,-1.13857 0,-1.66513 -0.39247,-1.17742 -1.27265,-2.15283 -1.66513,-3.33026 -0.17552,-0.52656 0.24822,-1.16868 0,-1.66513 -0.35104,-0.70208 -1.31409,-0.96305 -1.66513,-1.66513 -0.24822,-0.49644 0.39248,-1.27265 0,-1.66513 -0.39247,-0.39247 -1.66513,0.55505 -1.66513,0 0,-0.55504 1.66513,-0.55504 1.66513,0 0,0.78495 -1.31409,0.96305 -1.66513,1.66513 -0.24822,0.49645 0,1.11009 0,1.66513 0,1.11009 0,2.22018 0,3.33026 0,3.88531 0,7.77061 0,11.65591 0,6.10548 0,12.21096 0,18.31643 0,1.15817 -0.30108,7.72349 0,8.32565 0.35104,0.70208 1.11009,1.11009 1.66513,1.66513 0.55504,0.55505 1.11009,1.11009 1.66513,1.66513"
           id="path3707"
           inkscape:connector-curvature="0" />
        <path
           style="fill:none;fill-rule:nonzero;stroke:#000000;stroke-width:1;stroke-linecap:butt;stroke-linejoin:miter;stroke-miterlimit:4;stroke-dasharray:none;stroke-opacity:1"
           d="m -83.17354,497.66574 c 2.46632,-4.11053 5.83327,-8.35751 6.66052,-13.32104 1.15607,-6.9364 -1.7224,-3.27299 1.66513,-6.66052 0.55505,-0.55504 1.41691,-0.92046 1.66513,-1.66513 0.70208,-2.10624 -0.53847,-4.50663 0,-6.66052 2.01021,-8.04082 0.79131,0.0825 3.33026,-4.99539 0.53979,-1.07958 -0.52291,-8.42203 0,-9.99078 0.39248,-1.17742 1.36412,-2.1262 1.66513,-3.33026 0.0139,-0.0557 -0.009,-4.98654 0,-4.99539 0.39248,-0.39247 1.27266,0.39248 1.66513,0 0.78495,-0.78495 -0.49644,-2.33737 0,-3.33026 3.81033,-7.62064 -0.69015,7.06584 3.33026,-4.99539 0.17552,-0.52656 -0.39247,-1.27265 0,-1.66513 0.39248,-0.39247 1.27266,0.39248 1.66513,0 0.39248,-0.39247 -0.39247,-1.27265 0,-1.66513 3.44522,-3.44521 -0.13467,5.26474 3.33026,-1.66513 0.24823,-0.49644 -0.39247,-1.27265 0,-1.66513 0.39248,-0.39247 1.16869,0.24822 1.66513,0 0.70208,-0.35104 0.96305,-1.31409 1.66513,-1.66513 0.49645,-0.24822 1.27266,0.39248 1.66513,0 0.39248,-0.39247 -0.24822,-1.16868 0,-1.66513 0.35104,-0.70208 1.11009,-1.11009 1.66513,-1.66513 0.55505,-0.55504 1.11009,-1.11009 1.66513,-1.66513 0.55505,-0.55504 1.31409,-0.96305 1.66513,-1.66513 0.24823,-0.49645 -0.39247,-1.27265 0,-1.66513 2.22018,-2.22017 1.66513,2.77522 1.66513,-1.66513 0,-0.55504 -0.39247,-1.27265 0,-1.66513 0.39248,-0.39247 1.66513,-0.55504 1.66513,0 0,0.55504 -1.66513,-0.55504 -1.66513,0 0,0.78495 1.41691,0.92046 1.66513,1.66513 0.52656,1.57968 0,3.33026 0,4.99539 0,4.44035 0,8.88069 0,13.32104 0,4.99539 0,9.99078 0,14.98617 0,1.34049 0.34838,5.6154 0,6.66052 -0.39247,1.17743 -1.27265,2.15284 -1.66513,3.33026 -0.35104,1.05312 0.49645,2.33737 0,3.33026 -0.70208,1.40416 -2.83381,1.84093 -3.33026,3.33026 -0.35104,1.05312 0.49645,2.33737 0,3.33026 -0.24822,0.49645 -1.27265,-0.39247 -1.66513,0 -0.59814,0.59814 0.53863,5.58327 0,6.66052 -0.24822,0.49645 -1.27265,-0.39247 -1.66513,0 -0.39247,0.39248 0.17552,1.13857 0,1.66513 -0.39247,1.17743 -1.27265,2.15284 -1.66513,3.33026 -0.17552,0.52656 0.24823,1.16869 0,1.66513 -0.35104,0.70208 -1.31409,0.96305 -1.66513,1.66513 -0.24822,0.49645 0.39248,1.27266 0,1.66513 -0.39247,0.39248 -1.27265,-0.39247 -1.66513,0 -0.39247,0.39248 0.24823,1.16869 0,1.66513 -0.35104,0.70208 -1.31409,0.96305 -1.66513,1.66513 -0.24822,0.49645 0.24823,1.16869 0,1.66513 -0.70208,1.40416 -2.62818,1.9261 -3.33026,3.33026 -0.24822,0.49645 0.39248,1.27266 0,1.66513 -0.39247,0.39248 -1.27265,-0.39247 -1.66513,0 -0.39247,0.39248 0.24823,1.16869 0,1.66513 -5.52254,5.52255 0.78495,-1.5699 -1.66513,3.33026 -0.35104,0.70208 -1.4169,0.92047 -1.66513,1.66513 -0.35104,1.05313 0.35104,2.27714 0,3.33026 -0.24822,0.74467 -1.31409,0.96305 -1.66513,1.66513 -0.49644,0.9929 0.49645,2.33737 0,3.33026 -0.35104,0.70209 -1.31409,0.96305 -1.66513,1.66513 -0.26531,0.53064 0,6.83749 0,8.32566"
           id="path3709"
           inkscape:connector-curvature="0" />
        <path
           style="fill:none;fill-rule:nonzero;stroke:#000000;stroke-width:1;stroke-linecap:butt;stroke-linejoin:miter;stroke-miterlimit:4;stroke-dasharray:none;stroke-opacity:1"
           d="m -84.83867,486.00983 c -0.0246,-0.0615 -2.16138,-8.57377 -4.99539,-9.99078 -0.49644,-0.24822 -1.4169,0.49645 -1.66513,0 -0.49644,-0.99289 0,-2.22017 0,-3.33026 0,-1.11008 0,-2.22017 0,-3.33026 0,-0.9294 -0.25408,-7.56341 0,-8.32565 0.24823,-0.74467 1.11009,-1.11008 1.66513,-1.66513 0.55505,-1.11008 1.36412,-2.1262 1.66513,-3.33026 0.43123,-1.72489 0,-4.75118 0,-6.66052 0,-4.44034 0,-8.88069 0,-13.32104 0,-4.44035 0,-8.88069 0,-13.32104 0,-1.66513 0.52656,-3.41571 0,-4.99539 -0.49644,-1.48934 -2.62818,-1.9261 -3.33026,-3.33026 -0.24822,-0.49645 0.24823,-1.16868 0,-1.66513 -3.81032,-7.62065 0.69015,7.06584 -3.33026,-4.99539 -0.17552,-0.52656 0.24822,-1.16868 0,-1.66513 -0.35104,-0.70208 -1.31409,-0.96305 -1.66513,-1.66513 -0.49644,-0.99289 0.49645,-2.33737 0,-3.33026 -0.35104,-0.70208 -1.41691,-0.92046 -1.66513,-1.66513 -0.25387,-0.76161 0.37047,-5.91958 0,-6.66052 -0.70208,-1.40416 -2.62818,-1.9261 -3.33026,-3.33026 -0.24822,-0.49645 0.39248,-1.27266 0,-1.66513 -0.39247,-0.39248 -1.27265,0.39247 -1.66513,0 -0.99513,-0.99513 1.79981,-3.33026 -1.66513,-3.33026 -0.55504,0 0,1.11009 0,1.66513 0,0.55504 0,1.11009 0,1.66513 0,2.22017 0,4.44035 0,6.66052 0,6.10548 0,12.21095 0,18.31643 0,9.43574 0,18.87147 0,28.30721 0,2.22018 0,4.44035 0,6.66052 0,1.11009 0,2.22018 0,3.33026 0,0.55505 -0.24822,1.16869 0,1.66513 0.35104,0.70208 1.41691,0.92046 1.66513,1.66513 0.70208,2.10624 -0.70208,4.55428 0,6.66052 1.73247,5.19741 1.11009,-0.55504 3.33026,1.66513 0.39248,0.39248 -0.24822,1.16869 0,1.66513 0.35104,0.70208 1.11009,1.11009 1.66513,1.66513 0.55505,0.55505 1.11009,1.11009 1.66513,1.66513 2.22018,2.22018 4.44035,4.44035 6.66052,6.66052 0.55505,0.55505 1.31409,0.96305 1.66513,1.66513 0.49645,0.99289 -0.41227,2.29957 0,3.33026 5.51515,13.78786 1.79542,-1.0137 4.99539,14.98617"
           id="path3711"
           inkscape:connector-curvature="0" />
        <path
           style="fill:none;fill-rule:nonzero;stroke:#000000;stroke-width:1;stroke-linecap:butt;stroke-linejoin:miter;stroke-miterlimit:4;stroke-dasharray:none;stroke-opacity:1"
           d="m -71.51763,446.04671 c 0.55505,-2.22017 0.48771,-4.69814 1.66513,-6.66052 0.63855,-1.06425 2.45266,-0.78753 3.33026,-1.66513 0.39248,-0.39247 -0.39247,-1.27265 0,-1.66513 0.39248,-0.39247 1.16869,0.24822 1.66513,0 2.55028,-1.27514 1.30216,-2.96729 3.33026,-4.99539 0.39248,-0.39247 1.27266,0.39248 1.66513,0 0.39248,-0.39247 -0.39247,-1.27265 0,-1.66513 0.39248,-0.39247 1.27266,0.39248 1.66513,0 0.39248,-0.39247 -0.24822,-1.16868 0,-1.66513 0.70208,-1.40416 2.62818,-1.9261 3.33026,-3.33026 0.49645,-0.99289 -0.49644,-2.33737 0,-3.33026 0.70208,-1.40416 2.62818,-1.9261 3.33026,-3.33026 0.24823,-0.49645 -0.39247,-1.27265 0,-1.66513 0.39248,-0.39247 1.27266,0.39248 1.66513,0 0.39248,-0.39247 -0.39247,-1.27265 0,-1.66513 0.8776,-0.8776 2.45266,-0.78753 3.33026,-1.66513 0.39248,-0.39247 0,-1.11009 0,-1.66513 0,-0.55504 0,-1.11009 0,-1.66513 0,-2.22017 0,-4.44035 0,-6.66052 0,-1.11009 0,-2.22017 0,-3.33026 0,-0.55504 -0.24822,-1.16868 0,-1.66513 0.35104,-0.70208 1.31409,-0.96305 1.66513,-1.66513 0.24823,-0.49645 0,-1.11009 0,-1.66513 0,-1.11009 0,-2.22017 0,-3.33026 0,-2.77522 0,-5.55043 0,-8.32565 0,-5.55043 0,-11.10087 0,-16.6513 0,-0.99514 0.39248,-3.33026 -1.66513,-3.33026 -0.78495,0 -0.96305,1.31409 -1.66513,1.66513 -0.49644,0.24822 -1.27265,-0.39248 -1.66513,0 -0.39247,0.39247 0.24823,1.16868 0,1.66513 -0.35104,0.70208 -1.31409,0.96305 -1.66513,1.66513 -2.45008,4.90016 3.85741,-2.19228 -1.66513,3.33026 -0.87663,0.87663 -4.55073,4.10607 -4.99539,4.99539 -0.24822,0.49644 0.24823,1.16868 0,1.66513 -0.35104,0.70208 -1.11008,1.11009 -1.66513,1.66513 -1.69264,1.69264 -2.6582,2.30716 -3.33026,4.99539 -0.26923,1.07694 0.49645,2.33737 0,3.33026 -0.24822,0.49645 -1.4169,-0.49645 -1.66513,0 -0.49644,0.99289 0.49645,2.33737 0,3.33026 -0.24822,0.49645 -1.27265,-0.39248 -1.66513,0 -0.5111,0.5111 0.30899,5.42456 0,6.66052 -0.30101,1.20406 -1.27265,2.15284 -1.66513,3.33026 -0.3034,0.91022 0,10.3543 0,11.65591 0,4.99539 0,9.99078 0,14.98617 0,0.55504 0,1.11009 0,1.66513 0,0.55504 0.39248,1.27266 0,1.66513 -0.39247,0.39248 -1.27265,-0.39247 -1.66513,0 -0.78495,0.78495 0.35104,2.27714 0,3.33026 -0.39247,1.17743 -1.11008,2.22017 -1.66513,3.33026"
           id="path3713"
           inkscape:connector-curvature="0" />
        <path
           style="fill:none;fill-rule:nonzero;stroke:#000000;stroke-width:1;stroke-linecap:butt;stroke-linejoin:miter;stroke-miterlimit:4;stroke-dasharray:none;stroke-opacity:1"
           d="m -88.16893,414.40924 c -0.32364,-0.43152 -6.20859,-8.93225 -8.32565,-9.99078 -0.99289,-0.49645 -2.54531,0.78495 -3.33026,0 -0.78495,-0.78495 0.26924,-2.25332 0,-3.33026 -0.30101,-1.20406 -1.27265,-2.15284 -1.66513,-3.33026 -0.35104,-1.05312 0.49645,-2.33737 0,-3.33026 -0.35104,-0.70208 -1.31409,-0.96305 -1.66513,-1.66513 -0.24822,-0.49645 0.24822,-1.16868 0,-1.66513 -0.35104,-0.70208 -1.31409,-0.96305 -1.66513,-1.66513 -0.49644,-0.99289 0.49645,-2.33737 0,-3.33026 -3.81032,-7.62065 0.69015,7.06584 -3.33026,-4.99539 -0.35104,-1.05312 0.78495,-2.54531 0,-3.33026 -0.39247,-0.39248 -1.27265,0.39247 -1.66513,0 -0.78495,-0.78495 0.35104,-2.27714 0,-3.33026 -0.39247,-1.17743 -1.27265,-2.15284 -1.66513,-3.33026 -0.33299,-0.99899 0,-6.99695 0,-8.32565 0,-7.77061 0,-15.54122 0,-23.31182 0,-1.71543 -0.24573,-11.16444 0,-11.65591 0.35104,-0.70208 1.11009,-1.11009 1.66513,-1.66513 0.55504,-0.55505 0.92046,-1.41691 1.66513,-1.66513 2.04235,-0.68079 4.01104,-0.30357 4.99539,1.66513 0.30109,0.60216 0,7.16748 0,8.32565 0,0.55504 -0.39247,1.27265 0,1.66513 4.44035,4.44034 -0.55504,-4.99539 1.66513,1.66513 0.39248,1.17742 1.27266,2.15283 1.66513,3.33026 0.17552,0.52656 -0.24822,1.16868 0,1.66513 0.35104,0.70208 1.31409,0.96305 1.66513,1.66513 0.49645,0.99289 -0.35104,2.27714 0,3.33026 0.39248,1.17742 1.27266,2.15283 1.66513,3.33026 0.35104,1.05312 -0.49644,2.33737 0,3.33026 3.81033,7.62064 -0.69015,-7.06584 3.33026,4.99539 0.35104,1.05312 -0.49644,2.33737 0,3.33026 0.35104,0.70208 1.31409,0.96305 1.66513,1.66513 0.24823,0.49644 -0.17552,1.13857 0,1.66513 0.39248,1.17742 1.36412,2.1262 1.66513,3.33026 0.36725,1.46901 -0.47548,5.23407 0,6.66052 0.39248,1.17742 1.27266,2.15283 1.66513,3.33026 0.35104,1.05312 -0.49644,2.33737 0,3.33026 0.35104,0.70208 1.11009,1.11009 1.66513,1.66513 0,1.11009 -0.49644,2.33737 0,3.33026 0.24823,0.49645 1.27266,-0.39248 1.66513,0 0.39248,0.39247 -0.24822,1.16868 0,1.66513 0.89303,1.78605 2.43724,1.54421 3.33026,3.33026 0.24823,0.49645 -0.39247,1.27265 0,1.66513 0.39248,0.39247 1.27266,-0.39248 1.66513,0 0.39248,0.39247 0,1.11009 0,1.66513 0,0.55504 0,1.11009 0,1.66513 0,5.55043 0,11.10087 0,16.6513"
           id="path3715"
           inkscape:connector-curvature="0" />
        <path
           style="fill:none;fill-rule:nonzero;stroke:#000000;stroke-width:1;stroke-linecap:butt;stroke-linejoin:miter;stroke-miterlimit:4;stroke-dasharray:none;stroke-opacity:1"
           d="m -79.84328,382.77177 c 0,-2.22017 -0.43541,-4.48346 0,-6.66052 0.15394,-0.76971 1.31409,-0.96305 1.66513,-1.66513 0.49645,-0.99289 -0.78495,-2.54531 0,-3.33026 0.39248,-0.39248 1.27266,0.39247 1.66513,0 0.35601,-0.356 -0.30601,-5.74249 0,-6.66052 0.39248,-1.17743 1.11009,-2.22018 1.66513,-3.33026 0,-1.66513 -0.40385,-3.37998 0,-4.99539 0.19038,-0.76152 1.31409,-0.96305 1.66513,-1.66513 0.52524,-1.05048 -0.52524,-7.27517 0,-8.32565 0.35104,-0.70208 1.31409,-0.96305 1.66513,-1.66513 0.24823,-0.49645 -0.39247,-1.27266 0,-1.66513 0.39248,-0.39248 1.27266,0.39247 1.66513,0 0.78495,-0.78495 -0.49644,-2.33737 0,-3.33026 0.70208,-1.40416 2.62818,-1.9261 3.33026,-3.33026 0.24823,-0.49645 -0.17552,-1.13857 0,-1.66513 4.02041,-12.06123 -0.48006,2.62525 3.33026,-4.99539 0.66606,-1.33211 -0.66605,-3.66329 0,-4.99539 0.35104,-0.70208 1.31409,-0.96305 1.66513,-1.66513 0.74467,-1.48934 -0.74467,-3.50606 0,-4.99539 0.24823,-0.49645 1.27266,0.39247 1.66513,0 0.39248,-0.39248 -0.39247,-1.27266 0,-1.66513 0.39248,-0.39248 1.27266,0.39247 1.66513,0 0.8776,-0.8776 1.36412,-2.12621 1.66513,-3.33026 0.26924,-1.07695 -0.35104,-2.27714 0,-3.33026 0.49645,-1.48934 2.62818,-1.9261 3.33026,-3.33026 0.24823,-0.49645 -0.24822,-1.16869 0,-1.66513 0.70208,-1.40417 2.45944,-2.02403 3.33026,-3.33026 0.68845,-1.03267 0.78753,-2.45266 1.66513,-3.33026 0.39248,-0.39248 1.11009,0 1.66513,0 0.55505,0 1.27266,-0.39248 1.66513,0 0.39248,0.39247 0,1.11008 0,1.66513 0,0.55504 0,1.11008 0,1.66513 0,3.8853 0,7.7706 0,11.65591 0,1.66513 0.74467,3.50605 0,4.99539 -0.24822,0.49644 -1.27265,-0.39248 -1.66513,0 -0.45561,0.45561 0.45166,5.7572 0,6.66052 -0.35104,0.70208 -1.31409,0.96305 -1.66513,1.66513 -0.24822,0.49644 0,1.11008 0,1.66513 0,0.55504 0,1.11008 0,1.66513 0,3.33026 0,6.66052 0,9.99078 0,1.66513 0,3.33026 0,4.99539 0,0.55504 0.39248,1.27265 0,1.66513 -0.39247,0.39247 -1.16868,-0.24823 -1.66513,0 -1.52413,0.76206 -2.92464,3.77853 -3.33026,4.99539 -0.83256,2.49769 1.66513,1.66513 0,4.99539 -1.7226,0 -2.30145,-0.39248 -3.33026,1.66513 -0.24822,0.49644 0.24823,1.16868 0,1.66513 -0.35104,0.70208 -1.31409,0.96305 -1.66513,1.66513 -0.24822,0.49644 0.24823,1.16868 0,1.66513 -0.35104,0.70208 -1.31409,0.96305 -1.66513,1.66513 -0.24822,0.49644 0.24823,1.16868 0,1.66513 -0.35104,0.70208 -1.31409,0.96305 -1.66513,1.66513 -0.5157,1.0314 0.49269,6.16784 0,6.66052 -0.39247,0.39247 -1.4169,-0.49645 -1.66513,0 -0.49644,0.99289 0.35104,2.27714 0,3.33026 -1.73246,5.1974 -1.11008,-0.55504 -3.33026,1.66513 -0.8776,0.8776 -1.27265,2.15283 -1.66513,3.33026 -0.17552,0.52656 0.39248,1.27265 0,1.66513 -0.39247,0.39247 -1.27265,-0.39248 -1.66513,0 -0.39247,0.39247 0.39248,1.27265 0,1.66513 -0.39247,0.39247 -1.27265,-0.39248 -1.66513,0 -0.39247,0.39247 0,1.11009 0,1.66513 0,1.11009 0,2.22017 0,3.33026"
           id="path3717"
           inkscape:connector-curvature="0" />
        <path
           style="fill:none;fill-rule:nonzero;stroke:#000000;stroke-width:1;stroke-linecap:butt;stroke-linejoin:miter;stroke-miterlimit:4;stroke-dasharray:none;stroke-opacity:1"
           d="m -84.83867,342.80865 c -6.67307,0.81308 -2.21652,-7.76332 -3.33026,-9.99078 -0.35104,-0.70208 -1.47475,-0.90362 -1.66513,-1.66513 -0.40385,-1.61542 0.32656,-3.3626 0,-4.99539 -0.2434,-1.21702 -1.36411,-2.12621 -1.66513,-3.33026 -0.39179,-1.56718 0.3918,-3.42821 0,-4.99539 -0.4257,-1.7028 -1.23943,-3.2926 -1.66513,-4.99539 -0.13462,-0.53847 0.17552,-1.13857 0,-1.66513 -0.39247,-1.17743 -1.27265,-2.15284 -1.66513,-3.33026 -0.17552,-0.52656 0.13462,-1.12666 0,-1.66513 -0.4257,-1.7028 -1.23943,-3.2926 -1.66513,-4.99539 -0.26923,-1.07695 0.49645,-2.33737 0,-3.33026 -0.35104,-0.70208 -1.19416,-1.03717 -1.66513,-1.66513 -1.20074,-1.60099 -2.43528,-3.20543 -3.33026,-4.99539 -0.24822,-0.49645 0.39248,-1.27266 0,-1.66513 -0.39247,-0.39248 -1.27265,0.39247 -1.66513,0 -0.39247,-0.39248 0.24822,-1.16869 0,-1.66513 -3.46493,-6.92988 0.11495,1.78008 -3.33026,-1.66513 -0.39247,-0.39248 0.39248,-1.27266 0,-1.66514 -2.22017,-2.22017 -1.66513,2.77522 -1.66513,-1.66513 0,-9.43573 1.11009,-0.55504 -1.66513,-3.33026 -0.39247,-0.39247 0,-1.11008 0,-1.66513 0,-0.55504 0,-1.11008 0,-1.66513 0,-1.11008 0,-2.22017 0,-3.33026 0,-0.55504 -0.55504,-1.66513 0,-1.66513 0.55504,0 0,1.11009 0,1.66513 0,3.33026 0,6.66052 0,9.99078 0,5.55044 0,11.10087 0,16.65131 0,0.95944 -0.30345,7.71875 0,8.32565 0.35104,0.70208 1.31409,0.96305 1.66513,1.66513 0.21526,0.43052 0,8.81053 0,9.99078 0,0.55504 -0.24822,1.16868 0,1.66513 0.70208,1.40416 2.83382,1.84092 3.33026,3.33026 0,7.58014 -0.78495,0.0952 1.66513,4.99539 0.25338,0.50675 0,4.24548 0,4.99539 0,1.66513 -0.74467,3.50605 0,4.99539 0.24822,0.49644 1.41691,-0.49645 1.66513,0 0.49645,0.99289 -0.49644,2.33737 0,3.33026 0.24822,0.49644 1.27266,-0.39248 1.66513,0 0.39248,0.39247 -0.24822,1.16868 0,1.66513 0.70208,1.40416 2.62818,1.9261 3.33026,3.33026 0.24822,0.49644 -0.24822,1.16868 0,1.66513 0.35104,0.70208 1.31409,0.96305 1.66513,1.66513 0.24822,0.49644 -0.24822,1.16868 0,1.66513 0.35104,0.70208 1.11009,1.11008 1.66513,1.66513 1.11009,1.11008 2.45944,2.02402 3.33026,3.33026 0.30788,0.46182 -0.39247,1.27265 0,1.66513 0.39248,0.39247 1.27266,-0.39248 1.66513,0 0.25841,0.2584 -0.21598,4.34745 0,4.99539 0.55505,1.11009 1.11009,2.22017 1.66513,3.33026 0.55505,0 1.27266,-0.39248 1.66513,0 0.78495,0.78495 -0.49644,2.33737 0,3.33026 0.35104,0.70208 1.31409,0.96305 1.66513,1.66513 0.33011,0.66021 -0.34041,4.65498 0,4.99539 2.22018,2.22017 1.66513,-2.77522 1.66513,1.66513"
           id="path3719"
           inkscape:connector-curvature="0" />
        <path
           style="fill:none;fill-rule:nonzero;stroke:#000000;stroke-width:1;stroke-linecap:butt;stroke-linejoin:miter;stroke-miterlimit:4;stroke-dasharray:none;stroke-opacity:1"
           d="m -69.8525,329.48761 c 0,-4.99539 0,-9.99078 0,-14.98617 0,-0.55505 -0.39247,-1.27266 0,-1.66513 0.39248,-0.39248 1.27266,0.39247 1.66513,0 0.78495,-0.78495 -0.49644,-2.33737 0,-3.33026 0.35104,-0.70208 1.31409,-0.96305 1.66513,-1.66513 0.24823,-0.49645 -0.24822,-1.16869 0,-1.66513 0.35104,-0.70208 1.31409,-0.96305 1.66513,-1.66513 0.24823,-0.49645 -0.39247,-1.27266 0,-1.66513 0.39248,-0.39248 1.27266,0.39247 1.66513,0 0.78495,-0.78495 -0.49644,-2.33737 0,-3.33026 3.46494,-6.92988 -0.11495,1.78008 3.33026,-1.66513 0.39248,-0.39248 -0.39247,-1.27266 0,-1.66513 0.39248,-0.39248 1.27266,0.39247 1.66513,0 0.34042,-0.34042 -0.3301,-4.33518 0,-4.99539 0.70208,-1.40417 2.62818,-1.9261 3.33026,-3.33026 0.24823,-0.49645 -0.17552,-1.13857 0,-1.66513 0.39248,-1.17743 1.27266,-2.15284 1.66513,-3.33027 0.34935,-1.04803 0,-6.82476 0,-8.32565 0,-5.55043 0,-11.10086 0,-16.6513 0,-2.22017 0,-4.44034 0,-6.66052 0,-0.55504 -0.55504,-1.66513 0,-1.66513 0.55505,0 0,2.22018 0,1.66513 0,-1.66513 0.52656,-3.41571 0,-4.99539 -0.008,-0.0229 -4.83498,-0.1604 -4.99539,0 -0.78495,0.78495 0.78495,2.54531 0,3.33026 -0.39247,0.39248 -1.4169,-0.49644 -1.66513,0 -0.49644,0.9929 0.35104,2.27714 0,3.33026 -0.24822,0.74467 -1.31409,0.96305 -1.66513,1.66513 -0.24822,0.49645 0.24823,1.16869 0,1.66513 -0.35104,0.70208 -1.4169,0.92047 -1.66513,1.66513 -0.35104,1.05312 0.26924,2.25332 0,3.33026 -0.30101,1.20406 -1.27265,2.15284 -1.66513,3.33026 -0.17552,0.52656 0.24823,1.16869 0,1.66513 -0.35104,0.70208 -1.31409,0.96305 -1.66513,1.66513 -0.24822,0.49645 0.24823,1.16869 0,1.66513 -0.35104,0.70208 -1.31409,0.96305 -1.66513,1.66513 -0.49644,0.9929 0.49645,2.33737 0,3.33026 -0.35104,0.70209 -1.31409,0.96305 -1.66513,1.66513 -0.24822,0.49645 0.24823,1.16869 0,1.66513 -0.35104,0.70209 -1.4169,0.92047 -1.66513,1.66513 -0.35104,1.05313 0.35104,2.27714 0,3.33026 -0.24822,0.74467 -1.31409,0.96305 -1.66513,1.66513 -0.24822,0.49645 0.24823,1.16869 0,1.66514 -0.35104,0.70208 -1.4169,0.92046 -1.66513,1.66513 -0.35104,1.05312 0.26924,2.25331 0,3.33026 -0.30101,1.20405 -1.36411,2.1262 -1.66513,3.33026 -0.26923,1.07694 0,2.22017 0,3.33026 0,0.55504 0.24823,1.16868 0,1.66513 -0.35104,0.70208 -1.31409,0.96305 -1.66513,1.66513 -0.24822,0.49644 0.17552,1.13857 0,1.66513 -0.39247,1.17742 -1.27265,2.15283 -1.66513,3.33026 -0.30601,0.91803 0.35601,6.30451 0,6.66052 -0.39247,0.39247 -1.27265,-0.39248 -1.66513,0 -0.39247,0.39247 0.24823,1.16868 0,1.66513 -0.35104,0.70208 -1.31409,0.96305 -1.66513,1.66513 -0.21526,0.43052 0,8.81053 0,9.99078"
           id="path3721"
           inkscape:connector-curvature="0" />
        <path
           style="fill:none;fill-rule:nonzero;stroke:#000000;stroke-width:1;stroke-linecap:butt;stroke-linejoin:miter;stroke-miterlimit:4;stroke-dasharray:none;stroke-opacity:1"
           d="m -86.5038,287.85936 c 0,-2.22018 0,-4.44035 0,-6.66053 0,-3.33026 0,-6.66052 0,-9.99078 0,-0.55504 0,-1.11008 0,-1.66513 0,-0.55504 0.24823,-1.16868 0,-1.66513 -0.35104,-0.70208 -1.31409,-0.96305 -1.66513,-1.66513 -2.45008,-4.90016 3.85741,2.19229 -1.66513,-3.33026 -0.55504,-0.55504 -1.31409,-0.96305 -1.66513,-1.66513 -0.88276,-1.76551 0.88276,-1.56474 0,-3.33026 -0.35104,-0.70208 -1.31409,-0.96305 -1.66513,-1.66513 -0.24822,-0.49644 0.24822,-1.16868 0,-1.66513 -1.27514,-2.55027 -2.96729,-1.30216 -4.99539,-3.33026 -0.78495,-0.78495 0.49645,-2.33736 0,-3.33026 -0.35104,-0.70208 -1.22972,-1.01201 -1.66513,-1.66513 -3.66855,-0.83854 -0.88018,-3.42549 -1.66513,-4.99539 -0.35104,-0.70208 -1.22972,-1.01201 -1.66513,-1.66513 -0.68844,-1.03267 -0.92046,-2.33737 -1.66513,-3.33026 -0.94194,-1.25592 -2.62818,-1.9261 -3.33026,-3.33026 -0.49644,-0.99289 0.49645,-2.33737 0,-3.33026 -0.24822,-0.49644 -1.27265,0.39248 -1.66513,0 -0.83256,-0.83256 0.83257,-4.16282 0,-4.99539 -0.39247,-0.39247 -1.27265,0.39248 -1.66513,0 -0.78495,-0.78495 0.78495,-2.54531 0,-3.33026 -0.39247,-0.39247 -1.27265,-0.39247 -1.66513,0 -0.39247,0.39248 0,1.11009 0,1.66513 0,1.11009 0,2.22018 0,3.33026 0,6.66052 0,13.32104 0,19.98156 0,1.66513 0,3.33026 0,4.99539 0,0.55505 -0.39247,1.27266 0,1.66513 0.39248,0.39248 1.41691,-0.49644 1.66513,0 1.11009,2.22018 -1.11009,6.10548 0,8.32565 0.24822,0.49645 1.27266,-0.39247 1.66513,0 0.48116,0.48116 -0.51119,5.89374 0,6.66052 0.87082,1.30624 2.45944,2.02403 3.33026,3.33026 0.30788,0.46183 -0.13462,1.12666 0,1.66513 0.4257,1.7028 1.23943,3.2926 1.66513,4.99539 0.2833,1.1332 -0.45532,4.08476 0,4.99539 0.35104,0.70209 1.31409,0.96305 1.66513,1.66513 0.24822,0.49645 -0.24822,1.16869 0,1.66514 0.63599,1.27197 4.61954,3.86784 4.99539,4.99539 0.003,0.008 -0.002,4.9938 0,4.99539 0.39248,0.39247 1.27266,-0.39248 1.66513,0 0.39248,0.39247 -0.24822,1.16868 0,1.66513 0.35104,0.70208 1.41691,0.92046 1.66513,1.66513 0.35104,1.05312 -0.26923,2.25331 0,3.33026 0.30102,1.20405 1.27266,2.15283 1.66513,3.33026 0.17552,0.52656 -0.39247,1.27265 0,1.66513 0.39248,0.39247 1.27266,-0.39248 1.66513,0 0.78495,0.78495 -0.49644,2.33736 0,3.33026 0.35104,0.70208 1.31409,0.96305 1.66513,1.66513 0.24823,0.49644 -0.24822,1.16868 0,1.66513 0.89303,1.78604 2.43724,1.54421 3.33026,3.33026 0.49645,0.99289 -0.78495,2.54531 0,3.33026 2.22018,2.22017 1.66513,-2.77522 1.66513,1.66513"
           id="path3723"
           inkscape:connector-curvature="0" />
        <path
           style="fill:none;fill-rule:nonzero;stroke:#000000;stroke-width:1;stroke-linecap:butt;stroke-linejoin:miter;stroke-miterlimit:4;stroke-dasharray:none;stroke-opacity:1"
           d="m -79.84328,274.53831 c 4.61138,-1.81613 4.25904,-6.7888 6.66052,-9.99078 0.94194,-1.25592 2.22018,-2.22017 3.33026,-3.33026 0.55505,-0.55504 1.31409,-0.96305 1.66513,-1.66513 0.24823,-0.49644 0,-1.11008 0,-1.66513 0,-1.11008 -0.35104,-2.27714 0,-3.33026 0.49645,-1.48933 2.62818,-1.9261 3.33026,-3.33026 0.24823,-0.49644 -0.24822,-1.16868 0,-1.66513 0.35104,-0.70208 1.31409,-0.96305 1.66513,-1.66513 0.33011,-0.66021 -0.34041,-4.65497 0,-4.99539 0.39248,-0.39247 1.27266,0.39248 1.66513,0 0.39248,-0.39247 -0.17552,-1.13857 0,-1.66513 0.39248,-1.17742 0.78753,-2.45266 1.66513,-3.33026 0.39248,-0.39247 1.27266,0.39248 1.66513,0 0.39248,-0.39247 -0.17552,-1.13857 0,-1.66513 0.39248,-1.17742 1.27266,-2.15283 1.66513,-3.33026 0.35104,-1.05312 0,-2.22017 0,-3.33026 0,-2.77521 0,-5.55043 0,-8.32565 0,-7.7706 0,-15.54121 0,-23.31182 0,-1.59735 1.34493,-6.50042 -1.66513,-4.99539 -0.70208,0.35104 -1.11008,1.11009 -1.66513,1.66513 -0.55504,0.55504 -1.31409,0.96305 -1.66513,1.66513 -0.24822,0.49645 0.24823,1.16869 0,1.66513 -0.35104,0.70208 -1.31409,0.96305 -1.66513,1.66513 -0.24822,0.49645 0.24823,1.16869 0,1.66513 -3.46493,6.92987 0.11496,-1.78008 -3.33026,1.66513 -0.39247,0.39248 0.24823,1.16869 0,1.66513 -0.35104,0.70208 -1.31409,0.96305 -1.66513,1.66513 -0.24822,0.49645 0.24823,1.16869 0,1.66513 -0.35104,0.70208 -1.31409,0.96305 -1.66513,1.66513 -0.52328,1.04657 0.52329,5.61395 0,6.66052 -0.35104,0.70208 -1.31409,0.96305 -1.66513,1.66513 -0.52328,1.04657 0.52329,5.61395 0,6.66052 -0.35104,0.70208 -1.31409,0.96305 -1.66513,1.66513 -0.52328,1.04657 0.52329,5.61395 0,6.66052 -0.35104,0.70208 -1.31409,0.96305 -1.66513,1.66513 -0.52328,1.04657 0.52329,5.61395 0,6.66052 -0.35104,0.70208 -1.31409,0.96305 -1.66513,1.66513 -0.49644,0.99289 0.78495,2.54531 0,3.33026 -0.39247,0.39248 -1.16868,-0.24822 -1.66513,0 -0.70208,0.35104 -1.11008,1.11009 -1.66513,1.66513"
           id="path3725"
           inkscape:connector-curvature="0" />
        <path
           style="fill:none;fill-rule:nonzero;stroke:#000000;stroke-width:1;stroke-linecap:butt;stroke-linejoin:miter;stroke-miterlimit:4;stroke-dasharray:none;stroke-opacity:1"
           d="m -88.16893,252.89162 c -1.66513,-2.77521 -3.33026,-5.55043 -4.99539,-8.32565 0,-0.55504 0.17552,-1.13857 0,-1.66513 -0.39247,-1.17742 -1.11008,-2.22017 -1.66513,-3.33026 -0.55504,-1.11008 -0.97668,-2.29759 -1.66513,-3.33026 -0.43541,-0.65311 -1.31409,-0.96305 -1.66513,-1.66513 -0.24822,-0.49644 0.13462,-1.12666 0,-1.66513 -0.4257,-1.70279 -1.23943,-3.29259 -1.66513,-4.99539 -0.13462,-0.53847 0.24822,-1.16868 0,-1.66513 -0.35104,-0.70208 -1.31409,-0.96305 -1.66513,-1.66513 -0.24822,-0.49644 0.39248,-1.27265 0,-1.66513 -0.39247,-0.39247 -1.27265,0.39248 -1.66513,0 -0.39247,-0.39247 0.24822,-1.16868 0,-1.66513 -1.27514,-2.55027 -2.96729,-1.30216 -4.99539,-3.33026 -0.34041,-0.34041 0.33011,-4.33518 0,-4.99539 -0.35104,-0.70208 -1.11009,-1.11008 -1.66513,-1.66513 0,-1.11008 0.35104,-2.27714 0,-3.33026 -0.24822,-0.74467 -1.47475,-0.90362 -1.66513,-1.66513 -0.53847,-2.15388 0,-4.44035 0,-6.66052 0,-4.44035 0,-8.88069 0,-13.32104 0,-1.11009 0,-2.22017 0,-3.33026 0,-0.55504 0.17552,-1.13857 0,-1.66513 -0.39247,-1.17742 -1.27265,-2.15283 -1.66513,-3.33026 -0.38178,-1.14533 0.49123,-4.01293 0,-4.99539 -0.35104,-0.70208 -1.31409,-0.96305 -1.66513,-1.66513 -0.1866,-0.37321 0,-6.26483 0,-6.66052 0,-0.55504 -0.39247,-1.27266 0,-1.66513 0.39248,-0.39248 1.11009,0 1.66513,0 0.55504,0 1.16869,-0.24822 1.66513,0 0.70208,0.35104 1.11009,1.11009 1.66513,1.66513 5.52254,5.52254 -0.78495,-1.5699 1.66513,3.33026 0.35104,0.70208 1.41691,0.92046 1.66513,1.66513 0.35104,1.05312 -0.35104,2.27714 0,3.33026 0.24822,0.74467 1.31409,0.96305 1.66513,1.66513 0.24822,0.49645 0,1.11009 0,1.66513 0.55504,0.55504 1.31409,0.96305 1.66513,1.66513 0.24822,0.49645 -0.24822,1.16868 0,1.66513 2.07568,4.15135 1.25459,-0.82109 3.33026,3.33026 0.33011,0.66021 -0.34041,4.65498 0,4.99539 3.44522,3.44521 -0.13467,-5.26474 3.33026,1.66513 0.25313,0.50626 0,5.51071 0,6.66052 0,0.39569 -0.1866,6.28732 0,6.66052 0.35104,0.70208 1.31409,0.96305 1.66513,1.66513 0.54092,1.08184 -0.54092,8.90895 0,9.99078 0.35104,0.70208 1.31409,0.96305 1.66513,1.66513 0.24822,0.49645 0,1.11009 0,1.66513 0,1.11009 -0.35104,2.27714 0,3.33026 0.24822,0.74467 1.41691,0.92046 1.66513,1.66513 0.35104,1.05312 -0.26923,2.25332 0,3.33026 0.30102,1.20406 1.27266,2.15284 1.66513,3.33026 0.21598,0.64794 -0.2584,4.73699 0,4.99539 0.39248,0.39248 1.27266,-0.39247 1.66513,0 0.34042,0.34042 -0.3301,4.33518 0,4.99539 2.05761,4.11521 1.66513,-0.57476 1.66513,3.33026"
           id="path3727"
           inkscape:connector-curvature="0" />
        <path
           style="fill:none;fill-rule:nonzero;stroke:#000000;stroke-width:1;stroke-linecap:butt;stroke-linejoin:miter;stroke-miterlimit:4;stroke-dasharray:none;stroke-opacity:1"
           d="m -79.84328,222.91928 c -1.30484,-5.71596 6.57045,-4.81525 8.32565,-8.32565 0.24823,-0.49644 -0.24822,-1.16868 0,-1.66513 0.35104,-0.70208 1.31409,-0.96305 1.66513,-1.66513 0.24823,-0.49644 0,-1.11008 0,-1.66513 0,-1.11008 -0.49644,-2.33737 0,-3.33026 0.24823,-0.49644 1.27266,0.39248 1.66513,0 0.54889,-0.54889 -0.40165,-5.45555 0,-6.66052 0.24823,-0.74467 1.31409,-0.96305 1.66513,-1.66513 0.49645,-0.99289 -0.78495,-2.54531 0,-3.33026 0.39248,-0.39247 1.41691,0.49645 1.66513,0 0.49645,-0.99289 -0.35104,-2.27714 0,-3.33026 0.24823,-0.74467 1.31409,-0.96305 1.66513,-1.66513 0.49645,-0.99289 -0.49644,-2.33737 0,-3.33026 0.35104,-0.70208 1.41691,-0.92046 1.66513,-1.66513 0.35104,-1.05312 0,-2.22017 0,-3.33026 0,-0.55504 -0.24822,-1.16868 0,-1.66513 0.35104,-0.70208 1.31409,-0.96305 1.66513,-1.66513 0.21892,-0.43783 0,-5.78979 0,-6.66052 0,-4.44035 0,-8.88069 0,-13.32104 0,-1.11009 0,-2.22017 0,-3.33026 0,-0.55504 -0.24822,-1.16868 0,-1.66513 0.35104,-0.70208 1.31409,-0.96305 1.66513,-1.66513 0.18661,-0.37321 0,-6.26484 0,-6.66052 0,-3.42659 0.96633,-9.02445 -1.66513,-11.65591 -0.39247,-0.39248 -1.66513,0.55504 -1.66513,0 0,-0.55504 1.66513,-0.55504 1.66513,0 0,0.55504 -1.11008,0 -1.66513,0 -1.11008,0 -2.33737,-0.49645 -3.33026,0 -0.49644,0.24822 0.39248,1.27265 0,1.66513 -0.39247,0.39247 -1.16868,-0.24822 -1.66513,0 -3.03206,1.51603 -0.97608,1.26313 -1.66513,3.33026 -0.39247,1.17742 -1.27265,2.15283 -1.66513,3.33026 -0.17552,0.52656 0,1.11009 0,1.66513 -0.55504,0.55504 -1.31409,0.96305 -1.66513,1.66513 -0.49644,0.99289 0.49645,2.33737 0,3.33026 -0.35104,0.70208 -1.31409,0.96305 -1.66513,1.66513 -0.24822,0.49645 0.24823,1.16868 0,1.66513 -0.70208,1.40416 -2.62818,1.9261 -3.33026,3.33026 -0.24822,0.49645 0.13462,1.12666 0,1.66513 -0.4257,1.70279 -1.01326,3.36573 -1.66513,4.99539 -0.46094,1.15235 -1.36411,2.1262 -1.66513,3.33026 -0.26923,1.07694 0,2.22017 0,3.33026 0,0.55504 0.24823,1.16868 0,1.66513 -0.35104,0.70208 -1.31409,0.96305 -1.66513,1.66513 -0.24822,0.49645 0.24823,1.16868 0,1.66513 -3.30454,6.60908 -0.52629,-7.35934 -3.33026,6.66052 -0.42449,2.12245 0.56254,8.30317 0,9.99078 -0.24822,0.74467 -1.4169,0.92046 -1.66513,1.66513 -0.35104,1.05312 0,2.22017 0,3.33026 0,0.92941 0.25408,7.56342 0,8.32565 -0.24822,0.74467 -1.31409,0.96305 -1.66513,1.66513 -0.24822,0.49645 0,1.11009 0,1.66513 0,0.55505 0,1.11009 0,1.66513 0,2.77522 0,5.55044 0,8.32565"
           id="path3729"
           inkscape:connector-curvature="0" />
        <path
           style="fill:none;fill-rule:nonzero;stroke:#000000;stroke-width:1;stroke-linecap:butt;stroke-linejoin:miter;stroke-miterlimit:4;stroke-dasharray:none;stroke-opacity:1"
           d="m -98.15971,184.62129 c 0,-3.33026 0.47097,-6.69399 0,-9.99078 -0.11101,-0.77706 -1.11008,-1.11009 -1.66513,-1.66513 -1.66513,-1.66513 -3.48785,-3.18634 -4.99539,-4.99539 -1.28116,-1.53739 -2.12952,-3.3944 -3.33026,-4.99539 -0.47097,-0.62796 -1.31409,-0.96305 -1.66513,-1.66513 -0.49644,-0.99289 0.49645,-2.33737 0,-3.33026 -0.35104,-0.70208 -1.31409,-0.96305 -1.66513,-1.66513 -0.24822,-0.49645 0.39248,-1.27266 0,-1.66513 -0.39247,-0.39248 -1.27265,0.39247 -1.66513,0 -0.39247,-0.39248 0.24822,-1.16868 0,-1.66513 -0.35104,-0.70208 -1.31409,-0.96305 -1.66513,-1.66513 -0.24822,-0.49645 0.24822,-1.16868 0,-1.66513 -0.35104,-0.70208 -1.31409,-0.96305 -1.66513,-1.66513 -0.3301,-0.66021 0.34041,-4.65498 0,-4.99539 -0.39247,-0.39248 -1.41691,0.49644 -1.66513,0 -0.49644,-0.99289 0,-2.22017 0,-3.33026 0,-1.85065 0.32475,-12.3468 0,-13.32104 -0.39247,-1.17743 -1.27265,-2.15284 -1.66513,-3.33026 -0.35104,-1.05312 0.49645,-2.33737 0,-3.33026 -0.35104,-0.70208 -1.31409,-0.96305 -1.66513,-1.66513 -0.49568,-0.99136 0.46731,-6.92373 0,-8.32565 -0.39247,-1.17743 -2.22017,-2.22018 -1.66513,-3.33026 0.49645,-0.99289 2.27714,-0.35104 3.33026,0 0.74467,0.24822 1.11009,1.11008 1.66513,1.66513 1.11009,1.11008 2.07434,2.38832 3.33026,3.33026 0.99289,0.74467 2.29759,0.97668 3.33026,1.66513 0.65312,0.43541 1.11009,1.11008 1.66513,1.66513 0.55504,0.55504 1.31409,0.96305 1.66513,1.66513 0.24822,0.49644 -0.39247,1.27265 0,1.66513 0.39248,0.39247 1.27266,-0.39248 1.66513,0 0.78495,0.78495 -0.49644,2.33737 0,3.33026 0.35104,0.70208 1.31409,0.96305 1.66513,1.66513 0.40119,0.80237 -0.22785,10.74452 0,11.65591 0.33281,1.33123 4.53076,3.6015 4.99539,4.99539 0.5898,1.76939 -0.58979,4.89113 0,6.66052 0.39248,1.17742 1.36412,2.1262 1.66513,3.33026 0.34413,1.3765 -0.42311,9.14456 0,9.99078 2.05761,4.11521 1.66513,-0.57477 1.66513,3.33026 0,1.40978 -0.29839,5.76534 0,6.66052 0.24822,0.74467 1.31409,0.96305 1.66513,1.66513 1.11009,2.22017 -1.66513,1.66513 1.66513,1.66513"
           id="path3731"
           inkscape:connector-curvature="0" />
        <path
           style="fill:none;fill-rule:nonzero;stroke:#000000;stroke-width:1;stroke-linecap:butt;stroke-linejoin:miter;stroke-miterlimit:4;stroke-dasharray:none;stroke-opacity:1"
           d="m -86.5038,166.30486 c 7.01834,-1.33492 0.39944,-5.79426 1.66513,-8.32565 0.35104,-0.70208 1.31409,-0.96305 1.66513,-1.66513 0.24823,-0.49645 -0.24822,-1.16868 0,-1.66513 0.35104,-0.70208 1.31409,-0.96305 1.66513,-1.66513 0.24823,-0.49645 -0.33302,-1.2211 0,-1.66513 1.41291,-1.88388 3.33026,-3.33026 4.99539,-4.99539 0.55505,-0.55504 1.31409,-0.96305 1.66513,-1.66513 0.24823,-0.49645 -0.24822,-1.16869 0,-1.66513 0.35104,-0.70208 1.41691,-0.92046 1.66513,-1.66513 0.70208,-2.10624 -0.53847,-4.50664 0,-6.66052 2.01021,-8.04082 0.79131,0.0825 3.33026,-4.99539 0.53203,-1.06406 -0.44675,-5.32026 0,-6.66052 0.39248,-1.17743 1.27266,-2.15284 1.66513,-3.33026 0.35895,-1.07685 0,-6.50749 0,-8.32565 0,-6.10548 0,-12.21096 0,-18.31643 0,-4.44035 0,-8.8807 0,-13.32104 0,-0.55505 0,-1.11009 0,-1.66513 0,-0.55505 0.39248,-1.27266 0,-1.66513 -0.39247,-0.39248 -1.11008,0 -1.66513,0 -3.82678,0 -2.29899,1.53266 -4.99539,3.33026 -1.03267,0.68844 -2.29759,0.97668 -3.33026,1.66513 -1.30623,0.87082 -2.22017,2.22017 -3.33026,3.33026 -1.11008,1.11008 -2.45943,2.02402 -3.33026,3.33026 -0.68844,1.03267 -0.97668,2.29759 -1.66513,3.33026 -0.43541,0.65311 -1.4169,0.92046 -1.66513,1.66513 -0.25387,0.76161 0.37047,5.91957 0,6.66052 -0.35104,0.70208 -1.31409,0.96305 -1.66513,1.66513 -0.24822,0.49644 0,1.11008 0,1.66513 0,1.28603 0.33863,8.9749 0,9.99078 -0.39247,1.17742 -1.36411,2.1262 -1.66513,3.33026 -0.26923,1.07694 0,2.22017 0,3.33026 0,3.33026 0,6.66052 0,9.99078 0,0.55504 0.17552,1.13857 0,1.66513 -0.39247,1.17742 -1.36411,2.1262 -1.66513,3.33026 -0.26923,1.07694 0,2.22017 0,3.33026 0,3.33026 0,6.66052 0,9.99078"
           id="path3733"
           inkscape:connector-curvature="0" />
        <path
           style="fill:none;fill-rule:nonzero;stroke:#000000;stroke-width:1;stroke-linecap:butt;stroke-linejoin:miter;stroke-miterlimit:4;stroke-dasharray:none;stroke-opacity:1"
           d="m -101.48997,103.02992 c -1.85551,-7.42204 -0.0469,-5.04231 -3.33026,-8.32565 -0.55504,-0.55505 -1.31409,-0.96305 -1.66513,-1.66513 -2.45008,-4.90016 3.85741,2.19228 -1.66513,-3.33026 -3.75085,-3.75085 0.26165,1.0466 -1.66513,-6.66052 -0.19038,-0.76152 -1.31409,-0.96305 -1.66513,-1.66513 -0.24822,-0.49645 0,-1.11009 0,-1.66513 -1.11009,-0.55505 -2.45266,-0.78753 -3.33026,-1.66513 -0.78495,-0.78495 0.78495,-2.54531 0,-3.33026 -3.44521,-3.44522 0.13468,5.26474 -3.33026,-1.66513 -0.24822,-0.49645 0.24822,-1.16869 0,-1.66513 -0.35104,-0.70208 -1.31409,-0.96305 -1.66513,-1.66513 -0.24822,-0.49645 0.39248,-1.27266 0,-1.66513 -0.39247,-0.39248 -1.27265,0.39247 -1.66513,0 -0.39247,-0.39248 0.39248,-1.27266 0,-1.66513 -0.39247,-0.39248 -1.16868,0.24822 -1.66513,0 -6.92987,-3.46494 1.78008,0.11495 -1.66513,-3.33026 -0.39247,-0.39248 -1.27265,0.39247 -1.66513,0 -0.39247,-0.39248 0.39248,-1.27266 0,-1.66513 -0.39247,-0.39248 -1.11009,0 -1.66513,0 0,-0.55505 0.24822,-1.16869 0,-1.66513 -1.99366,-3.98732 -3.33026,1.04935 -3.33026,-3.33026 0,-1.11009 0,-2.22018 0,-3.33026 0,-0.55505 -0.55504,-1.66513 0,-1.66513 0.55504,0 0,1.11008 0,1.66513 0,1.11008 0,2.22017 0,3.33026 0,2.77521 0,5.55043 0,8.32565 0,3.33026 0,6.66052 0,9.99078 0,1.11008 -0.35104,2.27714 0,3.33026 0.26544,0.79631 3.06482,2.53394 3.33026,3.33026 0.35104,1.05312 -0.35104,2.27714 0,3.33026 0.24822,0.74467 1.11009,1.11008 1.66513,1.66513 0,1.11008 -0.26923,2.25331 0,3.33026 2.01021,8.04082 0.7913,-0.0825 3.33026,4.99539 2.45008,4.90016 -3.85741,-2.19228 1.66513,3.33026 1.11009,1.11008 2.22017,2.22017 3.33026,3.33026 0.55504,0.55504 1.31409,0.96305 1.66513,1.66513 0.24822,0.49644 -0.24822,1.16868 0,1.66513 1.84085,3.68169 1.03345,0.51672 3.33026,1.66513 1.36978,0.68488 5.42902,5.83951 6.66052,6.66052 0.46183,0.30788 1.27266,-0.39248 1.66513,0 0.356,0.356 -0.30601,5.74249 0,6.66052 4.02041,12.06123 -0.48006,-2.62526 3.33026,4.99539 0.24822,0.49644 0,1.11008 0,1.66513"
           id="path3735"
           inkscape:connector-curvature="0" />
        <path
           style="fill:none;fill-rule:nonzero;stroke:#000000;stroke-width:1;stroke-linecap:butt;stroke-linejoin:miter;stroke-miterlimit:4;stroke-dasharray:none;stroke-opacity:1"
           d="m -91.49919,99.69966 c 0,-21.93577 -1.96237,-2.73577 1.66513,-9.99078 0.24823,-0.49645 -0.39247,-1.27266 0,-1.66513 0.39248,-0.39248 1.16869,0.24822 1.66513,0 0.70208,-0.35104 0.96305,-1.31409 1.66513,-1.66513 0.49645,-0.24823 1.27266,0.39247 1.66513,0 0.39248,-0.39248 -0.39247,-1.27266 0,-1.66513 3.44522,-3.44522 -0.13467,5.26474 3.33026,-1.66513 0.24823,-0.49645 0,-1.11009 0,-1.66513 0,-2.54724 -0.17552,-3.89955 1.66513,-6.66052 0.30789,-0.46183 1.27266,0.39247 1.66513,0 6.49856,-6.49856 -0.38543,-0.89426 1.66513,-4.99539 0.35104,-0.70208 1.31409,-0.96305 1.66513,-1.66513 0.24823,-0.49645 0,-1.11009 0,-1.66513 0,-0.55505 0,-1.11009 0,-1.66513 0,-1.66513 0,-3.33026 0,-4.99539 0,-6.66052 0,-13.32105 0,-19.98157 0,-3.8853 0,-7.7706 0,-11.65591 0,-1.11008 0.78495,-2.54531 0,-3.33026 -0.78495,-0.78495 -2.22017,0 -3.33026,0 -0.55504,0 -1.27265,-0.39247 -1.66513,0 -0.8776,0.8776 -0.78753,2.45266 -1.66513,3.33026 -0.39247,0.39248 -1.27265,-0.39247 -1.66513,0 -0.39247,0.39248 0.24823,1.16869 0,1.66513 -0.70208,1.40417 -2.62818,1.9261 -3.33026,3.33026 -0.49644,0.9929 0.35104,2.27714 0,3.33026 -0.39247,1.17743 -1.27265,2.15284 -1.66513,3.33026 -0.17552,0.52656 0.17552,1.13857 0,1.66513 -0.39247,1.17743 -1.27265,2.15284 -1.66513,3.33026 -0.17552,0.52657 0.13462,1.12666 0,1.66513 -0.4257,1.7028 -1.23943,3.2926 -1.66513,4.9954 -0.52239,2.08957 0.5224,4.57094 0,6.66052 -0.30101,1.20405 -1.27265,2.15283 -1.66513,3.33026 -0.58979,1.76938 0.5898,4.89113 0,6.66052 -0.39247,1.17742 -1.27265,2.15283 -1.66513,3.33026 -0.5932,1.77961 0.70394,6.91776 0,8.32565 -0.24822,0.49644 -1.41691,-0.49645 -1.66513,0 -0.49644,0.99289 0,2.22017 0,3.33026 0,0.55504 0.39248,1.27265 0,1.66513 -0.39247,0.39247 -1.27265,-0.39248 -1.66513,0 -0.0536,0.0536 0,4.59155 0,4.99539"
           id="path3737"
           inkscape:connector-curvature="0" />
        <path
           style="fill:none;fill-rule:nonzero;stroke:#000000;stroke-width:1;stroke-linecap:butt;stroke-linejoin:miter;stroke-miterlimit:4;stroke-dasharray:none;stroke-opacity:1"
           d="m -103.1551,64.73193 c -10.15416,-2.35756 -1.28336,-9.22725 -3.33026,-13.32104 -0.70208,-1.40417 -2.45944,-2.02403 -3.33026,-3.33027 -0.30788,-0.46182 0.17552,-1.13856 0,-1.66513 -0.39247,-1.17742 -1.11009,-2.22017 -1.66513,-3.33026 -0.55504,-1.11008 -0.97668,-2.29759 -1.66513,-3.33026 -2.03117,-3.04674 -2.12294,-0.16612 -3.33026,-4.99539 -0.26923,-1.07694 0.61577,-2.40661 0,-3.33026 -0.68845,-1.03267 -2.45266,-0.78753 -3.33026,-1.66513 -2.22017,-2.22017 3.53228,-1.59779 -1.66513,-3.33026 -1.05312,-0.35104 -2.40661,0.61577 -3.33026,0 -1.03267,-0.68844 -0.97668,-2.29759 -1.66513,-3.33026 -0.43541,-0.65311 -1.11009,-1.11008 -1.66513,-1.66513 -0.55504,-0.55504 -0.96305,-1.31409 -1.66513,-1.66513 -0.49645,-0.24822 -1.41691,0.49645 -1.66513,0 -0.49645,-0.99289 0,-2.22017 0,-3.33026 0,-0.55504 -0.55504,-1.66513 0,-1.66513 0.55504,0 0,2.22018 0,1.66513 0,-1.11008 0.35104,-2.27714 0,-3.33026 -0.24822,-0.74467 -0.88018,-1.66513 -1.66513,-1.66513 -0.78495,0 -1.41691,0.92046 -1.66513,1.66513 -0.52656,1.57968 0,3.33026 0,4.99539 0,3.88531 0,7.77061 0,11.65591 0,0.55505 -0.24822,1.16869 0,1.66513 0.35104,0.70208 1.31409,0.96305 1.66513,1.66513 0.24822,0.49645 -0.24822,1.16869 0,1.66513 0.35104,0.70208 1.41691,0.92047 1.66513,1.66513 0.35104,1.05313 -0.35104,2.27714 0,3.33026 0.24822,0.74467 1.11009,1.11009 1.66513,1.66513 0.55504,1.11009 1.36412,2.12621 1.66513,3.33026 0.26924,1.07695 -0.35104,2.27714 0,3.33026 0.49645,1.48934 2.62818,1.9261 3.33026,3.33027 0.24822,0.49644 -0.17552,1.13856 0,1.66513 2.01219,6.03658 0.79005,1.18506 3.33026,4.99539 3.66856,0.83854 0.88018,3.42549 1.66513,4.99539 0.35104,0.70208 1.11009,1.11008 1.66513,1.66513 0.55504,0 1.41691,-0.49645 1.66513,0 0.49645,0.99289 0,2.22017 0,3.33026 0,0.55504 -0.39247,1.27265 0,1.66513 0.39248,0.39247 1.27266,-0.39248 1.66513,0 0.39248,0.39247 -0.39247,1.27265 0,1.66513 0.39248,0.39247 1.16869,-0.24823 1.66513,0 6.92987,3.46493 -1.78008,-0.11496 1.66513,3.33026 0.39248,0.39247 1.27266,-0.39248 1.66513,0 0.39248,0.39247 0,1.11008 0,1.66513 1.11009,0.55504 2.22017,1.11008 3.33026,1.66513"
           id="path3739"
           inkscape:connector-curvature="0" />
        <path
           style="fill:none;fill-rule:nonzero;stroke:#000000;stroke-width:1;stroke-linecap:butt;stroke-linejoin:miter;stroke-miterlimit:4;stroke-dasharray:none;stroke-opacity:1"
           d="m -93.16432,51.41089 c -1.82064,-4.17799 -1.66513,-7.48071 -1.66513,-11.65592 0,-0.55504 -0.17552,-1.13857 0,-1.66513 4.02041,-12.06123 -0.48006,2.62526 3.33026,-4.99539 0.24823,-0.49644 -0.24822,-1.16868 0,-1.66513 0.35104,-0.70208 1.11009,-1.11008 1.66513,-1.66513 0.55505,-0.55504 0.96305,-1.31409 1.66513,-1.66513 0.49645,-0.24822 1.27266,0.39248 1.66513,0 0.39248,-0.39247 -0.39247,-1.27265 0,-1.66513 0.39248,-0.39247 1.27266,0.39248 1.66513,0 0.39248,-0.39247 -0.24822,-1.16868 0,-1.66513 0.70208,-1.40416 2.62818,-1.9261 3.33026,-3.33026 0.22188,-0.44375 0,-9.23749 0,-9.99078 0,-7.7706 0,-15.54121 0,-23.31182 0,-1.15816 0.30109,-7.72348 0,-8.32565 -0.35104,-0.70208 -1.4169,-0.92046 -1.66513,-1.66513 -0.003,-0.008 0.002,-4.9938 0,-4.99539 -0.78495,-0.78495 -3.33026,1.11009 -3.33026,0 0,-0.55504 2.05761,-0.39247 1.66513,0 -2.0281,2.0281 -3.72025,0.77999 -4.99539,3.33026 -0.24822,0.49645 0.24823,1.16869 0,1.66513 -1.78604,3.57209 -1.54421,-0.24183 -3.33026,3.33026 -0.24822,0.49645 0.24822,1.16869 0,1.66513 -2.0576,4.11521 -1.66513,-0.57476 -1.66513,3.33026 0,0.55505 0,1.11009 0,1.66513 0,1.11009 0.78495,2.54531 0,3.33026 -0.78495,0.78495 -2.33737,-0.49644 -3.33026,0 -0.99289,0.49645 0.49645,2.33737 0,3.33026 -0.35104,0.70208 -1.41691,0.92046 -1.66513,1.66513 -0.35104,1.05312 0,2.22018 0,3.33026 0,0.55505 0.24822,1.16869 0,1.66513 -0.35104,0.70208 -1.31409,0.96305 -1.66513,1.66513 -0.66605,1.33211 0.66605,3.66329 0,4.99539 -0.35104,0.70208 -1.41691,0.92046 -1.66513,1.66513 -0.36725,1.10177 0,9.39945 0,11.65591 0,7.77061 0,15.54122 0,23.31182"
           id="path3741"
           inkscape:connector-curvature="0" />
        <path
           style="fill:none;fill-rule:nonzero;stroke:#000000;stroke-width:1;stroke-linecap:butt;stroke-linejoin:miter;stroke-miterlimit:4;stroke-dasharray:none;stroke-opacity:1"
           d="m -114.81101,21.43854 c -2.22017,-4.44034 -4.44035,-8.88069 -6.66052,-13.32104 -0.55504,-1.11008 -1.27265,-2.15283 -1.66513,-3.33026 -0.17552,-0.52656 0.17552,-1.13857 0,-1.66513 -0.39247,-1.17742 -1.27265,-2.15283 -1.66513,-3.33026 -0.58979,-1.76938 0.5898,-4.89113 0,-6.66052 -0.39247,-1.17742 -1.27265,-2.15283 -1.66513,-3.33026 -0.52656,-1.57968 0.52656,-3.41571 0,-4.99539 -0.49645,-1.48934 -2.62818,-1.9261 -3.33026,-3.33026 -0.24822,-0.49644 0.24822,-1.16868 0,-1.66513 -0.35104,-0.70208 -1.31409,-0.96305 -1.66513,-1.66513 -0.24822,-0.49644 0.24822,-1.16868 0,-1.66513 -0.35104,-0.70208 -1.31409,-0.96305 -1.66513,-1.66513 -0.24822,-0.49644 0.24822,-1.16868 0,-1.66513 -0.99908,-1.99815 -3.99631,-2.99723 -4.99539,-4.99539 -0.25338,-0.50675 0,-4.24548 0,-4.99539 0,-1.66513 0,-3.33026 0,-4.99539 0,-1.11009 -0.35104,-2.27714 0,-3.33026 0.24822,-0.74467 0.88018,-1.66513 1.66513,-1.66513 3.3917,0 4.36638,3.84832 6.66052,4.99539 2.29681,1.14841 1.48941,-2.01656 3.33026,1.66513 0.66605,1.33211 -0.66605,3.66329 0,4.99539 0.24822,0.49645 1.27266,-0.39247 1.66513,0 0.39248,0.39248 -0.24822,1.16869 0,1.66513 0.99908,1.99816 3.99631,2.99724 4.99539,4.99539 0.24822,0.49645 -0.17552,1.13857 0,1.66513 0.39248,1.17743 1.27266,2.15284 1.66513,3.33026 1.65227,4.95681 -3.94281,-3.41652 1.66513,4.99539 -0.16622,3.29872 2.45266,0.78753 3.33026,1.66513 0.78495,0.78495 -0.49644,2.33737 0,3.33026 0.35104,0.70208 1.31409,0.96305 1.66513,1.66513 0.49645,0.99289 -0.49644,2.33737 0,3.33026 0.35104,0.70208 1.31409,0.96305 1.66513,1.66513 2.45008,4.90016 -3.85741,-2.19228 1.66513,3.33026"
           id="path3743"
           inkscape:connector-curvature="0" />
        <path
           style="fill:none;fill-rule:nonzero;stroke:#000000;stroke-width:1;stroke-linecap:butt;stroke-linejoin:miter;stroke-miterlimit:4;stroke-dasharray:none;stroke-opacity:1"
           d="m -101.48997,-8.5338 c 0,-2.22017 -0.70208,-4.55428 0,-6.66052 0.49645,-1.48934 2.45944,-2.02402 3.33026,-3.33026 0.61577,-0.92365 -0.49644,-2.33737 0,-3.33026 0.35104,-0.70208 1.31409,-0.96305 1.66513,-1.66513 0.24822,-0.49644 -0.24822,-1.16868 0,-1.66513 0.35104,-0.70208 1.31409,-0.96305 1.66513,-1.66513 0.48778,-0.97556 -0.30676,-7.09862 0,-8.32565 0.30102,-1.20406 1.42173,-2.11325 1.66513,-3.33026 0.32656,-1.63279 0,-3.33026 0,-4.99539 0,-1.11009 -0.35104,-2.27714 0,-3.33026 0.24822,-0.74467 1.31409,-0.96305 1.66513,-1.66513 0.47044,-0.94087 -0.46568,-6.9286 0,-8.32565 0.39248,-1.17742 1.27266,-2.15283 1.66513,-3.33026 0.3004,-0.90118 0,-6.09325 0,-6.66052 0,-5.55043 0,-11.10087 0,-16.6513 0,-4.44035 0,-8.88069 0,-13.32104 0,-1.09386 0.19578,-6.26896 0,-6.66052 -0.24822,-0.49645 -1.11008,0 -1.66513,0 -2.72645,0 -3.33026,0.6038 -3.33026,3.33026 0,3.76192 0.24822,-0.74467 -1.66513,4.99539 -0.38177,1.14533 0.49123,4.01293 0,4.99539 -0.35104,0.70208 -1.31409,0.96305 -1.66513,1.66513 -0.30934,0.61868 0,10.23534 0,11.65591 0,4.44035 0,8.88069 0,13.32104 0,0.87073 0.21892,6.22269 0,6.66052 -0.35104,0.70208 -1.31409,0.96305 -1.66513,1.66513 -0.49644,0.99289 0.78495,2.54531 0,3.33026 -0.39247,0.39248 -1.11008,0 -1.66513,0 -0.55504,1.11009 -1.27265,2.15284 -1.66513,3.33026 -0.17552,0.52656 0.17552,1.13857 0,1.66513 -0.39247,1.17743 -1.27265,2.15284 -1.66513,3.33026 -0.35104,1.05312 0.49645,2.33737 0,3.33026 -0.35104,0.70208 -1.31409,0.96305 -1.66513,1.66513 -0.24822,0.49645 0,1.11009 0,1.66513 0,0.55504 0,1.11009 0,1.66513"
           id="path3745"
           inkscape:connector-curvature="0" />
        <path
           style="fill:none;fill-rule:nonzero;stroke:#000000;stroke-width:1;stroke-linecap:butt;stroke-linejoin:miter;stroke-miterlimit:4;stroke-dasharray:none;stroke-opacity:1"
           d="m -109.81562,-18.52458 c 0,-16.59551 1.5699,-1.85559 -1.66513,-8.32565 -0.24822,-0.49644 0.24822,-1.16868 0,-1.66513 -0.35104,-0.70208 -1.31409,-0.96305 -1.66513,-1.66513 -0.24822,-0.49644 0.24822,-1.16868 0,-1.66513 -0.35104,-0.70208 -1.11009,-1.11009 -1.66513,-1.66513 -0.55504,-0.55504 -0.96305,-1.31409 -1.66513,-1.66513 -0.49644,-0.24822 -1.27265,0.39248 -1.66513,0 -0.39247,-0.39247 0.39248,-1.27265 0,-1.66513 -0.39247,-0.39247 -1.27265,0.39248 -1.66513,0 -0.39247,-0.39247 0.24822,-1.16868 0,-1.66513 -0.35104,-0.70208 -1.11009,-1.11009 -1.66513,-1.66513 -0.87663,-0.87663 -4.55073,-4.10607 -4.99539,-4.99539 -0.24822,-0.49644 0.24822,-1.16868 0,-1.66513 -3.81032,-7.62065 0.69015,7.06584 -3.33026,-4.99539 -0.35104,-1.05312 0.49645,-2.33737 0,-3.33026 -0.35104,-0.70208 -1.31409,-0.96305 -1.66513,-1.66513 -0.24822,-0.49645 0.17552,-1.13857 0,-1.66513 -0.39247,-1.17742 -1.42173,-2.11325 -1.66513,-3.33026 -0.32656,-1.63279 0.40385,-3.37998 0,-4.99539 -0.19038,-0.76151 -1.31409,-0.96305 -1.66513,-1.66513 -0.24822,-0.49645 0.24822,-1.16868 0,-1.66513 -0.35104,-0.70208 -1.31409,-0.96305 -1.66513,-1.66513 -0.24822,-0.49645 0,-1.11009 0,-1.66513 0,-1.11009 0.26924,-2.25332 0,-3.33026 -0.30101,-1.20406 -1.27265,-2.15284 -1.66513,-3.33026 -1.65227,-4.95681 3.94281,3.41652 -1.66513,-4.99539 -0.43541,-0.65312 -1.31409,-0.96305 -1.66513,-1.66513 -0.24822,-0.49645 0,-1.11009 0,-1.66513 0,-0.55504 0,-1.11009 0,-1.66513 0,-0.55504 0,-2.22017 0,-1.66513 0,1.11009 -1.11009,3.33026 0,3.33026 1.24111,0 0.97668,-2.29759 1.66513,-3.33026 -0.16622,-3.29872 2.45266,-0.78753 3.33026,-1.66513 1.10663,-1.10663 -1.10663,-2.22363 0,-3.33026 0.39248,-0.39248 1.27266,0.39247 1.66513,0 0.40068,-0.40068 -0.40068,-6.25984 0,-6.66052 0.39248,-0.39248 1.66513,-0.55504 1.66513,0 0,0.78495 -2.45008,1.66513 -1.66513,1.66513 1.24111,0 2.08915,-1.66513 3.33026,-1.66513 0.55504,0 -0.24822,1.16868 0,1.66513 0.35104,0.70208 1.31409,0.96305 1.66513,1.66513 0.24822,0.49644 -0.24822,1.16868 0,1.66513 0.35104,0.70208 1.22972,1.01201 1.66513,1.66513 0.68845,1.03267 0.97668,2.29759 1.66513,3.33026 2.54022,3.81032 1.31807,-1.04119 3.33026,4.99539 0.17552,0.52656 -0.24822,1.16868 0,1.66513 0.35104,0.70208 1.31409,0.96305 1.66513,1.66513 0.37047,0.74094 -0.25387,5.89891 0,6.66052 0.24822,0.74467 1.31409,0.96305 1.66513,1.66513 0.24822,0.49645 -0.24822,1.16868 0,1.66513 0.35104,0.70208 1.31409,0.96305 1.66513,1.66513 0.66605,1.3321 -0.66605,3.66329 0,4.99539 0.35104,0.70208 1.31409,0.96305 1.66513,1.66513 0.66605,1.3321 -0.66605,3.66329 0,4.99539 0.35104,0.70208 1.31409,0.96305 1.66513,1.66513 0.1866,0.37321 0,6.26484 0,6.66052 0,6.10548 0,12.21095 0,18.31643"
           id="path3747"
           inkscape:connector-curvature="0" />
        <path
           style="fill:none;fill-rule:nonzero;stroke:#000000;stroke-width:1;stroke-linecap:butt;stroke-linejoin:miter;stroke-miterlimit:4;stroke-dasharray:none;stroke-opacity:1"
           d="m -106.48536,-51.82718 c 0,-5.55043 0,-11.10087 0,-16.6513 0,-0.55504 -0.39247,-1.27266 0,-1.66513 0.39248,-0.39248 1.27266,0.39247 1.66513,0 0.83257,-0.83257 -0.83256,-4.16283 0,-4.99539 0.39248,-0.39248 1.27266,0.39247 1.66513,0 0.78495,-0.78495 -0.35104,-2.27714 0,-3.33026 0.39248,-1.17743 1.27266,-2.15284 1.66513,-3.33026 0.35104,-1.05312 0,-2.22017 0,-3.33026 0,-2.77522 0,-5.55043 0,-8.32565 0,-2.77522 0,-5.55043 0,-8.32565 0,-0.55504 0.39248,-1.27266 0,-1.66513 -0.39247,-0.39248 -1.41691,0.49644 -1.66513,0 -0.49644,-0.99289 0.49645,-2.33737 0,-3.33026 -0.24822,-0.49645 -1.27265,0.39247 -1.66513,0 -0.99513,-0.99514 1.79981,-3.33026 -1.66513,-3.33026 -2.52671,0 -1.33342,2.33512 -1.66513,3.33026 -4.02041,12.06123 0.48006,-2.62526 -3.33026,4.99539 -0.24822,0.49644 0,1.11009 0,1.66513 0,7.21556 0,14.43113 0,21.64669 0,1.11009 0,2.22017 0,3.33026 0,0.55504 0.39248,1.27265 0,1.66513 -0.39247,0.39247 -1.27265,-0.39248 -1.66513,0 -0.40068,0.40068 0.40068,6.25984 0,6.66052 -0.39247,0.39247 -1.27265,-0.39247 -1.66513,0 -0.39247,0.39247 0,1.11009 0,1.66513 0,0.55504 0,1.11009 0,1.66513 0,7.77061 0,15.54121 0,23.31182"
           id="path3749"
           inkscape:connector-curvature="0" />
      </g>
    </pattern>
    <inkscape:path-effect
       effect="envelope"
       id="path-effect6576-1"
       is_visible="true"
       yy="true"
       xx="true"
       bendpath1="m -141.94646,-110.10673 97.401874,0"
       bendpath2="m -11.241984,-108.4416 -4.995391,741.39916"
       bendpath3="m -205.07411,516.44651 80.96193,58.62218"
       bendpath4="M -201.67979,-73.696954 144.53056,496.40088"
       bendpath3-nodetypes="cc"
       bendpath2-nodetypes="cc"
       bendpath4-nodetypes="cc" />
    <inkscape:path-effect
       effect="envelope"
       id="path-effect6576-3"
       is_visible="true"
       yy="true"
       xx="true"
       bendpath1="m -141.94646,-110.10673 97.401874,0"
       bendpath2="m 39.390618,-106.25537 5.542683,695.51763"
       bendpath3="m -205.07411,516.44651 80.96193,58.62218"
       bendpath4="M -201.67979,-73.696954 144.53056,496.40088"
       bendpath3-nodetypes="cc"
       bendpath2-nodetypes="cc"
       bendpath4-nodetypes="cc" />
    <inkscape:path-effect
       effect="envelope"
       id="path-effect6576-1-3"
       is_visible="true"
       yy="true"
       xx="true"
       bendpath1="m -141.94646,-110.10673 97.401874,0"
       bendpath2="M -245.80538,-1.8572606 19.188253,564.4364"
       bendpath3="m -205.07411,516.44651 80.96193,58.62218"
       bendpath4="M -201.67979,-73.696954 144.53056,496.40088"
       bendpath3-nodetypes="cc"
       bendpath2-nodetypes="cc"
       bendpath4-nodetypes="cc" />
  </defs>
  <sodipodi:namedview
     inkscape:window-maximized="0"
     inkscape:window-y="1"
     inkscape:window-x="22"
     inkscape:window-height="807"
     inkscape:window-width="1382"
     showgrid="false"
     inkscape:current-layer="g5272"
     inkscape:document-units="px"
     inkscape:cy="372.04724"
     inkscape:cx="526.1811"
     inkscape:zoom="0.75354284"
     inkscape:pageshadow="2"
     inkscape:pageopacity="0.0"
     borderopacity="1.0"
     bordercolor="#666666"
     pagecolor="#ffffff"
     id="base" />
  <metadata
     id="metadata7">
    <rdf:RDF>
      <cc:Work
         rdf:about="">
        <dc:format>image/svg+xml</dc:format>
        <dc:type
           rdf:resource="http://purl.org/dc/dcmitype/StillImage" />
        <dc:title />
      </cc:Work>
    </rdf:RDF>
  </metadata>
  <g
     inkscape:label="Layer 1"
     inkscape:groupmode="layer"
     id="layer1"
     transform="translate(0,-308.26772)">
    <g
       id="g5272"
       transform="matrix(1.21,0,0,1.21,-115.69023,-123.75649)"
       inkscape:export-xdpi="200"
       inkscape:export-ydpi="200">
      <text
         sodipodi:linespacing="125%"
         id="text4484"
         y="441.80093"
         x="240.51886"
         style="font-style:normal;font-variant:normal;font-weight:500;font-stretch:normal;font-size:80px;line-height:125%;font-family:konstytucyja;-inkscape-font-specification:'konstytucyja Medium';text-align:start;letter-spacing:0px;word-spacing:0px;writing-mode:lr-tb;text-anchor:start;fill:#ffffff;fill-opacity:1;stroke:none;stroke-width:1px;stroke-linecap:butt;stroke-linejoin:miter;stroke-opacity:1;"
         xml:space="preserve"
         inkscape:export-xdpi="200"
         inkscape:export-ydpi="200"><tspan
           id="tspan5153"
           style="font-style:normal;font-variant:normal;font-weight:500;font-stretch:normal;font-size:90px;line-height:125%;font-family:konstytucyja;-inkscape-font-specification:'konstytucyja, Medium';text-align:start;writing-mode:lr-tb;text-anchor:start;fill:#ffffff;fill-opacity:1;"
           y="441.80093"
           x="240.51886"
           sodipodi:role="line">A Tale of a Journey </tspan></text>
      <text
         sodipodi:linespacing="125%"
         id="text4484-2"
         y="613.65656"
         x="184.35675"
         style="font-style:normal;font-variant:normal;font-weight:500;font-stretch:normal;font-size:80px;line-height:125%;font-family:konstytucyja;-inkscape-font-specification:'konstytucyja Medium';text-align:start;letter-spacing:0px;word-spacing:0px;writing-mode:lr-tb;text-anchor:start;fill:#ffffff;fill-opacity:1;stroke:none;stroke-width:1px;stroke-linecap:butt;stroke-linejoin:miter;stroke-opacity:1;"
         xml:space="preserve"
         inkscape:export-xdpi="200"
         inkscape:export-ydpi="200"><tspan
           id="tspan5153-3"
           style="font-style:normal;font-variant:normal;font-weight:500;font-stretch:normal;font-size:90px;line-height:125%;font-family:konstytucyja;-inkscape-font-specification:'konstytucyja, Medium';text-align:start;writing-mode:lr-tb;text-anchor:start;fill:#ffffff;fill-opacity:1;"
           y="613.65656"
           x="184.35675"
           sodipodi:role="line">on The Path of Learning </tspan></text>
      <text
         sodipodi:linespacing="125%"
         id="text4484-8"
         y="785.51215"
         x="277.69659"
         style="font-style:normal;font-variant:normal;font-weight:500;font-stretch:normal;font-size:80px;line-height:125%;font-family:konstytucyja;-inkscape-font-specification:'konstytucyja Medium';text-align:start;letter-spacing:0px;word-spacing:0px;writing-mode:lr-tb;text-anchor:start;fill:#ffffff;fill-opacity:1;stroke:none;stroke-width:1px;stroke-linecap:butt;stroke-linejoin:miter;stroke-opacity:1;"
         xml:space="preserve"
         inkscape:export-xdpi="200"
         inkscape:export-ydpi="200"><tspan
           id="tspan5153-30"
           style="font-style:normal;font-variant:normal;font-weight:500;font-stretch:normal;font-size:90px;line-height:125%;font-family:konstytucyja;-inkscape-font-specification:'konstytucyja, Medium';text-align:start;writing-mode:lr-tb;text-anchor:start;fill:#ffffff;fill-opacity:1;"
           y="785.51215"
           x="277.69659"
           sodipodi:role="line">by Trial and Fear </tspan></text>
      <text
         sodipodi:linespacing="125%"
         id="text4484-23"
         y="957.36774"
         x="294.30792"
         style="font-style:normal;font-variant:normal;font-weight:500;font-stretch:normal;font-size:80px;line-height:125%;font-family:konstytucyja;-inkscape-font-specification:'konstytucyja Medium';text-align:start;letter-spacing:0px;word-spacing:0px;writing-mode:lr-tb;text-anchor:start;fill:#ffffff;fill-opacity:1;stroke:none;stroke-width:1px;stroke-linecap:butt;stroke-linejoin:miter;stroke-opacity:1;"
         xml:space="preserve"
         inkscape:export-xdpi="200"
         inkscape:export-ydpi="200"><tspan
           id="tspan5153-4"
           style="font-style:normal;font-variant:normal;font-weight:500;font-stretch:normal;font-size:90px;line-height:125%;font-family:konstytucyja;-inkscape-font-specification:'konstytucyja, Medium';text-align:start;writing-mode:lr-tb;text-anchor:start;fill:#ffffff;fill-opacity:1;"
           y="957.36774"
           x="294.30792"
           sodipodi:role="line">to Brew a Beer</tspan></text>
    </g>
  </g>
</svg>
